<?xml version="1.0" encoding="UTF-8"?>
<svg version="1.1" viewBox="0 0 2000 2000" width="1280" height="1280" xmlns="http://www.w3.org/2000/svg">
<path transform="translate(1016,273)" d="m0 0 5 1 5 7 14 34 14 36 4 2 36 6 24 6 36 12 25 11 25 13 26 16 13 10 12 9 13 11 15 14 17 17 7 8 12 15 12 16 11 17 8 13 13 24 8 17 9 23 10 31 8 35 4 27 2 27v36l-2 24-4 27-7 30-8 26-9 24-2 4 1 5 13 15 20 25 13 18 7 12 1 3v8l-6 1-68-9-24-3-11 14-8 10-15 16-6 7-8 7-7 7-11 9-13 11-19 13-14 9-23 13-23 11-23 9-21 7-30 8-36 6-19 2-18 1h-22l-34-2-28-4-27-6-24-7-28-10-29-13-22-12-20-13-17-12-16-13-15-13-21-21-9-11-9-10-8-11h-7l-27 5-24 3-22 1-10-3 1-7 10-13 26-34 11-14 2-5-7-15-10-26-8-27-6-27-5-35-1-16v-45l3-29 4-25 8-33 12-34 12-28 9-17 16-27 11-15 12-16 12-14 11-12 20-20 11-9 13-11 17-12 18-12 24-13 16-8 23-10 27-9 32-8 22-4 24-3 5-2 12-30 13-31 7-13zm1 27-3 4-11 27-15 36-14 36 2 10 6 9 13 16 4 8 1 4v9l-3 10-4 8-10 14-12 13-8 8-9 14-5 16-3 22-2 45-3 10-6-2-20-11-48-28-28-16-22-13-28-16-24-14-23-13-7-4-6 11-11 19 1 4 21 12 95 55 17 10 25 14 15 9 26 15 22 13 3 3 2 12v19l-2 8-7 6-13 8-10 4-7-1-25-14-15-9-28-16-24-14-26-15-28-16-22-13-28-16-23-13-3-2h-3l-12 22-5 8v2l16 9 24 14 28 16 24 14 52 30 48 28 10 7v3l-5 5-11 8-14 8-19 13-13 11-8 8-6 9-14 42-7 14-7 9-9 6-7 2-16-1-23-3-7 2-5 5-11 13-8 11-11 14-21 27-10 13-5 7v1l12-1 87-12 14-3 6-5 4-8 7-19 4-8 3-3v-2l4-2 9-4 5-1h16l19 3 25 5h21l16-4 25-13 22-13 8-4 7 1 1 1 1 233 3 1h34l1-262 4-5 11-7 15-7 8 1 16 8 11 8 2 2 1 240v21l1 1h36l1-231 1-4 10 1 12 5 16 9 16 10 13 5 14 3h15l14-2 21-5 7-1h24l10 4 5 4 8 13 8 21 6 8 4 3 48 7 58 8h5l-2-5-9-11-26-34-14-18-13-17-7-6-5-2h-9l-20 4h-13l-10-5-7-7-8-14-8-20-7-20-8-16-8-10-8-7-16-10-26-15-12-8v-8l4-2 23-13 15-9 26-15 17-10 23-13 22-13 28-16 43-25-2-6-12-22-3-4-5 1-22 13-26 15-28 16-48 28-28 16-24 14-21 12-20 12-6 2-12-4-11-6-9-7-3-4v-34l1-4 5-2 72-42 25-14 22-13 26-15 24-14 21-12 19-11 11-6-1-7-14-24-3-2-16 9-30 18-22 13-28 17-41 24-24 14-23 13-13 5-7 1-4-5-1-4v-52l-3-14-6-16-6-10-9-11-13-13-11-15-5-10-2-12 2-10 6-10 12-14 4-6 2-6v-7l-6-16-13-32-12-29-10-25z"/>
<path transform="translate(862,1300)" d="m0 0 120 1 1 463-1 2h-75l-1-1-1-336-6 36-12 74-6 35-15 92-13 80-3 18-1 2h-68l-2-5-25-153-19-116-9-57v-5h-2v334l-1 2h-75l-1-1v-462l1-2h121l2 6 11 69 15 93 14 84 3 19 3-5 7-45 13-78 18-111 5-30z"/>
<path transform="translate(1363,1301)" d="m0 0h92l1 5v154l-1 3h100v-162h92l1 1v463l-1 1-88 1-4-1v-188h-99v186l-1 2-88 1-4-1-1-329v-56z"/>
<path transform="translate(979,231)" d="m0 0h69l26 2 29 4 30 6 24 6 29 9 28 11 29 13 25 13 17 10 17 11 17 12 12 9 14 11 14 12 15 14 27 27 9 11 8 9 11 14 11 15 16 24 12 20 15 28 13 29 9 24 10 30 9 36 5 27 4 30 2 24v62l-4 41-5 29-7 30-9 31-9 26-5 13-7 15-11 23-13 23-10 17-8 12-12 17-12 16-11 13-10 11-7 8-9 10-9 9h-2v2h-2v2l-8 7-10 9-11 9-14 11-13 10-15 10-19 12-19 11-27 14-25 11-27 10-24 8-27 7-29 6-28 4-36 3h-59l-32-3-28-4-25-5-20-5-20-6-21-7-30-12-34-16-23-13-24-15-18-13-12-9-14-11-10-9-8-7-12-11-21-21-7-8-9-10-11-14-10-13-12-17-11-17-14-24-14-27-12-27-10-27-8-24-9-36-6-34-4-35-1-14v-56l3-35 6-38 6-27 8-28 10-29 13-31 12-25 11-20 16-26 16-23 8-10 11-14 12-14 4-5h2l2-4 30-30 11-9 10-9 14-11 18-13 18-12 21-13 18-10 27-13 34-14 30-10 31-8 36-7 33-4zm5 27-32 3-27 4-24 5-23 6-36 12-30 12-30 15-13 7-15 9-27 18-12 9-16 13-11 9-26 24-22 24-18 22-20 28-15 24-6 11-10 19-11 23-8 19-12 36-10 40-4 22-3 20-3 31v58l4 40 6 34 9 36 12 36 10 24 14 29 9 17 12 20 8 12 12 17 14 18 12 14 22 24 10 10 8 7 10 9 11 9 14 11 18 13 17 11 15 9 24 13 27 13 31 12 39 12 32 7 31 5 18 2 37 2h15l38-2 32-4 26-5 32-8 29-9 28-11 24-11 23-12 24-14 22-15 21-16 11-9 21-18v-2l4-2 16-16v-2h2l7-8 9-10v-2h2l11-14 13-17 12-18 10-16 12-21 13-26 14-34 12-36 7-28 7-39 4-37v-66l-3-29-5-32-7-31-8-27-9-26-12-28-12-25-14-25-20-30-14-19-9-11-9-10-7-8-9-10-20-20-11-9-10-9-14-11-15-11-24-16-24-14-27-14-28-12-37-13-29-8-28-6-36-5-26-2z"/>
<path transform="translate(408,1301)" d="m0 0h101l4 15 14 57 25 105 17 71 12 50 21 87 18 75v5l-7 1h-87l-3-3-8-38-6-32v-4h-104l-1 11-12 62-2 3-87 1-7-1 2-10 19-79 17-70 14-59 13-54 12-50 20-83 14-58zm48 124-3 19-12 62-10 51-6 31h64l-2-13-21-108-7-37-2-5z"/>
<path transform="translate(1124,1300)" d="m0 0 99 1 2 3 9 40 13 53 28 118 14 58 12 50 12 51 14 57 8 32-1 3-4 1h-91l-2-2-10-51-4-24h-103l-2 12-7 36-5 25-2 3-83 1-10-1-1-2 10-40 15-63 14-58 12-50 14-58 17-70 13-56 14-57 3-11zm48 126-4 14-15 76-13 68-1 4 64 1-1-10-16-82-12-65-1-6z"/>
<path transform="translate(1792,1300)" d="m0 0 98 1 2 2 14 60 19 79 14 58 14 60 14 57 17 71 12 50 2 8 2-1v21l-92 1-3-1-7-33-6-33-1-3v-7h-104l-4 24-10 51-1 1-90 1-4-1 1-8 9-37 13-55 13-53 16-66 15-64 14-57 20-83 9-38 2-4zm46 125-4 21-11 57-14 73-2 13 63-1-1-10-15-79-14-70z"/>
<path transform="translate(1,1301)" d="m0 0h103l4 9 15 39 14 36 15 40 11 28h2l7-20 11-28 15-40 11-28 10-26 3-9 1-1h102l-3 9-9 21-18 43-13 30-9 21-16 38-36 84-10 24-1 194-1 1h-92l-1-194-5-13-78-182-23-54-9-21z"/>
<path transform="translate(1015,532)" d="m0 0 9 2 7 4 8 9 5 12 2 11 1 25-2 45-2 3-11 6-13 8-6-1-14-8-10-7-1-2-1-27v-36l2-15 5-13 7-9 10-6z"/>
<path transform="translate(908,777)" d="m0 0 6 1 19 11 5 3 1 2v30l-4 4-16 10-19 12-17 9-17 6-10 2h-10l-8-3-8-8-3-10 1-9 5-10 3-4h2v-2h2v-2l11-9 15-10 26-14z"/>
<path transform="translate(1121,776)" d="m0 0 5 2 25 13 21 12 14 10 12 11 6 9 3 9-2 10-6 9-8 5-4 1h-10l-14-3-18-8-17-9-23-15-9-6-2-4v-27l2-4 11-6 12-7z"/>
<path transform="translate(1014,716)" d="m0 0 6 1 18 10 6 4 1 2v29l-5 5-14 8-9 5-14-7-14-9v-32l5-4 17-10z"/>
<path transform="translate(724,1431)" d="m0 0"/>
<path transform="translate(1297,504)" d="m0 0"/>
</svg>


