<?xml version="1.0" encoding="UTF-8"?>
<svg version="1.1" viewBox="0 0 2048 712" width="1280" height="1280" xmlns="http://www.w3.org/2000/svg">
<path transform="translate(1189,207)" d="m0 0h15l19 2 25 6 22 10 11 8 10 8 10 10 8 11v2h2l10 19 7 18 6 29 2 21v15l-1 13-199 1 3 17 6 16 7 10 8 7 15 8 7 2 11 1h15l13-2 16-8 9-11 5-11h83l1 2-6 17-11 20-9 11-7 8-14 11-3 3-11 6-22 9-25 5-23 2h-10l-22-2-20-4-22-8-17-10-12-9-5-5-6-7-5-5-9-14-7-12-7-20-3-12-3-17-1-10v-29l3-21 4-17 8-20 9-16 11-13 7-8 14-12 17-10 15-6 4-2 23-5zm3 58-16 3-12 5-10 8-6 7-6 10-6 18-1 6h119v-9l-5-15-4-8-8-10-10-7-15-6-13-2z" fill="#f00"/>
<path transform="translate(750,215)" d="m0 0h78v104h119v-103l1-1h77v281h-77l-1-1v-111h-119v112h-78z" fill="#f00"/>
<path transform="translate(1686,207)" d="m0 0h16l19 2 26 6 20 9 16 10 13 12 12 12 8 13 8 15 8 24 4 25v40l-4 25-5 16-7 16-7 12-8 11-9 10-10 9-14 9-4 1v2l-8 4-17 6-6 2-24 4-14 1h-10l-21-2-18-3-12-4-12-5-19-11-10-8-16-16-9-14-7-12-9-25-2-11-3-20v-34l3-20 4-17 8-21 10-17 3-1 2-5 12-13 8-7 9-7 14-8 20-8 23-5zm3 60-12 2-11 4-11 8-9 9-8 15-6 20-2 13-1 20 2 22 5 19 3 8 8 14 9 10 14 8 4 2 11 2h18l14-3 15-9 9-10 9-16 5-18 3-20v-24l-3-20-4-15-8-16-9-11-14-9-14-4-7-1z" fill="#f00"/>
<path transform="translate(212,169)" d="m0 0 7 4 4 3v2l4 2 16 11 13 10 18 13 9 7 18 13 28 21 3 2v362l-7-4-18-13-12-9-14-10-5-4-17-12-11-8-16-12-16-11-4-4z" fill="#f00"/>
<path transform="translate(1487,209)" d="m0 0h29l19 3 6 2v65l-14-2h-15l-18 3-11 4-11 7-9 8-6 10-4 8-4 20-1 8-1 20-1 131h-78v-155l1-24 4-19 4-13 7-16 12-18 14-14 10-7 11-7 21-8 20-4z" fill="#f00"/>
<path transform="translate(420,93)" d="m0 0 5 1 13 10 14 10 13 10 17 12 6 5 18 13 10 7v2l4 2 16 11 5 4v83l-12 8-14 10-15 10-11 8-12 8h-2v2l-15 10-10 7-16 11-12 8h-2z"/>
<path transform="translate(539,368)" d="m0 0h2v174l-11-7-15-11-8-6-18-13-11-8-18-13-9-6v-2l-4-2-19-13-8-6 4-4 28-20 10-7 12-9 10-7 14-10 8-6 13-9 4-3h2v-2z"/>
</svg>
