<?xml version="1.0" encoding="UTF-8"?>
<svg version="1.1" viewBox="0 0 2048 523" width="1280" height="1280" xmlns="http://www.w3.org/2000/svg">
<path transform="translate(1819,101)" d="m0 0h1l5 40 14 14 7 8 45 45-2 5-10 12h-45l-1-11-12-7-14-5-5-1h-15l-13 4-8 6-4 5-2 5v7l4 9 8 10 12 10 18 12 23 13 20 14 22 15 17 12 19 14 18 14 16 13 13 11 12 11 17 17 8 11-3 1-32-7-25-5 1-3h2v-7l-5-5-10-9-13-9-16-9-20-9-27-8-36-8-23-3h-40l-20 4-15 6-11 7-3 3-4-2-16-13-9 1-20 5-26 4-10 1h-41l-23-3-25-6-24-8-18-8-6-3-5 1-12 7-19 7-29 6-15 2-13 1h-44l-32-2-18 14-20 13-23 13-23 11-16 6-28 8-22 4-7 1h-46l-22-4-16-5-6-2v-2l54-13 5-1v12l21-2 18-4 19-7 21-11 16-11 13-11 10-9 14-14 9-11 8-10 10-2 11-4 12-8 12-11 9-9 11-14 12-17 12-19 10-13 11-9 16-8 14-3h23l20 4 18 6 24 11 12 5 21 5 14 2h23l22-4 21-7 17-8 11-7 18-14 16-12 18-14 16-12 19-11 17-8 18-5 15-2 25 1 11 2 12-13z" fill="#DC431A"/>
<path transform="translate(405,112)" d="m0 0h160l-4 18-9 35-1 1-28 1v152l3-3 16-28 14-24 10-18 10-17 13-23 14-24 7-13v-2h-27l1-7 14-46 1-2h144l-7 11-12 20-14 22-60 96-12 19-13 21-12 19-15 24-12 19-30 48-3 4h-121l-2-29-1-21-2-23-2-30-3-46-5-75-1-24h-24l-1-2 8-30z" fill="#173983"/>
<path transform="translate(877,107)" d="m0 0h37l27 2 42 6 4 2-9 20-7 21-5 24-2 19h-57l-1-13v-11l-14-2h-23l-10 3-8 5-4 6-1 3v12l3 6 7 7 16 10 27 13 14 9 14 11 10 11 7 12 3 10v7l1 9-2 15-4 15-8 16-8 11-17 17-16 11-17 9-16 6-21 6-16 3-25 3h-40l-21-2-18-2-26-5-15-4 4-17 18-67 1-3h61l1 1v29l12 1h28l13-4 10-6 4-4 3-6v-13l-3-6-7-7-14-9-27-14-15-9-10-8-12-12-8-13-4-13-1-4v-16l3-17 6-16 7-12 13-15 14-11 13-8 17-8 21-7 19-4z" fill="#173983"/>
<path transform="translate(75,112)" d="m0 0h307l-16 62-9 34-1 1h-64l1-21 1-10h-30l-1 9-21 87-17 71-3 16 43-1-2 11-11 42-1 2h-185l1-7 11-42 2-6 38 1 4-18 18-75 12-49 10-41h-33l-1 5-11 25-5 1h-62l3-12 18-71z" fill="#173983"/>
<path transform="translate(1713,64)" d="m0 0h33l19 3 17 5 16 8 11 9 4 6-13 14-1 2-9-2-19-4h-30l-16 3-18 6-23 12-13 9-16 13-18 13-20 13-24 13-20 8-18 5-7 1h-19l-13-3-1-2 19-1 14-3 12-5 11-6 9-7 10-9 11-12 4-6 1-3h-20l6-7 10-9 15-10 15-8 10-3-9-11v-3l13-9 16-8 18-6 24-5z" fill="#DC441B"/>
<path transform="translate(1166,139)" d="m0 0h20l16 4 16 8 11 7 11 9 14 8 13 5 7 2h28l18-5 16-7 5-1h25l14 4 11 5v1l-15 1-15 4-19 7-24 11-38 19-9 2h-15l-12-4-12-7-12-11-11-9-14-8-11-5v-1l11-2 5-2v-4l-6-5-13-4-13-2-37-2 5-5 14-8 11-4z" fill="#DC441B"/>
</svg>
