<?xml version="1.0" encoding="UTF-8"?>
<svg version="1.1" viewBox="0 0 2048 704" width="1280" height="1280" xmlns="http://www.w3.org/2000/svg">
<path transform="translate(325,172)" d="m0 0h10l14 5 15 7 24 11 36 16 28 13 14 6 45 21 14 7 4 5 2 4v10l-4 6-5 4-21 10-15 7-37 17-25 11-24 11-16 7-2 2 28 13 49 22 20 9 26 12 16 7 8 7 2 4v11l-4 6-10 7-16 7-41 19-18 8-40 18-13 6-40 18-12 5h-14l-12-5-25-11-15-7-33-15-27-12-7-4 3-3 20-9 28-13 18-8 16-7 39-18 8-4 1-5-11-7-21-9-6-3h-6l-12 6-60 27-26 12-18 8-23 10h-2v-76l21-9 27-12 10-5-2-2-25-11-15-7-16-8v-75l9 3 28 13 18 8 67 30 15 7 7 3 14-6 26-12 1-5-3-3-19-9-29-13-31-14-26-12-20-9-5-3 1-2 23-10 15-7 28-13 36-16 13-6z" fill="#004DA8"/>
<path transform="translate(710,261)" d="m0 0h168l18 1 16 3 14 4 11 6 10 9 5 9 2 8v15l-4 11-6 8-8 7-16 8 15 8 10 8 6 9 3 11v16l-4 11-5 8-5 5-10 6-12 5-13 3-18 2h-177zm60 40v60l4-5 9-16 5-6 8-5 6-1 72-1 9-3 5-6v-8l-6-7-6-2zm0 65v70l3-3 11-19 7-7 9-3 72-1 10-5 4-4 2-4v-10l-4-7-5-4-5-2-6-1z" fill="#004DA8"/>
<path transform="translate(1528,261)" d="m0 0h76l10 16 14 23 12 20 14 22 6 11 10 16 9 15 11 18 9 14 6 11 8 13v2h-70l-6-10-12-21-101-1 2-5 11-20 10-11 9-3 45-1-15-27-14-24-6-10-9 15-12 21-11 19-14 24-13 23-8 13-6 11-4 7h-71l6-11 12-20 10-16 15-25 10-16 15-25 11-18 9-14 6-11 15-24z" fill="#004DA8"/>
<path transform="translate(1055,261)" d="m0 0h77l12 21 14 23 9 15 11 18 10 16 6 10 16 26 12 20 9 14 6 11 3 4v3h-70l-16-27-1-4-102-1 2-5 12-21 7-8 6-4 4-1 46-1-7-12-6-11-11-20-11-18-8 13-10 18-11 19-10 17-13 23-8 13-6 11-11 19h-71l6-11 16-26 12-20 9-14 5-9 11-18 13-21 21-35 10-16 6-10z" fill="#004DA8"/>
<path transform="translate(1367,261)" d="m0 0h59l1 1v136l-4 16-6 10-7 7-8 5-11 4-11 2h-114l-7-3-9-8-6-10-9-16v-2l114-1 10-4 5-5 2-7z" fill="#004DA8"/>
<path transform="translate(1840,261)" d="m0 0h59v142l-4 13-6 9-7 7-12 6-18 4h-113l-7-3-6-4-7-10-11-20-1-2 115-1 10-4 6-6 1-4z" fill="#004DA8"/>
</svg>
