<?xml version="1.0" encoding="UTF-8"?>
<svg version="1.1" viewBox="0 0 2048 2048" width="1280" height="1280" xmlns="http://www.w3.org/2000/svg">
<path transform="translate(2008,15)" d="m0 0h8l2 2-2 10-12 36-10 27-20 49-9 19-8 18-10 19-10 17-10 13-6 8-7 10-24 24-11 8-16 12-13 8-15 8-70 28-40 15-22 8-21 8-46 16-22 8-34 12-20 7-41 14-43 17-4 1-1 2h-3v-2l-5 4-8 1-8 3-10 3-20 7-42 15-24 9-33 11-42 15-15 5-33 12-43 15-76 27-20 7-29 10-16 6-71 25-28 10-9 3-37 13-20 7-72 26-33 11-78 28-41 14-24 9-21 7-7 3-8 2-16 6-51 18-16 6-29 10-41 14-30 11-15 5-19 7-26 9-42 15-40 14-36 13-41 14-20 8-13 7-13 8-15 15-8 13-4 10-2 8v19l3 10 3 9 9 15 12 16 7 7 9 7 23 23 8 7 10 9 6 5 5 6 8 7 11 10 8 7 21 21 8 6 25 25 10 8 10 9 7 7v2l4 2 8 8 9 6 9 10 17 17 12 9v2l4 2 19 19 8 6 26 26 7 6 10 8 23 23 9 7 25 25 5 4v4l-10 1h-150l-7-4-7-15-8-16-7-13-6-8-14-15-9-11-64-64-6-5-7-8-67-67-6-5-7-8-79-79-8-11-10-15-10-21-5-14-2-4-2-11-3-11v-43l4-17 8-21 10-18 9-11 12-14 11-9 13-10 14-9 14-8 17-9 19-8 24-10 13-5 30-12 26-11 30-12 22-9 13-5 8-3 8-4 16-6 36-15 18-7 21-9 16-6 19-8 16-6 19-8 73-30 60-24 19-8 30-12 21-9 31-12 41-17 34-14 33-13 21-9 16-6 41-17 32-13 30-12 34-14 50-20 56-23 22-9 25-10 24-10 36-14 26-11 30-12 11-5 18-7 10-4 32-13 24-10 21-8 24-10 30-12 22-9 21-9 25-10 26-11 19-8 20-9 21-9 45-20 17-8 22-9 17-8 49-22 13-6 29-13 46-22 21-9 16-8 19-9 15-7 36-18 16-7 16-8 25-12z" fill="#D91C34"/>
<path transform="translate(1866,367)" d="m0 0h7l-1 8-6 16-13 27-24 44-12 20-10 16-21 31-9 12-6 7h-2l-2 4-4 4h-2l-2 4-7 6-5 5-7 6-15 11-17 10-21 10-24 8-51 14-67 18-56 15-38 10-43 12-38 10-37 10-71 19-55 15-14 4-16 4-45 12-23 6-25 7-27 7-55 15-56 15-62 17-17 5-10 2-8 3-4 1-2 3h-4v-2l-13 3-5 2-16 4-42 11-36 10-33 9-43 11-29 8-34 9-10 4-5 8v6l4 9 2 2v4l-11 3-7 1-44 12-13 4-4 1-3-1-12 4-19 5-21 5-44 12-24 6-22 6-43 11-41 11-47 12-10 3-12 1-8-7v-2l-6-2-23-23-8-16-3-9-2-4 3-3 2-13 8-12 5-5 10-7 9-5 9-3 13-5 43-14 36-12 20-6 16-6 17-5 108-36 12-3 6-3 8-2 9-3 43-14 12-5 8-2 40-13 20-7 15-6 8-2 5-1 15-5 5-2 16-4 41-14 40-13 29-10 15-5 5 1v-2l7-3 21-6 35-12 9-3 49-16 45-15 7-2 35-12 20-6 108-36 13-4 27-9 16-5 120-40 19-6 9-3 11-4 12-3 10-4 17-5 102-34 16-5 14-5 17-5 81-27 40-13 41-14 44-15 29-11 15-5 20-8 16-6 19-8z" fill="#D91C34"/>
<path transform="translate(1700,675)" d="m0 0h7l1 4-6 11-9 15-10 16-7 10-11 16-8 12-8 11-7 9-9 11-4 5-6 8-4 4 4 3-9 4-23 23-14 10-14 9-16 8-16 6-16 5-7 1-3 2v-2l-4 2-3-1-5 2-13 2-1 1h-8l-3 2-12 2-1 1-11 1-1 2h-11l-12 3-6 2-4-1-3 3h-10l-5 2-11 1-4 2h-8l-5 2-7 1-6 2h-6l-5 2-9 2-15 2-10 2-13 2-13 3-5 1-21 4-28 6-19 3-8 2-13 3-6 1-5 1-8 1-15 3-3 1-7 1-12 2-18 4-23 4-10 2-16 4h-7l-5 2-16 3-7 2-4 1-5 1-5-2-3 2-9 2-5 1-11 2-29 6-18 3-10 2-9 2-11 2-32 6-24 5-15 3-12 2-14 3-12 2-4 1h-6l-5 2-22 5-5 5-2 4v9l2 5h2l4 4-1 3-9 2-9 1-13 3-24 5-5 1-7 1-37 7-11 2-7 1-9 3-18 4-9-1-2 4-10-1-16 4-2 2v3l-2-1v-4l-8 1-1 3-6-1-6 2-10 1-7 2h-6l-6 2-9 1-1 1-13 2-1 1-9 1-2 1-12 2-4 1h-6l-6 2-17 3-13 3-6 1-2 1-9 1-2 1-10 1-4 2h-8l-9 2-10 3h-5-3l-6 2-20 4-6 2-5-1-5 2h-9l-17-17-8-6-8-7-5-6-3-2v-2l-4-2-11-9-22-22-8-6 2-3 9-3 8-2 5-2 7-2 4-1 3 1 2-3h8l16-4 17-5 40-10 30-8 1-1 10-1 9-3 15-4 27-7 15-4 10-2 27-7 14-4 44-11 22-6 25-6 15-4 34-9 12-3 18-5 18-4 16-4 21-6 36-9 25-7 11-4 5 1v-2l5-2 8-2 5-2 8 1 16-4 5-2 14-3 26-7 55-14 30-8 32-8 27-7 7-2 52-13 25-7 25-6 59-15 10-3 9-2 23-6 93-24 44-11 29-8 60-15 57-15 13-3 15-4 24-6 15-4 27-7 12-3 18-5 41-10zm-878 224-2 2h3z" fill="#D91C34"/>
<path transform="translate(1514,934)" d="m0 0 6 1-1 7-8 10h-2l-2 6-11 11-6 8-7 8h-2l-2 5-11 12-7 7-4 6-40 40-8 6-11 8-14 9-4 3-5 1 1 4-1 2-3-1-1-2-9 5-26 9-12 3h-4l-4 1-7 2h-7l-5 2h-11l-5 2-4 1h-10l-1 1-18 2-7 2-6-1-5 3h-8l-9 2-12 1-4 2-8-1v2l-5 1-4-1-4 2h-9l-3 2-7 1-10-2 1 5h-4v-3l-7 1h-2v6l-3-1v-3l-8 1-2 5h-1l-1-5-5 2h-10l-9 2 1 4-1 2h-2v-6l-13 2-5 1-17 2-9 1-2 1-15 2-6 2-7-1-6 3h-11l-7 2-15 2-8 6-2 8 1 6 3 6v3l-11 2-7 2h-8l-1 1-13 1-6 2h-7l-11 1-10 2h-7l-8 2-17 1-8 2h-11l-7 2-11 1-7 2h-9l-6 2h-8l-9 2-19 1-9 2h-7-3l-14 3h-7l-10 2-8 1-10 1-9 1-2 1-17 1-6 2h-11l-5 2-19 1-8 2h-8l-5 2-8 1h-8l-1 1-14 1-7 2h-7l-4 1-4-1-3 2-10 1h-7l-4 2h-9l-11 1-5 2h-11l-8 2-12 1-10 2h-9l-6 2h-12l-5 2h-5l-7-6-6-4-30-30-8-6-16-16-9-7-6-3-4-6-15-15 3-3 4-2h8l5-3h8l2-2h9l5-3h11l9-2 6-2h9l2-2 11-1 6-2 11-2 4-1h7l6-2 10-1 1-1 9-2 9-1 5-1 2-1 10-1 2-2h10l6-2 9-1 10-2 4-1 3-12 5-6v3l-4 10-1 5 16-4 9-2 20-3 7-2 9-1 1-1 21-3 7-2 10-1 4-2h7l7-2 11-2 4-1h6l6-2 7-1 1-1 11-1 9-2 25-5 9-2 12-2 9-1 6-2 23-4 5-1h5l9-3h8l2-2h9l5-3h8l1-1 10-1 3-2 13-1 5-2h7l3-2 11-1 5-2 10-1 13-3 11-2 7-1 6-1 13-3 10-1 4-1 2-1 10-1 1-1 11-1 2-2 14-1 13-3 1-1h10l5-2 15-3 16-3 11-3 7-1 4-2 4 1 3 1 2-4 8 1 13-3h6v-3l3 1h9l1-2h8l7-2 11-2 23-4 4-2h8l7-2 18-3 5-2 16-2 11-2 1-1h9l3-2 10-1 13-3 28-5 1-1 10-1 7-2 9-1 9-2 1-1 13-1 7-2 7-1 3-2h8l4-2h11l16-5h9l6-2 20-3 6-2z" fill="#D91C34"/>
<path transform="translate(1009,1207)" d="m0 0h11l11 6 24 15 10 6 14 9 17 10 24 15 21 13 16 10 23 14 14 9 26 16 21 13 16 10 23 14 5 5v3l-20 1-351 1-3 3-2-3-337-1-5-3-8-8-8-6-25-25-6-4-9-9-3-2v-2l-4-2-9-9-8-6-27-27 3-2 16-1 6-2 15-1 1-1 18-1 7-2 15-1 3-1 19-1 6-2h14l6-2 15-1 5-2h17l4-2 18-1 11-2h8l5-2 20-1 20-3 5-1h10l16-3h8l8-2h11l6-2 22-1 2-1 16-2 1-1 18-1 4-1 19-1 8-2 13-1 15-2 9-1 21-2 4-1 15-1 8-2 18-2 16-1 4-2h15z" fill="#D91C34"/>
<path transform="translate(49,1637)" d="m0 0h134l11 1 1 1v29l-1 1-9 1-2 1-20 2-10 5-3 5-1 23-2 5 1 14 1 4h141v-24l-1-9 1-3v-7l-5-9-9-4-4-1-16-1-1-1-10-1-1-1v-27l2-3 49-1h131l4 4v27l-1 1-8 1-1 1-15 1-14 4-6 5-1 28v77l2 7h-2v22l2 10 3 5 13 4 14 1 6 2 7 1 1 1v27l-2 3h-182l-2-4v-28l3-1 7 1 8-2 14-2 7-2 5-5 2-7v-26l-2-2 3-14-142 1-2 9 7 7-2 1-5-3v17l3 15 6 7 12 3 17 2 9 1 1 1v29l-2 2h-183v-31l12-2 21-3 8-4 4-7v-30l-3-1 3-4v-102l-5-8-9-4-5-1-16-1-10-2v-29l1-2z" fill="#D91D35"/>
<path transform="translate(826,1636)" d="m0 0 21 1h140l14 3 6 5 8 10 8 11 13 17 11 14 11 15 18 24 11 14 14 19 10 13 12 16 6 5 2 1-1-32-1-1-1-91-5-5-11-3-17-1-10-2v-29l5-3h142v15l-1 16-8 3-16 1-10 3-6 4-2 2-1 38-1 117h-2v33h-119l-9-4-10-10-6-8-7-9-10-13-14-19-11-14-16-21-11-15-16-21-10-13-10-14-5-6-2-1v85l4 9-4-1v27l3 7 7 4 5 2 17 1 7 2h6l1 2v27l-2 3h-145l-2-3v-29h8l4-2 16-1 11-3 6-6v-141l-5-8-15-4-12-1-12-3-1-1v-23l1-5z" fill="#D91D35"/>
<path transform="translate(1304,1637)" d="m0 0h182l7 2 21 1 22 4 20 6 18 8 12 7 15 12v2h2l6 8 9 14 7 17 4 14 1 2v29l-2 7-1 11-5 15-2 8h2l-1 3-5 2-12 17-11 11-17 11-15 7-22 7-14 3h-7l-6 2-23 1-4 2-236-1v-30l6-2 25-4 8-4 3-3 1-7v-133l-2-7-5-5-6-2-18-1-9-2-1-1v-28l1-2zm82 44-1 2v108l3 1h83v2l-88-1v31l1 1 52 1h32l5-2 11-1 15-6 6-4 7-7 6-13 4-14 1-10v-19l-2-4 1-7 1-5-4-17-5-12-4-6-5-5-5-4-13-6-6-1h-7l-5-2z" fill="#D91D35"/>
<path transform="translate(598,1629)" d="m0 0 58 1 9 2h10l9 2 16 2 20 5 19 6 16 7 24 16 12 11 8 10 9 17 8 27v40l-4 14-5 12-9 15-9 12-9 9-15 10-19 10-25 9-22 5-14 2-2 1-17 1-3-1-6 3h-60l-4-3-10 1h-9l-18-4-16-4-18-5-15-6-15-8-11-8-8-7-7-6-8-10-10-16-8-24-1-41-2-3v-24l2-1 1 20 1-1 6-17 10-19 8-10 12-12 18-12 14-7 20-8 10-2 10-3h5l5-2 16-2 21-2zm44 44-35 1-10 2-18 6-6 4-11 8-9 14-5 15-2 14-1 2-1 21 2 10 1 12 2 4 1 7 6 11 6 8 15 11 8 4 9 4h9l5 2h40l5-2 9-1 16-7 9-6 11-11 8-16 3-17 2-13v-15l-2-6v-12l-5-15-7-12-9-10-9-6-17-7-3-1h-9l-5-3z" fill="#D91C34"/>
<path transform="translate(1720,1637)" d="m0 0h139l17 3 5 4 13 18 9 14 12 18 13 20 10 16 29 43 9 15 10 15 15 22v2l4 2 9 4 3 1 15 1 5 2 9 1 2 1v29l-3 1h-196l-1-1v-30l2-1h8l5-2 15-1 7-4 3-4v-8l-4-8-8-8-1-4-22 1h-118l-3 1-6 12-5 9 1 7 4 4 5 2 27 3 1 1v29l-2 2h-145l-2-6 1-26h9l5-2 19-1 9-6 7-9 8-13 9-15 16-26 10-17 9-14 9-15 10-16 8-14v-7l-2-4-9-3-10-3-17-1-2-1-10-1-1-1 1-29 1-1zm82 51-5 5-6 11-8 13-18 30-4 7v2l2 1h85l-2-5-14-22-9-14-18-27z" fill="#D91D35"/>
<path transform="translate(48,1255)" d="m0 0 14 12 6 7 6 5 7 8 67 67 6 5v2l4 2 6 7 6 5 7 8 5 4 7 8 5 4 6 7 5 4 1 3-4-2-154-154z" fill="#E87A88"/>
<path transform="translate(1384,1789)" d="m0 0 1 2 86 1v2h-85l-2-1z" fill="#FEFEFE"/>
<path transform="translate(207,1414)" d="m0 0 7 5 7 8 5 4 6 7 6 5 7 8 2 3-4-2-36-36z" fill="#EC949F"/>
<path transform="translate(247,1454)" d="m0 0 7 6 4 3v2l4 2v2h2v2h2v2l4 2v2l4 2 7 8 2 4-7-6-29-29z" fill="#ED9AA5"/>
<path transform="translate(1245,1807)" d="m0 0 4 1v28h-2l-1-3z" fill="#FEFEFE"/>
<path transform="translate(1229,1605)" d="m0 0 6 3-1 28-2 1v-29l-3-1z" fill="#E87785"/>
<path transform="translate(1877,1608)" d="m0 0 5 3 10 13 11 18-1 2-14-21-7-9-4-4z" fill="#ED96A1"/>
<path transform="translate(1251,1606)" d="m0 0h2l-1 9-1 22h-2v-28z" fill="#F0A8B1"/>
<path transform="translate(1967,1741)" d="m0 0 4 4 11 17 9 15-1 2-13-20-10-16z" fill="#F4C5CB"/>
<path transform="translate(179,1386)" d="m0 0 3 1 7 8 5 4 6 7 5 4 1 3-4-2-23-23z" fill="#E87C8A"/>
<path transform="translate(438,1708)" d="m0 0h1l1 24-2 3-1-2v-24z" fill="#FAE6E9"/>
<path transform="translate(259,1339)" d="m0 0 4 2 15 15 1 3-4-2-16-16z" fill="#F2B6BE"/>
<path transform="translate(1913,402)" d="m0 0v3l-11 16-6 7h-2l2-4 10-13 6-8z" fill="#F3BEC5"/>
<path transform="translate(437,1505)" d="m0 0 4 2 16 16v2l-4-2-11-11v-2h-2v-2h-2z" fill="#F4C4CA"/>
<path transform="translate(269,1305)" d="m0 0 4 2 14 14 1 4-7-6-12-12z" fill="#F2B8BF"/>
<path transform="translate(405,1476)" d="m0 0 5 3 10 9 3 4-1 2-13-13-4-3z" fill="#FAEAEC"/>
<path transform="translate(1781,692)" d="m0 0v3l-7 11-8 10-1-2 8-11 7-10z" fill="#F2B5BD"/>
<path transform="translate(1045,1423)" d="m0 0 6 2 9 6 11 7-2 1-10-6-13-8z" fill="#FEFEFE"/>
<path transform="translate(501,1520)" d="m0 0 5 3 12 13-1 2-16-16z" fill="#F4C4CA"/>
<path transform="translate(333,1408)" d="m0 0 7 6 10 9 1 4-3-1-7-8-8-8z" fill="#FAE8EB"/>
<path transform="translate(1786,577)" d="m0 0 2 1-11 5-13 5-4-1 20-8z" fill="#FCF3F4"/>
<path transform="translate(1656,915)" d="m0 0 2 1-12 18-4 2 7-11z" fill="#EEA0AA"/>
<path transform="translate(1965,293)" d="m0 0 1 3-3 10-7 14-1-3 8-19z" fill="#F9E2E5"/>
<path transform="translate(1976,265)" d="m0 0 1 3-10 25-1-3z" fill="#F7D6DA"/>
<path transform="translate(477,1541)" d="m0 0 5 4v2l4 2 5 6h-3l-11-11z" fill="#F8DBDE"/>
<path transform="translate(1512,1770)" d="m0 0v3l-7 8-8 6-2-1 11-9z" fill="#FAE6E8"/>
<path transform="translate(225,1308)" d="m0 0 4 2 8 8 2 1v2h2l1 3-4-2-8-8-5-4z" fill="#FDF8F8"/>
<path transform="translate(1806,651)" d="m0 0v3l-8 14-5 5 2-5 10-16z" fill="#F4C2C8"/>
<path transform="translate(366,1440)" d="m0 0 4 1 13 13v2l-3-1-7-8-7-6z" fill="#F2B4BC"/>
<path transform="translate(368,1397)" d="m0 0 4 2 15 15-1 2-18-18z" fill="#FBEBED"/>
<path transform="translate(296,1373)" d="m0 0 4 2 7 8 6 6-1 2-16-16z" fill="#FAE5E8"/>
<path transform="translate(1925,1678)" d="m0 0 4 4 10 15-1 2-10-14-3-5z" fill="#EFA6AF"/>
<path transform="translate(436,1459)" d="m0 0 4 2 9 11 1 2-4-2-6-7-4-4z" fill="#ED99A4"/>
<path transform="translate(189,1273)" d="m0 0h2l7 8 6 7-4-2-8-7-3-4z" fill="#EFA6AF"/>
<path transform="translate(556,1097)" d="m0 0v3l-6 15h-1l1-10z" fill="#FEFEFE"/>
<path transform="translate(458,1656)" d="m0 0 1 2-11 20-1-3 10-18z" fill="#F9E4E6"/>
<path transform="translate(1489,1604)" d="m0 0 13 1 4 1v2l-14-1-4-2z" fill="#ED96A1"/>
<path transform="translate(340,1371)" d="m0 0 4 2 9 10 4 5-4-2-11-11z" fill="#FAEAEC"/>
<path transform="translate(1e3 1396)" d="m0 0 6 2 13 8 1 2-5-2-15-9z" fill="#FCF7F8"/>
<path transform="translate(169,1212)" d="m0 0 7 6 4 3 5 1v2l-7-1-9-8z" fill="#E97F8D"/>
<path transform="translate(1446,1188)" d="m0 0h3l-2 4-8 7h-2l1-3 7-6z" fill="#FAEAEC"/>
<path transform="translate(1589 1e3)" d="m0 0 2 1-16 16-2-1z" fill="#EFA7B0"/>
<path transform="translate(1748,735)" d="m0 0 1 3-9 9-3 1 2-4z" fill="#F9E3E6"/>
<path transform="translate(1877,1608)" d="m0 0 5 3 8 10-1 3-8-10-4-4z" fill="#F6CED3"/>
<path transform="translate(469,1490)" d="m0 0 7 6 6 5 2 4-4-2-11-11z" fill="#FEFEFE"/>
<path transform="translate(1467,1166)" d="m0 0 1 2-1 2h-2v2h-2v2h-2l-2 4-2 1 1-4 7-8z" fill="#FEFEFE"/>
<path transform="translate(472,1640)" d="m0 0h2l-2 4-3 3h-2l-1 3-4 1 6-7z" fill="#FEFEFE"/>
<path transform="translate(1548,1616)" d="m0 0 10 2 13 5-3 1-20-7z" fill="#F5C9CE"/>
<path transform="translate(1261,1558)" d="m0 0 5 1 2 2v3l-6-1z" fill="#F1B2BA"/>
<path transform="translate(1378,1254)" d="m0 0 3 1-4 4-8 5-2-1 5-4z" fill="#FEFEFE"/>
<path transform="translate(1024,831)" d="m0 0 3 1-17 6-4-1z" fill="#F7D8DC"/>
<path transform="translate(1692,1733)" d="m0 0 1 2-9 15-2 1 2-5z" fill="#FCF6F7"/>
<path transform="translate(1227,1536)" d="m0 0 5 2 10 6v3l-15-10z" fill="#FBEEF0"/>
<path transform="translate(240,1278)" d="m0 0 3 1 7 8 4 4-1 2-13-13z" fill="#FEFEFE"/>
<path transform="translate(1851,558)" d="m0 0 1 4-6 15-1-3 5-15z" fill="#EC909C"/>
<path transform="translate(535,1552)" d="m0 0 4 1 4 5 4 3v2l-4-2-8-7z" fill="#EC95A0"/>
<path transform="translate(208,1249)" d="m0 0 4 2 7 7-1 3-3-3v-2l-4-2z" fill="#FBEDEF"/>
<path transform="translate(1668,896)" d="m0 0 2 1-8 13-2 1 2-6z" fill="#FEFEFE"/>
<path transform="translate(1932,368)" d="m0 0 1 2-9 17-1-2z" fill="#FBEDEF"/>
<path transform="translate(142,1349)" d="m0 0 8 6 4 4-1 3-11-11z" fill="#E66F7E"/>
<path transform="translate(1734,749)" d="m0 0 2 1-7 8-4 1 2-3h2l2-4z" fill="#F9E4E7"/>
<path transform="translate(1349,724)" d="m0 0 2 1-12 5-7 1 3-2z" fill="#F8DBDE"/>
<path transform="translate(1686,785)" d="m0 0 2 1-15 8-2-1z" fill="#FEFEFE"/>
<path transform="translate(1844,577)" d="m0 0 1 3-7 14-1-3z" fill="#FEFEFE"/>
<path transform="translate(1944,342)" d="m0 0 1 3-7 15-1-3z" fill="#FEFEFE"/>
<path transform="translate(1479,1151)" d="m0 0h2l-2 4-7 6 1-4 5-5z" fill="#E98390"/>
<path transform="translate(1832,602)" d="m0 0 1 3-7 12-1-3z" fill="#F7D8DC"/>
<path transform="translate(1951,327)" d="m0 0 1 3-6 12-1-3z" fill="#F4C5CB"/>
<path transform="translate(1938,225)" d="m0 0 3 1-14 6-1-2z" fill="#F7D6DA"/>
<path transform="translate(657,1597)" d="m0 0 13 2v1h-10z" fill="#FEFEFE"/>
<path transform="translate(893,1405)" d="m0 0h11l-1 2h-11z" fill="#F0ABB4"/>
<path transform="translate(34,1044)" d="m0 0h2l-2 4-5 5-2-1z" fill="#E66E7D"/>
<path transform="translate(1603,988)" d="m0 0 1 2-5 7h-2l1-4z" fill="#FCF3F4"/>
<path transform="translate(1726,599)" d="m0 0 2 1-8 4-5 2-3-1z" fill="#FAE9EB"/>
<path transform="translate(965,1804)" d="m0 0 9 1v3l-9-3z" fill="#F1B2BA"/>
<path transform="translate(2e3 1792)" d="m0 0 11 7-1 2-9-6z" fill="#EFA7B1"/>
<path transform="translate(1628,1701)" d="m0 0h2l1 9h-2l-1-2z" fill="#F3BDC4"/>
<path transform="translate(1841,555)" d="m0 0 2 1-13 6v-3z" fill="#F8DDE1"/>
<path transform="translate(1991,222)" d="m0 0 1 4-4 12-1-4z" fill="#FAE8EA"/>
<path transform="translate(13,1804)" d="m0 0h9l-1 2-8 1z" fill="#FEFEFE"/>
<path transform="translate(642,1798)" d="m0 0 7 1v2l-6 1-2-1z" fill="#F4C5CB"/>
<path transform="translate(1664,1779)" d="m0 0 1 2-6 10h-2l2-5z" fill="#FEFEFE"/>
<path transform="translate(597,1440)" d="m0 0h9v2l-9 1z" fill="#FEFEFE"/>
<path transform="translate(669,1432)" d="m0 0 3 1-1 2h-9l1-2z" fill="#ED98A3"/>
<path transform="translate(1390,1244)" d="m0 0h3l-2 4-4 3-2-1z" fill="#F4C5CB"/>
<path transform="translate(1497,1120)" d="m0 0 2 1v9l-2 1z" fill="#F8DCDF"/>
<path transform="translate(1367,718)" d="m0 0 2 1-9 4-4-1 8-3z" fill="#F6D0D5"/>
<path transform="translate(2035,1804)" d="m0 0 9 1 4 2-11-1z" fill="#EE9EA8"/>
<path transform="translate(249,1804)" d="m0 0h7v2l-8 1-1-2z" fill="#F0AAB3"/>
<path transform="translate(827,1605)" d="m0 0h4l-2 4-3 1v-4z" fill="#FCF2F3"/>
<path transform="translate(450,1457)" d="m0 0h10l-1 2h-9z" fill="#EC929E"/>
<path transform="translate(504,1427)" d="m0 0h2l-1 3h-8v-2z" fill="#FEFEFE"/>
<path transform="translate(934,1401)" d="m0 0h10l-2 2h-9z" fill="#F8DADE"/>
<path transform="translate(1031,1206)" d="m0 0h2v2h2l-1 3h-4z" fill="#FEFEFE"/>
<path transform="translate(1122,1189)" d="m0 0 4 1-1 3-5-1v-2z" fill="#FEFEFE"/>
<path transform="translate(1491,1137)" d="m0 0h2l-2 4-2 2h-3l1-3z" fill="#FEFEFE"/>
<path transform="translate(1612,977)" d="m0 0v3l-4 5h-2l2-4z" fill="#F0AAB3"/>
<path transform="translate(1450,444)" d="m0 0h2l-1 3-6 3-3-1z" fill="#FEFEFE"/>
<path transform="translate(1254,1804)" d="m0 0h6l-2 2-8 1 1-2z" fill="#F7D8DC"/>
<path transform="translate(831,1804)" d="m0 0h4v2l-9 1 1-2z" fill="#F1B2BA"/>
<path transform="translate(185,1804)" d="m0 0 10 1v2l-9-1z" fill="#F5CBD1"/>
<path transform="translate(611,1798)" d="m0 0 4 1v2l-4 1-3-2z" fill="#FBF1F2"/>
<path transform="translate(1609,1654)" d="m0 0h2l4 8-1 2-5-8z" fill="#FEFEFE"/>
<path transform="translate(588,1598)" d="m0 0h7v2l-4 1-5-1z" fill="#EFA6AF"/>
<path transform="translate(1212,1527)" d="m0 0 6 2 5 5-5-2-6-4z" fill="#F9E4E7"/>
<path transform="translate(1140,1482)" d="m0 0 6 2 5 5-5-2-6-4z" fill="#F3BFC5"/>
<path transform="translate(405,1433)" d="m0 0 6 2 2 4-8-4z" fill="#FEFEFE"/>
<path transform="translate(773,1420)" d="m0 0h4v2l-9 1v-2z" fill="#F3BFC5"/>
<path transform="translate(597,1415)" d="m0 0h7v2l-7 1z" fill="#F9E4E7"/>
<path transform="translate(619,1412)" d="m0 0 2 2-1 1h-9l2-2z" fill="#E77382"/>
<path transform="translate(1024,1410)" d="m0 0 5 2 6 4-2 1-9-6z" fill="#FEFEFE"/>
<path transform="translate(915,1403)" d="m0 0h9l-1 2h-9z" fill="#FEFEFE"/>
<path transform="translate(1960,214)" d="m0 0 3 1-9 5-3-1z" fill="#FEFEFE"/>
<path transform="translate(1982,203)" d="m0 0 2 1-10 6-1-2z" fill="#FBF1F2"/>
<path transform="translate(1915,1662)" d="m0 0 4 4 3 5-1 2-6-9z" fill="#EC939E"/>
<path transform="translate(1161,1495)" d="m0 0 6 2 3 4-5-2z" fill="#F5C8CE"/>
<path transform="translate(1129,1475)" d="m0 0 6 2 3 4-5-2z" fill="#FEFEFE"/>
<path transform="translate(561,1444)" d="m0 0 4 2-1 1h-7v-2z" fill="#F3BBC2"/>
<path transform="translate(560,1420)" d="m0 0h4l-1 3h-6v-2z" fill="#F7D6DA"/>
<path transform="translate(852,1410)" d="m0 0h8l-1 2h-9z" fill="#F7D6DA"/>
<path transform="translate(654,1408)" d="m0 0h5l1 2-7 1z" fill="#F5C8CE"/>
<path transform="translate(709,1401)" d="m0 0h10l-3 2h-7z" fill="#F9E3E6"/>
<path transform="translate(962,1397)" d="m0 0 3 2-3 1h-6v-2z" fill="#F0AEB6"/>
<path transform="translate(731,1397)" d="m0 0h6l1 2-9 1v-2z" fill="#F9E3E6"/>
<path transform="translate(977,1396)" d="m0 0h7v2l-7 1z" fill="#FBF0F2"/>
<path transform="translate(1176,1180)" d="m0 0h4l-1 3h-6v-2z" fill="#F0AEB6"/>
<path transform="translate(982,1160)" d="m0 0h5v2l-7 1v-2z" fill="#FEFEFE"/>
<path transform="translate(1854,1804)" d="m0 0h5v2l-8 1v-2z" fill="#F7D3D8"/>
<path transform="translate(937,1798)" d="m0 0 10 3 1 2-5-1-6-3z" fill="#F4C5CB"/>
<path transform="translate(817,1718)" d="m0 0 2 2v5h-2l-1-6z" fill="#FBEFF1"/>
<path transform="translate(1073,1701)" d="m0 0 4 2 2 2-1 3-5-6z" fill="#E97E8C"/>
<path transform="translate(760,1625)" d="m0 0 4 1 5 5-5-2z" fill="#F2B7BE"/>
<path transform="translate(423,1436)" d="m0 0 5 1-1 2h-6v-2z" fill="#F4C5CB"/>
<path transform="translate(441,1434)" d="m0 0h5v3h-5z" fill="#F0A9B2"/>
<path transform="translate(810,1415)" d="m0 0h5l1 2-6 1z" fill="#FEFEFE"/>
<path transform="translate(1213,1302)" d="m0 0 4 1-1 2h-6v-2z" fill="#F9E1E4"/>
<path transform="translate(157,1244)" d="m0 0 4 2 2 5-6-4z" fill="#F2B7BE"/>
<path transform="translate(1345,1148)" d="m0 0 4 1-1 2h-6v-2z" fill="#F4C5CB"/>
<path transform="translate(1409,1136)" d="m0 0 6 1-2 2h-5z" fill="#EB8D99"/>
<path transform="translate(880,677)" d="m0 0 3 1-10 4-2-1z" fill="#F0A9B2"/>
<path transform="translate(1362,480)" d="m0 0 4 1-9 4-1-2z" fill="#FEFEFE"/>
<path transform="translate(1438,450)" d="m0 0 4 1-9 4-2-1 5-3z" fill="#FBEFF1"/>
<path transform="translate(591,1796)" d="m0 0 7 1 1 2-7-1z" fill="#EFA3AD"/>
<path transform="translate(505,1618)" d="m0 0 2 1-7 5-2-1z" fill="#FBEEF0"/>
<path transform="translate(579,1441)" d="m0 0 5 1-2 2-5-1z" fill="#F1B2BA"/>
<path transform="translate(684,1429)" d="m0 0h5v2l-7 1-1-2z" fill="#EFA3AD"/>
<path transform="translate(747,1422)" d="m0 0h5v2l-6 1-1-2z" fill="#FEFEFE"/>
<path transform="translate(875,1408)" d="m0 0h5v2l-7 1v-2z" fill="#F9DFE3"/>
<path transform="translate(1109,1192)" d="m0 0 5 1-1 2h-5z" fill="#EC949F"/>
<path transform="translate(1007,1156)" d="m0 0h4l-1 3h-5v-2z" fill="#F9DFE3"/>
<path transform="translate(21,1059)" d="m0 0h2l-2 5-4 4 2-5z" fill="#F6D0D5"/>
<path transform="translate(1276,1800)" d="m0 0 4 1-5 2h-5l2-2z" fill="#F6CDD2"/>
<path transform="translate(40,1800)" d="m0 0 4 1-5 2h-5l2-2z" fill="#F6CDD2"/>
<path transform="translate(327,1560)" d="m0 0 5 1v2h-5z" fill="#E87C8A"/>
<path transform="translate(460,1433)" d="m0 0h7v2h-7z" fill="#EB8D99"/>
<path transform="translate(706,1427)" d="m0 0 5 1-1 2h-5z" fill="#FEFEFE"/>
<path transform="translate(1225,1301)" d="m0 0h7v2h-7z" fill="#F6CDD2"/>
<path transform="translate(101,1177)" d="m0 0 2 3 2 5-3-1z" fill="#FEFEFE"/>
<path transform="translate(1202,1175)" d="m0 0h2v3h-6v-2z" fill="#F8DDE1"/>
<path transform="translate(1080,1139)" d="m0 0 4 2-1 3h-2z" fill="#F8DDE1"/>
<path transform="translate(1110,1134)" d="m0 0h2l-1 5h-3l1-4z" fill="#F6CDD2"/>
<path transform="translate(1012,972)" d="m0 0 4 1-5 2-4-1z" fill="#F3BDC4"/>
<path transform="translate(1815,634)" d="m0 0 1 3-4 6-1-2z" fill="#F6CDD2"/>
<path transform="translate(1637,1801)" d="m0 0h7l-1 2h-6z" fill="#F5C9CF"/>
<path transform="translate(286,1794)" d="m0 0 1 2-4 4-2-1z" fill="#FEFEFE"/>
<path transform="translate(705,1756)" d="m0 0 2 2-4 6-2-1z" fill="#EFA7B0"/>
<path transform="translate(809,1678)" d="m0 0 3 3v5l-3-4z" fill="#EC95A0"/>
<path transform="translate(805,1668)" d="m0 0 3 2 1 6-3-3z" fill="#FEFEFE"/>
<path transform="translate(1e3 1610)" d="m0 0 5 5-1 2-4-5z" fill="#FEFEFE"/>
<path transform="translate(708,1605)" d="m0 0 6 1 1 2-7-1z" fill="#FBECEE"/>
<path transform="translate(297,1505)" d="m0 0 5 5-1 2-4-5z" fill="#FBECEE"/>
<path transform="translate(1111,1464)" d="m0 0 4 1 4 4-5-2z" fill="#F2B8BF"/>
<path transform="translate(536,1447)" d="m0 0h7l-1 2h-6z" fill="#FEFEFE"/>
<path transform="translate(622,1437)" d="m0 0h6v2h-7z" fill="#EA8491"/>
<path transform="translate(480,1429)" d="m0 0h6v2h-7z" fill="#EA8491"/>
<path transform="translate(810,1389)" d="m0 0h6v2h-7z" fill="#F5C9CF"/>
<path transform="translate(134,1174)" d="m0 0 4 1 1 4-4-2z" fill="#F8DBDE"/>
<path transform="translate(1057,1144)" d="m0 0 3 1-1 4h-2z" fill="#F2B8BF"/>
<path transform="translate(593,1084)" d="m0 0h3l-1 3h-5z" fill="#F2B8BF"/>
<path transform="translate(1409,1077)" d="m0 0 5 1-1 2h-4z" fill="#EC95A0"/>
<path transform="translate(1567,1025)" d="m0 0 2 1-6 5-2-1z" fill="#F8DBDE"/>
<path transform="translate(1e3 974)" d="m0 0h2l-1 3-4 1v-3z" fill="#EFA7B0"/>
<path transform="translate(1761,720)" d="m0 0 2 1-5 6v-3z" fill="#FBECEE"/>
<path transform="translate(1394,709)" d="m0 0 4 1-5 2-4-1z" fill="#FBECEE"/>
<path transform="translate(1523,667)" d="m0 0 2 1-5 3-3-1z" fill="#FEFEFE"/>
<path transform="translate(1798,572)" d="m0 0 4 1-3 2h-5z" fill="#FEFEFE"/>
<path transform="translate(1936,360)" d="m0 0 1 3-4 5 1-5z" fill="#F5C9CF"/>
<path transform="translate(681,1600)" d="m0 0 7 1 1 2-7-1z" fill="#EB8D99"/>
<path transform="translate(568,1601)" d="m0 0h7l-3 2h-5z" fill="#E87A88"/>
<path transform="translate(473,1454)" d="m0 0h6l-1 2h-6z" fill="#EE9FA9"/>
<path transform="translate(727,1425)" d="m0 0h6l-1 2h-6z" fill="#F4C5CB"/>
<path transform="translate(832,1413)" d="m0 0h7l-3 2h-5z" fill="#F7D8DC"/>
<path transform="translate(696,1403)" d="m0 0h5v2h-7z" fill="#FEFEFE"/>
<path transform="translate(846,1384)" d="m0 0h6v2h-6z" fill="#FEFEFE"/>
<path transform="translate(889,1377)" d="m0 0 4 1v3h-3v-2l-2-1z" fill="#FAEBED"/>
<path transform="translate(1069,1200)" d="m0 0 4 1-1 2h-4z" fill="#F7D8DC"/>
<path transform="translate(1096,1195)" d="m0 0h3l-1 4-3-1z" fill="#FEFEFE"/>
<path transform="translate(1135,1188)" d="m0 0h4v2l-5 1z" fill="#FEFEFE"/>
<path transform="translate(1159,1183)" d="m0 0h5l-2 3h-3z" fill="#FEFEFE"/>
<path transform="translate(994,1158)" d="m0 0 3 1-2 2h-4v-2z" fill="#F4C5CB"/>
<path transform="translate(1316,1153)" d="m0 0h6l-1 2h-6z" fill="#EE9FA9"/>
<path transform="translate(1331,1151)" d="m0 0h3l-1 3h-4v-2z" fill="#FEFEFE"/>
<path transform="translate(1069,1144)" d="m0 0 4 1-1 2h-4z" fill="#FAEBED"/>
<path transform="translate(741,873)" d="m0 0 4 1-4 2-3-1z" fill="#FEFEFE"/>
<path transform="translate(1139,793)" d="m0 0 3 1-4 2-4-1z" fill="#FEFEFE"/>
<path transform="translate(1716,765)" d="m0 0 3 1-6 4 2-4z" fill="#FEFEFE"/>
<path transform="translate(1054,606)" d="m0 0 3 1-9 3 1-2z" fill="#FAEBED"/>
<path transform="translate(1128,576)" d="m0 0v3l-5 1v-2z" fill="#F1B2BA"/>
<path transform="translate(1853,464)" d="m0 0h2v3l-5 1z" fill="#F1B2BA"/>
<path transform="translate(1990,201)" d="m0 0h6l-1 2h-6z" fill="#FEFEFE"/>
<path transform="translate(50,1796)" d="m0 0h2v2l-3 2-3-1z" fill="#FEFEFE"/>
<path transform="translate(706,1744)" d="m0 0h2l-1 5h-2z" fill="#FEFEFE"/>
<path transform="translate(1621,1677)" d="m0 0h2l2 6-4-4z" fill="#FEFEFE"/>
<path transform="translate(1688,1605)" d="m0 0h5l1 2h-6z" fill="#F0ABB4"/>
<path transform="translate(495,1452)" d="m0 0 4 1-2 2h-3z" fill="#FEFEFE"/>
<path transform="translate(518,1425)" d="m0 0h6l-1 2h-5z" fill="#F7D4D9"/>
<path transform="translate(538,1422)" d="m0 0h5v2l-3 1-2-1z" fill="#FEFEFE"/>
<path transform="translate(325,1339)" d="m0 0 5 2-1 2-3-1z" fill="#FEFEFE"/>
<path transform="translate(1197,1304)" d="m0 0h2l-1 4-3-1z" fill="#F7D4D9"/>
<path transform="translate(1058,1201)" d="m0 0 2 1-1 3h-3z" fill="#F0ABB4"/>
<path transform="translate(1213,1172)" d="m0 0 4 2-5 1z" fill="#E9828F"/>
<path transform="translate(97,1171)" d="m0 0h2l2 6-4-4z" fill="#FEFEFE"/>
<path transform="translate(99,1130)" d="m0 0 1 4-1 2h-2l1-4z" fill="#ED97A2"/>
<path transform="translate(1463,1126)" d="m0 0 3 1-1 3-3-1z" fill="#FEFEFE"/>
<path transform="translate(1449,1069)" d="m0 0 2 1v3h-4v-2h2z" fill="#FEFEFE"/>
<path transform="translate(1497,1060)" d="m0 0 3 1-1 3-3-1z" fill="#E9828F"/>
<path transform="translate(1530,1049)" d="m0 0 2 1-5 3-3-1z" fill="#FEFEFE"/>
<path transform="translate(1542,1043)" d="m0 0 2 1-5 3-3-1z" fill="#FEFEFE"/>
<path transform="translate(1555,1034)" d="m0 0 2 1-4 4-2-1z" fill="#F7D4D9"/>
<path transform="translate(985,979)" d="m0 0h2v3l-5 1v-2z" fill="#FEFEFE"/>
<path transform="translate(1618,968)" d="m0 0h2l-2 4-2 1 1-4z" fill="#ED97A2"/>
<path transform="translate(836,893)" d="m0 0 4 1-2 2h-3z" fill="#F7D4D9"/>
<path transform="translate(832,840)" d="m0 0h4v2l-4 1z" fill="#F7D4D9"/>
<path transform="translate(1167,784)" d="m0 0 4 1-5 2-3-1z" fill="#ED97A2"/>
<path transform="translate(957,645)" d="m0 0 4 1-4 2-3-1z" fill="#ED97A2"/>
<path transform="translate(1820,624)" d="m0 0 1 2-3 6-1-3z" fill="#ED97A2"/>
<path transform="translate(1836,594)" d="m0 0 1 3-3 5-1-2z" fill="#FAE9EB"/>
<path transform="translate(1282,513)" d="m0 0 3 1-2 2-4-1z" fill="#F0ABB4"/>
<path transform="translate(553,1765)" d="m0 0 4 4-1 2-3-4z" fill="#F2BAC1"/>
<path transform="translate(1700,1720)" d="m0 0 1 2-3 5-1-2z" fill="#FEFEFE"/>
<path transform="translate(1625,1689)" d="m0 0h2l1 4-2 1z" fill="#F6D0D5"/>
<path transform="translate(737,1614)" d="m0 0 6 2 1 2-6-2z" fill="#F6D0D5"/>
<path transform="translate(1085,1605)" d="m0 0h5v2h-5z" fill="#F2BAC1"/>
<path transform="translate(425,1605)" d="m0 0h5v2h-5z" fill="#F2BAC1"/>
<path transform="translate(189,1605)" d="m0 0h5v2h-5z" fill="#F6D0D5"/>
<path transform="translate(1249,1549)" d="m0 0 6 4h-3l-3-2z" fill="#FEFEFE"/>
<path transform="translate(517,1448)" d="m0 0 3 1v2h-4z" fill="#F2BAC1"/>
<path transform="translate(645,1434)" d="m0 0h2v3h-4v-2z" fill="#FEFEFE"/>
<path transform="translate(791,1417)" d="m0 0h4v2h-6z" fill="#FEFEFE"/>
<path transform="translate(577,1417)" d="m0 0h5v2h-5z" fill="#FEFEFE"/>
<path transform="translate(637,1409)" d="m0 0 3 1v2h-4z" fill="#EB8D99"/>
<path transform="translate(829,1385)" d="m0 0h3v2l-5 1v-2z" fill="#E77684"/>
<path transform="translate(315,1349)" d="m0 0 3 1 1 4-4-3z" fill="#FEFEFE"/>
<path transform="translate(1293,1290)" d="m0 0h4v2l-4 1z" fill="#FEFEFE"/>
<path transform="translate(468,1289)" d="m0 0 3 1v2l-3 1-1-2z" fill="#FEFEFE"/>
<path transform="translate(128,1217)" d="m0 0h2l1 5-3-2z" fill="#FEFEFE"/>
<path transform="translate(1226,1170)" d="m0 0h3l-1 3h-3z" fill="#FEFEFE"/>
<path transform="translate(1268,1163)" d="m0 0 3 2-5 1v-2z" fill="#FEFEFE"/>
<path transform="translate(95,1161)" d="m0 0 3 1v3l-3-1z" fill="#FEFEFE"/>
<path transform="translate(1369,1144)" d="m0 0h4v2l-4 1z" fill="#F6D0D5"/>
<path transform="translate(97,1141)" d="m0 0 1 4-2 2-1-2z" fill="#FEFEFE"/>
<path transform="translate(1476,1124)" d="m0 0 3 2-5 1v-2z" fill="#FEFEFE"/>
<path transform="translate(1487,1121)" d="m0 0h4v2l-4 1z" fill="#F6D0D5"/>
<path transform="translate(10,1081)" d="m0 0 2 1-2 4-2-1z" fill="#FAE7E9"/>
<path transform="translate(1487,1063)" d="m0 0 3 1v2h-4z" fill="#FEFEFE"/>
<path transform="translate(993,976)" d="m0 0h3l-1 3h-3z" fill="#EFA3AD"/>
<path transform="translate(626,913)" d="m0 0h2l-1 3-4-1z" fill="#EFA3AD"/>
<path transform="translate(1683,871)" d="m0 0 1 2-3 5-1-2z" fill="#FEFEFE"/>
<path transform="translate(1e3 838)" d="m0 0h5l-2 2h-5z" fill="#E0495C"/>
<path transform="translate(1150,789)" d="m0 0h5l-3 2-4 1v-2z" fill="#FAE7E9"/>
<path transform="translate(1102,586)" d="m0 0 3 1-3 2-3-1z" fill="#EFA3AD"/>
<path transform="translate(1197,548)" d="m0 0 1 2-7 2 3-3z" fill="#FEFEFE"/>
<path transform="translate(1862,457)" d="m0 0h2l-1 4h-2z" fill="#EFA3AD"/>
<path transform="translate(1979,257)" d="m0 0 1 3-2 5-1-3z" fill="#FAE7E9"/>
<path transform="translate(2017,1800)" d="m0 0 4 2-4 1z" fill="#F1B2BA"/>
<path transform="translate(166,1801)" d="m0 0h5l1 2-6-1z" fill="#FEFEFE"/>
<path transform="translate(657,1797)" d="m0 0h6l-3 2h-3z" fill="#F9E4E7"/>
<path transform="translate(1672,1766)" d="m0 0 1 2-4 4 2-5z" fill="#F5CBD1"/>
<path transform="translate(1120,1762)" d="m0 0 3 1 1 4-4-4z" fill="#FEFEFE"/>
<path transform="translate(1961,1732)" d="m0 0 4 4-1 2-3-4z" fill="#FEFEFE"/>
<path transform="translate(1957,1726)" d="m0 0 4 4-1 2-3-4z" fill="#FEFEFE"/>
<path transform="translate(444,1682)" d="m0 0 1 3-3 4 1-5z" fill="#ED99A4"/>
<path transform="translate(719,1608)" d="m0 0 6 2-4 1-2-1z" fill="#E9808D"/>
<path transform="translate(1867,1605)" d="m0 0 5 1v1h-5z" fill="#E56777"/>
<path transform="translate(993,1604)" d="m0 0 4 2-4 1z" fill="#ED99A4"/>
<path transform="translate(493,1559)" d="m0 0 3 2v2h-3z" fill="#ED99A4"/>
<path transform="translate(322,1550)" d="m0 0 3 3-1 3z" fill="#FEFEFE"/>
<path transform="translate(676,1405)" d="m0 0 4 1-1 1h-5z" fill="#F1B2BA"/>
<path transform="translate(751,1396)" d="m0 0h4v2h-5z" fill="#FEFEFE"/>
<path transform="translate(793,1390)" d="m0 0 3 1v2l-4-1z" fill="#FEFEFE"/>
<path transform="translate(1245,1297)" d="m0 0h3l-1 3-3-1z" fill="#E9808D"/>
<path transform="translate(1261,1296)" d="m0 0h5l-1 2h-4z" fill="#FEFEFE"/>
<path transform="translate(733,1225)" d="m0 0h2l2 5-3-1z" fill="#FEFEFE"/>
<path transform="translate(121,1210)" d="m0 0h2l1 4-3-1z" fill="#E9808D"/>
<path transform="translate(1041,1205)" d="m0 0h5l-1 2h-4z" fill="#F9E4E7"/>
<path transform="translate(366,1200)" d="m0 0 2 1-4 2-3-1z" fill="#F5CBD1"/>
<path transform="translate(1147,1185)" d="m0 0h4v2h-5z" fill="#FEFEFE"/>
<path transform="translate(344,1181)" d="m0 0 4 1-1 1h-5z" fill="#FEFEFE"/>
<path transform="translate(1185,1178)" d="m0 0h5v2l-5-1z" fill="#F9E4E7"/>
<path transform="translate(1241,1168)" d="m0 0 3 1-1 2h-3z" fill="#F5CBD1"/>
<path transform="translate(1252,1165)" d="m0 0h4v2l-3 1z" fill="#E56777"/>
<path transform="translate(1279,1161)" d="m0 0h4v2h-5z" fill="#FEFEFE"/>
<path transform="translate(1293,1158)" d="m0 0h2l-1 3h-3v-2z" fill="#FEFEFE"/>
<path transform="translate(1305,1156)" d="m0 0 3 1-1 2h-3z" fill="#F9E4E7"/>
<path transform="translate(1032,1151)" d="m0 0 3 1-1 3-2-1z" fill="#FEFEFE"/>
<path transform="translate(1045,1148)" d="m0 0 3 1v2l-4-1z" fill="#FEFEFE"/>
<path transform="translate(1356,1146)" d="m0 0h3v2h-6z" fill="#FEFEFE"/>
<path transform="translate(1421,1133)" d="m0 0h3l-1 3-3-1z" fill="#E9808D"/>
<path transform="translate(1449,1128)" d="m0 0 2 1v2h-4v-2z" fill="#F5CBD1"/>
<path transform="translate(1398,1081)" d="m0 0h5l-1 2h-4z" fill="#FEFEFE"/>
<path transform="translate(1461,1068)" d="m0 0 3 1-1 2h-3z" fill="#F1B2BA"/>
<path transform="translate(1473,1064)" d="m0 0 3 1v2h-4z" fill="#E14E60"/>
<path transform="translate(777,1036)" d="m0 0h3v2l-4 1z" fill="#F5CBD1"/>
<path transform="translate(1597,881)" d="m0 0 3 1-1 3h-2z" fill="#F1B2BA"/>
<path transform="translate(1673,862)" d="m0 0h2l-1 4-2-1z" fill="#F5CBD1"/>
<path transform="translate(732,737)" d="m0 0 3 1-4 2-3-1z" fill="#FEFEFE"/>
<path transform="translate(1806,569)" d="m0 0 3 1-4 2-3-1z" fill="#F9E4E7"/>
<path transform="translate(1414,460)" d="m0 0 3 1-4 2-3-1z" fill="#FEFEFE"/>
<path transform="translate(1750,1804)" d="m0 0 5 1v1h-6z" fill="#FEFEFE"/>
<path transform="translate(269,1801)" d="m0 0h5l-2 2h-3z" fill="#FEFEFE"/>
<path transform="translate(561,1777)" d="m0 0 3 2v2l-3-1z" fill="#EB8D99"/>
<path transform="translate(1090,1723)" d="m0 0 4 2v2h-2z" fill="#F9E1E4"/>
<path transform="translate(813,1697)" d="m0 0h3v3l-3-1z" fill="#F4C5CB"/>
<path transform="translate(812,1686)" d="m0 0 3 4h-3z" fill="#FEFEFE"/>
<path transform="translate(1059,1682)" d="m0 0 4 3-1 2-3-3z" fill="#F4C5CB"/>
<path transform="translate(1037,1652)" d="m0 0 3 2v2l-3-1z" fill="#F0A9B2"/>
<path transform="translate(726,1611)" d="m0 0 5 1-4 1z" fill="#FEFEFE"/>
<path transform="translate(773,1393)" d="m0 0 4 1-5 1z" fill="#F9E1E4"/>
<path transform="translate(313,1341)" d="m0 0h4v2h-4z" fill="#FEFEFE"/>
<path transform="translate(301,1321)" d="m0 0 3 1v2h-3z" fill="#F0A9B2"/>
<path transform="translate(482,1310)" d="m0 0h5l-3 2-3-1z" fill="#FEFEFE"/>
<path transform="translate(441,1294)" d="m0 0h2v4h-2z" fill="#FEFEFE"/>
<path transform="translate(167,1255)" d="m0 0 4 2v2h-2z" fill="#F0A9B2"/>
<path transform="translate(147,1192)" d="m0 0 3 2v2l-3-1z" fill="#FEFEFE"/>
<path transform="translate(2,1172)" d="m0 0 4 1-5 1z" fill="#FEFEFE"/>
<path transform="translate(1,1161)" d="m0 0 2 1v3l-3-1z" fill="#F9E1E4"/>
<path transform="translate(1381,1141)" d="m0 0 4 1-5 1z" fill="#F4C5CB"/>
<path transform="translate(1435,1132)" d="m0 0h4v2h-4z" fill="#F9E1E4"/>
<path transform="translate(565,1092)" d="m0 0h2v3h-3z" fill="#FEFEFE"/>
<path transform="translate(250,1085)" d="m0 0h2v2l-5 1z" fill="#FEFEFE"/>
<path transform="translate(1423,1076)" d="m0 0h4v2h-4z" fill="#FEFEFE"/>
<path transform="translate(921,996)" d="m0 0h2v3h-3z" fill="#FEFEFE"/>
<path transform="translate(145,975)" d="m0 0 3 1-6 2z" fill="#FEFEFE"/>
<path transform="translate(1511,905)" d="m0 0h4v2h-4z" fill="#F9E1E4"/>
<path transform="translate(1589,884)" d="m0 0 2 2-4 1v-2z" fill="#F0A9B2"/>
<path transform="translate(1607,880)" d="m0 0 4 1-5 1z" fill="#FEFEFE"/>
<path transform="translate(1653,868)" d="m0 0 3 1v2h-3z" fill="#F4C5CB"/>
<path transform="translate(757,868)" d="m0 0 3 1-4 2z" fill="#FEFEFE"/>
<path transform="translate(949,855)" d="m0 0h3l-1 3h-2z" fill="#FEFEFE"/>
<path transform="translate(967,849)" d="m0 0 2 2-4 1v-2z" fill="#FEFEFE"/>
<path transform="translate(1314,736)" d="m0 0 4 1-6 2v-2z" fill="#FEFEFE"/>
<path transform="translate(781,717)" d="m0 0 2 1-3 2-3-1z" fill="#FEFEFE"/>
<path transform="translate(1487,679)" d="m0 0 2 1-3 2-3-1z" fill="#FEFEFE"/>
<path transform="translate(1529,665)" d="m0 0 4 1-6 1z" fill="#F9E1E4"/>
<path transform="translate(1743,593)" d="m0 0 3 1-6 2z" fill="#F4C5CB"/>
<path transform="translate(1818,564)" d="m0 0h2v2l-5 1z" fill="#FEFEFE"/>
<path transform="translate(1158,564)" d="m0 0 3 1-4 2z" fill="#F0A9B2"/>
<path transform="translate(1211,542)" d="m0 0 2 1-3 2-3-1z" fill="#FEFEFE"/>
<path transform="translate(1221,537)" d="m0 0h3v2l-4 1z" fill="#F0A9B2"/>
<path transform="translate(1843,472)" d="m0 0 1 3-3 1v-3z" fill="#EB8D99"/>
<path transform="translate(1918,394)" d="m0 0 1 3-3 2z" fill="#FEFEFE"/>
<path transform="translate(421,1804)" d="m0 0 4 2-3 1z" fill="#FEFEFE"/>
<path transform="translate(548,1757)" d="m0 0 3 2v2h-2z" fill="#DE3C50"/>
<path transform="translate(1680,1753)" d="m0 0 1 2-3 3z" fill="#F8DDE1"/>
<path transform="translate(1953,1720)" d="m0 0 3 3-1 2z" fill="#FEFEFE"/>
<path transform="translate(1922,1673)" d="m0 0 3 3-1 2z" fill="#FEFEFE"/>
<path transform="translate(244,1605)" d="m0 0 4 1-4 1z" fill="#F3BDC4"/>
<path transform="translate(699,1604)" d="m0 0h4v2l-4-1z" fill="#FEFEFE"/>
<path transform="translate(1207,1524)" d="m0 0 5 2-2 1z" fill="#F8DDE1"/>
<path transform="translate(1186,1511)" d="m0 0 5 2-2 1z" fill="#FEFEFE"/>
<path transform="translate(1079,1444)" d="m0 0 5 2-2 1z" fill="#FEFEFE"/>
<path transform="translate(1035,1417)" d="m0 0 4 1 1 2-5-2z" fill="#F8DDE1"/>
<path transform="translate(869,1380)" d="m0 0 3 1v2h-3z" fill="#EE9DA7"/>
<path transform="translate(470,1313)" d="m0 0 4 1-5 1z" fill="#FEFEFE"/>
<path transform="translate(494,1308)" d="m0 0 3 1-1 2h-2z" fill="#FEFEFE"/>
<path transform="translate(1277,1293)" d="m0 0 4 1-4 1z" fill="#FEFEFE"/>
<path transform="translate(456,1293)" d="m0 0h3v2l-4-1z" fill="#FEFEFE"/>
<path transform="translate(35,1240)" d="m0 0 4 2-3 1z" fill="#F3BDC4"/>
<path transform="translate(198,1065)" d="m0 0 3 1-6 1z" fill="#FEFEFE"/>
<path transform="translate(793,1032)" d="m0 0h2v3l-3-1z" fill="#EE9DA7"/>
<path transform="translate(294,1031)" d="m0 0 2 1-1 2-3-1z" fill="#FEFEFE"/>
<path transform="translate(838,1019)" d="m0 0h2v2l-4 1z" fill="#FEFEFE"/>
<path transform="translate(848,1017)" d="m0 0 3 1-6 1z" fill="#FEFEFE"/>
<path transform="translate(857,1013)" d="m0 0h2l-1 4z" fill="#F8DDE1"/>
<path transform="translate(398,994)" d="m0 0h2l-1 3h-2z" fill="#F3BDC4"/>
<path transform="translate(1159,994)" d="m0 0h3l-1 4z" fill="#FEFEFE"/>
<path transform="translate(1181,989)" d="m0 0h2v2h-5z" fill="#EE9DA7"/>
<path transform="translate(1331,950)" d="m0 0h2v3l-3-1z" fill="#FEFEFE"/>
<path transform="translate(1341,948)" d="m0 0 2 1v2h-3z" fill="#F3BDC4"/>
<path transform="translate(1350,945)" d="m0 0h3v2l-4-1z" fill="#F8DDE1"/>
<path transform="translate(1360,943)" d="m0 0 3 3h-3z" fill="#FEFEFE"/>
<path transform="translate(1568,889)" d="m0 0h3v2l-4-1z" fill="#F8DDE1"/>
<path transform="translate(1577,887)" d="m0 0h2l-1 4z" fill="#FEFEFE"/>
<path transform="translate(1614,877)" d="m0 0h3v2l-4-1z" fill="#F3BDC4"/>
<path transform="translate(1663,865)" d="m0 0 4 1-5 1z" fill="#E87C8A"/>
<path transform="translate(1629,806)" d="m0 0h3v2l-4-1z" fill="#EE9DA7"/>
<path transform="translate(1173,782)" d="m0 0 3 1-5 1z" fill="#F8DDE1"/>
<path transform="translate(1381,713)" d="m0 0 3 1-5 1z" fill="#F3BDC4"/>
<path transform="translate(1791,675)" d="m0 0 1 2-3 3z" fill="#F8DDE1"/>
<path transform="translate(887,674)" d="m0 0 1 2-5 1z" fill="#FEFEFE"/>
<path transform="translate(900,668)" d="m0 0 2 1-5 2z" fill="#F8DDE1"/>
<path transform="translate(911,664)" d="m0 0 3 1-5 2v-2z" fill="#F3BDC4"/>
<path transform="translate(1030,616)" d="m0 0 1 2-5 1z" fill="#FEFEFE"/>
<path transform="translate(1882,440)" d="m0 0 2 1v2h-3z" fill="#F3BDC4"/>
<path transform="translate(1484,1789)" d="m0 0 4 1-5 1z" fill="#FEFEFE"/>
<path transform="translate(1113,1752)" d="m0 0 3 3-2 1z" fill="#EB8D99"/>
<path transform="translate(1106,1743)" d="m0 0 3 2-1 2z" fill="#FEFEFE"/>
<path transform="translate(1031,1644)" d="m0 0 3 2-1 2z" fill="#FEFEFE"/>
<path transform="translate(1589,1634)" d="m0 0 2 1-1 3z" fill="#FEFEFE"/>
<path transform="translate(1022,1632)" d="m0 0 3 2-1 2z" fill="#FEFEFE"/>
<path transform="translate(514,1615)" d="m0 0 2 1-4 2z" fill="#FEFEFE"/>
<path transform="translate(525,1610)" d="m0 0h2l-1 3-2-1z" fill="#FEFEFE"/>
<path transform="translate(1518,1609)" d="m0 0h5l-1 2z" fill="#FEFEFE"/>
<path transform="translate(201,1217)" d="m0 0h3v2h-3z" fill="#F7D8DC"/>
<path transform="translate(133,1164)" d="m0 0h2v3h-2z" fill="#E56777"/>
<path transform="translate(133,1152)" d="m0 0h2v3h-2z" fill="#DF4155"/>
<path transform="translate(1513,1056)" d="m0 0h2v3h-2z" fill="#FEFEFE"/>
<path transform="translate(785,1033)" d="m0 0h2v2l-3 1z" fill="#F1B2BA"/>
<path transform="translate(829,1021)" d="m0 0 3 1-2 2z" fill="#FEFEFE"/>
<path transform="translate(1169,993)" d="m0 0h3v2h-3z" fill="#F7D8DC"/>
<path transform="translate(409,989)" d="m0 0 3 2-3 1z" fill="#F7D8DC"/>
<path transform="translate(418,988)" d="m0 0 2 1-4 2v-2z" fill="#FEFEFE"/>
<path transform="translate(128,983)" d="m0 0 3 1-5 1z" fill="#FEFEFE"/>
<path transform="translate(1257,969)" d="m0 0 1 2-4 1v-2z" fill="#FEFEFE"/>
<path transform="translate(1283,963)" d="m0 0 4 1h-4z" fill="#FEFEFE"/>
<path transform="translate(1627,956)" d="m0 0v3l-2 1z" fill="#FEFEFE"/>
<path transform="translate(1426,926)" d="m0 0h2l-1 3-2-2z" fill="#FEFEFE"/>
<path transform="translate(1445,921)" d="m0 0 3 1-4 1z" fill="#F7D8DC"/>
<path transform="translate(1473,913)" d="m0 0h2v3h-2z" fill="#E56777"/>
<path transform="translate(1501,907)" d="m0 0h3v2h-3z" fill="#FEFEFE"/>
<path transform="translate(1531,900)" d="m0 0 3 1-4 1z" fill="#FEFEFE"/>
<path transform="translate(1557,893)" d="m0 0h3v2h-3z" fill="#FEFEFE"/>
<path transform="translate(1675,884)" d="m0 0 1 3-3-1z" fill="#FEFEFE"/>
<path transform="translate(1685,861)" d="m0 0h2l-2 4z" fill="#FEFEFE"/>
<path transform="translate(993,841)" d="m0 0 3 1-4 1z" fill="#F7D8DC"/>
<path transform="translate(1644,802)" d="m0 0 4 1-5 1z" fill="#F1B2BA"/>
<path transform="translate(1122,799)" d="m0 0 3 1-5 1z" fill="#F7D8DC"/>
<path transform="translate(1665,795)" d="m0 0 3 1-5 1z" fill="#FEFEFE"/>
<path transform="translate(1376,715)" d="m0 0 3 1-5 1z" fill="#FEFEFE"/>
<path transform="translate(1478,681)" d="m0 0 2 2-3 1z" fill="#FEFEFE"/>
<path transform="translate(946,650)" d="m0 0 3 1-5 1z" fill="#F7D8DC"/>
<path transform="translate(993,631)" d="m0 0 3 1-5 1z" fill="#FEFEFE"/>
<path transform="translate(1042,611)" d="m0 0 3 1-5 1z" fill="#FEFEFE"/>
<path transform="translate(1180,555)" d="m0 0 3 1-5 1z" fill="#FEFEFE"/>
<path transform="translate(1303,505)" d="m0 0 3 1-4 1z" fill="#FEFEFE"/>
<path transform="translate(1986,238)" d="m0 0 1 3-2 2z" fill="#FEFEFE"/>
<path transform="translate(428,1806)" d="m0 0h3v2l-3-1z" fill="#F6D0D5"/>
<path transform="translate(1756,1805)" d="m0 0 3 1-3 1z" fill="#FEFEFE"/>
<path transform="translate(400,1801)" d="m0 0 4 1-2 1z" fill="#FEFEFE"/>
<path transform="translate(697,1772)" d="m0 0h2l-1 3z" fill="#FEFEFE"/>
<path transform="translate(441,1692)" d="m0 0 1 3h-2z" fill="#FEFEFE"/>
<path transform="translate(1724,1680)" d="m0 0 2 1-3 2z" fill="#FEFEFE"/>
<path transform="translate(1581,1629)" d="m0 0 2 1v2h-2z" fill="#FEFEFE"/>
<path transform="translate(489,1628)" d="m0 0 3 1-3 1z" fill="#FEFEFE"/>
<path transform="translate(533,1609)" d="m0 0 3 1-3 1z" fill="#FEFEFE"/>
<path transform="translate(543,1605)" d="m0 0h2v2l-3-1z" fill="#FEFEFE"/>
<path transform="translate(1305,1288)" d="m0 0 2 1v2h-2z" fill="#FEFEFE"/>
<path transform="translate(1329,1281)" d="m0 0 3 1-4 1z" fill="#FEFEFE"/>
<path transform="translate(1365,1264)" d="m0 0 2 1-3 2z" fill="#FEFEFE"/>
<path transform="translate(148,1237)" d="m0 0h3v2l-3-1z" fill="#FEFEFE"/>
<path transform="translate(229,1233)" d="m0 0h2l-1 3z" fill="#F6D0D5"/>
<path transform="translate(212,1215)" d="m0 0 3 1-1 2z" fill="#FEFEFE"/>
<path transform="translate(1084,1197)" d="m0 0 2 2-4-1z" fill="#FEFEFE"/>
<path transform="translate(1020,1153)" d="m0 0h2v2l-3-1z" fill="#FEFEFE"/>
<path transform="translate(1397,1139)" d="m0 0h2v2l-3-1z" fill="#FEFEFE"/>
<path transform="translate(136,1139)" d="m0 0v3l-2-1z" fill="#FEFEFE"/>
<path transform="translate(137,1137)" d="m0 0 3 1-3 1z" fill="#FEFEFE"/>
<path transform="translate(1435,1073)" d="m0 0h2v2l-3-1z" fill="#FEFEFE"/>
<path transform="translate(1505,1057)" d="m0 0 2 1v2h-2z" fill="#FEFEFE"/>
<path transform="translate(1521,1053)" d="m0 0 3 1-3 1z" fill="#FEFEFE"/>
<path transform="translate(285,1034)" d="m0 0 3 1-4 1z" fill="#FEFEFE"/>
<path transform="translate(133,981)" d="m0 0 2 1-4 1z" fill="#FEFEFE"/>
<path transform="translate(1292,961)" d="m0 0 3 1-3 1z" fill="#FEFEFE"/>
<path transform="translate(1464,917)" d="m0 0 3 1-3 1z" fill="#F6D0D5"/>
<path transform="translate(1493,909)" d="m0 0h2v2l-3-1z" fill="#F6D0D5"/>
<path transform="translate(1540,897)" d="m0 0 3 1-3 1z" fill="#FEFEFE"/>
<path transform="translate(1549,894)" d="m0 0h2l-1 3z" fill="#FEFEFE"/>
<path transform="translate(1645,869)" d="m0 0 2 1v2h-2z" fill="#FEFEFE"/>
<path transform="translate(977,845)" d="m0 0 3 1-3 1z" fill="#E77684"/>
<path transform="translate(753,728)" d="m0 0 3 1-3 1z" fill="#EFA3AD"/>
<path transform="translate(766,723)" d="m0 0 2 1-3 2z" fill="#FEFEFE"/>
<path transform="translate(838,694)" d="m0 0 2 1-4 1z" fill="#FEFEFE"/>
<path transform="translate(850,689)" d="m0 0 2 1-4 1z" fill="#F6D0D5"/>
<path transform="translate(922,660)" d="m0 0 2 2-3 1z" fill="#EFA3AD"/>
<path transform="translate(1824,617)" d="m0 0 1 2-2 2z" fill="#F6D0D5"/>
<path transform="translate(1037,613)" d="m0 0 3 1-4 1z" fill="#F6D0D5"/>
<path transform="translate(1066,601)" d="m0 0 2 1-4 1z" fill="#F6D0D5"/>
<path transform="translate(1733,597)" d="m0 0 3 1-4 1z" fill="#FEFEFE"/>
<path transform="translate(1754,589)" d="m0 0 2 1-4 1z" fill="#F6D0D5"/>
<path transform="translate(1145,569)" d="m0 0 3 1-3 1z" fill="#E77684"/>
<path transform="translate(1330,494)" d="m0 0 2 1-4 1z" fill="#FEFEFE"/>
<path transform="translate(1338,491)" d="m0 0 2 1-4 1z" fill="#FEFEFE"/>
<path transform="translate(1829,481)" d="m0 0 3 1-3 1z" fill="#FEFEFE"/>
<path transform="translate(853,1801)" d="m0 0h2v2h-2z" fill="#FEFEFE"/>
<path transform="translate(668,1793)" d="m0 0h2v2h-2z" fill="#FEFEFE"/>
<path transform="translate(681,1786)" d="m0 0h2v2h-2z" fill="#FEFEFE"/>
<path transform="translate(1666,1776)" d="m0 0v3z" fill="#FEFEFE"/>
<path transform="translate(1674,1763)" d="m0 0v3z" fill="#F4C5CB"/>
<path transform="translate(548,1749)" d="m0 0h2v2h-2z" fill="#FEFEFE"/>
<path transform="translate(1099,1734)" d="m0 0 2 1-1 2z" fill="#FEFEFE"/>
<path transform="translate(1712,1701)" d="m0 0v3z" fill="#FEFEFE"/>
<path transform="translate(1939,1699)" d="m0 0 2 1-1 2z" fill="#FEFEFE"/>
<path transform="translate(1714,1698)" d="m0 0v3z" fill="#E25466"/>
<path transform="translate(1911,1656)" d="m0 0 2 1-1 2z" fill="#FEFEFE"/>
<path transform="translate(797,1657)" d="m0 0h2v2h-2z" fill="#FEFEFE"/>
<path transform="translate(1907,1650)" d="m0 0 2 1-1 2z" fill="#F4C5CB"/>
<path transform="translate(1903,1644)" d="m0 0 2 1-1 2z" fill="#E25466"/>
<path transform="translate(1029,1641)" d="m0 0 2 1-1 2z" fill="#FEFEFE"/>
<path transform="translate(775,1635)" d="m0 0 3 1h-3z" fill="#FEFEFE"/>
<path transform="translate(481,1633)" d="m0 0h2v2h-2z" fill="#FEFEFE"/>
<path transform="translate(1010,1617)" d="m0 0 2 1-1 2z" fill="#FEFEFE"/>
<path transform="translate(518,1613)" d="m0 0 1 2-3-1z" fill="#FEFEFE"/>
<path transform="translate(1532,1611)" d="m0 0 3 1h-3z" fill="#FEFEFE"/>
<path transform="translate(9,1605)" d="m0 0h2v2h-2z" fill="#F4C5CB"/>
<path transform="translate(554,1604)" d="m0 0 3 1-3 1z" fill="#FEFEFE"/>
<path transform="translate(316,1536)" d="m0 0 2 1-1 2z" fill="#FEFEFE"/>
<path transform="translate(1199,1519)" d="m0 0 3 1h-3z" fill="#FEFEFE"/>
<path transform="translate(306,1518)" d="m0 0 2 1-1 2z" fill="#FEFEFE"/>
<path transform="translate(1196,1517)" d="m0 0 3 1h-3z" fill="#FEFEFE"/>
<path transform="translate(1177,1505)" d="m0 0 3 1h-3z" fill="#FEFEFE"/>
<path transform="translate(289,1496)" d="m0 0 2 1-1 2z" fill="#FEFEFE"/>
<path transform="translate(1156,1492)" d="m0 0 3 1h-3z" fill="#FEFEFE"/>
<path transform="translate(1121,1470)" d="m0 0 3 1h-3z" fill="#F4C5CB"/>
<path transform="translate(1100,1457)" d="m0 0 3 1h-3z" fill="#FEFEFE"/>
<path transform="translate(1076,1442)" d="m0 0 3 1h-3z" fill="#FEFEFE"/>
<path transform="translate(1071,1439)" d="m0 0 3 1h-3z" fill="#FEFEFE"/>
<path transform="translate(221,1237)" d="m0 0h2v2h-2z" fill="#EB8D99"/>
<path transform="translate(30,1233)" d="m0 0 2 1-1 2z" fill="#FEFEFE"/>
<path transform="translate(1410,1227)" d="m0 0h2v2h-2z" fill="#FEFEFE"/>
<path transform="translate(25,1225)" d="m0 0h2l-1 3z" fill="#F4C5CB"/>
<path transform="translate(733,1216)" d="m0 0 2 2-2 1z" fill="#FEFEFE"/>
<path transform="translate(17,1213)" d="m0 0h2v2h-2z" fill="#FEFEFE"/>
<path transform="translate(113,1201)" d="m0 0 3 1h-3z" fill="#F4C5CB"/>
<path transform="translate(108,1193)" d="m0 0 3 1h-3z" fill="#FEFEFE"/>
<path transform="translate(324,1185)" d="m0 0 1 2-3-1z" fill="#FEFEFE"/>
<path transform="translate(6,1092)" d="m0 0 1 3-2-1z" fill="#FEFEFE"/>
<path transform="translate(585,1088)" d="m0 0 2 1h-3z" fill="#FEFEFE"/>
<path transform="translate(821,1025)" d="m0 0h2v2h-2z" fill="#FEFEFE"/>
<path transform="translate(321,1021)" d="m0 0h2v2h-2z" fill="#FEFEFE"/>
<path transform="translate(332,1017)" d="m0 0h2v2h-2z" fill="#EB8D99"/>
<path transform="translate(893 1e3)" d="m0 0h2v2h-2z" fill="#FEFEFE"/>
<path transform="translate(386,999)" d="m0 0 2 1h-3z" fill="#FEFEFE"/>
<path transform="translate(929,995)" d="m0 0h2v2h-2z" fill="#FEFEFE"/>
<path transform="translate(1303,958)" d="m0 0h2v2h-2z" fill="#FEFEFE"/>
<path transform="translate(1321,953)" d="m0 0h2v2h-2z" fill="#E25466"/>
<path transform="translate(1369,941)" d="m0 0h2v2h-2z" fill="#FEFEFE"/>
<path transform="translate(1639,939)" d="m0 0v3z" fill="#FEFEFE"/>
<path transform="translate(1388,937)" d="m0 0 3 1h-3z" fill="#FEFEFE"/>
<path transform="translate(1405,932)" d="m0 0 3 1-3 1z" fill="#FEFEFE"/>
<path transform="translate(1437,924)" d="m0 0 2 2-3-1z" fill="#FEFEFE"/>
<path transform="translate(1521,902)" d="m0 0h2v2h-2z" fill="#FEFEFE"/>
<path transform="translate(710,885)" d="m0 0 2 1h-3z" fill="#FEFEFE"/>
<path transform="translate(714,883)" d="m0 0 1 2-3-1z" fill="#FEFEFE"/>
<path transform="translate(721,881)" d="m0 0 3 1-3 1z" fill="#F4C5CB"/>
<path transform="translate(730,877)" d="m0 0 2 1h-3z" fill="#FEFEFE"/>
<path transform="translate(1625,875)" d="m0 0 2 2-2 1z" fill="#FEFEFE"/>
<path transform="translate(1635,873)" d="m0 0h2v2h-2z" fill="#FEFEFE"/>
<path transform="translate(1704,774)" d="m0 0 2 1h-3z" fill="#FEFEFE"/>
<path transform="translate(742,733)" d="m0 0 2 1h-3z" fill="#FEFEFE"/>
<path transform="translate(757,726)" d="m0 0 2 1h-3z" fill="#FEFEFE"/>
<path transform="translate(770,721)" d="m0 0 1 2-3-1z" fill="#FEFEFE"/>
<path transform="translate(790,713)" d="m0 0 2 1h-3z" fill="#F4C5CB"/>
<path transform="translate(1461,687)" d="m0 0h2v2h-2z" fill="#FEFEFE"/>
<path transform="translate(1786,684)" d="m0 0v3z" fill="#FEFEFE"/>
<path transform="translate(1498,675)" d="m0 0 2 1h-3z" fill="#FEFEFE"/>
<path transform="translate(934,655)" d="m0 0 2 1h-3z" fill="#FEFEFE"/>
<path transform="translate(981,636)" d="m0 0 2 1h-3z" fill="#FEFEFE"/>
<path transform="translate(1e3 626)" d="m0 0 2 1h-3z" fill="#FEFEFE"/>
<path transform="translate(1017,621)" d="m0 0 2 1h-3z" fill="#FEFEFE"/>
<path transform="translate(1113,582)" d="m0 0 2 1h-3z" fill="#FEFEFE"/>
<path transform="translate(1205,545)" d="m0 0h2v2h-2z" fill="#F4C5CB"/>
<path transform="translate(1270,518)" d="m0 0 2 1h-3z" fill="#FEFEFE"/>
<path transform="translate(1293,509)" d="m0 0 2 1h-3z" fill="#FEFEFE"/>
<path transform="translate(1314,501)" d="m0 0 2 1h-3z" fill="#FEFEFE"/>
<path transform="translate(1915,399)" d="m0 0v3z" fill="#F4C5CB"/>
<path transform="translate(1649,1799)" d="m0 0 1 2-2-1z" fill="#FEFEFE"/>
<path transform="translate(1516,1761)" d="m0 0" fill="#FEFEFE"/>
<path transform="translate(1083,1713)" d="m0 0 2 2h-2z" fill="#FEFEFE"/>
<path transform="translate(1069,1693)" d="m0 0 2 2h-2z" fill="#FEFEFE"/>
<path transform="translate(1046,1665)" d="m0 0 2 2h-2z" fill="#FEFEFE"/>
<path transform="translate(262,1605)" d="m0 0 1 2-2-1z" fill="#FEFEFE"/>
<path transform="translate(193,1221)" d="m0 0 2 1-2 1z" fill="#FEFEFE"/>
<path transform="translate(353,1203)" d="m0 0 2 1-2 1z" fill="#FEFEFE"/>
<path transform="translate(153,1201)" d="m0 0h2l-1 2z" fill="#F1B2BA"/>
<path transform="translate(374,1197)" d="m0 0 1 2-2-1z" fill="#FEFEFE"/>
<path transform="translate(140,1183)" d="m0 0 2 2h-2z" fill="#FEFEFE"/>
<path transform="translate(1,1113)" d="m0 0 2 1-2 1z" fill="#FEFEFE"/>
<path transform="translate(227,1093)" d="m0 0 3 1z" fill="#FEFEFE"/>
<path transform="translate(230,1092)" d="m0 0 3 1z" fill="#FEFEFE"/>
<path transform="translate(1386,1083)" d="m0 0 1 2-2-1z" fill="#FEFEFE"/>
<path transform="translate(812,1027)" d="m0 0h2l-1 2z" fill="#FEFEFE"/>
<path transform="translate(305,1027)" d="m0 0 2 1-2 1z" fill="#FEFEFE"/>
<path transform="translate(313,1025)" d="m0 0 2 1-2 1z" fill="#FEFEFE"/>
<path transform="translate(865,1013)" d="m0 0 2 1-2 1z" fill="#F1B2BA"/>
<path transform="translate(869,1012)" d="m0 0 2 1-2 1z" fill="#FEFEFE"/>
<path transform="translate(886,1007)" d="m0 0 1 2-2-1z" fill="#FEFEFE"/>
<path transform="translate(362,1007)" d="m0 0 1 2-2-1z" fill="#FEFEFE"/>
<path transform="translate(902 1e3)" d="m0 0 2 2h-2z" fill="#FEFEFE"/>
<path transform="translate(1132 1e3)" d="m0 0 3 1z" fill="#FEFEFE"/>
<path transform="translate(390,997)" d="m0 0 1 2-2-1z" fill="#FEFEFE"/>
<path transform="translate(1189,988)" d="m0 0 2 1-2 1z" fill="#FEFEFE"/>
<path transform="translate(1200,985)" d="m0 0 3 1z" fill="#F1B2BA"/>
<path transform="translate(966,985)" d="m0 0 2 1-2 1z" fill="#FEFEFE"/>
<path transform="translate(437,981)" d="m0 0 1 2-2-1z" fill="#FEFEFE"/>
<path transform="translate(1237,975)" d="m0 0 2 1-2 1z" fill="#FEFEFE"/>
<path transform="translate(1265,968)" d="m0 0 1 2-2-1z" fill="#FEFEFE"/>
<path transform="translate(1274,965)" d="m0 0 1 2-2-1z" fill="#FEFEFE"/>
<path transform="translate(1313,956)" d="m0 0 1 2-2-1z" fill="#FEFEFE"/>
<path transform="translate(1637,942)" d="m0 0 1 2-2-1z" fill="#FEFEFE"/>
<path transform="translate(1378,939)" d="m0 0 3 1z" fill="#FEFEFE"/>
<path transform="translate(1398,933)" d="m0 0 1 2-2-1z" fill="#FEFEFE"/>
<path transform="translate(1455,919)" d="m0 0 1 2-2-1z" fill="#FEFEFE"/>
<path transform="translate(1484,912)" d="m0 0 3 1z" fill="#FEFEFE"/>
<path transform="translate(636,910)" d="m0 0 3 1z" fill="#FEFEFE"/>
<path transform="translate(701,888)" d="m0 0 2 1-2 1z" fill="#FEFEFE"/>
<path transform="translate(942,857)" d="m0 0 1 2-2-1z" fill="#FEFEFE"/>
<path transform="translate(996,840)" d="m0 0 3 1z" fill="#F1B2BA"/>
<path transform="translate(1648,801)" d="m0 0 3 1z" fill="#FEFEFE"/>
<path transform="translate(1655,799)" d="m0 0 3 1z" fill="#FEFEFE"/>
<path transform="translate(1658,798)" d="m0 0 3 1z" fill="#F1B2BA"/>
<path transform="translate(1668,794)" d="m0 0 3 1z" fill="#FEFEFE"/>
<path transform="translate(736,736)" d="m0 0 3 1z" fill="#FEFEFE"/>
<path transform="translate(1469,685)" d="m0 0 2 1-2 1z" fill="#FEFEFE"/>
<path transform="translate(868,682)" d="m0 0 3 1z" fill="#FEFEFE"/>
<path transform="translate(1533,664)" d="m0 0 3 1z" fill="#FEFEFE"/>
<path transform="translate(1536,663)" d="m0 0 3 1z" fill="#FEFEFE"/>
<path transform="translate(1045,610)" d="m0 0 3 1z" fill="#FEFEFE"/>
<path transform="translate(1162,562)" d="m0 0 1 2-2-1z" fill="#FEFEFE"/>
<path transform="translate(1169,560)" d="m0 0 2 1-2 1z" fill="#FEFEFE"/>
<path transform="translate(1234,533)" d="m0 0 1 2-2-1z" fill="#FEFEFE"/>
<path transform="translate(1980,254)" d="m0 0" fill="#FEFEFE"/>
<path transform="translate(1982,249)" d="m0 0" fill="#FEFEFE"/>
<path transform="translate(1983,246)" d="m0 0" fill="#FEFEFE"/>
<path transform="translate(1984,243)" d="m0 0" fill="#FEFEFE"/>
<path transform="translate(935,1797)" d="m0 0 2 1z" fill="#FEFEFE"/>
<path transform="translate(1287,1796)" d="m0 0 2 1z" fill="#EB8D99"/>
<path transform="translate(579,1792)" d="m0 0 2 1z" fill="#FEFEFE"/>
<path transform="translate(1492,1787)" d="m0 0 2 1z" fill="#FEFEFE"/>
<path transform="translate(1994,1784)" d="m0 0" fill="#FEFEFE"/>
<path transform="translate(1667,1774)" d="m0 0" fill="#D91C34"/>
<path transform="translate(1513,1768)" d="m0 0" fill="#FEFEFE"/>
<path transform="translate(1514,1766)" d="m0 0" fill="#FEFEFE"/>
<path transform="translate(1515,1764)" d="m0 0" fill="#FEFEFE"/>
<path transform="translate(552,1763)" d="m0 0" fill="#FEFEFE"/>
<path transform="translate(1675,1761)" d="m0 0" fill="#D91C34"/>
<path transform="translate(551,1761)" d="m0 0" fill="#FEFEFE"/>
<path transform="translate(1677,1758)" d="m0 0" fill="#FEFEFE"/>
<path transform="translate(1681,1751)" d="m0 0" fill="#FEFEFE"/>
<path transform="translate(1104,1740)" d="m0 0" fill="#FEFEFE"/>
<path transform="translate(1965,1738)" d="m0 0" fill="#FEFEFE"/>
<path transform="translate(1694,1730)" d="m0 0" fill="#D91C34"/>
<path transform="translate(1696,1727)" d="m0 0" fill="#D91C34"/>
<path transform="translate(1952,1718)" d="m0 0" fill="#D91C34"/>
<path transform="translate(1950,1715)" d="m0 0" fill="#EB8D99"/>
<path transform="translate(1704,1714)" d="m0 0" fill="#EB8D99"/>
<path transform="translate(1948,1712)" d="m0 0" fill="#FEFEFE"/>
<path transform="translate(1706,1711)" d="m0 0" fill="#EB8D99"/>
<path transform="translate(1707,1709)" d="m0 0" fill="#D91C34"/>
<path transform="translate(1944,1706)" d="m0 0" fill="#FEFEFE"/>
<path transform="translate(1709,1706)" d="m0 0" fill="#FEFEFE"/>
<path transform="translate(1710,1704)" d="m0 0" fill="#FEFEFE"/>
<path transform="translate(1942,1703)" d="m0 0" fill="#EB8D99"/>
<path transform="translate(1717,1693)" d="m0 0" fill="#FEFEFE"/>
<path transform="translate(445,1680)" d="m0 0" fill="#FEFEFE"/>
<path transform="translate(446,1678)" d="m0 0" fill="#FEFEFE"/>
<path transform="translate(1914,1660)" d="m0 0" fill="#D91C34"/>
<path transform="translate(1909,1653)" d="m0 0" fill="#FEFEFE"/>
<path transform="translate(1906,1648)" d="m0 0" fill="#EB8D99"/>
<path transform="translate(1014,1622)" d="m0 0" fill="#FEFEFE"/>
<path transform="translate(1542,1614)" d="m0 0 2 1z" fill="#FEFEFE"/>
<path transform="translate(536,1608)" d="m0 0 2 1z" fill="#FEFEFE"/>
<path transform="translate(519,1539)" d="m0 0 2 1z" fill="#FEFEFE"/>
<path transform="translate(312,1528)" d="m0 0" fill="#FEFEFE"/>
<path transform="translate(309,1522)" d="m0 0" fill="#FEFEFE"/>
<path transform="translate(1202,1521)" d="m0 0 2 1z" fill="#FEFEFE"/>
<path transform="translate(305,1516)" d="m0 0" fill="#FEFEFE"/>
<path transform="translate(1194,1516)" d="m0 0 2 1z" fill="#EB8D99"/>
<path transform="translate(1183,1509)" d="m0 0 2 1z" fill="#EB8D99"/>
<path transform="translate(1175,1504)" d="m0 0 2 1z" fill="#EB8D99"/>
<path transform="translate(1172,1502)" d="m0 0 2 1z" fill="#FEFEFE"/>
<path transform="translate(1170,1501)" d="m0 0 2 1z" fill="#FEFEFE"/>
<path transform="translate(1159,1494)" d="m0 0 2 1z" fill="#FEFEFE"/>
<path transform="translate(1154,1491)" d="m0 0 2 1z" fill="#EB8D99"/>
<path transform="translate(1151,1489)" d="m0 0 2 1z" fill="#FEFEFE"/>
<path transform="translate(1138,1481)" d="m0 0 2 1z" fill="#FEFEFE"/>
<path transform="translate(1124,1472)" d="m0 0 2 1z" fill="#EB8D99"/>
<path transform="translate(1119,1469)" d="m0 0 2 1z" fill="#FEFEFE"/>
<path transform="translate(1108,1462)" d="m0 0 2 1z" fill="#FEFEFE"/>
<path transform="translate(1106,1461)" d="m0 0 2 1z" fill="#FEFEFE"/>
<path transform="translate(1103,1459)" d="m0 0 2 1z" fill="#FEFEFE"/>
<path transform="translate(1098,1456)" d="m0 0 2 1z" fill="#FEFEFE"/>
<path transform="translate(1095,1454)" d="m0 0 2 1z" fill="#FEFEFE"/>
<path transform="translate(1092,1452)" d="m0 0 2 1z" fill="#FEFEFE"/>
<path transform="translate(1089,1450)" d="m0 0 2 1z" fill="#FEFEFE"/>
<path transform="translate(1087,1449)" d="m0 0 2 1z" fill="#FEFEFE"/>
<path transform="translate(1085,1448)" d="m0 0 2 1z" fill="#FEFEFE"/>
<path transform="translate(1074,1441)" d="m0 0 2 1z" fill="#FEFEFE"/>
<path transform="translate(206,1291)" d="m0 0" fill="#FEFEFE"/>
<path transform="translate(1315,1286)" d="m0 0 2 1z" fill="#FEFEFE"/>
<path transform="translate(1320,1284)" d="m0 0 2 1z" fill="#FEFEFE"/>
<path transform="translate(1332,1280)" d="m0 0 2 1z" fill="#FEFEFE"/>
<path transform="translate(1334,1279)" d="m0 0 2 1z" fill="#FEFEFE"/>
<path transform="translate(1337,1278)" d="m0 0 2 1z" fill="#FEFEFE"/>
<path transform="translate(1344,1275)" d="m0 0 2 1z" fill="#FEFEFE"/>
<path transform="translate(1346,1274)" d="m0 0 2 1z" fill="#FEFEFE"/>
<path transform="translate(741,1234)" d="m0 0" fill="#FEFEFE"/>
<path transform="translate(9,1189)" d="m0 0" fill="#FEFEFE"/>
<path transform="translate(333,1184)" d="m0 0 2 1z" fill="#FEFEFE"/>
<path transform="translate(101,1126)" d="m0 0" fill="#FEFEFE"/>
<path transform="translate(103,1121)" d="m0 0" fill="#FEFEFE"/>
<path transform="translate(109,1112)" d="m0 0" fill="#FEFEFE"/>
<path transform="translate(587,1086)" d="m0 0 2 1z" fill="#FEFEFE"/>
<path transform="translate(15,1070)" d="m0 0" fill="#FEFEFE"/>
<path transform="translate(16,1068)" d="m0 0" fill="#FEFEFE"/>
<path transform="translate(208,1062)" d="m0 0 2 1z" fill="#FEFEFE"/>
<path transform="translate(210,1061)" d="m0 0 2 1z" fill="#FEFEFE"/>
<path transform="translate(1532,1048)" d="m0 0 2 1z" fill="#FEFEFE"/>
<path transform="translate(1534,1047)" d="m0 0 2 1z" fill="#FEFEFE"/>
<path transform="translate(766,1038)" d="m0 0" fill="#FEFEFE"/>
<path transform="translate(801,1030)" d="m0 0 2 1z" fill="#FEFEFE"/>
<path transform="translate(1570,1023)" d="m0 0 2 1z" fill="#FEFEFE"/>
<path transform="translate(912 1e3)" d="m0 0 2 1z" fill="#FEFEFE"/>
<path transform="translate(946,990)" d="m0 0" fill="#FEFEFE"/>
<path transform="translate(1197,986)" d="m0 0 2 1z" fill="#FEFEFE"/>
<path transform="translate(124,985)" d="m0 0 2 1z" fill="#FEFEFE"/>
<path transform="translate(1216,981)" d="m0 0 2 1z" fill="#FEFEFE"/>
<path transform="translate(987,978)" d="m0 0 2 1z" fill="#FEFEFE"/>
<path transform="translate(445,977)" d="m0 0" fill="#FEFEFE"/>
<path transform="translate(140,978)" d="m0 0 2 1z" fill="#FEFEFE"/>
<path transform="translate(1630,951)" d="m0 0" fill="#FEFEFE"/>
<path transform="translate(1410,931)" d="m0 0 2 1z" fill="#FEFEFE"/>
<path transform="translate(1416,929)" d="m0 0" fill="#FEFEFE"/>
<path transform="translate(589,927)" d="m0 0 2 1z" fill="#FEFEFE"/>
<path transform="translate(652,906)" d="m0 0 2 1z" fill="#FEFEFE"/>
<path transform="translate(777,861)" d="m0 0 2 1z" fill="#FEFEFE"/>
<path transform="translate(786,857)" d="m0 0" fill="#FEFEFE"/>
<path transform="translate(1034,828)" d="m0 0 2 1z" fill="#FEFEFE"/>
<path transform="translate(1637,805)" d="m0 0 2 1z" fill="#FEFEFE"/>
<path transform="translate(1113,802)" d="m0 0 2 1z" fill="#FEFEFE"/>
<path transform="translate(1652,800)" d="m0 0 2 1z" fill="#FEFEFE"/>
<path transform="translate(1125,798)" d="m0 0 2 1z" fill="#FEFEFE"/>
<path transform="translate(1661,797)" d="m0 0 2 1z" fill="#EB8D99"/>
<path transform="translate(1156,788)" d="m0 0 2 1z" fill="#FEFEFE"/>
<path transform="translate(1159,787)" d="m0 0 2 1z" fill="#FEFEFE"/>
<path transform="translate(1698,778)" d="m0 0 2 1z" fill="#FEFEFE"/>
<path transform="translate(1706,773)" d="m0 0 2 1z" fill="#EB8D99"/>
<path transform="translate(1318,735)" d="m0 0 2 1z" fill="#FEFEFE"/>
<path transform="translate(739,735)" d="m0 0 2 1z" fill="#FEFEFE"/>
<path transform="translate(1320,734)" d="m0 0 2 1z" fill="#FEFEFE"/>
<path transform="translate(1372,717)" d="m0 0 2 1z" fill="#FEFEFE"/>
<path transform="translate(793,712)" d="m0 0 2 1z" fill="#FEFEFE"/>
<path transform="translate(801,709)" d="m0 0 2 1z" fill="#FEFEFE"/>
<path transform="translate(804,708)" d="m0 0 2 1z" fill="#FEFEFE"/>
<path transform="translate(806,707)" d="m0 0 2 1z" fill="#FEFEFE"/>
<path transform="translate(1406,706)" d="m0 0 2 1z" fill="#FEFEFE"/>
<path transform="translate(1417,702)" d="m0 0 2 1z" fill="#EB8D99"/>
<path transform="translate(824,700)" d="m0 0 2 1z" fill="#FEFEFE"/>
<path transform="translate(826,699)" d="m0 0 2 1z" fill="#FEFEFE"/>
<path transform="translate(834,696)" d="m0 0 2 1z" fill="#FEFEFE"/>
<path transform="translate(1782,690)" d="m0 0" fill="#FEFEFE"/>
<path transform="translate(1784,687)" d="m0 0" fill="#FEFEFE"/>
<path transform="translate(859,686)" d="m0 0 2 1z" fill="#FEFEFE"/>
<path transform="translate(861,685)" d="m0 0 2 1z" fill="#FEFEFE"/>
<path transform="translate(1787,682)" d="m0 0" fill="#D91C34"/>
<path transform="translate(1508,673)" d="m0 0 2 1z" fill="#FEFEFE"/>
<path transform="translate(967,642)" d="m0 0 2 1z" fill="#FEFEFE"/>
<path transform="translate(969,641)" d="m0 0 2 1z" fill="#FEFEFE"/>
<path transform="translate(1816,632)" d="m0 0" fill="#FEFEFE"/>
<path transform="translate(1e3 628)" d="m0 0 2 1z" fill="#FEFEFE"/>
<path transform="translate(1821,622)" d="m0 0" fill="#FEFEFE"/>
<path transform="translate(1014,623)" d="m0 0 2 1z" fill="#FEFEFE"/>
<path transform="translate(1709,606)" d="m0 0 2 1z" fill="#FEFEFE"/>
<path transform="translate(1069,600)" d="m0 0 2 1z" fill="#FEFEFE"/>
<path transform="translate(1077,597)" d="m0 0 2 1z" fill="#FEFEFE"/>
<path transform="translate(1079,596)" d="m0 0 2 1z" fill="#FEFEFE"/>
<path transform="translate(1091,591)" d="m0 0 2 1z" fill="#FEFEFE"/>
<path transform="translate(1788,576)" d="m0 0 2 1z" fill="#FEFEFE"/>
<path transform="translate(1792,575)" d="m0 0 2 1z" fill="#FEFEFE"/>
<path transform="translate(1132,575)" d="m0 0 2 1z" fill="#FEFEFE"/>
<path transform="translate(1809,568)" d="m0 0 2 1z" fill="#FEFEFE"/>
<path transform="translate(1148,568)" d="m0 0 2 1z" fill="#FEFEFE"/>
<path transform="translate(1173,558)" d="m0 0 2 1z" fill="#D91C34"/>
<path transform="translate(1183,554)" d="m0 0 2 1z" fill="#FEFEFE"/>
<path transform="translate(1265,521)" d="m0 0 2 1z" fill="#FEFEFE"/>
<path transform="translate(1267,520)" d="m0 0 2 1z" fill="#FEFEFE"/>
<path transform="translate(1277,516)" d="m0 0 2 1z" fill="#FEFEFE"/>
<path transform="translate(1290,511)" d="m0 0 2 1z" fill="#FEFEFE"/>
<path transform="translate(1316,500)" d="m0 0 2 1z" fill="#FEFEFE"/>
<path transform="translate(1318,499)" d="m0 0 2 1z" fill="#FEFEFE"/>
<path transform="translate(1326,496)" d="m0 0 2 1z" fill="#FEFEFE"/>
<path transform="translate(1340,490)" d="m0 0 2 1z" fill="#FEFEFE"/>
<path transform="translate(1824,485)" d="m0 0 2 1z" fill="#FEFEFE"/>
<path transform="translate(1352,485)" d="m0 0 2 1z" fill="#FEFEFE"/>
<path transform="translate(1373,477)" d="m0 0 2 1z" fill="#FEFEFE"/>
<path transform="translate(1375,476)" d="m0 0 2 1z" fill="#FEFEFE"/>
<path transform="translate(1417,459)" d="m0 0 2 1z" fill="#FEFEFE"/>
<path transform="translate(1420,458)" d="m0 0 2 1z" fill="#FEFEFE"/>
<path transform="translate(1422,457)" d="m0 0 2 1z" fill="#FEFEFE"/>
<path transform="translate(1919,392)" d="m0 0" fill="#FEFEFE"/>
<path transform="translate(1922,387)" d="m0 0" fill="#FEFEFE"/>
<path transform="translate(1981,252)" d="m0 0" fill="#FEFEFE"/>
<path transform="translate(1941,224)" d="m0 0 2 1z" fill="#FEFEFE"/>
<path transform="translate(1943,223)" d="m0 0 2 1z" fill="#FEFEFE"/>
<path transform="translate(1945,222)" d="m0 0 2 1z" fill="#FEFEFE"/>
<path transform="translate(1947,221)" d="m0 0 2 1z" fill="#FEFEFE"/>
<path transform="translate(1992,219)" d="m0 0" fill="#D91C34"/>
<path transform="translate(1949,220)" d="m0 0 2 1z" fill="#FEFEFE"/>
<path transform="translate(1993,216)" d="m0 0" fill="#FEFEFE"/>
<path transform="translate(1994,213)" d="m0 0" fill="#FEFEFE"/>
<path transform="translate(157,1798)" d="m0 0" fill="#FEFEFE"/>
<path transform="translate(1286,1797)" d="m0 0" fill="#FEFEFE"/>
<path transform="translate(934,1796)" d="m0 0" fill="#FEFEFE"/>
<path transform="translate(1289,1795)" d="m0 0" fill="#D91C34"/>
<path transform="translate(933,1795)" d="m0 0" fill="#FEFEFE"/>
<path transform="translate(588,1795)" d="m0 0" fill="#FEFEFE"/>
<path transform="translate(154,1795)" d="m0 0" fill="#FEFEFE"/>
<path transform="translate(584,1794)" d="m0 0" fill="#FEFEFE"/>
<path transform="translate(583,1793)" d="m0 0" fill="#FEFEFE"/>
<path transform="translate(581,1793)" d="m0 0" fill="#FEFEFE"/>
<path transform="translate(386,1793)" d="m0 0" fill="#FEFEFE"/>
<path transform="translate(2e3 1791)" d="m0 0" fill="#FEFEFE"/>
<path transform="translate(1489,1788)" d="m0 0" fill="#FEFEFE"/>
<path transform="translate(2e3 1786)" d="m0 0" fill="#FEFEFE"/>
<path transform="translate(1991,1779)" d="m0 0" fill="#D91C34"/>
<path transform="translate(1668,1773)" d="m0 0" fill="#D91C34"/>
<path transform="translate(1676,1760)" d="m0 0" fill="#D91C34"/>
<path transform="translate(1517,1760)" d="m0 0" fill="#FEFEFE"/>
<path transform="translate(1517,1758)" d="m0 0" fill="#FEFEFE"/>
<path transform="translate(1116,1756)" d="m0 0" fill="#FEFEFE"/>
<path transform="translate(1105,1742)" d="m0 0" fill="#FEFEFE"/>
<path transform="translate(1966,1740)" d="m0 0" fill="#FEFEFE"/>
<path transform="translate(1103,1739)" d="m0 0" fill="#FEFEFE"/>
<path transform="translate(1102,1738)" d="m0 0" fill="#D91C34"/>
<path transform="translate(1101,1737)" d="m0 0" fill="#FEFEFE"/>
<path transform="translate(1098,1733)" d="m0 0" fill="#D91C34"/>
<path transform="translate(1693,1732)" d="m0 0" fill="#FEFEFE"/>
<path transform="translate(1097,1732)" d="m0 0" fill="#D91C34"/>
<path transform="translate(1695,1729)" d="m0 0" fill="#D91C34"/>
<path transform="translate(1094,1727)" d="m0 0" fill="#D91C34"/>
<path transform="translate(1956,1725)" d="m0 0" fill="#FEFEFE"/>
<path transform="translate(1701,1719)" d="m0 0" fill="#D91C34"/>
<path transform="translate(1702,1718)" d="m0 0" fill="#D91C34"/>
<path transform="translate(1951,1717)" d="m0 0" fill="#D91C34"/>
<path transform="translate(1703,1716)" d="m0 0" fill="#D91C34"/>
<path transform="translate(1949,1714)" d="m0 0" fill="#FEFEFE"/>
<path transform="translate(1705,1713)" d="m0 0" fill="#FEFEFE"/>
<path transform="translate(1947,1711)" d="m0 0" fill="#FEFEFE"/>
<path transform="translate(1946,1710)" d="m0 0" fill="#FEFEFE"/>
<path transform="translate(1945,1708)" d="m0 0" fill="#FEFEFE"/>
<path transform="translate(1708,1708)" d="m0 0" fill="#FEFEFE"/>
<path transform="translate(1943,1705)" d="m0 0" fill="#D91C34"/>
<path transform="translate(1941,1702)" d="m0 0" fill="#FEFEFE"/>
<path transform="translate(1715,1697)" d="m0 0" fill="#D91C34"/>
<path transform="translate(1716,1695)" d="m0 0" fill="#FEFEFE"/>
<path transform="translate(1718,1692)" d="m0 0" fill="#D91C34"/>
<path transform="translate(1058,1681)" d="m0 0" fill="#FEFEFE"/>
<path transform="translate(1054,1675)" d="m0 0" fill="#FEFEFE"/>
<path transform="translate(1053,1674)" d="m0 0" fill="#FEFEFE"/>
<path transform="translate(1913,1659)" d="m0 0" fill="#FEFEFE"/>
<path transform="translate(1910,1655)" d="m0 0" fill="#FEFEFE"/>
<path transform="translate(459,1655)" d="m0 0" fill="#FEFEFE"/>
<path transform="translate(1905,1647)" d="m0 0" fill="#D91C34"/>
<path transform="translate(1028,1640)" d="m0 0" fill="#FEFEFE"/>
<path transform="translate(1027,1639)" d="m0 0" fill="#FEFEFE"/>
<path transform="translate(1026,1638)" d="m0 0" fill="#FEFEFE"/>
<path transform="translate(1025,1636)" d="m0 0" fill="#FEFEFE"/>
<path transform="translate(1021,1631)" d="m0 0" fill="#FEFEFE"/>
<path transform="translate(769,1631)" d="m0 0" fill="#FEFEFE"/>
<path transform="translate(1020,1630)" d="m0 0" fill="#FEFEFE"/>
<path transform="translate(1019,1629)" d="m0 0" fill="#FEFEFE"/>
<path transform="translate(1018,1628)" d="m0 0" fill="#FEFEFE"/>
<path transform="translate(1017,1626)" d="m0 0" fill="#FEFEFE"/>
<path transform="translate(1016,1625)" d="m0 0" fill="#FEFEFE"/>
<path transform="translate(1571,1624)" d="m0 0" fill="#D91C34"/>
<path transform="translate(1015,1624)" d="m0 0" fill="#FEFEFE"/>
<path transform="translate(497,1624)" d="m0 0" fill="#FEFEFE"/>
<path transform="translate(1013,1621)" d="m0 0" fill="#FEFEFE"/>
<path transform="translate(1012,1620)" d="m0 0" fill="#D91C34"/>
<path transform="translate(1547,1615)" d="m0 0" fill="#FEFEFE"/>
<path transform="translate(491,1556)" d="m0 0" fill="#FEFEFE"/>
<path transform="translate(518,1538)" d="m0 0" fill="#FEFEFE"/>
<path transform="translate(1225,1535)" d="m0 0" fill="#FEFEFE"/>
<path transform="translate(1223,1534)" d="m0 0" fill="#FEFEFE"/>
<path transform="translate(311,1527)" d="m0 0" fill="#FEFEFE"/>
<path transform="translate(310,1526)" d="m0 0" fill="#FEFEFE"/>
<path transform="translate(1206,1523)" d="m0 0" fill="#FEFEFE"/>
<path transform="translate(1204,1522)" d="m0 0" fill="#FEFEFE"/>
<path transform="translate(308,1521)" d="m0 0" fill="#FEFEFE"/>
<path transform="translate(1193,1515)" d="m0 0" fill="#FEFEFE"/>
<path transform="translate(304,1515)" d="m0 0" fill="#D91C34"/>
<path transform="translate(1191,1514)" d="m0 0" fill="#FEFEFE"/>
<path transform="translate(1185,1510)" d="m0 0" fill="#FEFEFE"/>
<path transform="translate(1182,1508)" d="m0 0" fill="#FEFEFE"/>
<path transform="translate(1174,1503)" d="m0 0" fill="#FEFEFE"/>
<path transform="translate(283,1491)" d="m0 0" fill="#D91C34"/>
<path transform="translate(1153,1490)" d="m0 0" fill="#FEFEFE"/>
<path transform="translate(1127,1474)" d="m0 0" fill="#FEFEFE"/>
<path transform="translate(1126,1473)" d="m0 0" fill="#FEFEFE"/>
<path transform="translate(1110,1463)" d="m0 0" fill="#FEFEFE"/>
<path transform="translate(1105,1460)" d="m0 0" fill="#FEFEFE"/>
<path transform="translate(1097,1455)" d="m0 0" fill="#FEFEFE"/>
<path transform="translate(1094,1453)" d="m0 0" fill="#FEFEFE"/>
<path transform="translate(1091,1451)" d="m0 0" fill="#FEFEFE"/>
<path transform="translate(1084,1447)" d="m0 0" fill="#FEFEFE"/>
<path transform="translate(1044,1422)" d="m0 0" fill="#FEFEFE"/>
<path transform="translate(206,1413)" d="m0 0" fill="#FEFEFE"/>
<path transform="translate(322,1357)" d="m0 0" fill="#FEFEFE"/>
<path transform="translate(314,1348)" d="m0 0" fill="#FEFEFE"/>
<path transform="translate(317,1322)" d="m0 0" fill="#FEFEFE"/>
<path transform="translate(205,1290)" d="m0 0" fill="#FEFEFE"/>
<path transform="translate(204,1288)" d="m0 0" fill="#FEFEFE"/>
<path transform="translate(1317,1285)" d="m0 0" fill="#FEFEFE"/>
<path transform="translate(1340,1277)" d="m0 0" fill="#FEFEFE"/>
<path transform="translate(1342,1276)" d="m0 0" fill="#FEFEFE"/>
<path transform="translate(1349,1273)" d="m0 0" fill="#FEFEFE"/>
<path transform="translate(47,1254)" d="m0 0" fill="#FEFEFE"/>
<path transform="translate(46,1253)" d="m0 0" fill="#FEFEFE"/>
<path transform="translate(45,1252)" d="m0 0" fill="#FEFEFE"/>
<path transform="translate(163,1251)" d="m0 0" fill="#D91C34"/>
<path transform="translate(207,1248)" d="m0 0" fill="#FEFEFE"/>
<path transform="translate(740,1233)" d="m0 0" fill="#FEFEFE"/>
<path transform="translate(100,1129)" d="m0 0" fill="#FEFEFE"/>
<path transform="translate(3,1101)" d="m0 0" fill="#FEFEFE"/>
<path transform="translate(224,1094)" d="m0 0" fill="#FEFEFE"/>
<path transform="translate(569,1092)" d="m0 0" fill="#FEFEFE"/>
<path transform="translate(241,1089)" d="m0 0" fill="#FEFEFE"/>
<path transform="translate(201,1064)" d="m0 0" fill="#FEFEFE"/>
<path transform="translate(213,1060)" d="m0 0" fill="#FEFEFE"/>
<path transform="translate(1544,1042)" d="m0 0" fill="#FEFEFE"/>
<path transform="translate(765,1040)" d="m0 0" fill="#FEFEFE"/>
<path transform="translate(1557,1033)" d="m0 0" fill="#FEFEFE"/>
<path transform="translate(1560,1031)" d="m0 0" fill="#D91C34"/>
<path transform="translate(1569,1024)" d="m0 0" fill="#D91C34"/>
<path transform="translate(1572,1022)" d="m0 0" fill="#FEFEFE"/>
<path transform="translate(340,1015)" d="m0 0" fill="#FEFEFE"/>
<path transform="translate(342,1014)" d="m0 0" fill="#FEFEFE"/>
<path transform="translate(884,1009)" d="m0 0" fill="#FEFEFE"/>
<path transform="translate(370 1e3)" d="m0 0" fill="#FEFEFE"/>
<path transform="translate(374 1e3)" d="m0 0" fill="#FEFEFE"/>
<path transform="translate(375 1e3)" d="m0 0" fill="#FEFEFE"/>
<path transform="translate(384 1e3)" d="m0 0" fill="#FEFEFE"/>
<path transform="translate(1142 1e3)" d="m0 0" fill="#FEFEFE"/>
<path transform="translate(1154,998)" d="m0 0" fill="#FEFEFE"/>
<path transform="translate(1177,991)" d="m0 0" fill="#FEFEFE"/>
<path transform="translate(956,989)" d="m0 0" fill="#FEFEFE"/>
<path transform="translate(957,988)" d="m0 0" fill="#FEFEFE"/>
<path transform="translate(136,980)" d="m0 0" fill="#FEFEFE"/>
<path transform="translate(1228,977)" d="m0 0" fill="#FEFEFE"/>
<path transform="translate(454,975)" d="m0 0" fill="#FEFEFE"/>
<path transform="translate(148,974)" d="m0 0" fill="#FEFEFE"/>
<path transform="translate(494,961)" d="m0 0" fill="#FEFEFE"/>
<path transform="translate(1628,955)" d="m0 0" fill="#FEFEFE"/>
<path transform="translate(1629,953)" d="m0 0" fill="#FEFEFE"/>
<path transform="translate(1631,950)" d="m0 0" fill="#FEFEFE"/>
<path transform="translate(1632,949)" d="m0 0" fill="#FEFEFE"/>
<path transform="translate(1408,931)" d="m0 0" fill="#FEFEFE"/>
<path transform="translate(1659,911)" d="m0 0" fill="#FEFEFE"/>
<path transform="translate(646,907)" d="m0 0" fill="#FEFEFE"/>
<path transform="translate(654,905)" d="m0 0" fill="#FEFEFE"/>
<path transform="translate(662,902)" d="m0 0" fill="#FEFEFE"/>
<path transform="translate(1534,900)" d="m0 0" fill="#FEFEFE"/>
<path transform="translate(832,895)" d="m0 0" fill="#FEFEFE"/>
<path transform="translate(680,895)" d="m0 0" fill="#FEFEFE"/>
<path transform="translate(843,891)" d="m0 0" fill="#FEFEFE"/>
<path transform="translate(844,890)" d="m0 0" fill="#FEFEFE"/>
<path transform="translate(1605,882)" d="m0 0" fill="#FEFEFE"/>
<path transform="translate(1679,878)" d="m0 0" fill="#FEFEFE"/>
<path transform="translate(956,853)" d="m0 0" fill="#FEFEFE"/>
<path transform="translate(814,848)" d="m0 0" fill="#FEFEFE"/>
<path transform="translate(822,844)" d="m0 0" fill="#FEFEFE"/>
<path transform="translate(1626,808)" d="m0 0" fill="#FEFEFE"/>
<path transform="translate(1636,806)" d="m0 0" fill="#FEFEFE"/>
<path transform="translate(1132,796)" d="m0 0" fill="#FEFEFE"/>
<path transform="translate(1182,780)" d="m0 0" fill="#FEFEFE"/>
<path transform="translate(1697,779)" d="m0 0" fill="#FEFEFE"/>
<path transform="translate(1700,777)" d="m0 0" fill="#FEFEFE"/>
<path transform="translate(1702,776)" d="m0 0" fill="#FEFEFE"/>
<path transform="translate(1708,772)" d="m0 0" fill="#D91C34"/>
<path transform="translate(1210,770)" d="m0 0" fill="#FEFEFE"/>
<path transform="translate(649,770)" d="m0 0" fill="#FEFEFE"/>
<path transform="translate(1736,748)" d="m0 0" fill="#D91C34"/>
<path transform="translate(1330,731)" d="m0 0" fill="#FEFEFE"/>
<path transform="translate(1764,716)" d="m0 0" fill="#FEFEFE"/>
<path transform="translate(788,715)" d="m0 0" fill="#FEFEFE"/>
<path transform="translate(800,710)" d="m0 0" fill="#FEFEFE"/>
<path transform="translate(1400,708)" d="m0 0" fill="#FEFEFE"/>
<path transform="translate(809,706)" d="m0 0" fill="#D91C34"/>
<path transform="translate(1408,705)" d="m0 0" fill="#FEFEFE"/>
<path transform="translate(814,704)" d="m0 0" fill="#FEFEFE"/>
<path transform="translate(820,702)" d="m0 0" fill="#FEFEFE"/>
<path transform="translate(822,701)" d="m0 0" fill="#FEFEFE"/>
<path transform="translate(847,691)" d="m0 0" fill="#FEFEFE"/>
<path transform="translate(1783,689)" d="m0 0" fill="#FEFEFE"/>
<path transform="translate(1788,680)" d="m0 0" fill="#D91C34"/>
<path transform="translate(1792,674)" d="m0 0" fill="#FEFEFE"/>
<path transform="translate(1510,672)" d="m0 0" fill="#D91C34"/>
<path transform="translate(1526,667)" d="m0 0" fill="#FEFEFE"/>
<path transform="translate(914,663)" d="m0 0" fill="#FEFEFE"/>
<path transform="translate(937,654)" d="m0 0" fill="#FEFEFE"/>
<path transform="translate(961,644)" d="m0 0" fill="#FEFEFE"/>
<path transform="translate(1810,643)" d="m0 0" fill="#FEFEFE"/>
<path transform="translate(990,633)" d="m0 0" fill="#FEFEFE"/>
<path transform="translate(1013,624)" d="m0 0" fill="#FEFEFE"/>
<path transform="translate(1822,621)" d="m0 0" fill="#FEFEFE"/>
<path transform="translate(1025,619)" d="m0 0" fill="#FEFEFE"/>
<path transform="translate(1706,607)" d="m0 0" fill="#FEFEFE"/>
<path transform="translate(1057,605)" d="m0 0" fill="#FEFEFE"/>
<path transform="translate(1075,598)" d="m0 0" fill="#FEFEFE"/>
<path transform="translate(1082,595)" d="m0 0" fill="#FEFEFE"/>
<path transform="translate(1746,592)" d="m0 0" fill="#FEFEFE"/>
<path transform="translate(1089,592)" d="m0 0" fill="#FEFEFE"/>
<path transform="translate(1134,574)" d="m0 0" fill="#FEFEFE"/>
<path transform="translate(1813,567)" d="m0 0" fill="#FEFEFE"/>
<path transform="translate(1150,567)" d="m0 0" fill="#FEFEFE"/>
<path transform="translate(1171,559)" d="m0 0" fill="#FEFEFE"/>
<path transform="translate(1185,553)" d="m0 0" fill="#FEFEFE"/>
<path transform="translate(1254,525)" d="m0 0" fill="#FEFEFE"/>
<path transform="translate(1306,504)" d="m0 0" fill="#FEFEFE"/>
<path transform="translate(1325,497)" d="m0 0" fill="#FEFEFE"/>
<path transform="translate(1342,489)" d="m0 0" fill="#FEFEFE"/>
<path transform="translate(1351,486)" d="m0 0" fill="#FEFEFE"/>
<path transform="translate(1826,484)" d="m0 0" fill="#FEFEFE"/>
<path transform="translate(1828,483)" d="m0 0" fill="#FEFEFE"/>
<path transform="translate(1408,463)" d="m0 0" fill="#FEFEFE"/>
<path transform="translate(1920,391)" d="m0 0" fill="#FEFEFE"/>
<path transform="translate(1921,389)" d="m0 0" fill="#FEFEFE"/>
<path transform="translate(1963,213)" d="m0 0" fill="#FEFEFE"/>
<path transform="translate(2e3 209)" d="m0 0" fill="#FEFEFE"/>
</svg>
