<?xml version="1.0" encoding="UTF-8"?>
<svg version="1.1" viewBox="0 0 1600 1600" width="1280" height="1280" xmlns="http://www.w3.org/2000/svg">
<path transform="translate(853,516)" d="m0 0 15 1-1 4-6 10-4 10-1 6v27l5 20 8 21 12 25 9 17 12 21 13 23 10 18 28 49 10 17 11 21 7 12 1 7-1 1h-29l-26-4-22-8-13-7-14-11-12-12-11-14-13-21-15-27-11-21-14-24-13-24-13-23-14-25-3-11 2-10 11-23 10-17 10-13 8-7 12-5 9-2z" fill="#BB4550"/>
<path transform="translate(739,619)" d="m0 0 4 4 10 19 8 24 3 15 2 18v14l-4 22-5 15-8 16-8 11-11 12-7 7-15 11-16 8-24 8-19 3-9 1h-17l-3-3 1-6 9-15 14-24 8-14 9-15 13-22 24-40 13-23 10-18 14-23z" fill="#BB4550"/>
<path transform="translate(1104,910)" d="m0 0h37v4l-2 3v7l13 34 16 42 11 28 14 37 6 15v2l-3 1h-33l-4-6-11-29-17-47-15-42-3-7h-2l-7 19-14 39-3 8 13-1 16 2 6 4 6 10 5 13v2l-58 1-3 9-9 24-6 1h-28l-1-4 7-20 10-26 19-50 15-39 8-20 6-8 5-4z" fill="#500AC0"/>
<path transform="translate(317,910)" d="m0 0h36l-1 4-2 5 1 7 18 47 19 49 20 53 2 5v3h-35l-3-2-13-34-13-36-16-44-5-15v-2l-3 2-10 27-7 20-7 18h13l15 2 8 5 5 8 5 13-1 3-57 1-3 10-8 22-2 2h-26l-7-1 1-8 17-45 17-44 15-40 9-22 6-8 7-4z" fill="#500AC0"/>
<path transform="translate(601,952)" d="m0 0h18l13 3 11 6 12 12 1-6 6-8 5-3 16-2 3 2v126l-3 1h-27l-2-1-1-4-1-69-4-11-5-7-6-4-9-3-12-1-10 2-8 4-5 4-6 10-3 11v15l4 13 6 8 10 5 5 1h12l10-3 6-4 4 1 3 8v7l-4 8-5 5-6 4-6 2-9 1h-20l-12-3-11-6-9-8-8-13-5-15-1-7v-23l4-16 8-16 11-12 8-6 10-5z" fill="#500AC0"/>
<path transform="translate(883,952)" d="m0 0h19l12 3 11 6 11 11 5-9 7-6 6-2 13-1 1 1v127l-2 1h-27l-3-1-1-18-1-55-5-13-5-5-7-5-6-2h-19l-10 4-8 7-5 8-3 11v14l3 11 6 9 8 6 8 2h13l10-3 5-4 4 1 3 6 1 7-4 9-5 6-10 5-10 2h-21l-13-3-11-6-7-6-7-10-5-10-4-16v-24l4-16 8-16 9-10 7-6 16-8z" fill="#500AC0"/>
<path transform="translate(454,902)" d="m0 0h7l1 1 1 102 10-11 7-8 24-28 3-3h42l-6 7-7 8-10 11-9 11-15 16-5 6 1 5 22 26 9 11 11 13 9 11 1 3h-41l-6-5-9-11-11-13-11-14-8-10-3-2 1 3v51l-3 1h-28l-2-6v-151l2-9 4-6 7-6 5-2z" fill="#500AC0"/>
<path transform="translate(751,952)" d="m0 0h23l16 3 14 7 6 8 1 8-6 12-4 1-15-7-17-4h-14l-9 4-2 3 1 8 6 4 35 9 14 6 8 7 5 10 2 7v13l-5 12-9 10-9 6-11 4-14 2h-23l-16-3-16-8-7-8-1-8 4-11 2-3h5l16 8 13 4 16 2 13-2 5-3 1-2v-8l-1-3-10-3-33-8-14-7-7-8-4-9-1-4v-16l4-10 6-8 8-7 14-6z" fill="#500BC0"/>
<path transform="translate(1340,953)" d="m0 0h9l8 3 4 4 1 3v11l-3 10-4 2-7-2h-8l-13 4-9 8-6 12-1 14-1 60-4 1h-27l-1-2v-108l3-8 7-7 8-3h14v21l5-5 9-10 8-5z" fill="#500AC0"/>
<path transform="translate(1238,955)" d="m0 0h12l1 126-1 1-12 1h-18l-2-2v-105l3-9 7-8 5-3z" fill="#500AC0"/>
<path transform="translate(1231,895)" d="m0 0 10 1 8 4 5 7 1 3v12l-6 9-6 4-3 1h-10l-7-3-7-8-2-7 1-9 5-8 5-4z" fill="#510BC0"/>
</svg>
