<?xml version="1.0" encoding="UTF-8"?>
<svg version="1.1" viewBox="0 0 900 900" width="1280" height="1280" xmlns="http://www.w3.org/2000/svg">
<path transform="translate(0)" d="m0 0h900v900h-900z" fill="#FDFDFD"/>
<path transform="translate(332,313)" d="m0 0h6l4 4 3 9 1 9 1 40 3 9 5 5 8 4 7 1h111l8-16 7-10 11-9 14-12 6-1-2 5-4 2-1 3-5 5-5 8-1 6v18h19l9-5 1-1 1-13 4 1 2 3 5-2 11-10 12-6h8l7 6 3 8-2 11-6 10-16 15-10 6-7-1-8-6-3-7-1-6-4 2-11 11-8 7-5 6-1 2-1 38-1 16-4 9-6 8-13 13-8 7-6 5-6 1-2-2 7-7 7-6 4-7 1-3 1-12v-42l-1-19-108-1-11-4-10-9-4-5-5-11-3-13-1-8-1-38-2-12-4-6z" fill="#F23A47"/>
<path transform="translate(217,580)" d="m0 0 20 1 8 3 4 7 2 4 10-10 7-4 4-1h12l11 4 6 5 5 8 4-5 7-8 5-3 4-1h11l13 4 10 9 3 10 1 65 5 12 3 5v2h-27l-4-3-3-7-1-5-1-40v-17l-2-9-6-5-2-1h-10l-7 6-1 4v54l2 9 7 12v2h-27l-5-3-3-9-1-64-3-6-6-5h-10l-6 3-3 5-1 5v49l2 10 7 15h-25l-6-3-3-6-1-4-1-13-1-69-5-8z" fill="#F23A47"/>
<path transform="translate(449,215)" d="m0 0h2l4 9 6 10 8 11 2 4v6l-9 10-1 2-5-1-2-3h-2v20l-2 8 10 16 4 12 1 11v12l-1 9-7 10-14 14-7 4-4 1h-58l-7-3-7-6-1-2v-21l9 3h9l6-4 27-27 7-8 5-5-1-5-11-9-14-11-4-2h-7l-3 1-2 6-1 8v20l1 11-4-1-14-16-2-4v-10l5-10 7-6 14-7 6-1h21l9 2 9 4 13 8v-22l-1-10-7-11-2-7 2-7 6-7z" fill="#F23A47"/>
<path transform="translate(109,554)" d="m0 0h70l11 2 10 5 7 7 5 9-5-1-10-4-12-2-38-1 2 28 6 1 17 1 8 4 11 9 1 4-9-2-21-1h-13v40l1 15 5 2h39l10-2 6-4 3 1-1 10-7 8-6 3-11 1h-55l-10-2-3-5-1-7-2-84-1-17-2-8-5-8z" fill="#F23A47"/>
<path transform="translate(525,581)" d="m0 0h16l11 3 10 9 4 7 1 68 4 10 4 6v3h-24l-6-2-3-8-5 2-8 6-3 1h-16l-7-3-7-6-4-9-1-4v-10l3-10 9-10 13-8 18-8 6-4 2-6-1-9-4-4-4-1h-8l-8 3-5 5-4 2-1-1v-14l7-5z" fill="#F23A47"/>
<path transform="translate(681,580)" d="m0 0h12l13 4 7 6 5 9 1 9-5 10-9 10-7 6-23 12-2 2 1 9 4 8 7 6 7 2h7l9-3 8-8h2v14l-4 5-11 4-6 1h-20l-12-5-9-7-7-9-5-11-2-7-1-8v-9l3-16 5-12 7-9 9-8 10-4z" fill="#F23A47"/>
<path transform="translate(320,399)" d="m0 0h7l5 6 1 4 1 41 2 14 5 13 8 10 11 8 12 5 5 1h67l7-3 5-9v-8l-4-6-10-10-1-2-1-17v-13l2-1 6 4 8 8 5 8 2 7v26l-3 10-6 9-9 10-11 9-9 5-6 1h-40l-13-3-10-5-11-9-8-10-7-14-3-14-1-58-2-9-4-4z" fill="#F23A47"/>
<path transform="translate(526,418)" d="m0 0 5 3 5 5 7 8 4 8 1 6v47l-2 14-5 13-7 10-4 5-13 9-11 5-18 4-25 1-8-7-12-11-8-6v-3h40l13-1 14-4 9-6 10-9 9-10 7-11 4-10v-10l-4-7-2-4-4-2-5-6-1-2v-26z" fill="#F23A47"/>
<path transform="translate(753,580)" d="m0 0h16l11 4 5 4 3 10-1 7-5-5-6-5-5-2h-8l-8 3-2 2v8l5 5 20 13 9 9 5 10 1 4v11l-4 9-6 8-8 6-10 4-4 1h-13l-14-4-5-3-1-2v-15l3 1 4 5 7 4 4 1h8l8-4h2l3-6v-11l-6-7-14-9-10-8-6-8-3-8v-11l3-8 9-8 9-4z" fill="#F23A47"/>
<path transform="translate(616,560)" d="m0 0h2l1 17 1 3 20 1 1 1v14l-20-2-3-1 1 78 8 14-1 2h-23l-5-2-5-8-1-4-1-80h-10l-3-1v-2l15-8 10-8z" fill="#F23A47"/>
<path transform="translate(428,581)" d="m0 0h20l7 3 3 5 3 7 9-12 4-2h16l6 5 1 17-4 1-7-4h-12l-7 3-4 4-1 3v58l3 8 5 9-1 1h-25l-5-3-4-11-1-79-6-11z" fill="#F23A47"/>
<path transform="translate(526,213)" d="m0 0 2 2-7 8-8 9-4 8-1 3-1 91-4 10-11 13-11 10-11 9-1 1h-7l2-4 11-10 5-8 2-12 1-84 4-11 8-10 6-6h2v-2l11-9 9-7z" fill="#F23A47"/>
<path transform="translate(378,580)" d="m0 0 20 1 7 3 5 8 1 4 1 66 2 11 6 12v2h-26l-5-3-3-6-1-9-1-75-6-11z" fill="#F23A47"/>
<path transform="translate(428,310)" d="m0 0 5 3 8 8 11 14 4 7 1 6-1 3-6 3h-63l2-4 27-27 7-8z" fill="#FDFDFD"/>
<path transform="translate(536,627)" d="m0 0h4l1 7v32l-5 5-6 2h-9l-5-5-2-5v-11l3-7 9-10z" fill="#FDFDFD"/>
<path transform="translate(409,435)" d="m0 0 5 1 12 12 4 8-2 6-11 12-4 4-4-1-3-6-14-17 4-7 7-7z" fill="#F23A47"/>
<path transform="translate(369,435)" d="m0 0 6 1 12 12 3 5-1 9-15 15h-4l-6-10-12-13 2-4h2l2-4z" fill="#F23A47"/>
<path transform="translate(683,589)" d="m0 0h6l5 5 1 3v10l-4 11-6 8-11 9-4 1-1-1v-12l2-16 4-11 4-5z" fill="#FDFDFD"/>
<path transform="translate(393,548)" d="m0 0h11l5 4 3 7v5l-6 7-5 2-9-1-5-4-2-5v-7l4-6z" fill="#F23A47"/>
<path transform="translate(559,381)" d="m0 0 9 1 4 4 3 5-2 6-3 2-6-1-11-11v-4z" fill="#FDFDFD"/>
</svg>
