<?xml version="1.0" encoding="UTF-8"?>
<svg version="1.1" viewBox="0 0 1724 1124" width="1280" height="1280" xmlns="http://www.w3.org/2000/svg">
<path transform="translate(1275,522)" d="m0 0h39l17 1 17 3 16 5 12 7 10 9 6 8 5 11v4l-14-2h-38l-23 3-2 1 9 10 9 11 8 10v3l4 2 12 14 11 14 13 15 11 14 12 14 8 10 14 17 11 13 8 10 11 13 8 10 11 13 8 10 11 13 8 10 11 13 11 14 2 5-173-1-17-3-15-6-11-6-14-11-9-10-12-18-9-15-14-23-17-28-15-25-4-6-34-56-15-25-7-17-2-10v-8l2-8 6-8 10-7 16-7 21-5 21-3z" fill="#C42024"/>
<path transform="translate(992,300)" d="m0 0h83l12 2 12 5 11 7 15 14 10 11 13 17 10 12 10 13 13 16 10 13 12 15 11 14 13 16 10 13 12 15 11 14 8 10 2 5h-115l-17-2-13-5-9-6-10-11-13-20-12-20-16-26-12-20-13-21-15-25-13-21-15-25-5-7z" fill="#0CA3DF"/>
<path transform="translate(1275,522)" d="m0 0h39l17 1 17 3 16 5 12 7 10 9 6 8 5 11v4l-14-2h-38l-23 3-4 2-9 1-8 3-21 8-15 8-11 8-8 7-7 8-9 15-5 17-1 8v13l1 6 1 2v7l-4-5-6-9-15-25-17-28-10-17-7-14-3-9-1-7v-8l2-8 6-8 10-7 16-7 21-5 21-3z" fill="#FCFDFD"/>
<path transform="translate(1210,439)" d="m0 0 5 1 22 28 12 15 11 14 8 10 2 5h-115l-17-2-13-5-9-6-10-11-13-20-8-13v-3h6l2-4 4-3h110z" fill="#3E5467"/>
<path transform="translate(343,456)" d="m0 0 14 1 9 4 7 6 4 6 2 1 2-5 8-7 8-4 10-2 14 1 11 4 8 7 5 10 1 4 1 82-1 2h-23l-1-1-1-73-3-9-5-5-6-2-9 1-6 4-6 10-2 5-1 6-1 63-1 1h-23l-1-1-1-76-4-8-5-4-4-1h-7l-8 4-6 9-3 10-1 13v52l-2 2h-23l-1-12v-96l22 1v14h2l2-4 9-8 9-4z" fill="#405668"/>
<path transform="translate(202,425)" d="m0 0h28l3 5 18 49 18 48 13 34 1 5h-27l-6-15-5-15-1-1h-59l-9 27-3 4h-24l1-6 17-45 18-47 15-40zm11 27-12 37-9 24v2h45l-2-9-18-51-2-3z" fill="#405568"/>
<path transform="translate(373,600)" d="m0 0h27l4 8 15 41 24 64 10 27v1l-25 1-4-4-9-26-1-2h-59l-3 10-7 20-1 1h-25l1-6 8-20 20-53 11-29 12-31zm11 28-10 28-11 31v4h44l-1-7-17-48-3-8z" fill="#405669"/>
<path transform="translate(829,456)" d="m0 0h11l13 2 10 4 8 7 5 7 3 10 1 56 1 23-1 1h-21l-2-2-1-10-12 9-10 4h-21l-10-5-5-5-4-5-4-10-1-12 2-8 3-6 8-9 14-7 13-3 21-2h5l-2-9-4-6-5-3-3-1h-19l-15 4-4 2h-3l-1-2-1-15 3-3 19-5zm16 55-17 3-8 4-4 5-2 6v7l3 7 7 6 4 1h7l10-5 6-8 3-8 1-7v-10l-2-1z" fill="#405669"/>
<path transform="translate(510,456)" d="m0 0 16 1 11 4 8 6 7 8 5 12 2 12v9l-1 9-4 1h-65l4 15 4 5v2l4 2 7 4 10 2 14-1 17-5 3 1v19l-9 3-11 2-20 1-13-2-12-5-8-6-7-8-5-11-3-14v-20l4-16 5-10 9-10 10-6 9-3zm-1 18-9 3-7 8-3 8-1 7 1 1h43l2-1-2-12-5-8-5-4-8-2z" fill="#405668"/>
<path transform="translate(844,632)" d="m0 0h16l12 3 11 7 6 7 5 10 2 8 1 13-1 12-1 1h-68l3 13 5 8 6 5 10 4h17l12-3 8-3 1 1 1 9v10l-2 2-20 4h-25l-13-4-8-4-9-8-6-10-4-11-1-5v-26l5-16 6-10 5-6 11-7 9-3zm0 18-8 4-6 9-3 12 1 2h42l3-3-2-10-4-7-5-5-6-2z" fill="#3F5568"/>
<path transform="translate(952,456)" d="m0 0 14 1 10 4 9 8 5 10 1 3v83l-1 1h-23l-1-75-3-8-5-5-5-2h-7l-9 4-6 8-4 10-1 5-1 62-2 1h-22l-1-1-1-106 3-1 19 1v13h3l2-4 7-6 8-4z" fill="#405668"/>
<path transform="translate(741,632)" d="m0 0h14l13 4 8 6 6 10 2 6 1 82-1 1h-24l-1-73-3-9-4-5-5-2h-9l-8 4-6 8-4 9-1 5-1 62-1 1h-24l-1-107h22l1 6v7h2l7-8 12-6z" fill="#3F5568"/>
<path transform="translate(1275,522)" d="m0 0h39l17 1 17 3 16 5 12 7 10 9 6 8 5 11v4l-14-2h-38l-23 3-4 2-13 1-17 6h-3v-2h-2l-3-3-3-9v-11l-3-9-6-10-4-10v-3z" fill="#9BABB4"/>
<path transform="translate(945,632)" d="m0 0h17l15 3 6 3 1 1v18l-3 1-13-5-4-1h-18l-6 4-2 3v6l5 6 12 5 16 6 10 6 7 8 3 8v15l-5 10-9 8-11 4-10 2h-22l-17-4-5-3v-9l1-9 2-1 13 5 17 2 12-2 6-4 2-4-1-7-4-4-14-6-19-7-9-7-5-8-2-7v-9l3-9 5-7 11-7 9-3z" fill="#405669"/>
<path transform="translate(747,456)" d="m0 0 15 1 13 4 4 3v13l-1 6-18-6h-16l-10 5-6 9-3 11v20l4 13 5 7 7 4 4 1h15l15-5h3l1 6v12l-4 3-14 4-14 1-15-2-10-4-9-7-6-7-6-12-3-13v-22l4-15 5-10 9-10 13-7 8-2z" fill="#405668"/>
<path transform="translate(592,595)" d="m0 0h23l1 1v145h-24l-1-3v-142z" fill="#42576A"/>
<path transform="translate(558,632)" d="m0 0h13l6 2v19l-5 1-5-1h-9l-8 4-5 6-5 12-1 11-1 55h-24l-1-1v-106h21l1 1v13l5-5 9-8z" fill="#41576A"/>
<path transform="translate(618,457)" d="m0 0h21l2 2v14l-1 6-16-2-10 4-6 7-4 10-1 5-1 62-1 1h-23l-1-1-1-106 4-1 19 1v13l5-5 8-7z" fill="#415669"/>
<path transform="translate(643,634)" d="m0 0h23l1 1v106h-24l-1-1v-105z" fill="#42586B"/>
<path transform="translate(654,458)" d="m0 0 24 1 1 105-1 2h-24z" fill="#3E5467"/>
<path transform="translate(463,634)" d="m0 0h24l1 106-1 1h-24z" fill="#3E5467"/>
<path transform="translate(655,419)" d="m0 0h10l14 1v22l-1 1h-24l-1-1v-22z" fill="#455B6D"/>
<path transform="translate(642,595)" d="m0 0h25v23l-9 1h-14l-2-1z" fill="#415669"/>
<path transform="translate(463,595)" d="m0 0h24l1 1-1 22-24 1z" fill="#405669"/>
<path transform="translate(1558,805)" d="m0 0h7l6 4 3 4 1 7-4 6-5 4-7 1-6-4-4-6v-7l4-6zm1 3-7 6v6l5 6 6 2 6-5 2-4-1-6-6-5z" fill="#4F6475"/>
<path transform="translate(1558,813)" d="m0 0h6l1 1-1 7-4 1-3-7z" fill="#4D6273"/>
</svg>
