<?xml version="1.0" encoding="UTF-8"?>
<svg version="1.1" viewBox="0 0 2048 1137" width="1280" height="1280" xmlns="http://www.w3.org/2000/svg">
<path transform="translate(0)" d="m0 0h2048v1137h-2048z" fill="#FEFFFE"/>
<path transform="translate(984,369)" d="m0 0h28l26 3 25 6 21 8 21 11 16 11 10 8 13 11 8 8 5 4-2 4-15 16-9 10-11 12-4-1-12-10-17-13-17-12-12-7-17-7-15-4-12-2-15-1h-13l-22 3-15 4-15 6-13 7-11 8-13 11-11 12-12 17-8 16-6 15-5 23-1 8v30l3 19 5 18 8 18 9 15 9 11 11 12 13 11 14 9 17 8 17 5 16 3 13 1h13l21-2 18-4 17-6 17-9 14-10 12-11 8-9 9-14 7-16 4-14 3-23h-132l-1-1v-52l1-1h191l1 1v53l-3 23-6 23-8 20-10 18-10 14-9 10-6 7-8 7-15 12-15 10-23 12-25 9-22 5-15 2-14 1h-16l-21-2-17-3-15-4-17-6-21-10-17-11-12-9-11-10-8-7-7-8-10-12-10-15-10-18-9-23-6-25-2-14-1-14v-16l2-22 4-20 6-20 7-16 9-17 9-13 8-10 9-10 7-8 8-7 12-10 13-9 19-11 16-7 18-6 18-4 13-2z" fill="#001B93"/>
<path transform="translate(1347,491)" d="m0 0h31l18 3 16 5 14 6 16 10 9 7 10 9 10 10 10 14 9 16 6 16 4 17 2 21-1 22-4 22-6 17-10 19-10 13-10 11-11 9-12 9-19 10-18 6-20 4-9 1h-19l-21-3-14-4-16-6-17-10-13-10-13-12-11-14-8-13-7-15-5-16-3-17-1-22 2-23 4-17 6-16 9-17 11-14 10-11 11-9 13-9 17-9 18-6 14-3z" fill="#001B93"/>
<path transform="translate(612,376)" d="m0 0h53v262l-3 21-5 19-9 21-9 14-8 10-9 10-11 9-15 10-16 7-16 5-17 3-20 1-21-2-19-4-18-7-16-9-14-11-13-13-11-15-9-16-7-19-4-16-2-13-1-13v-14l2-18 5-21 8-18 10-16 13-15 12-11 13-9 17-9 15-5 14-3 7-1h27l21 3 18 5 21 9 3 2 1 20v33l-1 5-14-8-19-9-15-5-10-2h-24l-14 3-13 5-11 7-10 9-8 11-6 12-4 14-2 12v24l3 16 6 16 6 10 8 10 11 9 15 8 14 4 15 2 17-1 15-4 16-8 12-11 7-8 9-17 5-16 3-18 1-240z" fill="#001B93"/>
<path transform="translate(237,490)" d="m0 0h17l20 3 16 5 16 8 13 9 12 11 8 10 8 13 7 16 4 14 2 15v168l-4 1h-20l-30-1-1-157-2-16-5-14-7-10-8-9-11-7-10-4-11-2h-11l-14 3-12 6-9 7-8 9-5 8-5 15-1 6-1 57v108l-1 1h-35l-18-1v-166l3-20 5-16 8-17 8-11 9-10 7-7 13-9 16-8 16-5z" fill="#001B93"/>
<path transform="translate(1352,542)" d="m0 0h21l15 3 13 5 11 7 10 9 7 8 8 14 5 13 3 17v22l-3 17-6 16-7 11-7 9-11 9-14 8-12 4-12 2h-20l-16-3-15-6-10-7-10-9-9-12-6-12-5-17-1-6v-31l5-21 9-17 11-12 8-7 12-7 15-5z" fill="#FEFFFE"/>
<path transform="translate(42,376)" d="m0 0h57l-1 386-1 1h-37l-18-1z" fill="#001B93"/>
<path transform="translate(702,496)" d="m0 0h54l1 1-1 265-5 1-49-1z" fill="#001B93"/>
<path transform="translate(725,408)" d="m0 0h8l10 3 9 6 7 10 2 6v16l-6 12-8 7-11 4h-13l-11-4-8-7-4-6-3-10v-10l3-10 6-8 8-6 5-2z" fill="#001B93"/>
<path transform="translate(1716,638)" d="m0 0h7l8 4 4 6 1 3v8l-5 8-7 4h-8l-6-3-5-5-2-5v-8l5-8z" fill="#001B93"/>
<path transform="translate(1715,687)" d="m0 0h9l7 4 4 6 1 3v7l-3 6-7 6-9 1-8-4-5-6-1-3v-8l4-7 5-4z" fill="#001B93"/>
<path transform="translate(1667,638)" d="m0 0h8l8 5 3 4 1 3v9l-3 6-5 4-4 2h-8l-6-3-5-6-2-9 2-7 5-5z" fill="#001B93"/>
<path transform="translate(1618,638)" d="m0 0h8l6 3 5 6 2 9-3 8-7 6-3 1h-8l-8-5-3-4-1-3v-10l4-6 5-4z" fill="#001B93"/>
<path transform="translate(1914,491)" d="m0 0 9 2 5 4 3 6v9l-3 6-6 5-2 1h-10l-7-4-4-6-1-8 3-8 6-5z" fill="#001B93"/>
<path transform="translate(1864,442)" d="m0 0 8 1 6 4 4 6 1 8-3 7-7 6-2 1h-10l-6-4-4-5-1-2v-10l4-7 6-4z" fill="#001B93"/>
<path transform="translate(1912,646)" d="m0 0 9 1 6 4 4 7v9l-3 6-6 5-3 1h-9l-7-4-4-7-1-7 3-8 6-5z" fill="#001B93"/>
<path transform="translate(1758,442)" d="m0 0 8 1 6 4 4 6 1 7-3 8-7 6-2 1h-9l-6-3-5-6-1-2v-11l4-6 6-4z" fill="#001B93"/>
<path transform="translate(1709,442)" d="m0 0 8 1 6 4 5 8v7l-4 8-8 5h-9l-7-4-4-5-1-3v-8l4-8 6-4z" fill="#001B93"/>
<path transform="translate(1715,736)" d="m0 0h9l6 3 4 5 2 5v7l-3 6-7 6-9 1-8-4-5-6-1-3v-7l4-8z" fill="#001B93"/>
<path transform="translate(1913,540)" d="m0 0 8 1 8 7 2 4v10l-4 6-5 4-2 1h-10l-8-5-3-5-1-8 3-8 6-5z" fill="#001B93"/>
<path transform="translate(1913,442)" d="m0 0 8 1 6 4 4 7v9l-3 6-6 5-3 1h-9l-6-4-5-6-1-9 4-8 6-5z" fill="#001B93"/>
<path transform="translate(1911,589)" d="m0 0h7l8 4 5 8v9l-4 7-8 5h-8l-6-3-5-6-2-9 2-7 8-7z" fill="#001B93"/>
<path transform="translate(1787,565)" d="m0 0h11l6 4 4 5 1 3v9l-4 6-5 4-9 2-7-3-5-5-3-7 2-10 5-6z" fill="#001B93"/>
<path transform="translate(1815,442)" d="m0 0 8 1 6 4 4 7v10l-4 6-5 4-2 1h-10l-6-4-4-5-1-2v-11l4-6 6-4z" fill="#001B93"/>
<path transform="translate(1984,369)" d="m0 0h7l8 4 5 8v9l-3 6-6 5-3 1h-9l-6-4-4-5-1-2v-10l4-7z" fill="#001B93"/>
<path transform="translate(1821,524)" d="m0 0h9l8 5 4 8-1 9-4 6-6 4-9 1-6-3-5-5-2-7 1-8 4-6z" fill="#001B93"/>
<path transform="translate(1757,597)" d="m0 0 9 1 5 3 4 5 2 6-1 7-4 7-7 4h-9l-7-4-4-6-1-9 3-7 7-6z" fill="#001B93"/>
<path transform="translate(1942,402)" d="m0 0h10l6 3 4 5 2 6-1 8-4 6-6 4h-11l-6-4-4-6-1-8 3-8 6-5z" fill="#001B93"/>
<path transform="translate(1864,491)" d="m0 0 10 2 5 5 3 5v10l-4 7-7 4h-10l-5-3-5-6-1-3v-8l4-8 6-4z" fill="#001B93"/>
</svg>
