<?xml version="1.0" encoding="UTF-8"?>
<svg version="1.1" viewBox="0 0 1440 1080" width="1280" height="1280" xmlns="http://www.w3.org/2000/svg">
<path transform="translate(0)" d="m0 0h1440v1080h-1440z" fill="#FAFBFB"/>
<path transform="translate(1331,362)" d="m0 0h5l1 3-4 4-35 17-22 12-27 16-19 12-23 14-23 12-24 15-16 11-1 3 12-7 11-7 25-14 17-9 34-15 39-15 43-14 22-6h6v5l-10 5-26 10-42 17-33 15-29 14-6 4 27 2 1 2-10 2-30 1-10 5-11 7-6 4-1 3 57 2 23 2 5 1v2l-15 2h-14l-11 6-8 2-9 1h-10l4 7 6 5 50 2 13 1 3 1v3l-41 1-13-1 4 4 12 5 13 4 12 3 17 3 3 3-1 10-2 2-72 4-10 2-1 2 29 2 54 3v8l-2 7-2 2-59 3-21 2 1 2 3 1 46 3 26 1 1 2-5 13-2 2-42 3-19 2-1 2 21 2 34 2 1 2-10 14-4 3-16 2-15 1 1 2 21 3-1 4-14 12-11 7-5-1-7-7-3-2-26 1-65 1h-57l-9-2-1-1v-5l6-2h101l44 1-2-5h-2l-11-14h-33l-84 2h-25l-16-2-5-4v-5l5-3 8-1h73l60 1 9 1-10-16-4-1-26 1h-47l-7 1h-63l-9-2-4-2-1-6 6-5 3-1 47-1 6-4h2l2-6-10 5h-6l-3-3v-3h-40l-12-3-4-5 2-5 9-4 5-1 52-1 7-9v-1l-27 1h-31l-14-3-6-5 1-5 10-5 4-1h78l5-5 5-6-37 1h-40l-15-2-7-4-2-4 6-5 3-2 6-1h90l10 1 7-5 8-8h-107l-9-3-4-2v-5l5-4 11-2h93l27 1 8-6 13-10-9 1-59 1h-63l-7-3-3-3 1-5 7-3 12-1h53l55 1 28 1 12-9 13-9 3-2-13 1-60 1h-76l-7-1-2-4v-3l12-3h34l73 1 48 2 20-13 28-17 24-13 17-9 33-15z" fill="#610B38"/>
<path transform="translate(849,433)" d="m0 0h22l15 2 11 4 9 7 7 11 4 11v17l-3 10-6 10-8 8-12 7-15 5 7 11 13 18 12 17 12 16 16 21 3 5h-45l-15-23-8-13-11-16-14-20-9-12-5-1v85h-35l-1-5 2-69v-48l-1-57z" fill="#610B38"/>
<path transform="translate(179,445)" d="m0 0h12l15 3 10 5 10 8 8 10 5 10 4 11 3 23v10l-2 20-4 17-8 17-9 10-13 9-12 4-5 1h-21l-13-4-11-7-9-9-8-13-5-13-3-14v-33l3-16 5-14 6-11 11-12 11-7 13-4z" fill="#FBFCFC"/>
<path transform="translate(174,431)" d="m0 0h20l20 3 16 5 15 8 9 7 11 11 7 11 5 11 4 15 1 6v24l-3 18-4 12-7 14-7 9-9 10-13 9-10 5-5 1 4 4 12 7 16 10 13 8 12 7-1 3-21 11-7 4-14-11-18-14-15-12-11-8-7-1-20-1-13-2-15-5-10-5-14-10-8-8-10-14-6-13-4-14-1-6v-28l4-18 5-13 8-14 9-10 9-8 14-8 16-6 15-3zm5 14-15 3-10 5-9 7-8 9-8 16-4 13-2 12v33l4 17 6 14 8 11 8 8 12 7 11 3h21l12-3 10-5 11-9 7-9 7-15 4-17 2-20v-10l-3-23-6-16-7-10-7-8-12-8-13-4-7-1z" fill="#610B38"/>
<path transform="translate(380,431)" d="m0 0h16l3 3 12 33 17 41 13 30 16 37 13 28 4 9v2l-26-1-14 1-3-5-9-25-8-19-3-8h-63l-4 8-7 17-10 30-3 2-5-1h-17l1-5 12-26 8-18 13-29 16-36 14-33 10-26z" fill="#610A38"/>
<path transform="translate(673,431)" d="m0 0h14l3 3 5 11 10 27 15 36 11 26 20 45 14 32v2h-24l-13 1-4-2-7-20-14-35h-63l-4 8-11 29-6 18-1 1h-24l3-9 11-25 11-24 14-31 26-60 6-15 6-16z" fill="#610A38"/>
<path transform="translate(601,433)" d="m0 0 2 1-1 19-51-1 1 161-1 1-23-1-12 1-1-1v-13l1-21v-127l-52 1-1-1 1-18h101z" fill="#610C3A"/>
<path transform="translate(779,646)" d="m0 0h3v25l7-2h47l8 3 5 6 2 14 9 1h24l-1-5h-11l-3-2v-9l3-5 8-6 12-6h2l1 32 3 1h8v-40l9-6 4 1-1 55-1 1h-159l-2 9-4 4-3 1h-12l-4-2 1-4 12-1 1-23v-14h-2l2-4 9-6h3v29h12l-1-28v-13z" fill="#641540"/>
<path transform="translate(837,447)" d="m0 0h20l10 3 8 6 5 8 2 7v16l-3 10-6 9-7 6-8 3-8 1h-19l-2-1-1-5v-56l1-6z" fill="#FBFCFC"/>
<path transform="translate(1112,507)" d="m0 0 3 1 4 10 1 5v17l5-5 3-9 1-2h2l3 9v22l-3 12-6 11-9 9-10 7-9 5-1 1 11-1 10-2h7l5 4v3h-53l2-5 9-17 8-20 7-20 1-3-3 1h-7l2-5 5-7 7-4 4-9z" fill="#FBFCFC"/>
<path transform="translate(1008,632)" d="m0 0h73l60 1 9 1 1-2 6 10 1 2-117 3h-25l-16-2-5-4v-5l5-3z" fill="#7C8291"/>
<path transform="translate(995,488)" d="m0 0h93l25 1 2 2-14 13h-109l-9-3-4-2v-5l5-4z" fill="#7C8291"/>
<path transform="translate(1015,460)" d="m0 0h53l55 1 22 1 4 2-10 8-12 2-59 1h-63l-7-3-3-3 1-5 7-3z" fill="#7C8291"/>
<path transform="translate(669,644)" d="m0 0 4 1 4 3 2-3 6-1 4 3v5h3l1 6 1 35h30l-2-17 8-5 4-1 1 1v15l-1 18h-72v-13l2-9 8-7 9-6v-9l6-4 1-3h-23l-1-1v-5z" fill="#63143F"/>
<path transform="translate(392,643)" d="m0 0h10l7 1 6 6 1 3v11l-4 5-7 4h-2l3 7 14 19 2 4-7 1-7-1-11-15-7-11-3-1v27h-12l1-59z" fill="#566078"/>
<path transform="translate(984,516)" d="m0 0h90l10 2-4 6-8 8-4 1-35 1h-40l-15-2-7-4-2-4 6-5 3-2z" fill="#7C8291"/>
<path transform="translate(502,643)" d="m0 0 5 1-3 10-13 37-4 12-7 1-4-9-11-33-1-1-5 14-9 26-1 2h-7l-3-8-12-34-5-14v-3h13l6 20 7 20 1 2 12-34 2-8h7l3 5 13 38 4-11 10-31z" fill="#545F77"/>
<path transform="translate(670,477)" d="m0 0h2l10 26 11 29 2 5v3l-5 1h-36l-8-1 1-6 20-48z" fill="#FBFCFC"/>
<path transform="translate(378,477)" d="m0 0h2l7 18 15 40 2 5-14 1h-19l-18-1 24-60z" fill="#FBFCFC"/>
<path transform="translate(982,544)" d="m0 0h53l25 1-6 8-7 9-29 1h-31l-14-3-6-5 1-5 10-5z" fill="#7C8291"/>
<path transform="translate(1033,433)" d="m0 0h34l73 1 42 2 5 1-5 4-2 1-14 1-60 1h-76l-7-1-2-4v-3z" fill="#7C8291"/>
<path transform="translate(1173,662)" d="m0 0 4 5 3 3-3 1-23 1-65 1h-57l-9-2-1-1v-5l6-2h101l44 1z" fill="#7D8392"/>
<path transform="translate(528,642)" d="m0 0 4 2 4 8 21 49v2h-12l-6-13-2-6h-20l-5 10-3 9-7 1-1-2 10-22 9-21 7-16z" fill="#555E77"/>
<path transform="translate(986,573)" d="m0 0h52l-6 10-4 7-2 1h-40l-12-3-4-5 2-5 9-4z" fill="#7C8291"/>
<path transform="translate(1037,600)" d="m0 0 2 1-2 4 10 11 9 2v1h-63l-9-2-4-2-1-6 6-5 3-1 47-1z" fill="#7C8291"/>
<path transform="translate(620,643)" d="m0 0h13l7 3v6l-2 2-5-5-3-1h-8l-5 4-1 6 3 5 18 8 6 7 1 2v10l-3 6-8 7-7 2h-8l-9-3-2-2v-9l3 1 3 5 7 3 8-1 4-4 1-7-2-5-20-11-4-5v-9l3-8 7-6z" fill="#575E77"/>
<path transform="translate(1129,601)" d="m0 0 4 5 6 10-3 1-26 1h-53v-1l6-2 12-12 54 1z" fill="#7C8291"/>
<path transform="translate(560,643)" d="m0 0 5 3 13 25h2l12-22 2-5h7l-2 6-16 27v25l-1 1h-12v-21l-8-17-12-19v-2z" fill="#545C75"/>
<path transform="translate(422,644)" d="m0 0h13l6 20 7 20 1 2 10-28 2 4-2 6v7l-9 26-1 2h-7l-3-8-12-34-5-14z" fill="#555F77"/>
<path transform="translate(312,642)" d="m0 0 5 3 10 25 13 30v3h-12l-8-18-1-1-18-1v-2h18v-3h-2l-6-18h-2l-4 10-3-1 2-11 5-13z" fill="#555A74"/>
<path transform="translate(784,680)" d="m0 0h53l2 1 1 3v9l-7 1h-50l-2-2 1-10z" fill="#FBFCFC"/>
<path transform="translate(349,644)" d="m0 0h11v59h-11z" fill="#576179"/>
<path transform="translate(934,647)" d="m0 0 3 1-1 55-1 1h-7l-2-1-1-19-1-31 8-5z" fill="#62113D"/>
<path transform="translate(1070,687)" d="m0 0h57l40 2-2 2-23 2-23 1h-51l-5-2v-4z" fill="#7D8392"/>
<path transform="translate(1074,413)" d="m0 0h59l30 1 6 2v2l-16 1h-89l-1-5z" fill="#757C8C"/>
<path transform="translate(309,658)" d="m0 0 3 2 5 14v4h2v3h-18v2h18v1l-20 1-7 18-6 1-1-2 11-25 6-14 1 3v3l2 1 1-5z" fill="#60667C"/>
<path transform="translate(388,648)" d="m0 0h11l5 4 1 11-2 4-8 4h-7l-1-1v-21z" fill="#FBFCFC"/>
<path transform="translate(1196,520)" d="m0 0 48 2 13 1 3 1v3l-41 1-13-1 1 3-5-2-8-6z" fill="#777E8E"/>
<path transform="translate(522,658)" d="m0 0 2 1-1 9-5 13h17l1 2-19 1-5 10-3 9-7 1-1-2 10-22 9-21z" fill="#5A4D6A"/>
<path transform="translate(502,643)" d="m0 0 5 1-3 10-9 26-3 1-1 3h-2l1-8 10-31z" fill="#5F3D5E"/>
<path transform="translate(309,658)" d="m0 0 3 2 6 18v2h-17l3-10z" fill="#FBFCFC"/>
<path transform="translate(525,659)" d="m0 0 3 1 6 16v4h-16l3-9z" fill="#FBFCFC"/>
<path transform="translate(669,644)" d="m0 0 4 1 4 3 2-3 6-1 4 3v5h3l-1 2-6-1h-20l-1-1v-5z" fill="#6C385A"/>
<path transform="translate(1203,464)" d="m0 0 30 2 1 2-10 2h-29l5-4z" fill="#7D8392"/>
<path transform="translate(581,677)" d="m0 0h1l1 25-1 1h-12l1-20h1v16l2 1 3-3 2-5v-8z" fill="#7B8291"/>
<path transform="translate(1224,493)" d="m0 0 22 1 5 1v2l-15 2h-8l-6-1z" fill="#7D8392"/>
<path transform="translate(680,681)" d="m0 0 3 1v11l-1 1h-9l-1-1v-6l6-5z" fill="#FBFCFC"/>
<path transform="translate(502,643)" d="m0 0 5 1-3 10-3 9-1-4-1 1-1 3-3 1 2-10 4-10z" fill="#5E4866"/>
<path transform="translate(607,691)" d="m0 0 3 1 3 5 9 4v2l4 2h-8l-9-3-2-2z" fill="#5F687E"/>
<path transform="translate(712,708)" d="m0 0h10l1 5-2 3h-8l-2-4z" fill="#67264D"/>
<path transform="translate(669,644)" d="m0 0 4 1 2 4-2 4h-8l-1-1v-5z" fill="#651F48"/>
<path transform="translate(869,644)" d="m0 0h8l2 4v3l-2 1h-8l-1-7z" fill="#651C45"/>
<path transform="translate(883,644)" d="m0 0h8l1 1v7h-8l-3-2z" fill="#662048"/>
<path transform="translate(698,708)" d="m0 0h10v7l-1 1-8-1-1-1z" fill="#66234B"/>
<path transform="translate(522,658)" d="m0 0 2 1-1 9-3 7-3-1 2-7v-6z" fill="#60294F"/>
<path transform="translate(498,652)" d="m0 0h3 3l-3 11-1-4-1 1-1 3-3 1 2-10z" fill="#5C5E76"/>
<path transform="translate(528,642)" d="m0 0 4 2 4 8 3 7-1 4-8-16v-2h-2z" fill="#632D52"/>
<path transform="translate(496,669)" d="m0 0 1 2-2 9-3 1-1 3h-2l1-8 2-1 2-4z" fill="#611E47"/>
<path transform="translate(413,691)" d="m0 0 5 5 4 7-6-2-3-7z" fill="#7D8392"/>
<path transform="translate(462,655)" d="m0 0h1v8l-3 9h-2l1-6 1-9h2z" fill="#612A50"/>
<path transform="translate(571,683)" d="m0 0h1v16l2 1 1 1 1 2h-6z" fill="#7D8392"/>
<path transform="translate(306,658)" d="m0 0h1v7l-2 5-3-1 1-6z" fill="#622048"/>
<path transform="translate(403,680)" d="m0 0h3l6 8-1 2-6-4z" fill="#7D8392"/>
<path transform="translate(441,667)" d="m0 0 2 3 2 9-3-1-2-8z" fill="#7D8392"/>
</svg>
