<?xml version="1.0" encoding="UTF-8"?>
<svg version="1.1" viewBox="0 0 2048 1288" width="1280" height="1280" xmlns="http://www.w3.org/2000/svg">
<path transform="translate(0)" d="m0 0h2048v1288h-2048z" fill="#FEFFFE"/>
<path transform="translate(996,519)" d="m0 0h16l6 3 6 9 2 9v7l-3 15-6 26-7 22-5 12-10 14-11 8-9 2-12-2-8-5-5-4h-4l-5 18-9 36-4 9-2 2h-22l-2-1 2-11 16-63 14-56 9-34 5-14 2-1h15l4 1 2 10 5-1 10-7z" fill="#FD1F2B"/>
<path transform="translate(877,472)" d="m0 0h21l12 4 10 9 8 14 3 9-1 4-16 8-11 4-4-1-5-12-5-6-6-3-9 2-6 4-5 9v7l4 7 10 8 18 11 10 9 6 9 4 12v8l-3 11-5 12-8 11-6 7-14 9-13 5-10 2h-11l-13-4-11-8-7-8-6-12-2-8v-5l6-5 22-6 4 1 5 14 5 6 4 2h12l7-4 6-7 2-4v-7l-4-6-7-6-22-15-10-9-6-10-2-11v-9l3-14 5-10 7-9 10-9 16-8z" fill="#FD1E2B"/>
<path transform="translate(1427,518)" d="m0 0h8l14 3 10 6 6 8 2 5v15l-6 27-4 5-3 1-25 1h-28l-4 2-3 12v12l2 6 13 1 9-3 5-6 4-7h26l-1 7-8 12-7 8-11 7-10 4-13 2h-8l-11-2-8-5-5-5-4-6-2-6v-15l5-23 6-22 7-16 7-10 8-8 10-6 11-3z" fill="#FD202B"/>
<path transform="translate(1259,518)" d="m0 0h9l12 3 9 5 6 7 3 7 1 6v10l-3 15-4 11-6 6-25 1h-27l-5 2-3 14v10l4 6 5 1h7l7-3 6-7 4-5 2-1h23l1 2-6 13-7 9-10 7-12 6-13 3h-12l-11-3-8-6-6-7-3-7v-13l3-19 9-31 6-14 8-11 10-8 8-5 10-3z" fill="#FD202B"/>
<path transform="translate(1349,483)" d="m0 0h10l14 1-4 17-14 53-5 20-6 23-5 18-5 21-6 22-6 16-6 10-9 9-8 5-11 4-17 2-13-2-12-6-6-7-3-7v-18l2-5 3-1 12-1h10l2 2 2 16 4 3h13l7-3 6-12 7-23 15-57 20-79 5-18 1-2z" fill="#FD1F2B"/>
<path transform="translate(1150,518)" d="m0 0h14l14 3 8 7 4 6 3 10v8l-2 7-4 3h-22l-1-1-1-13-2-3-7-1-13 1-5 4-7 16-7 28-3 15 1 8 3 3 3 1h8l9-2 5-5 5-14h25l2 1-1 7-8 16-9 10-14 8-10 3-11 2h-8l-12-3-8-5-6-7-3-10 1-14 5-23 6-22 6-16 6-10 9-8 12-7 7-2z" fill="#FD1F2B"/>
<path transform="translate(1517,477)" d="m0 0h19l-1 11-4 18-2 7v5l1 1 13 2v8l-3 12-2 2-14 1-3 2-5 20-8 30-1 6v11l10 1 3 3-1 10-6 10-2 2h-19l-10-3-6-5-2-5v-9l3-12 9-33 5-22 1-7h-8l-4-3 1-10 3-8 5-2 11-2 6-28 5-12z" fill="#FD1E2B"/>
<path transform="translate(594,409)" d="m0 0h15l9 4 8 9 3 7 1 6v8l-3 10-8 14-11 13-7 7-11 7-11 4-13 1-9-3-7-5-4-9-1-5v-14l4-13 7-13 9-10 10-9 12-7z" fill="#FFA636"/>
<path transform="translate(542,519)" d="m0 0 12 1 9 4 5 4 6 11v9l-5 14-5 9-11 12-10 8-12 6-12 4h-15l-10-4-8-8-3-8v-12l5-13 7-11 9-9 10-7 14-7z" fill="#FFA636"/>
<path transform="translate(504,631)" d="m0 0h18l12 6 4 5 1 3v12l-7 14-7 9-8 8-14 9-10 5-12 3h-16l-10-5-6-9v-11l4-11 6-10 11-11 15-10 11-5z" fill="#FFA636"/>
<path transform="translate(1058,520)" d="m0 0h27l-2 12-5 17-5 21-10 39-5 22-3 10-3 2-25 1-1-2 11-42 20-79z" fill="#FD1F2B"/>
<path transform="translate(655,448)" d="m0 0h14l8 4 6 7 3 8-1 8-6 12-9 12-9 8-10 4-3 1h-13l-7-4-4-6-2-8 1-11 5-12 6-9 8-7 10-6z" fill="#FFA636"/>
<path transform="translate(612,534)" d="m0 0h15l6 3 4 5 2 6v11l-5 10-11 12-11 7-15 5h-12l-6-3-5-8-1-10 4-9 5-8 8-9 10-7 9-4z" fill="#FFA636"/>
<path transform="translate(591,619)" d="m0 0h10l10 4 4 4 1 9-3 8-7 10-7 7-10 7-14 5h-12l-7-3-5-6v-13l4-8 12-13 11-7z" fill="#FFA636"/>
<path transform="translate(980,540)" d="m0 0h10l6 4v13l-5 23-6 20-7 16-7 9-4 1-12-5-4-5 1-9 9-35 5-19 4-9z" fill="#FEFFFE"/>
<path transform="translate(681,544)" d="m0 0h12l6 4 2 2-1 9-6 12-6 7-11 7-8 4-8-1-8-10-1-6 5-10 9-10 10-6z" fill="#FFA636"/>
<path transform="translate(717,478)" d="m0 0h7l5 4 4 9v7l-5 10-10 11-6 4-9 2-6-2-5-5-3-6 1-7 7-14 9-8z" fill="#FFA636"/>
<path transform="translate(665,608)" d="m0 0h12l4 2 2 5-2 11-6 8-7 7-12 7-10 2-9-6-1-2v-7l6-12 9-8 11-6z" fill="#FFA636"/>
<path transform="translate(729,551)" d="m0 0h14l-1 9-5 12-8 9-5 3-4 1h-7l-3-3v-7l4-11 5-7 7-5z" fill="#FFA636"/>
<path transform="translate(1074,483)" d="m0 0h16l4 1-1 10-4 11-3 4h-17l-7-1-1-3 5-19 2-2z" fill="#FD232B"/>
<path transform="translate(754,500)" d="m0 0h8l4 2 1 2-1 9-8 14-7 7-9-1-4-2-1-2v-7l4-9 6-8z" fill="#FFA636"/>
<path transform="translate(726,599)" d="m0 0h8l-1 8-5 10-9 8-7 4-10 1-3-5v-6l6-10 7-6 7-3z" fill="#FFA636"/>
<path transform="translate(1250,542)" d="m0 0h14l6 4 1 2v11l-3 5-2 1h-28l-1-1v-8l6-9 4-4z" fill="#FEFFFE"/>
<path transform="translate(1426,541)" d="m0 0 8 2 3 2 2 7v9l-3 3-3 1h-27l-1-1v-9l6-8 5-4z" fill="#FEFFFE"/>
<path transform="translate(785,515)" d="m0 0 7 1 2 2v7l-7 12-4 5h-8l-5-2 1-10 6-10 5-4z" fill="#FFA636"/>
<path transform="translate(761,593)" d="m0 0h11l-2 10-7 8-8 6-7 1-2-3 1-9 3-6 7-6z" fill="#FFA636"/>
<path transform="translate(763,556)" d="m0 0h12l2 1-1 5-4 8-6 7-6 3h-8v-10l3-7 5-6z" fill="#FFA636"/>
</svg>
