<?xml version="1.0" encoding="UTF-8"?>
<svg version="1.1" viewBox="0 0 2048 853" width="1280" height="1280" xmlns="http://www.w3.org/2000/svg">
<path transform="translate(0)" d="m0 0h2048v853h-2048z" fill="#F8F8F8"/>
<path transform="translate(520,5)" d="m0 0 7 1 8 7 10 18 9 14 8 11 6 12 1 3v13l-7 24-11 29-16 38-16 40-11 33-12 44-11 44-4 15-2 10 10-1 45-7 68-9 13-2h14l15 5 9 8 5 8 2 7v7l-3 10-14 27-10 17-4 8-13 23-8 16-16 33-11 26-6 20 1 5 9-1 9-6 15-15 7-8 9-10 3-4h2l2-4 8-9 9-13 10-13 18-27 12-19 12-20 20-40 8-21 4-15 4-6 13-8 13-5 5-1h22l11 4 7 8 3 10v6l-3 9-1 5 6-5 7-8 14-14 14-11 10-7 11-4 4-1h7l14 4 12 6 9 7 6 8 4 9v8l-6 10-6 7-11 8-10 5-17 6-17 4-20 6-19 8-17 12-10 10-9 11-8 10-7 10-11 16-15 25-11 23-9 23-8 27-4 34-4 9-7 6-19 10-13 3h-16l-8-5-7-8-4-16v-16l5-24-4 5-7 11-11 14-9 11-11 12-19 19-14 10-14 8-9 3-18 2-10-4-11-8-6-9-5-16-1-7v-13l4-27 6-23 9-26 13-31 19-41 20-40 2-5v-3l-9 2-44 9-44 10h-2l-1 10-5 24-5 28-5 31-7 53-5 41-3 33-4 16-3 6-6 7-7 5-13 3h-15l-8-3-6-4-8-8-8-15-5-21-1-7v-28l5-38 7-37 10-46 5-21 1-8-64 17-32 9-8 3-10 2-5 6-9 16-15 28-30 60-13 28-13 27-15 33-17 40-17 44-12 36-7 25-8 16-7 8-9 5-1 1h-83v-339h2l3-9 6-9 11-8 21-10 32-13 21-8 23-8 55-18 25-7 8-13 9-15 16-26 13-21 24-38 15-23 12-19 7-10 24-36 13-18 7-10 13-18 8-12 9-12 13-18 10-13 9-11 10-13 12-14 9-11 9-10 7-8 14-15 16-16 12-9 10-6z" fill="#FE1616"/>
<path transform="translate(1373,5)" d="m0 0 7 1 6 4 8 13 9 17 12 16 5 10 2 7-1 13-6 21-11 29-17 41-11 27-12 34-9 30-17 65-5 19-2 10 14-2 20-2h21l13 4 5 3 4 5v11l-4 13-6 9-9 6-19 6-51 11-4 4-7 35-6 36-8 55-7 56-3 35-3 15-4 8-5 6-11 7-11 2h-13l-11-4-9-7-6-8-5-10-4-13-2-12v-28l5-40 7-41 9-42 6-25 1-8-14 4-45 12-45 13-13 5-12 22-15 28-24 48-13 28-16 34-16 36-11 25-11 28-10 25-11 30-12 40-6 12-9 10-9 6h-15l-7-3-9-4-9-7-10-10-6-10-4-14v-15l6-22 10-27 14-34 18-40 14-30 18-37 11-23 21-42 7-13-5 1-28 12-28 13-23 12-7 4-9 4h-12l-10-5-8-7-5-9-2-9-1-9v-9l3-15 7-10 10-8 23-11 27-11 31-12 50-17 32-10 13-4 18-30 13-21 15-24 11-18 11-17 14-22 7-10 14-22 18-27 11-15 11-16 12-17 26-36 21-28 10-13 11-13 8-10 12-14 12-13 9-10 22-22 10-8 14-8z" fill="#FE1616"/>
<path transform="translate(1909,262)" d="m0 0h12l10 3 10 6 7 7 8 14 5 10 3 3 23 11 11 8 5 8-1 9-9 19-12 20-9 16-14 25-9 19-5 11-5 15v10l2 5 2 1h11l10-5 19-19 6-8 10-13 17-25 8-7 5-2h8l7 4 4 3v10l-10 19-10 18-7 11-12 16-11 13-9 11-14 15-11 10-11 8-11 7-17 9-20 6h-21l-13-5-6-5-6-10-4-15-1-2-4 1-6 5-7 8-16 16-8 7-14 10-16 8-14 5h-25l-16-7-9-8-7-10-5-12-2-12-1-21h-2l-2 5-13 19-12 14-11 12-27 27-12 9-14 9-9 4-17 4h-7l-13-4-8-6-7-9-5-14-1-8v-20l5-23 6-19 9-24 11-24 21-42 10-19 13-23 8-16 10-19 7-17 6-16 8-7 15-7 12-3h13l13 4 9 5 6 8 3 7v12l-5 12-16 29-12 22-11 18-12 20-9 16-8 14-15 30-6 17-1 8 1 3 9-2 9-5 14-14 7-8 10-13 9-11 26-34 16-20 9-12 13-16 10-13 36-42 22-22 11-9 12-10 10-7 15-10 16-8 15-5z" fill="#FE1616"/>
<path transform="translate(1520,328)" d="m0 0h22l15 3 16 6 9 7 7 8 5 12v10l-8 16-7 10-7 8-10 6h-8l-8-5-8-12-9-10-6-4-4-1h-9l-9 2-13 7-8 11-4 10-1 5v19l4 14 6 10 22 28 8 14 5 12 2 14-2 24-6 21-8 17-12 17-7 7-16 12-23 12-17 6-21 5-25 1-13-1-18-6-15-8-12-11-7-9-5-11-1-4v-11l5-14 13-26 7-9 3-1h7l6 4 13 14 14 10 16 8 8 3h17l8-4 6-6 1-3v-13l-4-8-14-19-9-14-7-17-3-16v-20l3-18 6-18 9-19 9-15 8-11 11-12 8-8 18-13 16-8 15-6z" fill="#FE1616"/>
<path transform="translate(137,523)" d="m0 0h5l-1 6-12 21-31 62-11 23-16 35-13 30-16 38-15 40-3 14v15l5 14 8 11 8 8 10 7 11 4 1 2h-67v-318l3 4 4 13 6 8 11 6 10 2 9-2 13-6 16-8 21-10 12-5 18-8 9-3z" fill="#F8F8F8"/>
<path transform="translate(469,143)" d="m0 0 2 2-8 21-14 37-10 28-15 47-12 39-12 43-5 18-9 2-22 4-42 9-10 3h-5l1-5 8-13 13-22 17-28 10-16 8-13 12-19 11-17 7-11 34-51 16-22 10-14 14-21z" fill="#F8F8F8"/>
<path transform="translate(1322,144)" d="m0 0 1 3-7 19-10 25-10 28-12 36-12 38-12 41-10 36-3 7-6 2-23 4-48 10-6 2h-4l1-5 10-16 17-28 10-17 8-13 9-14 8-13 12-19 22-34 12-18 12-17 11-16 11-15 13-18z" fill="#F8F8F8"/>
<path transform="translate(1909,325)" d="m0 0h7l4 4v10l-7 21-12 25-12 22-8 14-10 16-12 18-11 15-8 10-9 10-13 13-10 8-9 5-8 1-4-5-1-3 1-13 7-20 17-34 18-30 10-15 11-16 14-17 9-10 7-8 11-9 11-8z" fill="#F8F8F8"/>
<path transform="translate(1741,164)" d="m0 0h18l11 4 7 5 8 13 3 10-1 10-8 18-10 13-10 8-14 7-11 4-7 1h-8l-14-5-9-7-6-8-2-8v-13l4-15 7-11 6-7 16-12 13-5z" fill="#FE1616"/>
<path transform="translate(682,199)" d="m0 0h20l9 3 8 6 6 7 4 9 1 5v9l-3 10-7 14-9 11-9 7-19 10-7 1h-18l-10-4-8-6-5-6-4-9v-16l4-13 6-10 9-10 9-8 16-8z" fill="#FE1616"/>
</svg>
