<?xml version="1.0" encoding="UTF-8"?>
<svg version="1.1" viewBox="0 0 2048 1365" width="1280" height="1280" xmlns="http://www.w3.org/2000/svg">
<path transform="translate(831,478)" d="m0 0h80l-6 11-13 20-11 17-16 25-13 20-16 25-9 14-15 23-12 19-3 4h-2l-1 5-11 17-12 19-20 30-6 10-3 9v9l4 8 8 7 14 7 5 2v1h-73l-41 3-18 2-29 5-23 6-18 6-16 8-9 7-4 9 1 8 5 8 9 8 16 9 20 8 22 6 18 3 24 2 35 1-3 2-25 4-20 2h-39l-27-4-21-6-19-8-16-9-27-18-19-14-19-13-18-10-16-8-20-9-36-12-28-7-45-8-56-8v-1l46-1 42-2 41-4 34-5 40-8 25-12 15-8 10-6 17-10 19-12 25-16 15-10 25-16 43-29 18-13 14-9 16-11 44-30 12-8 13-10 12-8 13-9 7-4 15-11 16-11z" fill="#C5012C"/>
<path transform="translate(1435,705)" d="m0 0h126l7 2 3 2-1 5-3 5 12 1-4 8-2 2-14 2-7 10-3 2-50 1-5 1-1 4 38 1 9 3 2 3-1 6-8 14-4 5-9 3h-76l-7-2-2-2v-5l6-9 2-1h38l-1 5-1 4h9l5-5 3-9h-34l-10-2-3-4 1-7 7-9 6-3 52-1 2-4-72 1-12 20-13 21-7 11-2 1h-34l-5-1 2-5 15-24 14-22 1-2-9-1 5-10 11-1 5-6 8-5zm25 9-7 4-1 2h72l2-5-2-1z" fill="#C5012D"/>
<path transform="translate(1609,720)" d="m0 0h201v4l-4 6-12 2-16 26-12 20-4 6-3 1h-36l-2-1 2-5 9-16 13-22 3-5 1-5h-17l-5 5-13 21-16 26-2 2h-38l-2-2 6-12-5-1-81-1-8-3-3-4 1-8 7-11 3-2 44-1 6-3 2-6h-24l1-6zm64 10-7 11-4 5-5 2-42 1-3 3v5l4 3h50l6-3 11-19 2-4v-4z" fill="#C5012D"/>
<path transform="translate(1424,825)" d="m0 0h107l11 2 4 3v6l-19 32-8 11-9 6-8 2h-113l-4-2 9-15 11-17 16-25zm44 19-9 16-6 11v2h11l6-4 6-9 4-8 1-6-2-2z" fill="#C5012D"/>
<path transform="translate(1275,825)" d="m0 0h50l7 10 7 11v2h2l2-5 11-17 1-1h47l-1 4-11 18-10 15-14 22-2 3h-48l-15-23v-2l-3 3-14 21-1 1h-46l6-12 13-21 16-26z" fill="#C5012D"/>
<path transform="translate(1013,826)" d="m0 0h112l5 3 1 2v8l-12 20-6 7-6 3-5 1 6 7 7 8-4 2h-49l-5-4-11-15v-2l-5 5-9 15-2 1h-54l2-5 9-15 11-17 14-22zm44 18-5 8-1 5h11l6-3 4-5v-4l-2-1z" fill="#C5012D"/>
<path transform="translate(819,825)" d="m0 0h90l-1 7-16 48-3 6-1 1h-49l-1-2 2-6h-24l-8 7-3 1h-44v-3l14-15 24-24 7-8 11-11zm38 13m-1 1-13 12-10 10v1h15l5-10 4-10z" fill="#C5012D"/>
<path transform="translate(1663,825)" d="m0 0h89l1 2-20 60h-51l2-9-25 1-8 7-1 1h-47l2-4 16-16 7-8 33-33zm38 13m-1 1-8 7-13 13-2 1v2h15l9-21z" fill="#C5012D"/>
<path transform="translate(839,720)" d="m0 0h131l-1 6-3 4h-12l-2 5-14 23-5 6-7 4h-47l2-6 9-4 6-9 9-15 2-4-18 1-14 25-6 10v7l51 1 12 1 2 2-1 7-3 7h-43l2-9h-59l-7-3-2-4 2-9 15-27 4-7-1-1-9-1 6-9z" fill="#C5012D"/>
<path transform="translate(1286,720)" d="m0 0h103l-2 5-3 5-9 2-7 10-3 2-50 1-5 3-1 2 39 1 9 4 1 1-1 8-10 16-6 4-4 1h-54l-2 5-4 3h-29l1-9-1-4 8-13 2-1h36l1 2-3 8 12-1 5-5 2-4v-4l-32-1-14-2v-7l8-12 3-3 3-1h53l1-5h-53l2-5z" fill="#C5012D"/>
<path transform="translate(995,720)" d="m0 0h74l7 3 2 2-1 7-8 15-8 6h-2l1 2v7l-9 14-5 5-7 2h-85l-4-2v-6l6-10h42l-2 5v3h12l3-1 2-5 3-5-1-5-18-1 2-6 2-3 23-2 5-4 4-7v-2l-2-1h-7l-4 2-4 5-9 1h-26l-7-1 4-8 7-7z" fill="#C5012D"/>
<path transform="translate(1573,825)" d="m0 0h54l-1 5-12 19-16 25-8 12-1 1h-55l1-4 11-18 17-26 7-11z" fill="#C5012D"/>
<path transform="translate(1201,825)" d="m0 0h54l-1 4-12 20-11 17-12 19-2 2h-55l1-4 13-21 17-26 7-10z" fill="#C5012D"/>
<path transform="translate(938,826)" d="m0 0h56l-2 5-12 19-16 25-8 12h-55l1-5 12-19 16-25z" fill="#C5012D"/>
<path transform="translate(1185,720)" d="m0 0h57l3 2-6 8-11 1-8 11-7 9-5 4-9 1-2 4-7 11-1 3 18 1-1 5-2 3h-54l-4-4v-7l9-16h-8l2-6 2-3 17-1 7-2 10-14h-7l2-6 2-3z" fill="#C5012D"/>
<path transform="translate(1100,720)" d="m0 0h52l5 1-2 5-3 4-12 1-17 29-10 17-6 8h-41l1-5 12-20 1-3-11-1 1-5 2-4 14-1 5-5 6-11h-6l-1-2 4-7z" fill="#C5012D"/>
<path transform="translate(841,547)" d="m0 0 3 1-81 34-34 16-27 10-24 7-23 5-9 1-1-5 19-10 17-8 27-10 59-17 29-9 36-12z" fill="#F19817"/>
<path transform="translate(595,660)" d="m0 0h5l1 2-7 23-10 24-8 16-8 15-11 19-10 18-13 24-12 22-3 6-1-3 11-28 15-38 17-44 9-19 13-21z" fill="#F19817"/>
<path transform="translate(586,656)" d="m0 0 5 1-1 5-11 16-12 16-11 13-11 12-15 14-45 45-7 8-7 7-6 7v-3l28-36 12-16 10-13 10-14 13-17 12-13 15-15 11-9z" fill="#F19817"/>
<path transform="translate(825,605)" d="m0 0h4l-2 5-12 1-69 12-32 5-24 2h-33l-9-1v-5l14-4 31-6 31-3 73-4z" fill="#F19817"/>
<path transform="translate(635,655)" d="m0 0 5 2 12 11 25 25 9 11 14 19 13 18 10 13 9 11 10 13v1h-6l-7-8-39-39-8-7-12-12-9-11-12-16-15-24-1-5z" fill="#F19817"/>
<path transform="translate(649,632)" d="m0 0h19l35 2 30 4 50 10 17 2-2 5-1 1h-12l-14-1-46-2-20-2-23-4-24-6-10-4z" fill="#F19817"/>
<path transform="translate(626,660)" d="m0 0h4l10 16 10 17 11 23 9 24 9 25 6 16h-7l-3-2-8-16-8-14-9-14-8-16-8-19-8-26-2-13z" fill="#F19817"/>
<path transform="translate(604,663)" d="m0 0h6v22l-2 25-3 21-12 48-3 16-4 2h-3l1-23 3-47 4-23 7-24z" fill="#F19817"/>
<path transform="translate(614,663)" d="m0 0h6l3 9 6 23 4 20 2 15 2 41v13l3 1-3 1h-7l-7-29-6-21-3-19-1-11v-35z" fill="#F19817"/>
<path transform="translate(646,641)" d="m0 0 13 2 25 7 30 10 29 13 19 9 13 5 1 2-3 5-12-3-37-10-30-10-24-11-22-12-3-2z" fill="#F19817"/>
<path transform="translate(641,649)" d="m0 0 6 1 25 13 21 13 17 12 15 13 14 11 13 10 1 2-3 4-5-1-15-9-29-16-16-10-12-9-11-9-12-11-10-10z" fill="#F19817"/>
<path transform="translate(807,499)" d="m0 0 2 1-19 14-21 16-12 9-17 13-18 14-20 15-17 11-18 10-23 11-5-1v-2l20-14 11-7 13-9 44-30 12-8 13-10 12-8 13-9 10-4z" fill="#F19919"/>
<path transform="translate(581,649)" d="m0 0 3 2-2 4-7 7-11 9-15 12-18 12-21 12-23 13-21 13-19 12-26 16-5 3-2-1 21-16 52-39 18-10 47-30 15-10z" fill="#F19818"/>
<path transform="translate(1352,705)" d="m0 0h38l-2 6-3 3-11 1h-11l-16-1 4-8z" fill="#C5012D"/>
</svg>
