<?xml version="1.0" standalone="no"?>
<!DOCTYPE svg PUBLIC "-//W3C//DTD SVG 20010904//EN"
 "http://www.w3.org/TR/2001/REC-SVG-20010904/DTD/svg10.dtd">
<svg version="1.0" xmlns="http://www.w3.org/2000/svg"
 width="1000.000000pt" height="520.000000pt" viewBox="0 0 1000.000000 520.000000"
 preserveAspectRatio="xMidYMid meet">

<g transform="translate(0.000000,520.000000) scale(0.100000,-0.100000)"
fill="#000000" stroke="none">
<path d="M3955 4385 c-139 -25 -269 -81 -425 -182 -47 -31 -357 -252 -690
-492 l-605 -436 -485 -6 c-527 -6 -535 -7 -648 -66 -29 -16 -102 -73 -162
-128 -92 -84 -106 -100 -87 -103 12 -1 243 6 512 17 270 11 491 18 492 17 1
-1 -234 -172 -522 -380 -289 -208 -525 -380 -525 -382 0 -2 102 -4 228 -4
l227 0 545 394 544 393 201 7 c110 4 220 12 245 17 82 18 170 70 244 144 l71
70 -209 5 -208 5 423 306 c233 168 429 309 436 312 7 4 -137 -234 -318 -529
-353 -572 -417 -685 -474 -832 -34 -88 -75 -238 -75 -274 0 -17 16 -18 188
-18 l188 0 13 76 c17 100 52 207 100 302 28 57 873 1474 1039 1745 l23 37
-108 -1 c-59 0 -139 -7 -178 -14z"/>
<path d="M4690 4299 c-134 -17 -243 -80 -327 -190 -41 -53 -653 -1072 -784
-1305 -109 -195 -179 -373 -204 -521 l-7 -43 185 0 184 0 12 70 c16 96 56 221
101 310 21 41 252 434 514 874 262 439 476 802 476 807 0 11 -59 10 -150 -2z"/>
<path d="M7638 4220 c-154 -18 -258 -80 -352 -209 -34 -46 -1046 -1755 -1046
-1766 0 -3 80 -4 177 -3 l178 3 150 252 c82 139 152 253 155 253 3 0 38 -127
79 -283 105 -399 104 -397 158 -457 70 -78 127 -103 247 -108 l98 -4 -7 23
c-4 13 -74 229 -156 479 -82 250 -149 460 -149 465 1 6 154 116 342 245 188
129 376 259 417 288 l75 52 -200 0 -200 0 -239 -165 c-131 -90 -241 -163 -243
-161 -3 3 482 829 630 1074 l20 32 -34 -1 c-18 -1 -63 -5 -100 -9z"/>
<path d="M4915 3434 c-99 -22 -210 -67 -285 -116 -98 -63 -235 -206 -319 -333
-78 -118 -193 -345 -235 -463 -64 -180 -35 -273 89 -292 100 -15 290 34 442
115 l83 44 -7 -75 -6 -74 171 0 170 0 7 53 c10 79 68 243 124 353 27 55 142
252 255 439 l204 340 -41 7 c-23 5 -163 10 -312 13 -222 4 -282 2 -340 -11z
m225 -198 c0 -13 -358 -577 -383 -604 -68 -71 -224 -152 -293 -152 -40 0 -64
27 -64 71 0 69 140 313 259 453 125 147 282 234 429 235 28 1 52 -1 52 -3z"/>
<path d="M6060 3436 c-147 -32 -260 -87 -340 -167 -79 -79 -113 -158 -111
-265 1 -93 41 -146 192 -256 84 -62 119 -100 119 -132 0 -38 -36 -83 -87 -107
-42 -20 -62 -23 -153 -22 -58 1 -150 9 -204 17 -54 9 -100 15 -102 14 -8 -8
-144 -243 -144 -248 0 -18 199 -35 400 -35 197 0 221 2 290 23 189 59 302 172
355 357 21 71 16 155 -13 211 -27 51 -89 109 -187 175 -44 29 -85 60 -92 68
-21 27 -14 58 17 85 50 41 98 48 298 45 l183 -4 69 115 c57 97 66 116 52 124
-28 16 -469 17 -542 2z"/>
<path d="M8365 3434 c-179 -40 -304 -110 -441 -249 -110 -111 -200 -244 -293
-430 -86 -174 -121 -263 -134 -341 -18 -106 22 -170 117 -184 102 -15 290 34
444 115 l83 44 -7 -74 -7 -75 170 0 170 0 12 68 c18 96 63 227 115 329 25 48
139 246 254 438 l210 350 -42 7 c-22 5 -162 10 -311 13 -222 4 -282 2 -340
-11z m225 -198 c0 -3 -83 -138 -184 -301 -168 -270 -190 -301 -243 -341 -122
-93 -252 -136 -293 -99 -34 31 -26 83 28 188 153 299 341 489 533 541 50 14
159 22 159 12z"/>
<path d="M8965 2585 c-78 -28 -135 -122 -121 -203 9 -58 51 -118 99 -141 147
-71 304 54 266 212 -15 65 -68 119 -132 135 -57 15 -62 15 -112 -3z m118 -39
c97 -41 122 -172 48 -247 -74 -73 -196 -48 -237 48 -19 45 -17 80 6 128 34 71
112 101 183 71z"/>
<path d="M8970 2410 c0 -82 3 -100 15 -100 10 0 15 11 15 35 0 19 5 35 10 35
6 0 20 -16 31 -35 12 -20 29 -35 40 -35 23 0 23 4 3 40 -16 26 -16 29 5 57 16
22 20 37 15 57 -8 34 -31 46 -88 46 l-46 0 0 -100z m90 55 c19 -23 4 -45 -30
-45 -27 0 -30 3 -30 30 0 25 4 30 24 30 13 0 29 -7 36 -15z"/>
<path d="M7845 1491 c-89 -40 -136 -132 -115 -223 22 -88 80 -128 231 -158 83
-16 115 -56 93 -115 -9 -22 -57 -45 -94 -45 -65 0 -140 54 -140 101 0 11 -3
19 -6 19 -16 0 -100 -24 -108 -31 -16 -14 23 -96 63 -132 57 -52 116 -71 204
-65 52 3 86 12 115 28 109 61 134 201 53 294 -26 30 -86 55 -169 72 -85 18
-122 43 -122 83 1 49 43 81 109 81 42 0 95 -34 106 -69 5 -18 9 -18 58 -4 29
9 54 17 55 19 2 1 -1 18 -7 37 -14 42 -64 91 -113 111 -52 22 -162 20 -213 -3z"/>
<path d="M1625 1483 c-4 -10 -59 -153 -122 -318 -63 -165 -117 -303 -120 -307
-2 -5 27 -8 66 -8 64 0 70 2 77 23 3 12 15 46 26 75 l19 52 132 0 132 0 26
-72 26 -73 66 -3 c37 -2 67 1 67 6 0 5 -45 128 -101 273 -55 145 -110 288
-121 317 l-19 52 -74 0 c-60 0 -74 -3 -80 -17z m124 -251 l40 -112 -84 0 c-47
0 -85 4 -85 8 0 7 38 115 69 196 7 16 13 27 16 25 2 -3 22 -55 44 -117z"/>
<path d="M2480 1175 l0 -325 60 0 60 0 0 325 0 325 -60 0 -60 0 0 -325z"/>
<path d="M3150 1175 l0 -325 65 0 65 0 0 125 0 125 33 0 c31 0 34 -4 96 -125
l65 -125 68 0 c37 0 68 2 68 5 0 2 -30 62 -67 132 -40 76 -62 128 -55 131 32
10 79 52 99 87 25 44 31 123 12 172 -15 40 -57 82 -104 104 -33 15 -65 19
-192 19 l-153 0 0 -325z m289 200 c32 -16 41 -33 41 -78 -1 -62 -40 -87 -134
-87 l-66 0 0 90 0 90 65 0 c38 0 78 -6 94 -15z"/>
<path d="M4120 1175 l0 -325 210 0 210 0 0 60 0 60 -145 0 -145 0 0 265 0 265
-65 0 -65 0 0 -325z"/>
<path d="M5040 1175 l0 -325 60 0 60 0 0 325 0 325 -60 0 -60 0 0 -325z"/>
<path d="M5710 1175 l0 -325 65 0 65 0 2 225 3 225 144 -225 143 -225 69 0 69
0 0 325 0 325 -65 0 -65 0 -2 -211 -3 -211 -131 209 -131 208 -81 3 -82 3 0
-326z"/>
<path d="M6810 1175 l0 -325 205 0 205 0 0 60 0 60 -140 0 -140 0 0 75 0 75
125 0 125 0 0 55 0 55 -125 0 -125 0 0 75 0 75 140 0 140 0 0 60 0 60 -205 0
-205 0 0 -325z"/>
</g>
</svg>
