<?xml version="1.0" encoding="UTF-8"?>
<svg version="1.1" viewBox="0 0 1516 1132" width="1280" height="1280" xmlns="http://www.w3.org/2000/svg">
<path transform="translate(375,429)" d="m0 0 6 4 10 9 10 11 12 16 5 1 11-1h43l2 7v25l-2 18v7l10 9 8 7 10 9 7 7 4 6-1 7-8 9-8 7-12 10-10 7v8l3 22v18l-2 10-2 1h-58l-12 14-9 11-11 11-5 2-8-4-12-11-10-14-8-9h-59l-2-2v-33l3-18v-6l-14-10-13-12-11-11-2-3 1-5 9-10 4-5 8-7 14-12 3-3-1-13-1-10v-22l1-11 1-1 7-1h22l30 1 7-8 10-13 18-18zm-1 10-6 4-13 13-8 11v3l6-1 15-15 5-3 6 1 14 8 2 1-2-6-9-10-8-6zm0 21-8 7-7 8v3l14 5h6l10-5 2-3-8-11-5-4zm21 1m-111 13v31l4 26 6 15 3 9 3 2v-12l-3-8-5-25-2-7v-18l3-9 24 3 10 2 10 4 16 4 15 6 25 13 7 3 5-1h21l5 2h3l-2-5-3-2h-15l-17 2-2-5-12-9-25-10-13-5-16-2-37-3zm160 0-24 4-14 2-5 3-8 5-6 3v1l7-1 5-2 16-3 22-6 16-3 1-3zm-143 13-1 2v17l2 10 2 1 5-13v-2l10-2 16-6 1-2-14-2-13-3zm142 2-17 5 1 3 10 4 4 9 1 4 1 16 1 2h2l4-18 2-5v-17l-3-3zm18 1-2 23-5 23-6 14-4 11-8 14-2 6 5-2 5-6 9-15 4-11 3-12 3-6v-31l-1-8zm-56 8v1h9v-1zm-90 8v36l-4 8-6 8-6 10-7 22-4 12-4 28-1 10v12l2 4 43-1 20-5 12-4 4-3v-3l-5-1-14 4-19 5-14 3-23 1-1-6v-10l5-26 5-19 6-13 5-14 8-14 1-3v-10l2-20 1-5 29 1 10-5v-1h-10l-12-1zm56 5-9 6-5 4-2 1h-9l-12-1-2 7-2 19-10 17-1 5 7 8 4 5 1 29 6 1 9-2h9l8 3 8 9 6 2 11-9 10-5 12 2h10l1-11v-16l4-6 8-8v-6l-8-12-4-7-1-23-4-2h-21l-12-9-2-1zm-67 8 1 13 2 3 1-3v-12zm126 0-2 7-1 11 1 8h2l4-17v-9zm-152 19-6 4-13 11-7 8v8l1 4h2l2 4 14 11 11 8h2l-2-4-6-4h-2v-2l-5-5-9-12-1-5 6-8 8-8 8-7v-3zm189 0 1 4 7 6 5 6 9 7 7 1-1-5-5-5-7-6-9-5-4-3zm-183 12-9 8-4 7 1 5 7 8 7 4 3-5 3-8-1-9-5-10zm180 1-5 12 1 11 4 7 4-1 9-7 6-6-1-5-13-10zm29 15-5 5-8 10-4 6-8 4 1 4 9-6 12-7 7-8v-8zm-180 11-1 5 3 4v39l10-2 9 2 11-1 2-3 8 5 10 6 7 6 16 8 16 5 20 4h30l-3-2-5-2-29-4-30-10-15-6h-6l-1-3-13-9-6-1-3 1-20 1-3-6-1-4v-14l3-4-1-5-6-10zm139 0-3 4 2 8 3 10 3 17 3 15 2 12h4l1-1v-11l-2-10-2-18-5-13-4-12zm-19 5m-5 7-1 2 2 24 1 6-4 1-8-1h-21l-8 3v2l11-2h34l1-8v-14l-5-12zm-121 2-3 10-6 32v6l2 3h15l19-2 17-5 1-2-29-1-10-2h-6l2-29-1-10zm137 5-1 1v15l-3 15-3 3-12 2h-25v2l12 4 25 4 13 2 2-1 1-7-1-16-3-8-2-12zm-70 52-14 7 1 4 8 10 5 4 5-1 8-9 3-5-1-4-6-4-5-2zm26 10-2 1-3 7-5 5-4 3v2h-2v2l-6 3h-6l-8-7-9-11-3-3h-5l2 6 6 10 13 13 7 5 5-2 10-9 7-10 7-11v-3z" fill="#B09376"/>
<path transform="translate(1064,522)" d="m0 0h30l11 1 12 6 6 7 3 7v12l-5 10-5 5-5 4-14 4 3 5 14 11 13 10 2 3h-22l-5-3-10-8-11-9-11-8-9-1h-13v28l-4 1h-10l-2-1-1-9v-73l1-1zm-15 8-1 1v39l1 1h43l8-4 5-5 2-6v-11l-5-10-5-4-17-1z" fill="#42163E"/>
<path transform="translate(1193,520)" d="m0 0 16 1 12 4 8 4 7 7 4 8 1 3 1 13v44l-2 3h-15l-1-2v-7l-17 8-13 3h-23l-14-3-8-6-4-5-2-4-1-8 3-10 7-8 9-5 14-3h27l18 3 4 1-1-14-4-8-6-5-8-3-7-1h-13l-14 3-19 8-3-3v-5l14-7 13-4zm-12 44-11 4-7 6-2 4v10l3 6 7 6 4 1h23l14-4 10-5 2-2 1-4-1-18-13-3-8-1z" fill="#43163E"/>
<path transform="translate(952,521)" d="m0 0h15l17 3 10 5 7 6 6 12v60h-15l-2-4v-4l-20 8-8 2-19 1-14-2-10-4-7-7-3-6v-14l5-8 7-6 10-4 10-2h27l17 3 5 1-2-17-4-6v-2l-4-2-10-4-14-1-17 3-15 6-7 3-2-3 1-5 14-7 14-4zm-5 43-11 4-7 6-2 4v10l4 7 4 4 6 2 11 1 18-2 15-6 5-5 1-7v-12l-3-3-19-3z" fill="#41153D"/>
<path transform="translate(756,520)" d="m0 0h16l16 2 18 5 3 3v6l-3 1-15-6-14-3h-22l-10 5-5 6-1 6 2 5 8 4 16 2 21 2 12 3 9 6 6 8 1 3v10l-5 8-8 7-10 4-12 2h-27l-16-3-15-6-1-1v-7l2-2 16 7 16 4h22l11-4 5-4 3-6-1-7-4-5-12-3-27-2-16-4-9-6-4-7-1-2v-9l4-8 8-7 11-5z" fill="#41153D"/>
<path transform="translate(553,523)" d="m0 0h12l4 4 16 29 14 25 7 11 2 1 10-15 10-18 20-35 2-2h11l-6 12-14 24-14 25-13 22-2 1h-17l-4-5-15-26-15-27-12-21-1-4z" fill="#41143D"/>
<path transform="translate(847,503)" d="m0 0h4v22h41l1 1v5l-1 1h-41l1 55 3 7 6 5 3 1h19l9-3 4 1v7l-5 2-16 2h-9l-16-3-9-7-5-8-2-7v-45l1-33z" fill="#41143D"/>
<path transform="translate(439,473)" d="m0 0h30v28l-3 23-2 6-2 10-11 27-11 20-2 4-1 11-1 23-3 2-33 1-5 3-1 1-7-1-4-2 1-4 5-2v-2l9-5 29 1-2-18v-9l5-10 8-11 8-17 6-18 5-25 1-25-24 1-16 3-21 5h-11l-4-4v-2l19-7 20-5zm5 1-24 4-14 2-5 3-8 5-6 3v1l7-1 5-2 16-3 22-6 16-3 1-3zm17 16-2 23-5 23-6 14-4 11-8 14-2 6 5-2 5-6 9-15 4-11 3-12 3-6v-31l-1-8zm-28 92m-5 7-1 2 2 24 1 6-4 1-8-1h-21l-8 3v2l11-2h34l1-8v-14l-5-12z" fill="#D8C1A7"/>
<path transform="translate(357,483)" d="m0 0 6 1 15 7 16 8v2l4 1 9 2h28l2 2 1 37 2 4-1-30 1-10 2 3 1 4 1 18h2l2-15 3-8v-19h-8l-14 4h-3l3 3 8 3v1h-37l-5-2 1-3 19-5 17-3 23-1v15l-4 27-6 18-3 1v6l-3 6h-3v-2l-3-1-4-4v-2h-2l-2-6-1-2 1-9 1-4v-14h-12l-6 1h-8l-8-3-13-9-10-6-20-8-12-3v-1l10 1 19 7 27 14 7 3 5-1h21l8 3-3-5-2-1h-15l-8 1h-9l-2-5-4-2-8-6-25-10-2-2zm48 15v1h9v-1zm25 21-2 7-1 11 1 8h2l4-17v-9z" fill="#D8C1A7"/>
<path transform="translate(679,523)" d="m0 0 17 1v82l-2 1-14-1z" fill="#3F123C"/>
<path transform="translate(313,569)" d="m0 0 3 4 8 13 1 3v28l19-2h9l25 15 16 8 2 2-9-2-15-6-6-1-5-5-11-7-23 2-5-1-3-6-1-4v-14l3-4-1-5-5-9h-2l1 5 2 3v32l-2-1-1-29-1-2-2 12-2-3-1-2-6 28-2 12v6l1 2h15l19-2 17-5-28-1v-1h30v4l-17 5-17 3-9 1h-12l-2-3 1-19 3-16 4-15 6-14 2-8z" fill="#DBC5AD"/>
<path transform="translate(429,474)" d="m0 0h7v2l-16 3-14 2-5 3-8 5-5 2 6-1 5-2 16-3 22-6 16-3 1-2 14 1v22l-2 9h-2l-1 2-1-10-4 25-4 15-6 16-8 16h-3l8-15 7-21 5-25 1-25-24 1-16 3-21 5h-11l-4-4v-2l19-7 20-5z" fill="#D8C1A7"/>
<path transform="translate(318,489)" d="m0 0h11l14 3 10 3 11 5 5 2v3l-13 10-2 1h-28l-1 1 1 24-2 4-5 4h-2v-12l2-20 2-5h29l8-4-42-2v-1l36-2 5-1v-2l-6 1h-35l3-2 16-6-13-2z" fill="#D7C0A5"/>
<path transform="translate(281,532)" d="m0 0 3 3 1 9-8 6-8 7h-2v2l-5 5-1 4 8 8 2 1v2l4 2 11 7-1 8-4 4-14-12-11-9-11-11 1-6 8-7 3-3 8-7zm-3 6-6 4-13 11-7 8v8l1 4h2l2 4 14 11 11 8h2l-2-4-6-4h-2v-2l-5-5-9-12-1-5 6-8 8-8 8-7v-3z" fill="#DBC5AD"/>
<path transform="translate(460,631)" d="m0 0h1l2 12 3-1 1-7h1l1 20-2 3-6 1h-20l-24-3-14-4-2-2 13 2 10 2h27l-5-2-29-4-18-6v-1l8 1 21 4 11 1h19l1-15z" fill="#D8C1A7"/>
<path transform="translate(1013,656)" d="m0 0h9l6 3 3 6-2 7-3 4h-15l4 4 16 4 1 2v8l-6 5h-15l-5-3-2-3 1-8 2-2v-19l3-6zm3 3-3 1-2 4v8l1 1h11l2-2v-7l-5-5zm-7 25-1 7 2 4 6 2 9-1 3-4-2-5-10-3z" fill="#4C2143"/>
<path transform="translate(810,656)" d="m0 0 4 2 5 19 3-4 5-15 4-1 5 14 2 7 3-8 4-12 4-2-1 8-5 15-4 8-3-1-6-18-9 18-4-1-5-15-2-8z" fill="#4C2143"/>
<path transform="translate(311,578)" d="m0 0 2 4 3 4v32l-2-1-1-29-1-2-2 12-2-3-1-2-6 28-2 12v6l1 2h15l19-2 17-5-28-1v-1h30v4l-17 5-17 3-9 1h-12l-2-3 1-19 3-16 4-15 5-12z" fill="#D7C0A5"/>
<path transform="translate(303,578)" d="m0 0 1 4-7 22-3 20v24l24-1 14-2h7l-4 2-23 5-21 1-3-3-1-4v-10l5-26 5-19z" fill="#D8C1A7"/>
<path transform="translate(439,473)" d="m0 0h30v28l-3 23-2 6-2 10-11 27-11 20-2 4-1 11h-3l-2-4v-5l3-1 1-9 7-10 9-15 4-11 3-12 3-6v-16l2-7h2l1-9 1-22h-24l-8 1v-2z" fill="#D8C2A8"/>
<path transform="translate(293,477)" d="m0 0 24 3 10 2 7 3v1h-9l-9-1-23-1 2 31 4 18 4 15-2 9h-1l-2-16-2-4-5-25-2-7v-18z" fill="#D7C0A6"/>
<path transform="translate(714,656)" d="m0 0h8l5 3 4 8v6l-5 1-16 1 1 5 3 3 7 1 6-4 3-1-1 4-5 4-8 1-7-3-4-6-1-10 3-7 5-5zm1 4-4 4-1 4 7 2h6l2-1-1-6-3-3z" fill="#542A47"/>
<path transform="translate(790,656)" d="m0 0h8l5 3 4 8v6l-1 1h-15l-6-1 2 7 1 3 8 1 7-4h3l-3 5-6 3h-7l-6-4-4-8v-8l4-8zm1 3-4 4-1 6 14 1 1-5-3-5z" fill="#522846"/>
<path transform="translate(896,656)" d="m0 0h8l5 3 3 4v10l-1 1h-20l3 7 2 2h9l5-4h2l-1 4-5 4-7 1-7-2-4-5-2-6v-7l4-8 3-3zm2 3-5 3-2 7 1 1h15l1-4-3-5-4-2z" fill="#4D2243"/>
<path transform="translate(927,656)" d="m0 0h7l6 3 3 4 1 10-3 1h-19l2 7 7 3 6-2 6-3-2 5-4 3h-12l-5-4-3-8 1-10 4-6zm2 3-4 2-2 4v4l2 1h14l-1-6-5-5z" fill="#4F2544"/>
<path transform="translate(296,486)" d="m0 0 5 1v19l2 10 5-12 2-2v39l-2 6h-3l-3-15-3-10-2-15zm8 33 1 13 2 3 1-3v-12z" fill="#DAC3AB"/>
<path transform="translate(675,645)" d="m0 0 4 1 1 14 8-4 8 2 3 5v24h-3l-1-2-1-20-2-4-7 1-4 2-1 2-1 20-3 1-1-2z" fill="#481D41"/>
<path transform="translate(364,505)" d="m0 0m-1 1m-1 1m-1 1v3l-7 5h-28l-1 1 1 24-2 4-5 4h-2v-12l2-20 2-5h34z" fill="#D8C0A6"/>
<path transform="translate(375,435)" d="m0 0 5 1v2l4 2 3 3 3 5 11 13 7 10v3l-4 2h-7l-4-6-11-15 2-1 9 5-1-4-9-10-7-5-6 1z" fill="#D6BEA4"/>
<path transform="translate(432,488)" d="m0 0h12l-1 2-14 4h-3l3 3 8 3v1h-37l-5-2 1-3 19-5zm-27 10v1h9v-1z" fill="#DAC4AC"/>
<path transform="translate(454,474)" d="m0 0 14 1v22l-2 9h-2l-1 2-1-10-2 4-1-18-1-1-8-1h-17v-2l20-4z" fill="#FDFDFD"/>
<path transform="translate(607,656)" d="m0 0 4 1 8 20h2l8-19 4-2-2 9-10 26-4 6-2 2h-8l1-2 6-3 2-4-1-9-8-24z" fill="#4B2042"/>
<path transform="translate(760,657)" d="m0 0h10l4 5 1 9v16l-4-1-2-21-2-4h-6l-5 5-1 18v3l-4-1-1-4v-24h7z" fill="#552B47"/>
<path transform="translate(1265,521)" d="m0 0h9l5 4 1 5v6l-5 6-2 1h-8l-6-4-2-4v-7l4-5zm6 4 2 4-1 5-1 1h-5l-3-8-3 1v7l5 4 7 1 5-5v-7l-2-3z" fill="#79545A"/>
<path transform="translate(984,657)" d="m0 0h9l5 4 1 2v24h-4l-1-23-2-3h-7l-5 5-1 21-4-2v-22l2-4z" fill="#471B40"/>
<path transform="translate(397,500)" d="m0 0 41 1 2 3v19l1 25-3-2-1-3-1-37-1-1h-28l-9-2z" fill="#AE9073"/>
<path transform="translate(654,647)" d="m0 0 4 1 1 9h7l2 3-1 2h-8v19l1 2 10 1-1 3h-12l-3-4v-21l-5-1v-3l5-2z" fill="#512745"/>
<path transform="translate(431,508)" d="m0 0h4l1 3v24l1 10 1 2v7h-3l-7-8 2-1 1-9 2-8 1-9-4 1-1 6h-1l-1-12-4-1-13 1h-12v-2l7-1h21l8 3z" fill="#FEFEFE"/>
<path transform="translate(568,648)" d="m0 0h22v3l-17 1v12l14 1v3l-11 1-3 1-1 17h-3l-1-3z" fill="#4A1F42"/>
<path transform="translate(357,483)" d="m0 0 6 1 15 7 16 8v2l4 1 9 2h28l2 2v11h-1l-1-9h-21l-8 1h-9l-2-5-4-2-8-6-25-10-2-2z" fill="#DAC3AB"/>
<path transform="translate(1148,473)" d="m0 0h10l2 3v3l-10-1 1 3 7 3 3 3v7l-5 4h-7l-4-3-1-4 5 2 4 1 2-1 1-4-6-2-5-2-1-1v-7z" fill="#4F2444"/>
<path transform="translate(875,645)" d="m0 0h11v3l-9 1-1 1-1 7 7-1 1 2-4 4h-4l-1 24h-3l-1-11v-12l-4-3v-3l3-1 3-9z" fill="#4F2544"/>
<path transform="translate(1184,473)" d="m0 0 4 3 7 19-1 3-4-2-5-6h-3l-2 4-3 3h-3l1-5 7-17z" fill="#461A40"/>
<path transform="translate(345,620)" d="m0 0 4 2 15 8 8 7 8 4-3 1-16-8-11-6h-29l-4-2v-2l8-2 9 2h11z" fill="#DBC5AD"/>
<path transform="translate(1122,473)" d="m0 0 4 2 5 12 2 6v5l-4-2-4-6-4 2-5 5h-3l1-5 7-17z" fill="#44183F"/>
<path transform="translate(1085,473)" d="m0 0 3 1 7 18v5l-4-1-5-5v-3l1-5h-2l-1 7-5 7-4 1 1-6 7-17z" fill="#4C2143"/>
<path transform="translate(1040,473)" d="m0 0 3 1 8 20v3l-5-1-4-5-5 1-4 4h-2l1-6 5-11 2-5zm0 10 1 4 1-3z" fill="#4F2545"/>
<path transform="translate(337,487)" d="m0 0 10 1 19 7 27 14 5 2v3l26-2 4 2-1 3-1-1h-12l-6 1h-8l-8-3-13-9-10-6-20-8-12-3z" fill="#D8C0A6"/>
<path transform="translate(1222,473)" d="m0 0 4 2 5 11 2 1 2-6 3-6 4-2-1 6-4 11-5 8-3-1-7-19z" fill="#4E2344"/>
<path transform="translate(444,586)" d="m0 0 2 4 6 19v11l-2-3-2-5-2-12-2-3v15l-1 7h-3l-1-26 3-5z" fill="#D8C1A8"/>
<path transform="translate(435,603)" d="m0 0h1v22l-3 2-39 1-2 1h-6v-3l3-2v2l11-3h15l19 1z" fill="#DBC6AE"/>
<path transform="translate(351,648)" d="m0 0 4 1h-3l-1 2-9 3-15 3-17 2h-21l-4-2 3-2 40-1 20-5z" fill="#E3D3C1"/>
<path transform="translate(395,631)" d="m0 0h24l6 1v1h-17l-8-1v2l17 4 20 3 13 2h2v-7l3 3-1 5-8 1-23-2-22-6-6-4z" fill="#D7BFA4"/>
<path transform="translate(467,635)" d="m0 0h1l1 20-2 3-6 1h-20l-24-3-14-4-2-2 13 2 10 2 29 2h11l2-1v-13z" fill="#D7BFA4"/>
<path transform="translate(597,645)" d="m0 0 4 1v30l1 7 3 4-8-1-1-9v-19z" fill="#5A314A"/>
<path transform="translate(950,645)" d="m0 0h4l1 39 4 1v2l-7-1-2-4-1-36z" fill="#44183F"/>
<path transform="translate(294,472)" d="m0 0 20 1 18 2 12 4v1l-28-2-24-2-4-2z" fill="#DECBB6"/>
<path transform="translate(429,474)" d="m0 0h7v2l-16 3-14 2-5 3-8 5-5 2v2l-4-2-2-4 19-7 20-5z" fill="#D9C3A9"/>
<path transform="translate(323,632)" d="m0 0h30v4l-17 5-17 3-9 1h-12l-2-3v-5l2-1 2 5h15l19-2 17-5-28-1z" fill="#DAC4AB"/>
<path transform="translate(437,571)" d="m0 0 1 2-3 7 4-1-2 6-2 7-4 3-2-5-1 1v17l-2-2-1-7v-9l5-10z" fill="#DCC7AF"/>
<path transform="translate(1109,473)" d="m0 0h4l-1 4-3 3-1 2-1 13-2 3h-2l-1-2-1-14-3-5-1-3z" fill="#4C2143"/>
<path transform="translate(1073,473)" d="m0 0 2 2-4 4-1 4-1 13-3 2-2-4-1-13-1-4-3-1v-2z" fill="#4B2042"/>
<path transform="translate(461,643)" d="m0 0h5l1 12-3 2h-11l-12-1v-1l10-1-5-2v-1l10-1 4-4z" fill="#FEFEFE"/>
<path transform="translate(371,451)" d="m0 0 2 1-9 9-11 15-8-1-2-4 2-3h2v2l7-3 14-14z" fill="#D9C3AA"/>
<path transform="translate(434,528)" d="m0 0 2 3 1 14 1 2v7h-3l-7-8 2-1 1-9z" fill="#FDFDFD"/>
<path transform="translate(327,519)" d="m0 0h14l14 3v1h-9l-12-1-2 15-2 1-2-5-1-6z" fill="#D9C3A9"/>
<path transform="translate(1213,474)" d="m0 0 4 1v15l-3 7-6 2-2-1v-2l4-2 1-3 1-16z" fill="#512745"/>
<path transform="translate(964,657)" d="m0 0h3l1 2v26l-4 1-1-21v-6z" fill="#5F374C"/>
<path transform="translate(1165,473)" d="m0 0 4 1 1 4-1 18-4 1-1-1v-18z" fill="#4D2243"/>
<path transform="translate(330,596)" d="m0 0h1v15l11-1 4-1h9l8 3 6 7-2 1-13-9h-7l-7 2-12 1 1-16z" fill="#D7BFA5"/>
<path transform="translate(388,457)" d="m0 0 5 2 4 1v2l3 1 5 7-1 4h-6l-10-16z" fill="#FEFEFE"/>
<path transform="translate(295,578)" d="m0 0 1 3-7 21-4 28-1 10-2-4 1-16 3-17 6-18z" fill="#DAC4AC"/>
<path transform="translate(481,578)" d="m0 0v3l-5 7-6 3h-2l2 3 9-7 3 1-11 10h-4l-1-8 4-4z" fill="#DBC5AD"/>
<path transform="translate(1268,521)" d="m0 0h6l-1 2 2 2h-4l3 4-1 5-2 2h-5l-2-2-1-8 6-2z" fill="#B79A7F"/>
<path transform="translate(421,492)" d="m0 0h7l1 2h-3l3 3v2h-15l-9-1v-1h5v-2z" fill="#FEFEFE"/>
<path transform="translate(322,529)" d="m0 0 2 1v13l-4 6h-3v-12l1-7z" fill="#FEFEFE"/>
<path transform="translate(293,477)" d="m0 0 24 3 6 1-3 2-29-1z" fill="#FCFBFA"/>
<path transform="translate(453,570)" d="m0 0 2 3 7 21 1 9-2-3-6-15-2-7-3 3v5l-2-2v-6z" fill="#D8C0A6"/>
<path transform="translate(398,656)" d="m0 0 7 1 2 4-6 8-2 1 2-5 3-6h-6l-1 6-4 5-5 4-2-1 7-10 2-3h2z" fill="#D7C0A5"/>
<path transform="translate(1119,482)" d="m0 0h3l2 3 3 1-5 5-4 5-5 1 1-5 4-9z" fill="#592F49"/>
<path transform="translate(1187,482)" d="m0 0h2v2h2l4 11-1 3-4-2-6-7v-2l-3-1z" fill="#653E4F"/>
<path transform="translate(274,557)" d="m0 0 2 1-4 7 1 5 6 8-5-2-8-7-1-4 7-7z" fill="#D7BFA4"/>
<path transform="translate(322,545)" d="m0 0 1 2-9 14-6 10-3 7-1-4 5-11 7-13 4-2z" fill="#D7C0A6"/>
<path transform="translate(455,526)" d="m0 0h1l-1 10-6 14-4 11-6 10-2-1 8-15 7-21z" fill="#D8C1A7"/>
<path transform="translate(322,589)" d="m0 0 2 4-1 15-5 2v-14z" fill="#FEFEFE"/>
<path transform="translate(348,656)" d="m0 0 6 1v2h2l2 3v3h2l3 5-1 2-10-11-5-1 2 6-5-5 1-4z" fill="#D7BFA5"/>
<path transform="translate(255,549)" d="m0 0 2 1-3 6-8 7-2 1v5l-3-3 1-4 10-12z" fill="#825E60"/>
<path transform="translate(414,519)" d="m0 0h9l1 1v7l-3 13h-1v-17l-11-2v-1z" fill="#DAC3AA"/>
<path transform="translate(288,531)" d="m0 0 2 3 6 16 3 6v4h-3l-7-19-1-2z" fill="#D8C0A6"/>
<path transform="translate(1271,522)" d="m0 0h5l3 3 1 5v6l-5 6-4-1 5-6v-7l-1-4z" fill="#6A4454"/>
<path transform="translate(429,615)" d="m0 0h1l1 6-2 2-11-1h-24l2-2 4-1h15l14 1z" fill="#FEFEFE"/>
<path transform="translate(468,533)" d="m0 0 4 2 10 8 4 5-5-2-10-6-4-2z" fill="#DAC4AB"/>
<path transform="translate(395,631)" d="m0 0h24l6 1v1h-17l-8-1v2l9 3v1l-8-1-6-4z" fill="#D9C2A9"/>
<path transform="translate(462,530)" d="m0 0h1v7l-9 22-2 1 3-9 4-16z" fill="#D8C1A7"/>
<path transform="translate(314,507)" d="m0 0h1l1 35-4 8-5 5 1-4 4-7 1-3z" fill="#DBC6AE"/>
<path transform="translate(429,474)" d="m0 0h7v2l-16 3-10 1v-2l11-3z" fill="#DCC8B1"/>
<path transform="translate(337,487)" d="m0 0 10 1 19 7 10 6-2 1-5-3-20-8-12-3z" fill="#D7BFA4"/>
<path transform="translate(357,483)" d="m0 0 6 1 15 7 5 3-3 1-24-10z" fill="#D7BFA4"/>
<path transform="translate(330,545)" d="m0 0 1 2-10 17-1 3h-2l-1-4 3-6 5-6h2l2-5z" fill="#D7BFA4"/>
<path transform="translate(400,623)" d="m0 0h15v1l-15 2-8 3h-6v-3l3-2v2z" fill="#FEFEFE"/>
<path transform="translate(308,601)" d="m0 0h1l2 24 1 5h-5v-11z" fill="#D7BFA4"/>
<path transform="translate(432,582)" d="m0 0 2 2 1-2 2 1-1 7-5 5-3-7z" fill="#FEFEFE"/>
<path transform="translate(351,648)" d="m0 0 4 1h-3l-1 2-9 3-12 2h-2v-2l20-5z" fill="#D7C0A5"/>
<path transform="translate(323,632)" d="m0 0h30v4l-9 3-4-1 11-4-28-1z" fill="#D7BFA4"/>
<path transform="translate(429,498)" d="m0 0 6 1 2 2h-31v-1z" fill="#D9C2A8"/>
<path transform="translate(360,502)" d="m0 0h6v3l-8 6-5 2v-2l5-3-2-1 2-4z" fill="#FEFEFE"/>
<path transform="translate(321,572)" d="m0 0 7 6 3 4v5l-5-4-5-7z" fill="#D7BFA4"/>
<path transform="translate(496,561)" d="m0 0 4 2 2 2-1 4-4 2v-5h-4l-1-4z" fill="#FEFEFE"/>
<path transform="translate(1265,521)" d="m0 0 4 1 1 3-9 3-3 6-1-1v-5l4-5z" fill="#512745"/>
<path transform="translate(387,623)" d="m0 0v3l-1 2h6l5-1-2 4-1 1-7-1-4-2 1-4z" fill="#D7BFA4"/>
<path transform="translate(467,635)" d="m0 0h1l1 20-2 3-4-1 3-2v-13z" fill="#D7C0A6"/>
<path transform="translate(479,587)" d="m0 0 3 1-11 10h-4l1-4 5-2z" fill="#DCC7B0"/>
<path transform="translate(285,546)" d="m0 0 4 4 3 7 1 5v7h-1l-3-12-3-6-2-1z" fill="#D7BFA4"/>
<path transform="translate(291,569)" d="m0 0h1l-1 9-4 7-8-5 1-2 6 3z" fill="#D7BFA4"/>
<path transform="translate(458,509)" d="m0 0h2l-1 10-2 8-2-1 1-10z" fill="#DDC9B2"/>
<path transform="translate(426,589)" d="m0 0 2 2v17l-2-2-1-7v-9z" fill="#DECAB4"/>
<path transform="translate(320,482)" d="m0 0h7l7 3v1h-9l-9-1v-2z" fill="#D9C3AA"/>
<path transform="translate(356,610)" d="m0 0 5 1 6 5 2 4-5-2-8-6z" fill="#DCC8B0"/>
<path transform="translate(401,650)" d="m0 0 13 2 10 2v2h-7l-14-4z" fill="#D7C0A6"/>
<path transform="translate(376,431)" d="m0 0 4 1 9 10-2 2-7-6-4-5z" fill="#643C4E"/>
<path transform="translate(287,636)" d="m0 0h1l1 8h2l2 7 4 2h-6l-3-3-1-4z" fill="#FEFEFE"/>
<path transform="translate(318,489)" d="m0 0h11l7 1v3l-14-2z" fill="#DBC5AD"/>
<path transform="translate(314,538)" d="m0 0h2l-1 6-3 6-5 5 1-4 4-7z" fill="#D7BFA4"/>
<path transform="translate(1264,531)" d="m0 0h8l-1 5h-5l-2-2z" fill="#4B1F42"/>
<path transform="translate(420,601)" d="m0 0 3 3 1 8-5 1z" fill="#D7BFA4"/>
<path transform="translate(1278,533)" d="m0 0h1v5l-4 4-4-1z" fill="#592F49"/>
<path transform="translate(471,526)" d="m0 0 6 4 4 5-5-1-5-5z" fill="#D7BFA4"/>
<path transform="translate(391,612)" d="m0 0 2 1-6 5-1 2-6 2 4-5z" fill="#DCC8B0"/>
<path transform="translate(466,541)" d="m0 0 5 2 5 5-1 2-9-7z" fill="#D8C1A7"/>
<path transform="translate(352,632)" d="m0 0 2 1-1 3-9 3-4-1 11-4z" fill="#D8C1A7"/>
<path transform="translate(963,645)" d="m0 0h4v5l-4-1z" fill="#562D48"/>
<path transform="translate(1028,657)" d="m0 0h5l-1 3-4-1z" fill="#4F2444"/>
<path transform="translate(306,634)" d="m0 0 2 4-2 1z" fill="#D7BFA4"/>
<path transform="translate(337,526)" d="m0 0" fill="#FEFEFE"/>
</svg>
