<?xml version="1.0" encoding="UTF-8"?>
<svg version="1.1" viewBox="0 0 1400 800" width="1280" height="1280" xmlns="http://www.w3.org/2000/svg">
<path transform="translate(674,82)" d="m0 0h43l27 3 30 7 18 6 19 8 10-2 14-3 19-2h36l63 5h31l74-4h87l62 3 40-1 34-2 23-2h13l8 8 7 11v5l-10 7-16 8-5 3 1 5 5 10 1 6-4 5-12 5-16 5h-2l3 11v7l-5 6-12 5-22 6-1 1v16l-3 6-5 4-17 3-19 3-2 4-2 11-4 8-5 4-5 1-40 1-3 8-4 10-4 3-8 2-40 1-2 1-2 11-4 6-8 3h-22l-17-3h-6l-5 9-3 3-5 2h-16l-23-6-3 9-6 4-7 1-11-2-5-2h-3l-8 20-8 16-9 14-10 13-11 12-14 14-12 9-13 9-15 9-25 12h-2l-1 5-6 11-17-6-5-1-2 5-7 10-6-2-11-6-4 1-10 12-4-1-12-9-4 1-10 9-2 2-4-1-10-10-2-1-14 10h-4l-10-13-5 1-13 7h-3l-9-14-7 1-14 5-7-12-21-9-16-8-10-6-15-10-10-8-10-9-9-8-7-8-12-15-8-13-9-16-8-21-2-9-12 5-11 2h-10l-7-3-4-6-2-5-13 1-20 4h-15l-7-4-3-5-3-9-42-1-9-3-5-5-3-11-10-3-37-4-13-3-8-5-3-14v-2l-12-2-24-5-13-4-3-6v-16l-10-4-25-8-6-4-2-4 2-9 3-8-5-2-15-7-16-7-5-3v-9l4-12 2-4-6-2-21-11-6-6 1-5 6-9 8-9h14l34 3 49 2 36-1 39-2h86l74 4h31l38-3 26-2h35l20 2 19 4 15-6 14-5 18-5 25-5z" fill="#0D0D0C"/>
<path transform="translate(674,82)" d="m0 0h43l27 3 30 7 18 6 19 8 10-2 14-3 19-2h36l63 5h31l74-4h87l62 3 40-1 34-2 23-2h13l8 8 7 11v5l-10 7-16 8-5 3 1 5 5 10 1 6-4 5-12 5-16 5h-2l3 11v7l-5 6-12 5-22 6-1 1v16l-3 6-5 4-17 3-19 3-2 4-2 11-4 8-5 4-5 1-40 1-3 8-4 10-4 3-8 2-40 1-2 1-2 11-4 6-8 3h-22l-17-3h-6l-5 9-5 1-12-1-19-5-16-8-15-12-9-6 5 6v2l4 2 12 11 4 3v8l-2 2h-13l-16-8-12-11-8-7-14-13-8-7-6-5-4-2 6-8 5-4h8l6-3 1-2h-8l-7-2-7-7-10-13-2-3 1-5 4-3h14l10 8 10 10 10 2 11 1 1 1 1-3h2v-2l-4 1h-11l-9-3 3-1 3 1h13l7-1 2-7-2-4h12l8-3-6 1h-10l-8-5-4-2-5-2v-3l-14-8 1-9 4-2-8-3-4-4 10 2-10-4-8-6h-1l14 15 1 6-3 4h-11l-8-5-5-5-2-1 9 14 1 6-1 4-2 1h-7l-7-4v2 6l-4 4-9 2-6-2 1-4 4-7 1-9-2-10h-3l2 8-1 10-6 7-4-1-5-5-5-7 4-5 1-7-3-10-9-12-13-13-8-7-10-12v-2l-9-2 1 7 7 10 7 8 8 7 17 17 6 9v5l-4-2-10-9-15-10-18-10-20-8-20-6-25-4h-39l-23 3-20 5-19 7-16 8-15 9-14 11-6 6h-3l1-5 4-6 9-10 26-26 7-11 1-2v-17l16-5 29-6 19-2 25-1 27 2 23 4 21 6 8 1-3-3-5-2-12-3-3-1v-2h7l20 6 7-1 8-4h2v-2l-10-3-18-6-24-6-27-4-12-1h-28l-27 3-20 4-26 7-14 5 2 2v4l-10-3-19-5-21-3h-35l-75 5h-28l-48-3-53-2-49 1-44 2h-54l-59-4-16-1-7 3-7 6-4 1 6-8 6-7h14l34 3 49 2 36-1 39-2h86l74 4h31l38-3 26-2h35l20 2 19 4 15-6 14-5 18-5 25-5z" fill="#10100F"/>
<path transform="translate(87,104)" d="m0 0 19 1 54 4h65l39-2h64l77 5h39l53-3h54l22 3 15 4 12 5 7 6-1 9-7 11-31 31-6 10-2 6v7l4 6-1 4-7 8-2 2-4-1-4-4-2-5v-8l3-9 14-27 2-7v-12l-3-6-6-4-16-4-11-1h-33l-60 1 29 1h51l24 3 14 4 6 4 3 3 1 12-4 10-10 18-6 12-1 3v8l6 12-1 3h-12l-5-3-1-1-1-7-2 5-1 3-13 1-10 8-10 10 1 6 4 5 7 2v2h-7v3l2 1-5-1-4-4-4 1-16 13-13 10-4 1h-2l-13 10-15 11-12 7-16 5-16 3h-14l4 2 13 1-4 2h-10l-7-4-3-5-3-9-42-1-9-3-5-5-3-11-10-3-37-4-13-3-8-5-3-14v-2l-12-2-24-5-13-4-3-6v-16l-10-4-25-8-6-4-2-4 2-9 3-8-5-2-15-7-16-7-5-3v-9l4-12 2-4-4-2 2-1-16-8-8-5h3l18 8 11 2 18 1 62 2v1l-22 1 81 2 78 1 35 1h27l5-1v-3h-36l-171-5-44-1-25-1-14-2-16-5-12-6 2-5 9-8z" fill="#131312"/>
<path transform="translate(686,161)" d="m0 0h27l23 3 24 6 20 8 18 10 11 8 11 9 10 10 11 15 8 16 4 11 3 17v13l-4 20-6 15-8 14-9 12-11 11-14 11-14 9-21 10-18 6-25 5-7 1h-40l-24-4-18-5-22-9-19-11-14-11-15-15-10-14-8-16-4-11-3-16v-18l4-19 8-18 8-12 9-11 9-9 13-10 15-9 19-9 18-6 17-4z" fill="#060605"/>
<path transform="translate(683,90)" d="m0 0h28l27 3 20 4 26 7 18 7v2l-12 6-8-1-17-5-7-1v2l18 4 5 3v2l-5 1-20-6-20-4-16-2-25-1-29 2-24 4-27 7h-2l1 2v15l-6 10-9 10-26 26-6 9-2 5 5-3 11-10 15-10 16-9 20-8 21-6 18-3 10-1h39l25 4 23 7 21 9 19 11 16 12 8 7-3-9-12-13-26-26-6-10 1-5h5l4 2 7 9 9 10 8 7 10 10 7 10 3 10-1 7-4 5 7 10 3 2 4-1 4-5 1-10-1-8h3l3 10-1 9-5 8v3l5 1 9-2 3-3-1-10h2l4 4 3 1h9l-1-10-9-14 1-2 3 3v2l4 2 8 5h11l2-3-1-6-9-9-6-7 1-2 8 7 8 4 9 2v1h-8l-6-2 7 4 5 1-3 3h-2l-1 9 5 2 10 6-1 3 7 2 9 5 1 1h10l7-1-3 3-6 2h-11l2 4-3 7-7 1h-13l3 1h15v4l-4 2v-2h-11l-8-2-2 1-7-8-11-10-2-1h-14l-4 4 1 5 9 11 8 9 7 2 8 1-2 4-5 2h-8l-5 5-5 6 7 4 8 8 11 9 11 11 8 7 8 6 14 7h13l1-1v-8l-14-12-5-4v-2l-2-1-4-6 5 2 11 9 12 9 13 6 19 5 12 1 3 1-1 2-5 2h-16l-23-6-3 9-6 4-7 1-11-2-5-2h-3l-8 20-8 16-9 14-10 13-11 12-14 14-12 9-13 9-15 9-25 12h-2l-1 5-6 11-17-6-2-3 6 1 10 4h2l1-4-2-1 3-7v-12l-14-27-7-14 1-7 14-7 15-9 14-10-11 7-14 8-10 5-5 3h-9l2-2 20-8 19-12 13-11 13-13 9-11-1-1-8 10-2 3h-2l-2 4-13 12-14 10-16 9-23 9-13 4-20 4-18 2h-28l-24-3-21-5-22-8-16-8-10-6-13-10-13-12-11-14-3-4 7 11 12 14 14 12 17 11 14 7 13 5-4 1-7-1-10-6-14-7-17-11v-2l-4-2-11-8-11-12-9-12-10-2-10-3-6-5v-2h2l4 4 10 3h8l1-9 4 2 1-2 4 6h2l7 11 4 5v2h2l7 8 7 7 15 11 15 9 17 8 21 7 18 4 15 2h37l26-4 26-8 18-8 18-11 13-10 11-10 9-11 9-14 7-16 4-16v-27l-4-16-5-12-6-11-8-11-11-12-10-9-13-9-16-9-18-8-20-6-20-4-9-1h-38l-19 3-21 5-19 7-16 8-15 9-11 9-12 11-10 13-8 13-5 12h-3l-2 7h-2v-6l-2 2 1-5 7-17-13 2-3-7-5-4 3-2 1-4 2-1 1 8 5 3h12l-2-6-4-8v-8l5-12 11-19 4-8 1-8-1-8-6-5-11-4-19-3-10-1h-51l-29-1-14-1v-1l74-1h33l17 2 12 4 6 5 2 5v12l-4 11-14 27-1 5v8l3 7 3 2 4-1 8-9-1-4-3-5v-7l4-10 7-9 16-16h2l2-4 8-8 7-11 1-9-6-5-12-5-15-4-22-3h-54l-53 3h-39l-77-5h-64l-39 2h-65l-66-5h-7l-8 4-7 8v2l16 7 16 4 9 1 25 1 114 3 137 4v3l-5 2h-27l-35-1-78-1-81-2-26-1v-1l20-1-34-1-18-1-14-3-17-8 15 8 8 4 1 2-7-1-19-10-6-6 1-5 4-4 6-4 6-5 6-1 57 4 16 1h54l44-2 49-1 53 2 48 3h28l75-5h35l21 3 19 5 10 4v-4l-3-1 1-2 24-8 24-6 27-4z" fill="#0E0E0D"/>
<path transform="translate(688,188)" d="m0 0h27l22 3 16 5 16 8 12 11 5 8 3 11v10l-3 10-6 9-10 8-5 3 1 3 12 9 8 9 7 14 1 13-2 11-5 10-9 10-8 6-12 6-12 4-20 4-12 1h-20l-19-2-20-4-20-7-16-8-15-12 1-5 9-9v-89l-10-10 1-5 5-6 12-9 17-9 22-7z" fill="#F6F6F6"/>
<path transform="translate(995,135)" d="m0 0h9l1 7-5 3-10 4h-24l-14-1 3 3 31 4 4 4 1 9-1 2h2l-2 5-6 5h-10l5 3 3 7v9l-3 3 3 2 27 3 73 13 66 12 26 5 13 3 2 1v9l-4 8-6 3h-29l-19-2-28-7-51-13-53-14-30-8-5-2v3l-3-1 1-11-5-2 4 3-1 8-4 4-10 3h-8l-16-8-15-9 1-9 4-2-8-3-4-4 10 2-10-4-8-6h-1l14 15 1 6-3 4h-11l-8-5-5-5-2-1 9 14 1 6-1 4-2 1h-7l-7-4v2 6l-4 4-9 2-6-2 1-4 4-7 1-9-3-10-13-22-5-12v-7l6-7 9-4 15-3 8-1 21-1 49-1z" fill="#F5F5F5"/>
<path transform="translate(683,172)" d="m0 0h33l26 4 21 6 18 8 16 9 12 9 12 11 11 14 5 8 6 14 3 11 1 7v14l-5 13-12 5-17 5-15 4h-4l-1 2-2-10-6-11-9-10-12-9 2-4 11-7 6-7 4-9 1-5v-10l-4-13-7-9-8-7-16-8-16-5-22-3h-27l-27 4-24 8-17 9-13 11-2 3 1 5 9 9v78l-9-1-28-7-20-7-3-3-4-11v-14l3-14 5-14 8-14 12-14 11-10 14-10 21-11 16-6 14-4 18-3z" fill="#2F2F2E"/>
<path transform="translate(1304,104)" d="m0 0h7l8 4 8 8-1 4-13 6-14 4-14 2-26 1-213 6h-37l1 4h-2l-2-8 1-1 42-6 26-2 39-2 57-1 10-2-3-1h-72l-51 3-33 4-31 4-30 2h-90l-18 2-12 4-4 4-3 9 1 9 5 13 11 20 3 10-1 10-6 7-4-1-5-5-5-7 4-5 1-7-3-10-9-12-13-13-8-7-10-12-5-11 2-5 6-5 12-5 14-4 23-3h54l53 3h39l76-5h65l39 2h65z" fill="#F4F4F4"/>
<path transform="translate(87,104)" d="m0 0 19 1 54 4h65l39-2h64l77 5h39l53-3h54l22 3 15 4 12 5 7 6-1 9-7 11-31 31-6 10-2 6v7l4 6-1 4-7 8-2 2-4-1-4-4-2-5v-8l3-9 14-27 2-7v-12l-3-6-6-4-16-4-11-1h-92l-28-2-54-7-41-3-20-1h-73l-2 1 8 2 57 1 57 3 31 4 21 3 1 3-2 6-3-1h2v-3h-36l-171-5-44-1-25-1-14-2-16-5-12-6 2-5 9-8z" fill="#F4F4F4"/>
<path transform="translate(371,170)" d="m0 0h29l11 8 5 5-1 6-1 4 2 6 7 3 4 2v1l-45 8-45 9-62 13-34 6-8 1h-24l-22-3-9-3-4-4v-8l2-5 6-3 81-9 133-16 11-2 5-3-17 1-111 12-77 8-12 1h-31l-18-3-13-4-2-2 1-5 6-11 3-2 183-8z" fill="#F4F4F4"/>
<path transform="translate(845,338)" d="m0 0 1 3-13 15-14 14-13 10-19 11-16 6h7l12-7 14-7 13-9 2 1-10 8-15 9-14 8-5 1v7l8 16 13 25v12l-3 7 3-1-2 6-3 1-12-5-6 1-1-2-9 14-6-1-12-7-4 2-9 11-4-1-12-9-4 1-11 10-5-1-8-8-4-2-11 8-5 3-5-5-7-9-3-2 5 1 8 7 4 1 9-4 4-2 5 1 6 4-6-7-2-7v-12l3-21v-11l-2-1-1 7-1 33-3 10-7 7-3 2h-5l-7-8-1-2v-12l7-31v-8l-2 2-4 20-3 18-5 10-8 6-7 1-5-5-1-3v-11l4-13 8-21 2-9-3 3-5 12-7 21-6 11-8 6-4 2h-6l-3-5 1-5 8-17 8-14 11-18 2-5 5-1 4 2 4 4h9v-2l2-1-16-4-3-1-1-3 3-1 21 5 24 3h28l24-3 21-5 22-8 16-8 10-6 13-10 12-11 1-2h2l2-4z" fill="#B9B9B9"/>
<path transform="translate(873,224)" d="m0 0h14l10 8 10 10 10 2 11 1 1 1 5-4 4-9 6-1 34 16 6 2v-2l6 2 28 13 27 12 16 7 13 4 23 3h23l7-1-5 5-12 2h-12l-21-1-1 3-2 1-2 11-4 6-8 3h-22l-17-3h-6l-5 9-5 1-12-1-19-5-16-8-15-12-9-6 5 6v2l4 2 12 11 4 3v8l-2 2h-13l-16-8-12-11-8-7-14-13-8-7-6-5-4-2 6-8 5-4h8l6-3 1-2h-8l-7-2-7-7-10-13-2-3 1-5z" fill="#0F0F0E"/>
<path transform="translate(181,593)" d="m0 0h79l10 3 10 6 7 9 3 9v10l-3 10-4 6-5 6 9 5 7 8 3 5 2 9v10l-2 9-6 10-7 6-12 5-6 1h-84l-1-1zm26 21-1 23 1 6h44l8-2 5-5 2-6-1-8-4-5-7-3zm0 51v33l17 1 33-1 10-3 5-4 2-4v-11l-3-5-6-4-8-2z" fill="#0C0C0B"/>
<path transform="translate(683,90)" d="m0 0h28l27 3 20 4 26 7 18 7v2l-12 6-8-1-17-5-7-1v2l18 4 5 3v2l-5 1-20-6-20-4-16-2-25-1-29 2-24 4-27 7h-2l1 2v15l-6 10-9 10-26 26-6 9-2 5 5-3 5-5 2 1-4 6h-2l-1 5h2l-2 4-9 10-9 14-6 12-2 5h-3l-2 7h-2v-6l-2 2 1-5 7-17-13 2-3-7-5-4 3-2 1-4 2-1 1 8 5 3h12l-2-6-4-8v-8l5-12 11-19 4-8 1-8-1-8-6-5-11-4-19-3-10-1h-51l-29-1-14-1v-1l74-1h33l17 2 12 4 6 5 2 5v12l-4 11-14 27-1 5v8l3 7 3 2 4-1 8-9-1-4-3-5v-7l4-10 7-9 16-16h2l2-4 8-8 7-11 1-9-6-5-12-5-15-4-22-3h-54l-53 3h-39l-77-5h-64l-39 2h-65l-66-5h-7l-8 4-7 8v2l16 7 16 4 9 1 25 1 114 3 137 4v3l-5 2h-27l-35-1-78-1-81-2-26-1v-1l20-1-34-1-18-1-14-3-17-8 15 8 8 4 1 2-7-1-19-10-6-6 1-5 4-4 6-4 6-5 6-1 57 4 16 1h54l44-2 49-1 53 2 48 3h28l75-5h35l21 3 19 5 10 4v-4l-3-1 1-2 24-8 24-6 27-4z" fill="#10100F"/>
<path transform="translate(73,123)" d="m0 0 5 2 16 7 11 2 18 1 62 2v1l-22 1 81 2 78 1 64 2 14 7 6 4-2 11-3 2h-3l1-3h-15l-118 5-82 3h-18l-22-1-22-3-22-6-5-3 1-9 4-9 2-3h2v-2h-3l-2 2-5-4-19-9zm22 15h3l-1 2z" fill="#F6F6F6"/>
<path transform="translate(695,110)" d="m0 0 25 1 27 4 20 5 17 6 1 15 7 12 34 34 6 9v5l-4-2-10-9-15-10-18-10-20-8-20-6-25-4h-39l-23 3-20 5-19 7-16 8-15 9-14 11-6 6h-3l1-5 4-6 9-10 26-26 7-11 1-2v-17l16-5 29-6 19-2z" fill="#F5F5F5"/>
<path transform="translate(484,593)" d="m0 0h23l12 14 9 11 13 15 9 10 9 11 12 13 7 8 1-20v-62h22v127h-19l-33-39-26-30-9-10-7-8v-2h-2v89h-21z" fill="#0A0A09"/>
<path transform="translate(337,593)" d="m0 0h107v22h-83v29h57v22h-57v31h85v23h-109z" fill="#0B0B0A"/>
<path transform="translate(927,593)" d="m0 0h108v22h-83v23l1 5 56 1v22h-57v31h84l1 1v21l-1 1h-108l-1-4z" fill="#0B0B0A"/>
<path transform="translate(992,160)" d="m0 0h16l66 4 164 8 28 2 5 2 4 11-2 5-6 4-17 3h-39l-60-6-103-9-49-5-7-2 1-8z" fill="#F4F4F4"/>
<path transform="translate(674,82)" d="m0 0h43l27 3 30 7 18 6 19 8 10-2 14-3 19-2h36l63 5h31l74-4h87l62 3 40-1 39-2h17l13-1 9 10-1 2-3-2v-2l-5-2-1-1h-20l-59 4h-54l-44-2-35-1h-15l-53 2-48 3h-28l-75-5h-34l-21 3-20 5-7 3-3-1 8-4-3-2-18-7-25-7-25-5-17-2-17-1h-11l-29 2-24 4-21 5-20 7-7 2v2l-2 1 10 5-2 1-18-6-14-3-16-2h-35l-75 5h-28l-48-3-53-2-49 1-44 2h-54l-59-4-16-1-7 3-7 6-4 1 6-8 6-7h14l34 3 49 2 36-1 39-2h86l74 4h31l38-3 26-2h35l20 2 19 4 15-6 14-5 18-5 25-5z" fill="#50504F"/>
<path transform="translate(984,182)" d="m0 0h15l163 18 14 1-10-2v-1l26 2 30 3h20l20-4 10-3-3 3-10 4-21 5-3 1-8-2h-2l7 2 3 3 1 4-1 9-4 3-12 2-17 1h-17l-23-3-43-7-36-6-63-10-36-6-1-12-1-4z" fill="#F4F4F4"/>
<path transform="translate(387,192)" d="m0 0h25l2 1 2 6 7 3 4 2v1l-45 8-45 9-62 13-34 6-8 1h-24l-22-3-9-3-4-4v-8l2-5 6-3 81-9z" fill="#F4F4F4"/>
<path transform="translate(1252,139)" d="m0 0h43l6 8 4 8-1 4-9 3-20 3h-49l-65-2-136-6-32-2 5-5 13-6 201-4z" fill="#F3F3F3"/>
<path transform="translate(427,208)" d="m0 0h8l2 7 2 9 1 2-30 10-68 20-40 12-14 3h-31l-20-3-8-4-3-8 1-5-5 1-1-1h-5l-4 1-5-1 2-2-25-5-7-4 2-1 9 3 29 4h9l24-4 16-3h5l-3 2-32 7 12-2 38-8 39-9 44-9 52-11z" fill="#F5F5F5"/>
<path transform="translate(100,136)" d="m0 0 4 1v2l-4 4-4 11v6l10 4 22 5 16 2 22 1h18l132-5 68-3h16l-2 4 5-2 2-11-1-2 9 1-4 5-2 11h-2v2l-5-1h-29l-66 4-145 6-19 1-4 4-5 10 1 4 13 4 18 3h31l71-7 139-15h8l-4 4-5 2-116 14-68 8-38 4-6 3-1 4v10l5 2 13 3 16 2h24l26-4 55-11 43-9 52-10 20-2h7l2-2h3v2l-5 3-20 3-71 15-30 6-29 7-47 10h-6l3-2 32-7-23 4-19 3h-9l-29-4-10-3 9 4 25 5v1h-11l-21-5-6-3-2-5v-16l-10-4-25-8-6-4-2-4 2-9 3-8-5-2-15-7-16-7-5-3v-9l4-12 1-6z" fill="#0D0D0C"/>
<path transform="translate(693,283)" d="m0 0h18l12 3 8 4 5 5 4 5 4 13v16l-3 12-6 10-8 6-12 4h-24l-13-4-8-5-6-9-3-9-1-5v-16l3-10 6-9 8-6 11-4z" fill="#2F2F2E"/>
<path transform="translate(458,139)" d="m0 0h45l21 1 19 3 10 4 6 4 2 2 1 8-4 10-10 18-6 12-1 3v8l6 12-1 3h-12l-5-3-1-1v-7-3l-4 4-3 1h-7l-2-1-1-7 4-8 6-9-5 4-8 6-2 1h-11l-3-3v-6l7-8 5-5 3-4-9 7-11 4-10-2-2-2v-7l15-13-12 6-8 1-6-3-1-5 5-6 8-5-16 3-6-8 2-7z" fill="#F5F5F5"/>
<path transform="translate(1071,593)" d="m0 0h30l11 13 11 14 9 10 8 10 4-2 12-14 9-11 13-16 3-4h30l-3 5-11 13-11 14-11 13-13 17-8 10-1 55h-24l-1-55-10-13-11-14-14-17-11-14-11-13z" fill="#0A0A09"/>
<path transform="translate(973,204)" d="m0 0h9l27 3 73 13 66 12 26 5 13 3 2 1v9l-4 8-6 3h-29l-19-2-28-7-51-13-53-14-30-8-5-2v3l-3-1 2-10z" fill="#F4F4F4"/>
<path transform="translate(639,593)" d="m0 0h116v22h-46v105h-24l-1-104-45-1z" fill="#0E0E0D"/>
<path transform="translate(880,328)" d="m0 0 6 1 11 5-5 13-9 16-12 16-9 10-12 12-11 9-12 9-23 12-7 3-5-1-10-17-4-7 1-5 5-5 25-15 14-11 11-10h2l2-4 9-12 7-9 15-2 6-3z" fill="#F7F7F7"/>
<path transform="translate(789,593)" d="m0 0h24v104h80l1 6v15l-1 2h-104z" fill="#0B0B0A"/>
<path transform="translate(995,135)" d="m0 0h9l1 7-5 3-10 4h-24l-14-1 3 3 31 4 4 4 1 9-1 2h2l-2 5-6 5h-10l5 3 3 7v9l-3 3 2 2-18 3-4-3-1 1 3 2-1 8-4 4-10 3h-8l-16-8-15-9 1-9 4-2-8-3-4-4 7 2h7v-1l7-2 1-1v-7l-13-11-1-2 15 6 8-1 3-3-2-6-11-8 2-1 14 3 5-6v-6l-2-5z" fill="#10100F"/>
<path transform="translate(690,201)" d="m0 0h20l12 3 9 6 6 10 2 8v15l-3 12-4 6-4 5-10 5-4 1h-25l-10-3-8-5-6-8-3-9-1-7v-10l3-12 6-8 9-6z" fill="#30302F"/>
<path transform="translate(670,411)" d="m0 0h58l1 6-3 5 2 13 4 10 1 1 1-2h2l3 12 1 11-4 8-5 5-5-1-9-8-3-9-2-35-1-5h-1v15l2 14v20l-7 8v1l8-6 6 2 10 5 5-2 6-5 3-3 10 4 8 2 5-5 5-7 7 1 9 3 7-1 2-1-2 6-3 1-12-5-6 1-1-2-9 14-6-1-12-7-4 2-9 11-4-1-12-9-4 1-11 10-5-1-8-8-4-2-11 8-5 3-5-5-7-9-3-2 5 1 8 7 4 1 9-4 4-2 5 1 6 4-6-7-2-7v-12l3-21v-11l-2-1-1 7-1 33-3 10-7 7-3 2h-5l-7-8-1-2v-12l2-10h2l1-3 1 1 3-7 3-11v-8l-2-4z" fill="#F5F5F5"/>
<path transform="translate(441,230)" d="m0 0h14l4 2 3 10-12 5-16 8-23 12-17 8-19 10-18 8-9 2h-40l-7-2-2-3-2 3-1-6 1-2v-6l9-4 46-16 41-14 40-13z" fill="#F5F5F5"/>
<path transform="translate(961,221)" d="m0 0 11 1 19 5 99 29 27 8 14 4 1 5-5 10-3 2-16 2h-10l-22-3-13-4-66-29-33-14-17-7 1-2 10-4z" fill="#F5F5F5"/>
<path transform="translate(956,203)" d="m0 0 4 1 3 2-1 11 2 1v-3l16 4 38 10 62 16 38 10 13 3 19 2h29l6-3 3-7 1-9-19-4-155-28v-3l13 1 64 11 80 13 30-1 25-2 7-3 1-9 2 2v10l-3 6-5 4-17 3-19 3-2 4-2 11-4 8-5 4-5 1-40 1-3 8-4 10-4 3-8 2h-41l2-3 21 1h12l12-2 4-3-6 1h-23l-23-3-18-6-35-16-18-8-16-7-3-2v2l2 1-6-1-31-15-5-2h-6l-2 8-3 3-3-1h2v-2l-4 1h-11l-9-3 3-1 3 1h13l7-1 2-7-2-4h12l8-3-6 1h-10l-8-5-4-2-5-2v-2l5 1 12 6h8l12-4 2-5v-5zm5 18-5 4-9 4 4 3 15 6 26 11 30 13 36 16 14 5 16 3 10 1h10l16-2 5-5 3-7-1-5-133-39-22-6-9-2z" fill="#0E0E0D"/>
<path transform="translate(512,346)" d="m0 0h7l8 4 9 8 14 5 6 2 9-1 7 7 18 13 19 12-2 2 3 9v8h-2v2h-2v2h-2l-2 4h-2v2l-8 2-5 1 7 4-4 1-19-10-12-8-13-10-9-8v-4l-8-10-3-5-4-11-5-6v-2l-4-2-3-5 1-5z" fill="#F8F8F8"/>
<path transform="translate(940,232)" d="m0 0 6 1 28 13 29 14 28 13 39 19 1 6-2 6-2 2-4 1h-18l-25-4-10-4-54-36-19-12-8-5 5-4 4-9z" fill="#F5F5F5"/>
<path transform="translate(219,119)" d="m0 0h73l51 3 33 4 31 4 28 2-1 2 29 1h51l24 3 14 4 6 4 3 3-1 4-5-4-8-4-15-3-8-1-21-1h-45l-3 6h-3l-6 3 5 1v2l4 2 7 7-2 5-16 4-19 4h-10l-8-5v-7l3-6 2-1-9-1-14-8-5-2 1-2 5 1 1-8-43-6-26-2-40-2-57-1-9-3z" fill="#2C2C2B"/>
<path transform="translate(465,245)" d="m0 0h11l10 1 2 4-11 10-12 9-18 13-14 10-18 12-11 5-19 4-7 1h-11l-8-4-2-5 1-5 32-17 35-18 23-12 14-7z" fill="#F4F4F4"/>
<path transform="translate(515,314)" d="m0 0h2l1 8 2 4 8 4 13 1-1 2h-8l-10-3-4-3v-2l-7-2-11 5-4 1h-18l3-2 15-1 11-3v-2l5-3zm-4 10 5 1 4 5 8 3 12 2 5 4 8 11 11 12 9 6 4 3v2l5 2 19 12 14 7 5 3h7l-18-7-15-9-11-8-15-13-11-13-6-10 1-2 8 11 11 13 10 9 14 10 16 9 23 9 4 2v4l9 2 10 2 1 2h-3v2l-2 1h-7l-5-5-8-1-3 9-10 16-5 9-8 16-4 6h-1l-1-8 8-16 11-20 4-10v-5l-8-3 4 5v6l-12 21-5 7-10-4v-2l-8-4v-1l15-2v-2l4-4h2v-2h2v-2h2l-2-11-2-7v-2l-13-8-14-10-10-8-4-4-9 1-15-5-8-4-9-8-5-2h-7l-1 5 4 6 5 5 4 6 4 10 7 11 4 5-3 1-7-6-7-8-10-13-10-16-8-16-1-6 12-4z" fill="#B9B9B9"/>
<path transform="translate(914,246)" d="m0 0 11 1 10 6 19 14 40 30 17 13 1 4-3 4-6 2h-12l-20-5-8-4-13-10-13-11-14-11-16-12-6-4v-2l5-5 4-8z" fill="#F6F6F6"/>
<path transform="translate(691,86)" d="m0 0h11l26 2 20 3 25 6 21 7 13 5v3l-3 2 16-5 13-3 17-2h34l75 5h28l48-3 53-2h15l60 2 19 1h54l59-4h12l-3 2-66 5h-65l-39-2h-65l-76 5h-39l-53-3h-54l-23 3-20 6-9 5-4 5 3 11-8-2v3h-2v-15l-5-1v-2h2l-3-3-5-2-12-3-3-1v-2h7l20 6 7-1 8-4h2v-2l-10-3-18-6-24-6-27-4-12-1h-28l-27 3-20 4-26 7-14 5 2 2-1 3-10-5 3-1v-2l21-8 18-5 26-5 17-2z" fill="#141413"/>
<path transform="translate(680,159)" d="m0 0h38l20 3 20 5 16 6 19 9 11 7 11 8 13 12 9 10 7 10 9 17 5 16 1 6v27l-4 16-7 16-9 14-13 15-10 9-14 10-17 10-19 8-23 7-26 4h-37l-25-4-24-7-18-8-16-9-14-10-12-11-6-6v-2h-2l-11-16-7-14-5-15-2-13v-17l3-16 7-18 6-10 8-11 11-12 13-11 15-10 15-8 21-8 19-5 15-3zm6 2-24 3-24 6-20 8-19 10-14 10-13 12-8 9-10 15-8 18-4 19v18l4 19 7 17 10 16 12 13 9 9 17 12 16 9 20 8 18 5 24 4h40l24-4 18-5 21-9 15-8 12-9 13-11 9-9 9-13 8-15 5-14 3-17v-13l-4-20-5-13-8-14-11-14-11-11-13-10-11-7-17-9-20-7-20-5-23-3z" fill="#E1E1E1"/>
<path transform="translate(742,321)" d="m0 0h1v14l-5 12-6 7-10 5-7 2h-24l-13-4-8-5-6-9-3-9v-12l39 1 31-1z" fill="#040403"/>
<path transform="translate(511,322)" d="m0 0 5 2-9 3-10 4h-4l5 13 9 16 10 14 8 10 4 4v2l4 2 8 8 11 9 16 11 12 7 19 9 4 1 8-13 8-14v-6l-4-6 9 3 1 1-1 8-8 16-13 24-1 6 3 11 1 1h6l10-6 6-10 5-13 6-18 4-7h2l-1 9-9 24-3 10v11l3 5 2 2 7-1 8-6 4-9 6-35 3-6 2 1v8l-7 31v12l6 8 1 1h5l9-8 3-10 1-33 2-7 3 1v11l-3 21v12l2 7 6 8-5-2-4-3-5 1-8 4-5 1-8-6-3-2 9 11v2l4-1 11-8 4-2 10 9 2 2 5-1 11-10 4 1 11 8 4 1 9-11 4-2 14 8h4l8-13h3l-10 16-3 1-15-8-4 1-10 12-4-1-12-9-4 1-10 9-2 2-4-1-10-10-2-1-14 10h-4l-10-13-5 1-13 7h-3l-9-14-7 1-14 5-7-12-3-3h3l-2-7-9-3v-2l9 1 4-8v-2l-17-8-21-12-14-10-10-9-8-7-13-13-11-15-9-15-8-18v-2l-13-1-5-4v-2h29l-4 2-15 1h15l13-5z" fill="#30302F"/>
<path transform="translate(683,90)" d="m0 0h28l27 3 20 4 26 7 18 7v2l-12 6-8-1-25-7-17-4-24-3h-35l-26 3-32 7-13 4-6-2-9-5 1-2 24-8 24-6 27-4z" fill="#F3F3F3"/>
<path transform="translate(486,256)" d="m0 0 4 1 4 4 17 1 4 4v2l-4 1-9 7-7 7-8 7-14 14-11 9-9 6-15 4h-9l-10-5-1-1v-6l11-9 17-14 11-9 14-11 10-8z" fill="#F4F4F4"/>
<path transform="translate(1106,119)" d="m0 0h72l4 2-5 2-6 1-57 1-55 3-31 4-21 3 2 11-14 7-5 1h-18l-26-3v-1l6-1-4-2 18 1h24l13-5 1-5v-3l-25 2-39 2-45 1-21 1-19 3-11 4-6 5-1 2v7l6 13 10 17 1 4-3 1-15-30-3-11 1-9 4-7 8-4 13-3 12-1h90l30-2 53-7 42-3z" fill="#2C2C2B"/>
<path transform="translate(635,404)" d="m0 0 6 1 5 5h9v-2h4l2 4 6 3v2h-2l-4 17-4 25-5 10-8 6-7 1-5-5-1-3v-11l4-13 8-21 2-9-3 3-5 12-7 21-6 11-8 6-4 2h-6l-3-5 1-5 8-17 8-14 11-18 2-5z" fill="#F5F5F5"/>
<path transform="translate(760,404)" d="m0 0 4 1 3 5 8 15 9 16 8 15 1 3 2-1v7l-3 4-9-3-9-6-5-9-4-11-7-20-3-4 2 11 11 29v8l-5 10-2 2-5-1-11-8-4-10-3-17-3-15-1-7-3-1 1-3 6-3 1-3h4l1 2h8l5-5z" fill="#F4F4F4"/>
<path transform="translate(1304,98)" d="m0 0h13l8 8 7 11v5l-10 7-16 8-5 3 1 5 5 10 1 6-2 2-3-10-6-11-2-2h-43l-142 3-101 2v-3-3l137-4 113-3 26-1 18-3 15-5 8-4-1-4-9-8-9-3v-1h8l6 4v2h3l-8-9-13 1h-17v-1z" fill="#30302F"/>
<path transform="translate(900,335)" d="m0 0h12l-1 7-8 18-8 14-12 17-23 23-11 9-15 11-24 13-5 2h-6l-4-8 1-4 16-8 15-8 11-8 13-11 15-14 9-11 10-14 9-16z" fill="#F2F2F2"/>
<path transform="translate(476,331)" d="m0 0 13 1 11 24 12 18 9 11 15 15 11 9 12 9 13 8 16 8 13 7-2 6-3 5-5-1-16-8-13-7-14-9-10-8-10-9-13-12-11-13-10-15-12-22-6-15z" fill="#F8F8F8"/>
<path transform="translate(887,262)" d="m0 0 11 2 9 7 12 11 8 7 10 9 2 1v2l4 2 12 11 4 3v8l-2 2h-13l-16-8-12-11-8-7-14-13-8-7-6-5-4-2 6-8z" fill="#F5F5F5"/>
<path transform="translate(681,151)" d="m0 0h39l25 4 23 7 21 9 19 11 16 12 3 4-2 4-8-5v-2l-4-1v-2l-5-2-13-8-19-9-24-8-24-5-9-1h-40l-21 3-22 6-19 7-23 12-17 12-3 3h-2l4-10 18-13 18-10 20-8 21-6 18-3z" fill="#3B3B3A"/>
<path transform="translate(81,98)" d="m0 0h14l34 3 49 2-1 2h21l69-4h62l63 4 26 1h19l36-2 35-3h39l19 3 16 4 13 5 3 3-10-3-19-5-21-3h-35l-75 5h-28l-48-3-53-2-49 1-44 2h-54l-59-4-16-1-7 3-7 6-4 1 6-8z" fill="#E3E3E3"/>
<path transform="translate(514,271)" d="m0 0 5 1 12 5v17l-7 7-7 8-7 7-10 5-14 3h-7l-8-3-1-1v-5l14-14 7-8 21-21z" fill="#F6F6F6"/>
<path transform="translate(100,136)" d="m0 0 4 1v2l-4 4-4 11v6l10 4 22 5 16 2 22 1h18l132-5 68-3h16l-2 4 5-2 2-11-1-2 9 1-4 5-2 11h-2v2l-5-1h-29l-66 4-71 3h-26l-1-2-65-1-17-3-12-3-9-2h-2l6 3-4 1-11-6v-9l4-12 1-6z" fill="#0C0C0B"/>
<path transform="translate(462,327)" d="m0 0 8 1 3 2 6 16 10 21 7 11 12 16 18 18 14 11 18 13 22 12 16 7 2 7-5 1-21-9-21-12-15-10-10-8-10-9-9-8-7-8-12-15-8-13-9-16-8-21z" fill="#313130"/>
<path transform="translate(880,328)" d="m0 0 6 1 11 5-5 13-9 16-12 16-9 10-3 2-2-2 4-6 4-11v-8h-9l-14 4-10 3h-3l1-4 4-4h2l2-4 9-12 7-9 15-2 6-3z" fill="#B9B9B9"/>
<path transform="translate(1309,99)" d="m0 0h7l9 10-1 2-3-2v-2l-5-2-1-1h-20l-59 4h-54l-44-2-35-1h-15l-53 2-48 3h-28l-75-5h-34l-21 3-20 5-7 3-3-1 16-7 22-5 14-2h39l49 4 21 1h20l44-2 45-3h62l68 4h22l21-1 5-1v-1l39-2h17z" fill="#E3E3E3"/>
<path transform="translate(541,323)" d="m0 0 4 2 1-2 4 6h2l7 11 4 5v2h2l7 8 7 7 15 11 15 9 17 8 21 7 18 4 15 2h37l26-4 26-8 18-8 18-11 13-10 11-10 6-7 5-3-1 5-5 6h-2l-2 4-13 12-14 10-16 9-23 9-13 4-20 4-18 2h-28l-24-3-21-5-22-8-16-8-10-6-13-10-13-12-11-14-3-4 7 11 12 14 14 12 17 11 14 7 13 5-4 1-7-1-10-6-14-7-17-11v-2l-4-2-11-8-11-12-9-12-10-2-10-3-6-5v-2h2l4 4 10 3h8z" fill="#20201F"/>
<path transform="translate(686,161)" d="m0 0h27l23 3 24 6 16 6-1 3 6 2 17 9 11 8 15 13 10 12 7 11 3 6-1 3-10-16-12-14-11-10-14-10-19-10-19-7v-2h-7l-12-3v-2h-12l-22-2h-12l-34 3h-5v2l-23 7-18 8-14 8-13 10-12 11-12 15-7 12-1-4-2 1 2-6 8-12 9-11 9-9 13-10 15-9 19-9 18-6 17-4z" fill="#10100F"/>
<path transform="translate(923,330)" d="m0 0h2l-1 8 2-4 1 2-8 19-8 16-8 12-10 13-11 12-14 14-12 9-13 9-15 9-20 10-2-1 1-2-6 2-1-2h2l1-3 17-8 17-10 15-11 12-10 7-8 8-8 12-16 10-16 8-15 7-17z" fill="#323231"/>
<path transform="translate(403,237)" d="m0 0 5 1v3l-36 12-46 16-28 10v9l-5-4-16-3-29-3-13-3-8-5-3-14v-2l-7-1-4-3h8l3 1 4-1-1 6 3 8 11 4 16 2h31l25-6 29-9 44-13z" fill="#2F2F2E"/>
<path transform="translate(494,132)" d="m0 0h33l17 2 12 4 6 5 2 5v12l-4 11-14 27-1 5v8l3 7 3 2 4-1 8-9-1-4-3-5v-7l4-10 7-9 16-16h2l2-4 13-13 3-2-2 5-6 8-5 5-10 9-12 13-6 10-2 7h2v4l5-3 5-5 2 1-4 6h-2l-1 5h2l-2 4-9 10-9 14-6 12-2 5h-3l-2 7h-2v-6l-2 2 1-5 7-17-13 2-3-7-5-4 3-2 1-4 2-1 1 8 5 3h12l-2-6-4-8v-8l5-12 11-19 4-8 1-8-1-8-6-5-11-4-19-3-10-1h-51l-29-1-14-1v-1z" fill="#0E0E0D"/>
<path transform="translate(551,335)" d="m0 0 4 4 8 11 11 12 14 11 10 7 16 8 20 8 4 2v4l9 2 10 2 1 2h-3v2l-2 1h-7l-5-5-8-1-3 9-10 16-5 9-8 16-4 6h-1l-1-8 8-16 11-20 4-10v-5l-8-3 4 5v6l-12 21-5 7-10-4v-2l-8-4v-1l15-2v-2l4-4h2v-2h2v-2h2l-2-11-2-7v-2l-13-8-14-10-10-8-4-4 1-2 8 6 3 2v2l5 2 19 12 14 7 5 3h7l-18-7-15-9-11-8-15-13-11-13-6-10z" fill="#B6B6B6"/>
<path transform="translate(438,203)" d="m0 0h3v2l-5 3-20 3-71 15-30 6-29 7-47 10h-6l3-2 32-7-23 4-19 3h-9l-29-4-10-3 9 4 25 5v1h-11l-21-5-6-3-1-2v-9l2 1v2l5 2 13 3 16 2h24l26-4 55-11 43-9 52-10 20-2h7z" fill="#111110"/>
<path transform="translate(868,276)" d="m0 0h7l8 7 18 18 7 8 8 7 3 4-1 5-5 3h-8l-12-3-9-6-10-9-8-7 1-26z" fill="#F4F4F4"/>
<path transform="translate(680,84)" d="m0 0h35l24 3 20 4 24 7 20 7 4-1 4 2 10-2 14-3 19-2h36l63 5h31l74-4h87l62 3h49v1l-35 2h-22l-68-4h-62l-63 4-26 1h-20l-35-2-35-3h-39l-24 4-15 4-4 1-12-5-17-6-18-5-25-5-17-2-17-1h-11l-29 2-24 4-21 5-20 7-7 3-4-1 10-5 24-8 26-6 21-3z" fill="#575756"/>
<path transform="translate(680,159)" d="m0 0h38l20 3 20 5 16 6 19 9 11 7 11 8 13 12 9 10 7 10 9 17 5 16 1 6v27l-1 5h-1v-8l-2 2v-20l-4-20-5-13-8-14-11-14-10-10-13-10-11-7-17-9-20-7-20-5-23-3h-27l-24 3-24 6-20 8-19 10-14 10-13 12-10 12-9 15-6 14-4 19v18l1 11-2-4-1-3-2 4-1-8v-17l3-16 7-18 6-10 8-11 11-12 13-11 15-10 15-8 21-8 19-5 15-3z" fill="#D9D9D9"/>
<path transform="translate(691,86)" d="m0 0h11l26 2 20 3 25 6 21 7 13 5v3l-5 3 3 1 2 2-12 6-4 5 3 11-8-2v3h-2v-15l-5-1v-2h2l-3-3-5-2-12-3-3-1v-2h7l20 6 7-1 8-4h2v-2l-10-3-18-6-24-6-27-4-12-1h-28l-27 3-20 4-26 7-14 5 2 2-1 3-10-5 3-1v-2l21-8 18-5 26-5 17-2z" fill="#111110"/>
<path transform="translate(881,325)" d="m0 0 6 2 9 4 17 3-1 4v-3l-12 1-9 19-12 18-9 11-11 12-8 7-10 9-14 10-24 13-7 3 1 5 2 6 9-2 23-12 14-10 10-8 13-12 4-4h2l2-4 7-7 2 1-8 10-11 11-5 6-14 11-15 10-16 9-13 6-2 3 6-1-2 4-4 1-1 5-6 11-17-6-2-3 6 1 10 4h2l1-4-2-1 3-7v-12l-14-27-7-14 1-7h5l-1 8 13 23 5 1 23-11 14-9 11-9 13-12 10-10 12-16 9-15 7-16-3-2-13-5-1 3h-2l2-4z" fill="#141413"/>
<path transform="translate(1036,160)" d="m0 0h18l145 6 30 1h23l27-1 25-4 2 2-8 5-22 7h-2l3 11v7l-2-2-4 2 3-5-2-9-2-4-4-1-47-3-105-5-75-4-16-1v-1z" fill="#30302F"/>
<path transform="translate(1015,206)" d="m0 0 13 1 64 11 80 13 30-1 25-2 7-3 1-9 2 2v10l-3 6-5 4-10 2h-19l-7 1h-3l-2-1-14-2-42-8-117-21z" fill="#30302F"/>
<path transform="translate(877,275)" d="m0 0 4 1 8 7 11 10 8 7 15 14 10 7 11 5h13l1-1v-8l-14-12-5-4v-2l-2-1-4-6 5 2 11 9 12 9 13 6 19 5 12 1 3 1-1 2-5 2h-16l-23-6-3 9-6 4-7 1-11-2-5-2h-4v-6l-5 1-2-5-4-5-6-7-35-35z" fill="#0F0F0E"/>
<path transform="translate(622,121)" d="m0 0 7 1-5 5-2 1-1 13-1 6 2 5 4 2 8 2 4 4-19 7-16 8-15 9-14 11-6 6h-3l1-5 4-6 9-10 26-26 7-11 1-2v-17z" fill="#BABABA"/>
<path transform="translate(635,404)" d="m0 0 6 1 5 5 3 2-6 1-2 6-6 16-5 15-6 11-8 6-4 2h-6l-3-5 1-5 8-17 8-14 11-18 2-5z" fill="#F6F6F6"/>
<path transform="translate(922,191)" d="m0 0h7l7 3 21 10 4 3-1 8-4 4-10 3h-8l-16-8-15-9 1-9 10-4z" fill="#F3F3F3"/>
<path transform="translate(469,191)" d="m0 0h8l11 4 2 2 1 7-10 7-19 10-3 1h-7l-12-4-3-5v-6l8-5z" fill="#F3F3F3"/>
<path transform="translate(454,172)" d="m0 0 8 1 9 5 1 1v6l-5 3-20 9-8 3h-10l-12-5-1-5 3-7 4-3 20-6z" fill="#F3F3F3"/>
<path transform="translate(773,123)" d="m0 0 9 2 2 1 1 15 7 12 34 34 6 9v5l-4-2-10-9-15-10-18-10-20-8 2-2-1-2 10-5 2-4v-15l1-3-1-3-3-2v-2z" fill="#B9B9B9"/>
<path transform="translate(511,322)" d="m0 0 5 2-9 3-10 4h-4l5 13 9 16 10 14 8 10 4 4v2l4 2 8 8 11 9 16 11 12 7 19 9 4 1 8-13 8-14v-6l-4-6 9 3 1 1-1 8-8 16-13 24-1 3-1 12-6-2 3-1-2-7-9-3v-2l9 1 4-8v-2l-17-8-21-12-14-10-10-9-8-7-13-13-11-15-9-15-8-18v-2l-13-1-5-4v-2h29l-4 2-15 1h15l13-5z" fill="#161615"/>
<path transform="translate(937,173)" d="m0 0h13l18 5 10 4 3 4 1 8-5 3-9 3h-9l-15-6-16-7-2-2v-6l8-5z" fill="#F3F3F3"/>
<path transform="translate(760,404)" d="m0 0 4 1 3 5 8 15 9 16 8 15 1 3 2-1v7l-3 4-9-3-9-6-5-9-4-11-7-20-2-6-4-1 2-4 3-4z" fill="#F5F5F5"/>
<path transform="translate(99,165)" d="m0 0 18 4 17 4 8 1 65 1 2 2-1 2-67 3-4 4-5 10 1 4 5 5 19 5 5 1h34l30-3h7v1l-31 4-27 3-1 4 1 4-2 13h-1v-16l-10-4-25-8-6-4-2-4 2-9 3-8-5-2-15-7-8-3v-2l-7-4z" fill="#3C3C3B"/>
<path transform="translate(443,151)" d="m0 0h8l8 7 3 4-2 4-16 4-19 4h-10l-8-5v-7l3-6 8-2z" fill="#F2F2F2"/>
<path transform="translate(946,151)" d="m0 0h9l31 4 4 4 1 9-5 4-4 2h-9l-33-7-3-2v-5z" fill="#F1F1F1"/>
<path transform="translate(1e3 228)" d="m0 0 10 2 53 14 35 9 7 2v2l11 2 29 6 9 1h23l7-3 1 3-6 5-5 1-40 1-3 8-4 1 3-9v-4l-133-39z" fill="#333332"/>
<path transform="translate(897,210)" d="m0 0h9l8 4 15 10 7 5 1 3-3 7-7 1h-13l-7-4-13-11-6-6 2-7z" fill="#F2F2F2"/>
<path transform="translate(492,210)" d="m0 0h9l7 2 2 6-4 5-8 7-10 8-5 2h-12l-7-1-3-6 1-4 11-8 11-7 4-3z" fill="#F2F2F2"/>
<path transform="translate(755,415)" d="m0 0 3 3 6 16 5 15 5 10 9 6 9 4v1l-8-1-8-3h-5l-8 11-4 1-10-4-6-2h-2l-2 4-8 6-9-3-7-4-5 2-6 5-2-1 8-8 1-2v-20l-2-14v-15h3l1 5 2 35 4 10 7 6 5 1 6-7 2-5-1-11-7-30v-7h3l3 9 4 25 4 12 5 5 8 5 4-1 5-10v-8l-11-29-2-11z" fill="#111110"/>
<path transform="translate(1316,124)" d="m0 0h4v2l-11 5-18 3-18 1-181 5-56 2-1 1h-23l-3-1v-3l137-4 113-3 26-1 18-3z" fill="#10100F"/>
<path transform="translate(1025,183)" d="m0 0 13 1 105 10 82 8h14l13-2-2-2 17-3 7-3 2-1v5l-6 5-10 4-22 6-3 1-1 3-3-6-15-2-3-2 14 1 10 2 5-2 20-5 6-3-15 4-11 2h-20l-52-5 13 2v1h-10l-76-8-72-8z" fill="#30302F"/>
<path transform="translate(873,224)" d="m0 0h14l10 8 10 10 1 3-4 8-5 3h-10l-8-7-8-10-5-7 1-5z" fill="#F2F2F2"/>
<path transform="translate(876,318)" d="m0 0 4 2 6 4 3 1v2l11 3 16 1-4 2h-11l-11-3-7-4-4 2-1 4-6 4-9 2-9 1-9 12-7 9-5 5-12 11-18 13-18 10-5 3-3-2 12-6 15-9 14-10-11 7-14 8-10 5-5 3h-9l2-2 20-8 19-12 13-11 13-13 9-11-1-1-4 4 2-5 8-13 3-5 2 1-2 6 2 1-1 5 17-2 4-3 1-3z" fill="#3D3D3C"/>
<path transform="translate(511,224)" d="m0 0h14l4 3 1 4-10 14-9 10-2 1h-10l-5-3-3-4-1-6 14-14z" fill="#F2F2F2"/>
<path transform="translate(89,130)" d="m0 0 11 2 26 2 216 6 25 1v1l15 1v1h-25l-35-1-78-1-81-2-26-1v-1l20-1-34-1-18-1-14-3z" fill="#30302F"/>
<path transform="translate(372,191)" d="m0 0 15 1v1l-124 15-81 9-6 3h-3l2-4 17-3 35-4-31 3h-34l-9-2v-1l11 1h28l21-2 54-6 88-9z" fill="#30302F"/>
<path transform="translate(889,176)" d="m0 0 8 6 9 5 9 2v1h-8l-6-2 7 4 5 1-3 3h-2l-1 9 5 2 10 6-1 3 7 2 9 5 1 1h10l7-1-3 3-6 2h-10l-7-3-15-10-8-4h-9l-7 1-1 7 9 9 12 9v2l7 2h15v4l-4 2v-2h-11l-8-2-2 1-7-8-11-10-3-2-11-1v-1l9-1-1-3 3-1-1-10-9-14 1-2 3 3v2l4 2 8 5h11l2-3-1-6-9-9-6-7z" fill="#161615"/>
<path transform="translate(87,127)" d="m0 0 8 1 9 2 9 1 25 1 114 3 137 4v3l-7 2-18-1v-1l-56-2-182-5-26-2-13-3z" fill="#0F0F0E"/>
<path transform="translate(87,102)" d="m0 0 75 5h54l44-2 49-1 31 1v1l-17 1-59 1-39 2h-65l-66-5h-7l-8 4-7 8v2l16 7-1 3-5-1-8-4 15 8 8 4 1 2-7-1-19-10-6-6 1-5 4-4 6-4 6-5z" fill="#272726"/>
<path transform="translate(851,101)" d="m0 0h39l49 4 21 1h20l44-2 23-1v1l11 1v1l-71 4h-28l-75-5h-34l-21 3-20 5-7 3-3-1 16-7 22-5z" fill="#E5E5E5"/>
<path transform="translate(508,101)" d="m0 0h39l19 3 16 4 13 5 3 3-10-3-19-5-21-3h-35l-75 5h-28l-48-3-22-1v-1l11-1v-1l23 1 44 2h19l36-2z" fill="#E2E2E2"/>
<path transform="translate(984,248)" d="m0 0 6 2 28 13 27 12 16 7 13 4 23 3h23l7-1-5 5-12 2h-12l-21-1-1 3-2 1-1 7-3-2v-11l-6-2-35-17-20-9-16-8-9-4z" fill="#30302F"/>
<path transform="translate(962,270)" d="m0 0 4 2 20 14 14 9 12 8 24 5 21 2h7l6-2v4l-4 4-6 2h-22l-17-3h-7l-8-8-21-16-7-7-16-12z" fill="#2E2E2D"/>
<path transform="translate(826,370)" d="m0 0 2 1-1 4-11 10-16 12-6 4-3 6 1 8 4 5 2 1v2h10l9-3 6-1 2 1-19 10-9 4-5-1-10-17-4-7 1-5 5-5 25-15 14-11z" fill="#bbb"/>
<path transform="translate(427,260)" d="m0 0 3 1-1 3-22 11-19 10-25 13-5 2v8l-2 2-2-5-42-1-9-3-5-5 1-3 8 4h41l13-4 17-8 19-10 16-8z" fill="#30302F"/>
<path transform="translate(468,335)" d="m0 0 2 2 8 19 9 17 3 1 10 14 11 12 15 15 16 12 17 11 16 9 15 7 5 3 3 3v2l-9-3-12-5-15-8-18-11-12-9-10-8-15-14-7-8-10-14-9-15-11-23z" fill="#C1C1C1"/>
<path transform="translate(1295,103)" d="m0 0h12l-3 2-66 5h-65l-39-2h-65l-47 3h-11l-4-3 28-2 53-2h15l60 2 19 1h54z" fill="#232322"/>
<path transform="translate(601,456)" d="m0 0h1l3 11 1 3 11-2 5-2h5l9 10h7l7-3h6l10 12v2l4-1 11-8 4-2 10 9 2 2 5-1 11-10 4 1 11 8 4 1 9-11 4-2 14 8h4l8-13h3l-10 16-3 1-15-8-4 1-10 12-4-1-12-9-4 1-10 9-2 2-4-1-10-10-2-1-14 10h-4l-10-13-5 1-13 7h-3l-9-14-7 1-14 5-7-13h2z" fill="#464645"/>
<path transform="translate(488,243)" d="m0 0h2l4 9 5 3 4 1v2h-7v3l2 1-5-1-4-4-4 1-16 13-13 10-4 1h-2l-13 10-15 11-12 7-16 5-16 3h-14l4 2 13 1-4 2h-10l-7-4-3-5v-6h2v2l5 2 3 1h11l22-4 11-4 12-7 14-10 17-12 12-9 13-10 8-7-2-5z" fill="#0E0E0D"/>
<path transform="translate(368,167)" d="m0 0h4l-1 4-66 4-71 3h-26l-1-3 2-1 86-4z" fill="#30302F"/>
<path transform="translate(857,287)" d="m0 0h1l-1 18-6 16-6 11-7 10-12 14-10 9-14 10-17 10-19 8-23 7-26 4h-10v-1l-22-1v-1l34-1 24-4 18-5 21-9 15-8 12-9 13-11 8-8 9-13 8-15 5-14 2-10h2z" fill="#D7D7D7"/>
<path transform="translate(476,331)" d="m0 0 13 1 11 24 12 18 9 11 15 15 11 9 12 9 13 8-3 1-18-11-13-11-11-10-11-11v-2h-2l-12-17-14-21-1-1 1 7 13 26 10 13 9 10 11 11 8 7 12 10h-3l-10-8-10-9-13-12-11-13-10-15-12-22-6-15z" fill="#B9B9B9"/>
<path transform="translate(995,135)" d="m0 0h9l1 7-5 3-10 4h-24l-18-2-4-4-1-4 1-1z" fill="#F0F0F0"/>
<path transform="translate(394,135)" d="m0 0 24 1 35 2 1 5-4 4-18 2h-24l-15-6-1-3z" fill="#F0F0F0"/>
<path transform="translate(678,106)" d="m0 0h42l25 4 19 5 12 3 5 3v2l-5 1-20-6-20-4-16-2-25-1-28 1h-8l-27 5-2-1v-2l7-1 3-2 22-3z" fill="#222221"/>
<path transform="translate(919,342)" d="m0 0 1 3-8 16-10 18-14 19-14 15-11 10-12 9-19 12-19 10-10 4-3-1 2-1 1-3 17-8 17-10 15-11 13-11 8-7 12-12 11-14 9-12 8-14z" fill="#C0C0C0"/>
<path transform="translate(1184,239)" d="m0 0 6 1h3l7-1h15l-3 2-19 3-2 4-2 11-3 6h-3l-5 2h-23l-20-3-26-6-3-1v-2l-7-1-26-7-1-3 8 1 38 10 13 3 19 2h29l6-3 3-7 1-9-5-1z" fill="#0F0F0E"/>
<path transform="translate(674,82)" d="m0 0h43l27 3 30 7 18 6 12 5 2 3-6-1-30-10-21-5-24-4-10-1h-35l-21 2-23 4-23 6-19 7-7 3 3 2-5 1-12-4v-1h9l15-6 14-5 18-5 25-5z" fill="#424241"/>
<path transform="translate(924,245)" d="m0 0h4v2l5 1 14 8 54 36 13 8 16 4 15 2h18l5-2 4-2v7l-8 2-18-1-21-3-15-4-13-9-21-14-14-10 5 5 15 11 3 3-4-1-19-14-16-12-17-12-5-3z" fill="#0F0F0E"/>
<path transform="translate(407,169)" d="m0 0 8 4h10l14-3h14l1 3-19 4-14 5-3 4-1 8 12 5h10l15-6 9-4 13 1v1l-10 2-23 11h-5l-2 2h-16v-1l6-1-9-3-3-3-1-6 2-5-1-5-9-8-2-2h2v-2z" fill="#2E2E2D"/>
<path transform="translate(871,132)" d="m0 0h33l73 1v1l-14 1-29 1h-50l-25 3-15 5-6 5-1 6v7l6 13 10 17 1 4-3 1-15-30-3-11 1-9 4-7 8-4 13-3z" fill="#0D0D0C"/>
<path transform="translate(854,231)" d="m0 0 11 1 5 4 11 18 1 7-5 6-4 2h-6l-7-23-6-12z" fill="#BABABA"/>
<path transform="translate(686,99)" d="m0 0h33l25 3 17 5 16 6 1 3-9-2-29-7-24-3h-35l-26 3-14 3h-5l4-2 5-2 3-2 11-3z" fill="#BCBCBC"/>
<path transform="translate(682,155)" d="m0 0h33l26 4 22 6 19 8 16 8 6 4-2 1-19-10-21-8-18-5-16-3-9-1h-40l-21 3-22 6-19 7-23 12-17 12-3 3h-2l2-5 6-3 17-12 16-8 18-8 20-6 22-4z" fill="#C5C5C5"/>
<path transform="translate(541,323)" d="m0 0 4 2 1-2 6 10 1 6 7 10 11 13 14 12 17 11 14 7 13 5-4 1-7-1-10-6-14-7-17-11v-2l-4-2-11-8-11-12-9-12-10-2-10-3-6-5v-2h2l4 4 10 3h8z" fill="#2F2F2E"/>
<path transform="translate(463,242)" d="m0 0 3 3-15 7-21 11-3-1-4 1-60 30-10 4-5 1h-41l-8-4-1-5 3 2v2l7 1h40l12-3 29-14 19-10 16-8 23-11 10-5z" fill="#0F0F0E"/>
<path transform="translate(680,84)" d="m0 0h35l24 3 20 4 24 7 20 7 4-1 2 2-1 4-20-7-22-7-23-5-24-3-17-1h-11l-29 2-24 4-21 5-20 7-7 3-4-1 10-5 24-8 26-6 21-3z" fill="#DCDCDC"/>
<path transform="translate(538,231)" d="m0 0h5l-1 5-7 17-4 16h-6l-6-4-3-4 1-7 8-14 6-7z" fill="#BABABA"/>
<path transform="translate(613,126)" d="m0 0h1v15l-6 10-9 10-26 26-6 9-2 2-2-1 1-7 6-10 7-7 7-8 9-8 3-4h2l2-4 5-8-3 2 2-5h8z" fill="#333332"/>
<path transform="translate(100,136)" d="m0 0 4 1v2l-4 4-4 11v6l10 4 22 5 16 2 22 1h18l30-1h40l-4 2-41 2h-67l-17-3-12-3-9-2h-2l6 3-4 1-11-6v-9l4-12 1-6z" fill="#0E0E0D"/>
<path transform="translate(681,103)" d="m0 0h35l24 3 22 5-4 2-8-1-22-4-8-1h-42l-38 5-3 2h-7v2l8-1 21-4h8l-1 2-24 4-20 5-6-1 1-3 9-3h3v-2l-2-1 28-6z" fill="#1D1D1C"/>
<path transform="translate(494,132)" d="m0 0h33l17 2 12 4 6 5 2 5v12l-2 2-2-13-6-5-11-4-19-3-10-1h-51l-29-1-14-1v-1z" fill="#0D0D0C"/>
<path transform="translate(451,280)" d="m0 0 2 1 1 2-10 8-11 9-13 11h-2v5l-2 3-1-1-13 1-20 4h-5v-1l-12-2-4-3 1-2 2 2h14l24-5 14-6 17-12 14-11z" fill="#2B2B2A"/>
<path transform="translate(786,138)" d="m0 0h5l9 13 5 5v2l4 2 11 11 7 8 6 9 2 5v4h-2l-5-8h-2l-7-8-28-28-6-10z" fill="#353534"/>
<path transform="translate(387,213)" d="m0 0 4 1 1 2-42 9-35 7-29 7-47 10h-6l3-2 32-7h-8v-1l95-19z" fill="#30302F"/>
<path transform="translate(774,174)" d="m0 0 9 3 15 8 12 8 14 12 9 9 9 12 8 14 6 14 3 14v27l-1 5h-1v-8l-2 2v-20l-4-20-5-13-8-14-11-14-10-10-13-10-11-7-19-10z" fill="#DBDBDB"/>
<path transform="translate(881,325)" d="m0 0 6 2 9 4 17 3-1 4v-3l-12 1-9 19-12 18-9 11-11 12-8 7-10 9-14 10-24 13h-2l-1-3 24-12 14-10 10-9 8-7 12-12 12-16 9-15 7-16-3-2-13-5-1 3h-2l2-4z" fill="#191918"/>
<path transform="translate(606,394)" d="m0 0 6 2 7 6 1 2v6l-12 21-5 7-10-4v-2l-8-4v-1l15-2v-2l4-4h2v-2h2v-2h2l-2-11-2-7z" fill="#B9B9B9"/>
<path transform="translate(771,465)" d="m0 0 7 1 9 3 7-1 2-1-2 6-3 1-12-5-6 1-1-2-9 14-6-1-12-7-4 2-9 11-4-1-12-9-4 1-11 10-5-1-8-8-4-2-11 8-5 3-5-5-7-9-3-2 5 1 8 7 4 1 9-4 4-2 5 1 5 4 11 1 9-7 6 2 10 5 5-2 6-5 3-3 10 4 8 2 5-5z" fill="#C7C7C7"/>
<path transform="translate(81,98)" d="m0 0h14l34 3 49 2-1 3h-3v2h-12l-59-4-16-1-7 3-7 6-4 1 6-8z" fill="#B3B3B3"/>
<path transform="translate(478,214)" d="m0 0h2v2l-6 2v2l-8 7-4 3 1 6 1 2 7 1h12l12-6 8-6h4l-16 16-6 3h-9l-10-1-3-2-2-1-2-10-4-1-13-1v-1h6v-2l-6-2v-2h17l14-7z" fill="#3C3C3B"/>
<path transform="translate(933,292)" d="m0 0 5 2 11 9 12 9 13 6 19 5 12 1 3 1-1 2-5 2h-16l-23-6-1 5-1-3h-2l-1-8-14-12-5-4v-2l-2-1z" fill="#333332"/>
<path transform="translate(868,212)" d="m0 0h2l4 4 9 2 1 3-2 1 4 2-13 1-4 4 1 5 9 11 8 9 7 2 8 1-2 4-5 2h-8l-5 5-6 5h-7l1-2h4l-1-3 5-3 3-4-1-7-9-15-4-5-13-3-1 3 1-5-2-2 12-1 4-2 1-2z" fill="#151514"/>
<path transform="translate(323,106)" d="m0 0h39l48 3h28l28-1v1l13 1v1l-35 2h-39l-77-5-5-1z" fill="#10100F"/>
<path transform="translate(1091,188)" d="m0 0h14l65 6 41 4 42 1-1 2-13 2h-14l-123-12-11-1z" fill="#0E0E0D"/>
<path transform="translate(361,122)" d="m0 0h11l49 5 34 2 8 1v1l31 1v1h-59l-28-2-54-7v-1z" fill="#B9B9B9"/>
<path transform="translate(173,231)" d="m0 0 2 1v2l5 2 13 3 16 2h24l8-1h9v3l-24 4h-9l-29-4-10-3 9 4 25 5v1h-11l-21-5-6-3-1-2z" fill="#191918"/>
<path transform="translate(1026,122)" d="m0 0h9l9 1v1l-53 7-30 2h-57v-1l34-1v-1l5-1 36-2 30-3z" fill="#B9B9B9"/>
<path transform="translate(615,398)" d="m0 0 9 3 1 1-1 8-8 16-13 24-1 3-1 12-6-2 3-1-2-7-9-3v-2l9 1 4-8v-2l-12-6v-3l15 5 8-13 8-14v-6z" fill="#10100F"/>
<path transform="translate(993,169)" d="m0 0h1l-1 8 36 4 41 4 25 2-4 2h-10l-51-5-3 1h-12l-16-2h-17l2 4v12l4 1h-5l-2-6-1-8-3-4-4-2 3-1h8l8-7z" fill="#10100F"/>
<path transform="translate(964,215)" d="m0 0 16 4 92 24 1 3-9-1-57-15-6-1h-7l-18-5-15-3 1-3h2z" fill="#121211"/>
<path transform="translate(487,206)" d="m0 0 2 1-2 6-15 10-2-1 4-2v-2l6-2v-2l-16 8-5 2h-14l-3-1v2l6 2v2l-7 2-18 5-12 4-4-1-1-3 32-10v-2l-2-9-1-7 2-1 2 8 3 3 10 3h7l16-8z" fill="#1A1A19"/>
<path transform="translate(87,127)" d="m0 0 8 1 9 2 9 1 25 1 114 3v1l-19 1h-36l-71-2-26-2-13-3z" fill="#0C0C0B"/>
<path transform="translate(405,185)" d="m0 0h8l-4 4-5 2-8 1h-24l-56 6-19 2h-9l-4-2z" fill="#10100F"/>
<path transform="translate(839,342)" d="m0 0 1 3-6 8h-2l-2 4-13 12-14 10-16 9-23 9-14 3-3-1 6-3 21-7 16-8 14-8 14-11 11-10 6-7z" fill="#1A1A19"/>
<path transform="translate(575,203)" d="m0 0h3l-2 4-7 7-11 15-8 16-4 11-3 15v18l1 11-2-4-1-3-2 4-1-8v-17l3-16 7-18 6-10 8-11 11-12z" fill="#DEDEDE"/>
<path transform="translate(73,123)" d="m0 0 5 2 16 7 11 2 18 1 62 2v1l-22 1 38 1v1h-41l-58-1 2-1v-2h-3l-2 2-5-4-19-9zm22 15h3l-1 2z" fill="#B7B7B7"/>
<path transform="translate(400,238)" d="m0 0h5l-3 2-48 15-29 9-25 8-11 2h-27l-1-2 26-1 6-2 23-6 26-8 44-13z" fill="#0A0A09"/>
<path transform="translate(530,300)" d="m0 0 3 3 6 20v4l-5 1-9-2-6-5-1-5 7-11z" fill="#EDEDED"/>
<path transform="translate(900,335)" d="m0 0h12l-1 7-6 14-3-1 1-8-4 2-12 17-10 14-5 6-5 4-1-2 9-11 10-14 9-16z" fill="#B9B9B9"/>
<path transform="translate(689,163)" d="m0 0h20l21 2 18 4v2l5-1 5 2v2h-7l-12-3v-2h-12l-22-2h-12l-34 3h-5v2l-7 2h-7l-1-2 12-3 2-1 34-4zm-53 10h3v2l-3-1zm-3 1h3v2l-3-1zm-2 1h2v2h-2z" fill="#3F3F3E"/>
<path transform="translate(521,191)" d="m0 0 1 2-9 14-1 7v3h9l5-3 4-3-1 5-3 1-1 4-1 3-13 1-5 2-4 2-7 5 2-4 12-12-1-6-7-1-2-2-5-2 1-3 11-1 9-6z" fill="#161615"/>
<path transform="translate(679,158)" d="m0 0h40l20 3 20 5 19 7 9 4-2 2-18-8-20-6-20-4-9-1h-38l-19 3-21 5-19 7-16 8-15 9-11 9-7 5-2-1 1-5 1 2 13-10 13-8 19-10 19-7 22-6z" fill="#2F2F2E"/>
<path transform="translate(508,101)" d="m0 0h39l19 3 16 4 13 5 3 3-10-3-19-5-21-3h-35l-14 1h-23l-3-2z" fill="#E8E8E8"/>
<path transform="translate(857,287)" d="m0 0h1l-1 18-6 16-6 11-7 10-12 14-10 9-7 5v-3l7-8 8-7 9-10 9-14 7-15 4-14 1-5h2z" fill="#DBDBDB"/>
<path transform="translate(758,170)" d="m0 0 10 3 8 3-1 3 6 2 17 9 11 8 15 13 10 12 7 11 3 6-1 3-10-16-12-14-11-10-14-10-19-10-19-7z" fill="#323231"/>
<path transform="translate(1309,99)" d="m0 0h7l9 10-1 2-3-2v-2l-5-2-1-1h-20l-59 4h-12l-3-3 21-1 5-1v-1l39-2h17z" fill="#E1E1E1"/>
<path transform="translate(596,372)" d="m0 0 5 2 16 9 20 8 18 5 30 5 27 1v1l-5 1h-27l-25-4-24-7-18-8-16-9z" fill="#D8D8D8"/>
<path transform="translate(596,120)" d="m0 0 6 2 5 5-1 9-7 11-31 31-6 10-2 6h-1v-8l5-10 7-9 4-4h2l2-4 17-16h2l2-4 4-6-1-6-7-6z" fill="#B9B9B9"/>
<path transform="translate(512,267)" d="m0 0 2 2v3l-8 7-20 20-3 4h-2v-3l-10 9-8 7-6 4-5 1 2-4 9-6 14-12 11-11 8-7 9-9z" fill="#0D0D0C"/>
<path transform="translate(798,121)" d="m0 0 2 1-3 3h-2l-2 5 1 4 7 9 8 7 11 10v2l5 2 6 8 4 5 4 12-2 3-4-9-8-10-12-12-8-7-10-12-5-11 2-5z" fill="#B9B9B9"/>
<path transform="translate(758,112)" d="m0 0h7l20 6 7-1 5-1 2 1 3-2 3 1 2 2-12 6-4 5 3 11-8-2v3h-2v-15l-5-1v-2h2l-3-3-5-2-12-3-3-1z" fill="#0F0F0E"/>
<path transform="translate(1270,196)" d="m0 0 2 1-10 5-24 6-3 1-8-2-11-1v1l-16-1-27-3 3-2-10-2v-1l26 2 30 3h20l20-4z" fill="#B1B1B1"/>
<path transform="translate(488,243)" d="m0 0h2l4 9 5 3 4 1v2h-7v3l2 1-5-1-4-4-4 1-16 13-13 10-4 1h-2l-5 4-4-1 17-12 16-12 11-9 2-3-2-4z" fill="#111110"/>
<path transform="translate(637,399)" d="m0 0 17 4 16 3 10 1h38l21-3 21-5v3l-9 3-28 5-12 1h-24l-19-2-24-5-6-2z" fill="#F9F9F9"/>
<path transform="translate(529,231)" d="m0 0 2 3-6 8-8 14v5l4 5 4 3-1 2 5 1-1 2 2 2-7-1-9-4-1-3h2l-2-4-2-1-13-1-2-1v-3h7v-2l8-2 9-10z" fill="#111110"/>
<path transform="translate(772,467)" d="m0 0 2 1-10 16-3 1-15-8-4 1-10 12-4-1-12-9-4 1-10 9-2 2-4-1-10-10-2-1-5 3-4-1 6-4 4-2 10 9 2 2 5-1 11-10 4 1 11 8 4 1 9-11 4-2 14 8h4l8-13z" fill="#3D3D3C"/>
<path transform="translate(481,299)" d="m0 0 1 4-6 7-5 5-2 4v7l-4-1-1-2-6 1-15 5-5 1h-10l-6-4 2-1 2 1 14-1 11-3h3v-2l8-4 7-7 11-9z" fill="#2D2D2C"/>
<path transform="translate(1316,124)" d="m0 0h4v2l-11 5-18 3-18 1-33 1h-29l4-3 44-1 26-1 18-3z" fill="#0F0F0E"/>
<path transform="translate(639,173)" d="m0 0 4 2-22 8-19 10-11 8-13 11-10 11-7 10-6 10-1-3 8-14 7-9 9-10 11-9 11-8 23-12 5-2 5 1 1-2 2 1 1-2 2 1z" fill="#30302F"/>
<path transform="translate(507,140)" d="m0 0h17l19 3 10 4 6 4 2 2 1 8-2-2-5-1-8-6-14-4-6-1v-2h-6l-3-3-11-1z" fill="#B9B9B9"/>
<path transform="translate(1072,244)" d="m0 0 8 1 38 10 13 3 8 1v1h-7v2l12 1 16 2h21l-3 2h-23l-20-3-26-6-3-1v-2l-7-1-26-7z" fill="#1A1A19"/>
<path transform="translate(1302,162)" d="m0 0 2 1-6 4-14 4-10 2v2l-5-1-42-3-32-2v-1h78l25-4z" fill="#bbb"/>
<path transform="translate(392,142)" d="m0 0 16 6h24l17-1-3 2 5 1v1l-33 4-15-1-14-8z" fill="#3A3A39"/>
<path transform="translate(1093,254)" d="m0 0 8 1 34 8 20 3h23l7-3 1 3-10 4-12 1-16-1h-14l-4-4-19-5-18-6z" fill="#BABABA"/>
<path transform="translate(883,390)" d="m0 0 2 1-8 10-11 11-5 6-14 11-15 10-16 9-2-1 5-2-1-3 16-9 19-14 16-15 3-3h2l2-4z" fill="#181817"/>
<path transform="translate(874,140)" d="m0 0h16v1l-13 1 1 2-22 6-8 4-7 5h-3l-2 3v-7l6-7 9-4 15-3z" fill="#B9B9B9"/>
<path transform="translate(923,190)" d="m0 0h14l19 8 3 1h9l13-4 1 4-3 3 2 2-18 3-4-3-6-1-17-8-7-3-6-1z" fill="#3B3B3A"/>
<path transform="translate(253,100)" d="m0 0h76v1l-62 1-69 4h-21l-21-1v-1l58-2z" fill="#4B4B4A"/>
<path transform="translate(686,161)" d="m0 0h27l23 3 20 5 3 3-11-1v-2l-12-2-13-2-14-1h-20l-2 1-34 4-3 2h-3l2-4 20-4z" fill="#131312"/>
<path transform="translate(1144,229)" d="m0 0 12 1 26 4 17 1 24-1 10-3-1 3-13 5-4 1h-15l-7 1h-3l-15-4-31-7z" fill="#B9B9B9"/>
<path transform="translate(1e3 302)" d="m0 0 9 3 12 3 21 3h19l2-1-2 4-6 2h-19l-15-2-7-2h-6l-7-8z" fill="#BCBCBC"/>
<path transform="translate(295,104)" d="m0 0h14l31 1v1l-17 1-59 1-19 1h-37v-1l8-1 44-2z" fill="#232322"/>
<path transform="translate(982,195)" d="m0 0h1v5h11l45 7 18 3-1 2-11-1-24-4-4 1h-8l-27-3-5-2 4-4z" fill="#10100F"/>
<path transform="translate(494,391)" d="m0 0 4 1 6 7v2l3 1 7 8 10 9 13 10 15 10 15 9 19 9 10 4-1 2-9-3-15-7-19-10-10-7-14-10-13-12-8-7-7-8z" fill="#3C3C3C"/>
<path transform="translate(865,308)" d="m0 0 4 2 5 6 2 6-3 5-6 4h-10l1-5 6-17z" fill="#BEBEBE"/>
<path transform="translate(407,169)" d="m0 0 8 4h10l14-3h14l1 3-19 4-13 4h-9l-8-7-2-2h2v-2z" fill="#2F2F2E"/>
<path transform="translate(531,233)" d="m0 0h8v1l-5 1-2 10-3 8-3 7-3 1-1 5-4-2-2-3 1-7 8-14z" fill="#F3F3F3"/>
<path transform="translate(416,313)" d="m0 0 4 5 9 4h9l12-3 3 1 1 2-14 4-14 1h-2l4 2h10l15-4 7-2 2 1-1 3v-2l-12 5-11 2h-10l-7-3-4-6z" fill="#131312"/>
<path transform="translate(950,169)" d="m0 0 9 1 14 3h9l7-3h3l-2 5-6 5h-13l-13-4-8-2-13-1v-1h8v-2z" fill="#393938"/>
<path transform="translate(1304,158)" d="m0 0h2v5l-9 1-18 3-27 1h-23l-30-1v-2l76-1 24-4z" fill="#0A0A09"/>
<path transform="translate(757,397)" d="m0 0 4 1-15 4-22 4-11 1h-28l-18-2v-2l-10-1v-1h8l15 2h37l26-4 6-1 1 1z" fill="#1C1C1B"/>
<path transform="translate(177,239)" d="m0 0 16 4 24 3h9l24-4 16-3h5l-3 2-32 7 2 2-12 1-4 1-1-1h-5l-4 1-5-1 2-2-25-5-7-4z" fill="#B6B6B6"/>
<path transform="translate(859,233)" d="m0 0h8l7 9 8 14v5l-4 5-3-1-5-10-5-14-1-6-5-1z" fill="#F1F1F1"/>
<path transform="translate(908,165)" d="m0 0 15 6 10-1-1 6-5 3v6l8 5-2 1h-10l-8 3-10-2-5-5 7 2h7v-1l7-2 1-1v-7l-13-11z" fill="#171716"/>
<path transform="translate(1052,281)" d="m0 0 5 1 16 5 20 3 12 1h10l9-2h3l-5 4-12 2h-12l-21-1-1 3-3 1-2-6-19-10z" fill="#bbb"/>
<path transform="translate(453,144)" d="m0 0 2 4 5 6v2l14-4 3 1-11 8-2 3 1 5 1 4 4 3-6-1-11-3v-2l-10 1 1-2 16-4 1-4-8-8-2-1v-2h-6l1-2z" fill="#181817"/>
<path transform="translate(1235,216)" d="m0 0 2 2v10l-3 6-5 4-4 1h-9v-1l12-3 4-2 1-2-6 2-17 1h-21l-10-1v-2l40-2 12-2 3-2z" fill="#10100F"/>
<path transform="translate(678,106)" d="m0 0h42l25 4 19 5 6 2-4 1-26-6-25-3h-37l-27 3-10 1 4-2 24-4z" fill="#B9B9B9"/>
<path transform="translate(1046,138)" d="m0 0h56v1l-10 1-56 2-1 1h-23l-3-1v-3z" fill="#0C0C0B"/>
<path transform="translate(99,165)" d="m0 0 10 3 23 6 23 2 33 1v1l-16 1-33 1-8 1-6-4-14-5-2 1-3-2-4-3z" fill="#B9B9B9"/>
<path transform="translate(1295,103)" d="m0 0h12l-3 2-66 5h-65v-1l17-1 46-1z" fill="#262625"/>
<path transform="translate(643,414)" d="m0 0h2l-1 9-9 24-4 12-1 8-4-4-7 3v-2l5-5 7-14 8-24z" fill="#141413"/>
<path transform="translate(514,271)" d="m0 0 5 1 12 5v17l-5 4 1-9-3-2-4-9-2-1h-8l-24 24v-3l26-26z" fill="#C2C2C2"/>
<path transform="translate(551,335)" d="m0 0 4 4 8 11 11 12 14 11 10 7 16 8 19 8-1 2-5-1-18-7-15-9-11-8-15-13-11-13-6-10z" fill="#B9B9B9"/>
<path transform="translate(771,465)" d="m0 0 7 1 9 3 7-1 2-1-2 6-3 1-12-5-6 1-1-2-9 14-6-1-12-7-4 2-9 11-4-1-3-3 1-3 5 1 9-7 3-3 10 4 8 2 5-5z" fill="#D0D0D0"/>
<path transform="translate(906,304)" d="m0 0 7 6 9 8 11 7 6 3v2l7 1h9l3-1v2l-6 3h-9l-13-5-3-2h-5l-2-5-4-5-6-7-5-5z" fill="#30302F"/>
<path transform="translate(87,102)" d="m0 0 3 1-3 2-8 4-7 8v2l16 7-1 3-5-1-8-4 15 8 8 4 1 2-7-1-19-10-6-6 1-5 4-4 6-4 6-5z" fill="#272726"/>
<path transform="translate(854,99)" d="m0 0h36l14 1 3 2h-56l-24 4-15 4-4 1-1-5h7l21-5z" fill="#464645"/>
<path transform="translate(665,418)" d="m0 0 2 1v8l-7 31v12l1 4-6-5-7 4v-2l5-5 4-11 4-26 3-10z" fill="#161615"/>
<path transform="translate(755,415)" d="m0 0 3 3 6 16 5 15 5 10 10 7-2 1-8-4h-5l-2-7-11-29-2-11z" fill="#151514"/>
<path transform="translate(868,212)" d="m0 0h2l4 4 9 2 1 3-2 1 4 2-13 1-4 4 1 5 7 9-2 2-8-11-13-3-1 3 1-5-2-2 12-1 4-2 1-2z" fill="#191918"/>
<path transform="translate(647,85)" d="m0 0 4 1-15 5-23 6-19 7-7 3 3 2-5 1-12-4v-1h9l15-6 14-5 18-5z" fill="#333332"/>
<path transform="translate(438,203)" d="m0 0h3v2l-5 3-20 3-19 4h-7l-3-1-8 1 3-3 33-6 21-1z" fill="#111110"/>
<path transform="translate(136,205)" d="m0 0 17 4 9 2h34l30-3h7v1l-31 4-24 3-7 2-6-3-20-5-9-4z" fill="#BABABA"/>
<path transform="translate(674,82)" d="m0 0h43l16 2 3 2h-11l-10-1h-35l-21 2-17 2 1-2 11-3z" fill="#1D1D1C"/>
<path transform="translate(463,242)" d="m0 0 3 3-15 7-21 11-3-1 2-1-1-4 19-9 10-5z" fill="#0F0F0E"/>
<path transform="translate(841,230)" d="m0 0 5 5 5 11h2l5 16 1 6v27l-1 5h-1v-8l-2 2v-20l-4-20-5-13-5-9z" fill="#BEBEBE"/>
<path transform="translate(956,203)" d="m0 0 4 1 3 2-1 11 1 3h-2l-2 4-8 4-3 1 1 2h-3v-2h-8v-1l11-2 5-2-6 1h-10l-8-5-4-2-5-2v-2l5 1 12 6h8l12-4 2-5v-5z" fill="#0E0E0D"/>
<path transform="translate(1323,123)" d="m0 0 2 1-9 6-14 6-8 2h-70v-1l53-2 17-1 12-3 16-7z" fill="#B9B9B9"/>
<path transform="translate(1e3 227)" d="m0 0 10 1 58 15 1 3-9-1-57-15-3-1z" fill="#0F0F0E"/>
<path transform="translate(1185,197)" d="m0 0h16l10 1 42 1-1 2-13 2h-14l-40-4z" fill="#0D0D0C"/>
<path transform="translate(308,270)" d="m0 0 4 1-15 6-4 5-7-3-32-2-15-3-5-2 3-1 19 3 17 1h11l14-2z" fill="#B9B9B9"/>
<path transform="translate(1304,98)" d="m0 0h13l8 8 7 11v5l-2 2-5-1-5 2-2-2 8-4-1-4-9-8-9-3v-1h8l6 4v2h3l-8-9-13 1h-17v-1z" fill="#242423"/>
<path transform="translate(710,421)" d="m0 0 2 1 1 5 2 35 4 10 3 3-1 2-3-2v-2l-5-2-2 4-5 5-4 2 6-7 3-4v-20l-2-14v-15z" fill="#222221"/>
<path transform="translate(213,250)" d="m0 0h8l3 1 4-1-1 6 3 8 11 4 16 2 30 1v1l-38 1-12-1-4-2v-2l-7-1-2-13-7-1z" fill="#181817"/>
<path transform="translate(871,415)" d="m0 0h2l-2 4-11 9-15 11-19 11-18 9-2-1 4-4 17-8 24-15 14-11z" fill="#3C3C3B"/>
<path transform="translate(948,147)" d="m0 0 18 1h27l3 2-7 3-17 1-26-3v-1l6-1z" fill="#474746"/>
<path transform="translate(559,201)" d="m0 0 4 5 1 4-9 10-4 1-5-5-2-5v-8h1v7h7l5-5z" fill="#B9B9B9"/>
<path transform="translate(987,109)" d="m0 0h27l-3 2-3 1-15 1h-39l-2-1v-2z" fill="#111110"/>
<path transform="translate(724,109)" d="m0 0 21 3 21 5h7l8 4v2l-5 1-20-6-20-4-20-3v-1z" fill="#272726"/>
<path transform="translate(911,209)" d="m0 0 6 2 5 2-1 3 7 2 9 5 1 1h10l7-1-3 3-6 2h-10l-7-3-15-10-5-4h2z" fill="#383837"/>
<path transform="translate(838,200)" d="m0 0 6 9v2l5-1h4l-1 6-5 5-4-1-5-5-5-7 4-5z" fill="#B9B9B9"/>
<path transform="translate(1038,103)" d="m0 0h9v1l11 1v1l-37 2-14 1h-13v-2h-14v-1l44-2z" fill="#ddd"/>
<path transform="translate(775,177)" d="m0 0 5 1 18 10 11 8 11 9 10 10 11 15 4 7v2l-4-2-6-11-8-10-7-8-11-9-11-8-23-12z" fill="#161615"/>
<path transform="translate(839,342)" d="m0 0 1 3-6 8h-2l-2 4-13 12-14 10-16 9-12 5-3-1 20-9 17-11 9-7 9-11 8-9z" fill="#252524"/>
<path transform="translate(556,229)" d="m0 0 1 2-8 16-4 13-2 11v18l1 11-2-4-1-3-2 4-1-8v-17l1-6h2l3-12 5-13 6-11z" fill="#BDBDBD"/>
<path transform="translate(400,238)" d="m0 0h5l-3 2-48 15-23 7-5-1 3-2 30-9z" fill="#10100F"/>
<path transform="translate(687,421)" d="m0 0 3 1v11l-3 21v12l2 7v3l-5-4-6 4 5-10 1-5 1-33z" fill="#1C1C1B"/>
<path transform="translate(441,226)" d="m0 0 7 1v2l-7 2-18 5-12 4-4-1-1-3 29-9z" fill="#111110"/>
<path transform="translate(323,106)" d="m0 0h39l29 2-4 1v2h-11l-48-3-5-1z" fill="#151514"/>
<path transform="translate(668,100)" d="m0 0h16v1l8 1v1l-30 3-21 4h-5l4-2 5-2 3-2 11-3z" fill="#B9B9B9"/>
<path transform="translate(881,325)" d="m0 0 6 2 9 4 17 3-1 4v-3l-12 1-9 19-5 8-2-3 8-15 4-11-16-6-1 3h-2l2-4z" fill="#20201F"/>
<path transform="translate(468,335)" d="m0 0 2 2 8 19 9 17 3 1 8 11 1 4 8 9-1 2-5-3-10-13-11-19-10-21z" fill="#909090"/>
<path transform="translate(892,226)" d="m0 0 6 2 12 9v2l7 2h15v4l-4 2v-2h-11l-8-2-2 1-7-8-9-8z" fill="#2E2E2D"/>
<path transform="translate(339,192)" d="m0 0h16v2l-58 6h-9l-4-2z" fill="#0F0F0E"/>
<path transform="translate(134,185)" d="m0 0 2 1-2 6-2 4 1 4 4 6 15 5 16 4 5 2 2 1v3l-2 16h-1v-16l-10-4-25-8-6-4-2-4 2-9z" fill="#525251"/>
<path transform="translate(1035,106)" d="m0 0h39v1l-5 1-47 3h-11l-4-3z" fill="#161615"/>
<path transform="translate(918,329)" d="m0 0h2l-1 4-3 3-9 21-9 16-12 17h-2l2-5 8-11 9-16 7-16 3-8-3-1 3-3z" fill="#0F0F0E"/>
<path transform="translate(110,171)" d="m0 0 17 6 4 3 8-1 33-1h15l-3 2-43 2-4 4-5-2-22-11z" fill="#292928"/>
<path transform="translate(523,308)" d="m0 0 1 4-1 3 4 2 3 5 5-2 2-3 2 6v4l-5 1-9-2-6-5-1-5z" fill="#BCBCBC"/>
<path transform="translate(292,168)" d="m0 0h36v1l-8 1-49 2h-17l-15-1v-1z" fill="#0A0A09"/>
<path transform="translate(411,310)" d="m0 0 5 1-1 4-10 1-11 3-1 2-11 2h-5v-1l-12-2-4-3 1-2 5 3h14l25-6z" fill="#B4B4B4"/>
<path transform="translate(329,100)" d="m0 0 25 1 59 3 5 1v1h-26l-63-4z" fill="#5B5B5B"/>
<path transform="translate(908,265)" d="m0 0 6 2 14 11 15 13 7 6-1 3-11-9-16-13-15-11z" fill="#B9B9B9"/>
<path transform="translate(851,101)" d="m0 0h8v1l16 1v1l-25 1-21 3-20 5-7 3-3-1 16-7 22-5z" fill="#D9D9D9"/>
<path transform="translate(754,393)" d="m0 0 3 1v2l-19 5-21 3h-10v-1l-22-1v-1l34-1 24-4z" fill="#CDCDCD"/>
<path transform="translate(907,101)" d="m0 0 18 1 28 2 43 1v1l-16 1h-20l-35-2-21-2z" fill="#4B4B4A"/>
<path transform="translate(1268,101)" d="m0 0h15l-4 2-10 1-8 2-25 2h-12l-3-3 21-1 5-1v-1z" fill="#D9D9D9"/>
<path transform="translate(961,315)" d="m0 0 5 1 16 6 8 2h17v3l-5 2h-16v-2l-14-4-8-4z" fill="#B1B1B1"/>
<path transform="translate(515,314)" d="m0 0h2l1 8 2 4 8 4 13 1-1 2h-8l-10-3-4-3v-2l-7-2-11 5-4 1h-18l3-2 15-1 11-3v-2l5-3zm-1 11 2 1z" fill="#868686"/>
<path transform="translate(364,293)" d="m0 0 2 1-9 6-2 3h-2v-2l-7 1h-33l-10-3-1-2 13 2h19l15-1 13-4z" fill="#BABABA"/>
<path transform="translate(1139,162)" d="m0 0h22l65 2v1l-27 1h-24l-22-1v-2h-14z" fill="#181817"/>
<path transform="translate(539,101)" d="m0 0 16 1 13 3 11 2 16 6 3 3-10-3-19-5-21-3-25-1v-1l16-1z" fill="#D3D3D3"/>
<path transform="translate(81,98)" d="m0 0h14l17 2v1h-16v2h-9l-7 3-7 6-4 1 6-8z" fill="#A5A5A5"/>
<path transform="translate(696,103)" d="m0 0h20l24 3 22 5-4 2-8-1-22-4-8-1-1-1-18-1-5-1z" fill="#1C1C1B"/>
<path transform="translate(274,199)" d="m0 0h14l-1 2-48 5-16 1-6-1v-1z" fill="#131312"/>
<path transform="translate(634,165)" d="m0 0 5 1-3 2-19 7-23 12-17 12-3 3h-2l2-5 6-3 17-12 16-8 18-8z" fill="#B9B9B9"/>
<path transform="translate(471,346)" d="m0 0 2 2 11 23 11 17 2 3-4-1-9-12-10-18-5-10v-2h2z" fill="#2A2A29"/>
<path transform="translate(751,90)" d="m0 0 8 1 24 7 20 7 4-1 2 2-1 4-20-7-22-7-18-4z" fill="#ddd"/>
<path transform="translate(529,231)" d="m0 0 2 3-6 8-4 6-4 2-3 7-4 5h-12l-2-1v-3h7v-2l8-2 9-10z" fill="#1B1B1A"/>
<path transform="translate(673,156)" d="m0 0h41v1l-31 1-25 4-16 4h-5v-2l19-5z" fill="#CECECE"/>
<path transform="translate(1020,260)" d="m0 0 9 2 36 15 13 5 10 2v1h-7l-15-4-24-10-16-7-6-3z" fill="#B9B9B9"/>
<path transform="translate(228,266)" d="m0 0 5 2 1 4 20 4 32 2 1 4-39-4-13-3-8-5z" fill="#656565"/>
<path transform="translate(478,214)" d="m0 0h2v2l-6 2v2l-8 7-4 2-7-1-1-1v1h-6l-6-3v-2h17l14-7z" fill="#3C3C3B"/>
<path transform="translate(731,419)" d="m0 0h3l3 9 4 25v3h-3l-7-30z" fill="#161615"/>
<path transform="translate(342,139)" d="m0 0h47v3l-7 2-18-1v-1l-22-1z" fill="#121211"/>
<path transform="translate(460,319)" d="m0 0 5 1 2 4-7-1-13 5-9 2h-10l-6-4 2-1 2 1 14-1z" fill="#C5C5C5"/>
<path transform="translate(622,466)" d="m0 0h5l9 10h7l7-3 3 1-14 8-4-1-9-13-10 3-7 3-5-1-1-5 3 1h8z" fill="#CACACA"/>
<path transform="translate(749,412)" d="m0 0 5 1 2 2-1 4 5 16 1 5-4-1-4-8-5-12v-6z" fill="#B9B9B9"/>
<path transform="translate(883,361)" d="m0 0h2l-1 5-9 12-12 14-12 11-3-2 8-7 12-12 12-16z" fill="#1A1A19"/>
<path transform="translate(1043,101)" d="m0 0h20v1l-57 4h-10l-12-1v-1z" fill="#5A5A59"/>
<path transform="translate(656,397)" d="m0 0 16 2 13 2 27 1v1l-5 1h-27l-21-3-3-3z" fill="#E4E4E4"/>
<path transform="translate(525,201)" d="m0 0 3 2 1 6h2l-1 3-6 5-3 1h-7l4-2 1-10z" fill="#BABABA"/>
<path transform="translate(494,391)" d="m0 0 4 1 6 7v2l3 1 7 8 10 9 13 10 4 3-1 3-13-10-12-11-8-7-7-8z" fill="#434342"/>
<path transform="translate(514,99)" d="m0 0h29l20 2 13 3-3 2-7-1-19-3-35-1z" fill="#3A3A39"/>
<path transform="translate(298,293)" d="m0 0 6 3-1 2 10 3h40v2l-2 1h-39l-9-3-5-5z" fill="#656565"/>
<path transform="translate(646,412)" d="m0 0 4 1-1 9-4 11-4 6-4 2 7-21 1-6-2-1z" fill="#bbb"/>
<path transform="translate(869,205)" d="m0 0h8l3 5v6l4 2h-7l-7-4v-2h-3l1-6z" fill="#B9B9B9"/>
<path transform="translate(417,321)" d="m0 0 5 1 2 3v2l4 2h10l15-4 7-2 2 1-1 3v-2l-12 5-11 2h-10l-7-3-4-6z" fill="#444443"/>
<path transform="translate(888,192)" d="m0 0h5l4 5 1 7h-6l-7-4-2-6z" fill="#B9B9B9"/>
<path transform="translate(185,134)" d="m0 0h33l34 1v1l-19 1h-36v-2h-12z" fill="#191918"/>
<path transform="translate(489,164)" d="m0 0 2 1-11 10-4 3-1 6-3 1-2-7-5-5v-3l10 1 10-4z" fill="#181817"/>
<path transform="translate(616,176)" d="m0 0h3l-1 3-19 10-14 10-6 5-2-2 9-8 15-10z" fill="#D3D3D3"/>
<path transform="translate(1128,106)" d="m0 0h35l19 1 8 1v1h-37l-19-1-6-1z" fill="#191918"/>
<path transform="translate(235,106)" d="m0 0h35v1l-6 1-19 1h-37v-1l8-1z" fill="#191918"/>
<path transform="translate(373,250)" d="m0 0 3 1-9 4-27 9-19 7h-6l3-2 19-7z" fill="#141413"/>
<path transform="translate(351,103)" d="m0 0 23 1 18 1v1h-5v2l-25-1-22-1v-1l11-1z" fill="#D6D6D6"/>
<path transform="translate(1265,200)" d="m0 0 3 1-2 2-28 8-3 1-1 3-3-6-15-2-3-2 14 1 10 2 5-2 20-5z" fill="#4C4C4B"/>
<path transform="translate(901,381)" d="m0 0 1 3-8 11-12 13-8 8-2-2 10-10 11-14 6-8z" fill="#313130"/>
<path transform="translate(291,265)" d="m0 0 5 1 2 3-10 2h-31v-1l12-1 4-2z" fill="#B9B9B9"/>
<path transform="translate(1130,283)" d="m0 0 1 2-5 8-10 3h-41l2-3 21 1h12l12-2 4-4z" fill="#535352"/>
<path transform="translate(403,237)" d="m0 0 5 1v3l-30 10-5-1 3-3 26-8z" fill="#252524"/>
<path transform="translate(553,429)" d="m0 0 5 2 8 4 15 8 15 5v4l-5-1-16-8-13-7-9-6z" fill="#B9B9B9"/>
<path transform="translate(835,342)" d="m0 0 1 3-12 13-11 9-5 3 2-4 6-7 8-7 7-8z" fill="#ddd"/>
<path transform="translate(505,193)" d="m0 0 10 1-1 5-8 5h-5l-1-3 3-7z" fill="#B9B9B9"/>
<path transform="translate(952,107)" d="m0 0h42v2l-7 1h-28l-7-1z" fill="#E9E9E9"/>
<path transform="translate(703,84)" d="m0 0h12l24 3 12 3v1h-8l-24-3-17-1z" fill="#E4E4E4"/>
<path transform="translate(511,322)" d="m0 0 5 2-9 3-10 4h-21l-5-4v-2h29l-4 2-15 1h15l13-5z" fill="#272726"/>
<path transform="translate(1038,183)" d="m0 0h10l47 4-4 2h-10l-43-4z" fill="#0E0E0D"/>
<path transform="translate(1303,163)" d="m0 0 3 1-8 5-22 7h-2l3 11v7l-2-2-4 2 3-5-2-11 2-5 24-7z" fill="#484847"/>
<path transform="translate(87,127)" d="m0 0 8 1 9 2 9 1 25 1v1l-12 1h-18l-16-3-5-1z" fill="#151514"/>
<path transform="translate(488,288)" d="m0 0 2 1-12 12-7 8-8 7-6 4-5 1 2-4 9-6 14-12z" fill="#0E0E0D"/>
<path transform="translate(923,324)" d="m0 0 8 2 10 4 5 1h9l3-1v2l-6 3h-9l-13-5-3-2h-5z" fill="#BCBCBC"/>
<path transform="translate(404,153)" d="m0 0 9 1-4 5-2 11h-2v2l-5-1-24-1v-1l22-1 5-2 2-11z" fill="#1B1B1A"/>
<path transform="translate(684,476)" d="m0 0 6 4 7 7 5-1 6-6h2l-2 4-8 8-4-1-10-10-2-1-5 3-4-1 6-4z" fill="#363636"/>
<path transform="translate(687,420)" d="m0 0 6 1 1 1v17l-3 7h-3l1-13v-11z" fill="#B9B9B9"/>
<path transform="translate(768,457)" d="m0 0h1v6l5-1 8 4 6 1 4 3-8-1-8-3h-5l-8 11-4 1-6-2 3-2 5 1 5-8z" fill="#262625"/>
<path transform="translate(1069,308)" d="m0 0 2 1-2 5-9 4h-22l-17-3 2-2 18 2h19l7-3z" fill="#3E3E3D"/>
<path transform="translate(675,162)" d="m0 0h7v1l5 1v1l-34 4-3 2h-3l2-4 20-4z" fill="#1C1C1B"/>
<path transform="translate(462,163)" d="m0 0h1l3 10 4 3-6-1-11-3v-2l-10 1 1-2 16-4z" fill="#0C0C0B"/>
<path transform="translate(1100,161)" d="m0 0h37l2 1 14 1v1h-27l-26-1z" fill="#0C0C0B"/>
<path transform="translate(757,397)" d="m0 0 4 1-15 4-22 4h-9l2-3 26-4 6-1 1 1z" fill="#212120"/>
<path transform="translate(1219,103)" d="m0 0h37v1l-35 2h-22v-2z" fill="#535353"/>
<path transform="translate(112,100)" d="m0 0h5l2 2 18 2v2l-21-1-20-2v-2z" fill="#E6E6E6"/>
<path transform="translate(674,82)" d="m0 0h13l-2 2-18 2-21 3-4-1 9-3 12-2z" fill="#2D2D2C"/>
<path transform="translate(676,165)" d="m0 0h13v1l-24 3-11 1v2l-7 2h-7l-1-2 12-3 2-1zm-40 8h3v2l-3-1zm-3 1h3v2l-3-1zm-2 1h2v2h-2z" fill="#838383"/>
<path transform="translate(796,450)" d="m0 0h1v12l-1 2h4l-2 6-4 7-17-6-2-3 6 1 10 4h2l1-4-2-1 3-7z" fill="#444"/>
<path transform="translate(174,236)" d="m0 0 4 2v2l9 4 25 5v1h-11l-21-5-6-3-1-5z" fill="#464645"/>
<path transform="translate(889,176)" d="m0 0 8 6 9 5 9 2v1h-8l-6-2 7 4 5 1-3 3h-2l-1 5h-1l-2-7-9-9-6-7z" fill="#151514"/>
<path transform="translate(705,421)" d="m0 0 4 1 1 22-3 1-2-7-1-14z" fill="#B9B9B9"/>
<path transform="translate(100,136)" d="m0 0 4 1v2l-4 4-4 11v6l3 3 1 3 8 4-4 1-11-6v-9l4-12 1-6z" fill="#3D3D3D"/>
<path transform="translate(824,370)" d="m0 0 2 1-9 8-16 11-16 9-5 3-3-2 12-6 15-9 14-10z" fill="#30302F"/>
<path transform="translate(973,204)" d="m0 0h9l27 3v1h-14l-5-1h-14l-8 1h-4v6l2 1h-2v3l-3-1 2-10z" fill="#B9B9B9"/>
<path transform="translate(753,163)" d="m0 0 10 2 19 8 16 8 6 4-2 1-19-10-21-8-10-3z" fill="#B9B9B9"/>
<path transform="translate(214,171)" d="m0 0h40l-4 2-20 1h-19z" fill="#0A0A09"/>
<path transform="translate(626,393)" d="m0 0h8l25 7 3 2 5 1v1l-11-1-19-5-11-4z" fill="#212120"/>
<path transform="translate(886,280)" d="m0 0 4 1 11 9 19 19-1 2-13-12-12-11-8-7z" fill="#B9B9B9"/>
<path transform="translate(1130,274)" d="m0 0 1 2-5 8-8 2-10 1h-10l-10-1v-1l24-1 12-4h2l2-4z" fill="#B9B9B9"/>
<path transform="translate(1184,239)" d="m0 0 6 1h3l7-1h15l-3 2-19 3-2 4-2 11-3-2 2-7 1-9-5-1z" fill="#4F4F4E"/>
<path transform="translate(1025,183)" d="m0 0 13 1 22 2 3 1v2h-11l-27-3z" fill="#2A2A29"/>
<path transform="translate(407,176)" d="m0 0 4 2 5 5-1 6-2 4-17-1v-1l11-2 5-3-5-1 2-3-2-5z" fill="#BFBFBF"/>
<path transform="translate(651,164)" d="m0 0h8l-2 2-22 6-16 6v-3l15-6z" fill="#D7D7D7"/>
<path transform="translate(518,319)" d="m0 0 7 6 11 2h4l1-3v6l-1 1h-12l-8-4-3-6z" fill="#10100F"/>
<path transform="translate(561,161)" d="m0 0 2 1-3 9-14 27-1 5-3-2 1-5 9-16 8-15z" fill="#1F1F1E"/>
<path transform="translate(603,181)" d="m0 0m-2 1h2v2l-14 9-10 8-7 5-2-1 1-5 1 2 13-10 13-8z" fill="#242423"/>
<path transform="translate(822,358)" d="m0 0 2 1-8 9-16 11-8 5-3-1 3-3 13-8 13-10z" fill="#10100F"/>
<path transform="translate(1316,124)" d="m0 0h4v2l-11 5-11 2-13-1v-1l18-3z" fill="#131312"/>
<path transform="translate(935,164)" d="m0 0 15 5v1h-5v2h-8v2l-7 1 2-1 1-5z" fill="#0A0A09"/>
<path transform="translate(835,101)" d="m0 0h10l-2 2-21 4-12 4h-2l-1-5h7z" fill="#3A3A3A"/>
<path transform="translate(920,321)" d="m0 0 2 3v4l5-1 1 3-3 8-2 1 2-9-6 2 1-3-7 2h-5l-1-2h6v-2l5-3z" fill="#060605"/>
<path transform="translate(835,157)" d="m0 0h1l3 10 6 12 8 13 1 4-3 1-15-30-2-9z" fill="#181817"/>
<path transform="translate(1113,136)" d="m0 0h26v1l-14 1-1 1h-22l-19-1v-1z" fill="#1A1A19"/>
<path transform="translate(837,440)" d="m0 0h3v2l-16 9-16 8-2-1 4-4 17-8z" fill="#3F3F3E"/>
<path transform="translate(632,447)" d="m0 0h1l-1 10-2 10-4-4-7 3v-2l5-5 6-11z" fill="#0A0A09"/>
<path transform="translate(710,165)" d="m0 0h12l23 3 3 1v2l5-1 5 2v2h-7l-12-3v-2l-11-1-18-2z" fill="#838382"/>
<path transform="translate(771,465)" d="m0 0 7 1 9 3 7-1 2-1-2 6-3 1-12-5-6 1-1-2-5 8-2-1 2-4z" fill="#B8B8B8"/>
<path transform="translate(871,315)" d="m0 0 3 1 2 6-3 5-4 3h-6l4-2v-2l-1-4 3-5h2z" fill="#EFEFEF"/>
<path transform="translate(923,105)" d="m0 0h16l21 1v1h-8v2h-10l-14-1-5-1z" fill="#DADADA"/>
<path transform="translate(298,285)" d="m0 0 1 2 4 2v2l6 2h44v1l-5 1h-40l-7-2-2-3-2 3-1-6z" fill="#B9B9B9"/>
<path transform="translate(426,258)" d="m0 0 3 1-8 5-26 13h-2l1-3 21-10z" fill="#121211"/>
<path transform="translate(739,164)" d="m0 0h8l20 6 7 3-1 3-20-7-14-4z" fill="#D9D9D9"/>
<path transform="translate(592,373)" d="m0 0 5 2 16 9 18 8v2l-9-3-16-7-14-9z" fill="#10100F"/>
<path transform="translate(504,226)" d="m0 0 3 1-16 16-11 1 2-2 7-2 4-6 4-2z" fill="#494948"/>
<path transform="translate(680,84)" d="m0 0h23l10 1v1l-22 1h-21l2-2z" fill="#E3E3E3"/>
<path transform="translate(765,446)" d="m0 0 3 1 6 12 10 7-2 1-8-4h-5l-2-7-2-6z" fill="#0F0F0E"/>
<path transform="translate(1219,170)" d="m0 0 24 1 29 2 1 5h-2l-1-2-4-1-47-3z" fill="#30302F"/>
<path transform="translate(400,152)" d="m0 0 6 3-2 11-3 2h-3l1-3-7-1v-1h9l-2-7-2-1v-2z" fill="#BCBCBC"/>
<path transform="translate(456,108)" d="m0 0h10v1l13 1v1l-19 1h-14v-1l-8-1v-1z" fill="#1D1D1C"/>
<path transform="translate(1275,191)" d="m0 0h1v5l-6 5h-3v-2l1-1-6 2h-9l-3-2 17-3 7-3z" fill="#191918"/>
<path transform="translate(973,179)" d="m0 0 25 2v1l-16 1 2 4v12l4 1h-5l-2-6-1-8-3-4-4-2z" fill="#1C1C1B"/>
<path transform="translate(620,94)" d="m0 0 4 2-27 9-7 3-4-1 10-5z" fill="#D9D9D9"/>
<path transform="translate(839,432)" d="m0 0 2 1-14 9-11 6-2-1 5-2-1-3 14-8 5-1z" fill="#20201F"/>
<path transform="translate(307,272)" d="m0 0 2 3-11 4v9l-5-4-7-3-7-1v-1h10l4 2 4-5z" fill="#262626"/>
<path transform="translate(400,238)" d="m0 0h5l-3 2-32 10h-7l3-2z" fill="#141413"/>
<path transform="translate(529,211)" d="m0 0 1 2-2 3-2 2-2 6h-12l3-2-2-1v-2l11-3z" fill="#3C3C3B"/>
<path transform="translate(266,169)" d="m0 0h18l-2 2-11 1h-17l-15-1v-1z" fill="#171716"/>
<path transform="translate(468,335)" d="m0 0 2 2 8 19 9 17 3 1-2 4-6-9-12-25z" fill="#B7B7B7"/>
<path transform="translate(487,206)" d="m0 0 2 1-2 6-15 10-2-1 4-2v-2l6-2v-2l-5 2v-3z" fill="#242423"/>
<path transform="translate(1e3 141)" d="m0 0 4 5-14 7-5 1h-5l4-2 6-2-2-1v-2l11-5z" fill="#2E2E2D"/>
<path transform="translate(450,226)" d="m0 0h5v2h7l1 8 2 4-4 1-2-9-4-1-13-1v-1l8-2z" fill="#131312"/>
<path transform="translate(803,163)" d="m0 0 5 1 17 17-2 1-8-7-5-3-7-7z" fill="#080807"/>
<path transform="translate(1309,99)" d="m0 0h7l9 10-1 2-3-2v-2l-5-2-1-1-13-1 2-3z" fill="#DEDEDE"/>
<path transform="translate(1304,98)" d="m0 0h13l8 8 3 6-3 1-2-5-7-8-13 1h-17v-1z" fill="#666"/>
<path transform="translate(511,218)" d="m0 0h5l-3 1v2l4 2-6 2-5 2-4 2-7 5 2-4 7-7z" fill="#0C0C0B"/>
<path transform="translate(887,214)" d="m0 0h1l2 6 6 6-1 2-6-2-3-2-11-1v-1l9-1-1-3z" fill="#0A0A09"/>
<path transform="translate(439,170)" d="m0 0h14l1 3-19 4-7-1 3-2 8-2z" fill="#565655"/>
<path transform="translate(1304,158)" d="m0 0h2v5l-9 1-12 2-10-1v-1l24-4z" fill="#171716"/>
<path transform="translate(378,128)" d="m0 0h13l27 3 1 2h-11l-24-3-6-1z" fill="#131312"/>
<path transform="translate(275,234)" d="m0 0 4 1-9 3-10 1v2l-10 1v-2l-3-1z" fill="#121211"/>
<path transform="translate(571,213)" d="m0 0v3l-6 7-9 15-4 2 2-6 8-12 5-6z" fill="#0F0F0E"/>
<path transform="translate(958,219)" d="m0 0 3 3-5 4-8 3 1 2h-3v-2h-8v-1l11-2 5-2-6 1h-10l-1-2h10z" fill="#2F2F2E"/>
<path transform="translate(154,212)" d="m0 0 14 3 5 2 2 1v3l-2 16h-1v-16l-10-4-8-3z" fill="#515150"/>
<path transform="translate(486,195)" d="m0 0 4 2 1 7-7 5-4-2 5-7z" fill="#BABABA"/>
<path transform="translate(377,133)" d="m0 0 14 1 1 3-2 6-3-1h2v-3h-36v-1l33-1-3-2-6-1z" fill="#bbb"/>
<path transform="translate(653,473)" d="m0 0 4 1 9 11v2l4-1 4-3 4 1-8 6h-4l-10-13-4-1z" fill="#414140"/>
<path transform="translate(1151,226)" d="m0 0 11 1 23 3v1l-13 1-19-3v-2z" fill="#131312"/>
<path transform="translate(927,328)" d="m0 0 5 2 11 4h9l6-2v-3l3 1-5 5-9 2-11-2-5-2h-4z" fill="#4B4B4A"/>
<path transform="translate(1014,133)" d="m0 0h7v1l-10 2v1l35 1v1h-37l1 4h-2l-2-8 1-1z" fill="#BABABA"/>
<path transform="translate(633,391)" d="m0 0 8 1 14 4 2 4-17-4-7-3z" fill="#DEDEDE"/>
<path transform="translate(527,215)" d="m0 0h1l1 8 6 4 5 1v1h-7l-2-1v2l3 1-1 2h-3l-3-7-5-4 3-2 1-4z" fill="#0E0E0D"/>
<path transform="translate(339,192)" d="m0 0h16v2l-18 2h-11l4-3z" fill="#0A0A09"/>
<path transform="translate(673,156)" d="m0 0h41v1l-31 1-4 1h-13l1-2z" fill="#E5E5E5"/>
<path transform="translate(713,461)" d="m0 0 2 1 4 10 3 3-1 2-3-2v-2l-5-2-2 4-5 5-4 2 6-7 4-6z" fill="#171716"/>
<path transform="translate(1e3 314)" d="m0 0h6l-2 4-6 2h-12l-9-2v-1l13 1 8-3z" fill="#B9B9B9"/>
<path transform="translate(858,268)" d="m0 0h1v27l-1 5h-1v-8l-2 2 1-19h2z" fill="#B9B9B9"/>
<path transform="translate(910,241)" d="m0 0h22v4l-4 2v-2h-11l-7-2z" fill="#6F6F6F"/>
<path transform="translate(74,126)" d="m0 0 5 1 17 8 2 3-7-1-17-9z" fill="#373736"/>
<path transform="translate(658,456)" d="m0 0h1l1 14 1 4-6-5-7 4v-2l5-5z" fill="#121211"/>
<path transform="translate(868,212)" d="m0 0h2l4 4 9 2 1 3-2 1h-8l-3-2-1 2z" fill="#333332"/>
<path transform="translate(905,200)" d="m0 0 2 1-1 3-4 4-4 1h-8l-5-5 1-2 5 3 7 1v-2l6-2z" fill="#2C2C2B"/>
<path transform="translate(1038,103)" d="m0 0h9v1l11 1v1l-32 1-2-3z" fill="#D5D5D5"/>
<path transform="translate(615,398)" d="m0 0 9 3 1 1-1 8-3 4h-3l1-10z" fill="#1C1C1B"/>
<path transform="translate(1187,250)" d="m0 0 1 3-4 6-5 2h-29v-1l25-1 9-5z" fill="#B9B9B9"/>
<path transform="translate(900,187)" d="m0 0 7 2h7v-1l7-1-1 3 2 2-9 2-9-3z" fill="#2B2B2A"/>
<path transform="translate(338,166)" d="m0 0h15l-2 2-6 1h-17l-12-1v-1z" fill="#161615"/>
<path transform="translate(1021,107)" d="m0 0h11l4 3-14 1h-11l-4-3z" fill="#1F1F1E"/>
<path transform="translate(366,107)" d="m0 0h11l14 1-4 1v2h-11l-15-1v-1l5-1z" fill="#20201F"/>
<path transform="translate(825,212)" d="m0 0 4 2 10 13 6 10v2l-4-2-6-11-8-10z" fill="#111110"/>
<path transform="translate(134,201)" d="m0 0 17 4 5 1-3 1v2l-8-1-9-3z" fill="#1B1B1A"/>
<path transform="translate(645,168)" d="m0 0 3 1-9 4-18 7-3-1 4-3 20-7z" fill="#121211"/>
<path transform="translate(770,117)" d="m0 0 6 1 5 3v2l-5 1-12-4-1-2z" fill="#1A1A19"/>
<path transform="translate(818,423)" d="m0 0 4 2-19 10h-2l-1-3z" fill="#1A1A19"/>
<path transform="translate(491,202)" d="m0 0 4 1v4l11 2v1l-19 1 1-4z" fill="#0C0C0B"/>
<path transform="translate(876,191)" d="m0 0 4 3v2l4 2 8 5 6 1v2h-7l-5-3-2 2-8-12z" fill="#191918"/>
<path transform="translate(110,171)" d="m0 0 17 6 4 3h8l-4 1-1 3-5-2-15-7-4-2z" fill="#3A3A39"/>
<path transform="translate(758,170)" d="m0 0 10 3 8 3-1 2-9-1-2 1-6-2z" fill="#292928"/>
<path transform="translate(367,140)" d="m0 0h21l-4 4-20-1 3-1z" fill="#030302"/>
<path transform="translate(733,84)" d="m0 0 16 2 13 3v1l-9-1-4 1-16-3z" fill="#343433"/>
<path transform="translate(730,164)" d="m0 0 11 1 15 4 3 3-11-1v-2l-18-3z" fill="#111110"/>
<path transform="translate(1325,122)" d="m0 0 1 2 2 1-13 8-9 4-4-2 15-7 7-4z" fill="#343433"/>
<path transform="translate(1174,105)" d="m0 0h25l-2 1v2h-15l-8-1z" fill="#ddd"/>
<path transform="translate(379,103)" d="m0 0h16l18 1 5 1v1h-26v-2h-13z" fill="#777776"/>
<path transform="translate(754,393)" d="m0 0 3 1v2l-19 5-3-1-2-2z" fill="#D4D4D4"/>
<path transform="translate(786,178)" d="m0 0 5 1 16 9 6 4-3 2-14-9-10-6z" fill="#1C1C1B"/>
<path transform="translate(630,459)" d="m0 0h1v10l-4-2-7 1-6 2h-8v-1l8-2 13-5 2 3z" fill="#2D2D2C"/>
<path transform="translate(415,313)" d="m0 0 2 4-1 2-1-1-13 1-4 1h-8l4-2 15-4 6 1z" fill="#2B2B2A"/>
<path transform="translate(887,262)" d="m0 0 11 2 3 3-5 1-9-1-5 1 2-4z" fill="#B9B9B9"/>
<path transform="translate(508,99)" d="m0 0h6l-2 2-4 1-14 1h-10l-2-2z" fill="#4E4E4D"/>
<path transform="translate(810,364)" d="m0 0 2 1-3 3-1 3-14 9-1-4 11-7z" fill="#D6D6D6"/>
<path transform="translate(964,320)" d="m0 0 6 1 11 4 12 2v1h-11l-19-5z" fill="#424241"/>
<path transform="translate(908,242)" d="m0 0 16 3v2h-10l-4 2-3 4-2-1z" fill="#1E1E1D"/>
<path transform="translate(299,229)" d="m0 0h7v2l-28 5 2-3z" fill="#121211"/>
<path transform="translate(905,203)" d="m0 0 12 7-1 2-4-2-1 1h-5v-2h-8l4-2z" fill="#0B0B0A"/>
<path transform="translate(1e3 103)" d="m0 0h17l-2 2-11 1h-10l-12-1v-1z" fill="#7D7D7C"/>
<path transform="translate(1268,101)" d="m0 0h15l-4 2-10 1h-13l-9-1v-1z" fill="#9F9F9F"/>
<path transform="translate(622,466)" d="m0 0h5l2 4-5-2-15 6-5-1-1-5 3 1h8z" fill="#B9B9B9"/>
<path transform="translate(924,180)" d="m0 0h1v5l5 2 5 3-2 1h-14l3-6z" fill="#090908"/>
<path transform="translate(933,109)" d="m0 0h26v1h-7v2h-14l-5-1z" fill="#161615"/>
<path transform="translate(899,366)" d="m0 0h2l-2 5-10 15-3 4h-2l2-5 8-11z" fill="#10100F"/>
<path transform="translate(596,372)" d="m0 0 5 2 11 6 2 5-14-7-3-2z" fill="#DADADA"/>
<path transform="translate(368,189)" d="m0 0h9l-1 2-12 2h-9l-6-1v-1z" fill="#141413"/>
<path transform="translate(671,160)" d="m0 0 15 1v1l-27 3-3-2z" fill="#D0D0D0"/>
<path transform="translate(867,277)" d="m0 0h1l1 7h2l-1 9-1 1v7l-1 2h-2z" fill="#BEBEBE"/>
<path transform="translate(864,226)" d="m0 0 3 1-1 3h-2v2l-10-1-1 3 1-5-2-2z" fill="#292928"/>
<path transform="translate(192,213)" d="m0 0h9v2l-19 2-6 3h-3l2-4z" fill="#292928"/>
<path transform="translate(473,180)" d="m0 0 2 4 4 6 2 2-5-1-11-1v-2l6-3h2z" fill="#0A0A09"/>
<path transform="translate(634,165)" d="m0 0 5 1-3 2-19 7-4 1 4-4z" fill="#BDBDBD"/>
<path transform="translate(572,106)" d="m0 0 7 1 16 6 3 3-10-3-19-5z" fill="#D3D3D3"/>
<path transform="translate(198,105)" d="m0 0h26v2l-8 1h-16z" fill="#D8D8D8"/>
<path transform="translate(653,472)" d="m0 0 5 1 10 11 6-3 2 1-7 6-3-1-10-13z" fill="#DADADA"/>
<path transform="translate(657,401)" d="m0 0h8l15 2 3 1v2h-9l-7-1v-2l-10-1z" fill="#161615"/>
<path transform="translate(893,342)" d="m0 0 3 1-2 6-8 14-2-3 8-15z" fill="#1F1F1E"/>
<path transform="translate(422,325)" d="m0 0 4 1h14v2l3 1-5 1h-10l-6-4z" fill="#BFBFBF"/>
<path transform="translate(589,165)" d="m0 0h4l-2 4-8 6-7 6-2-1z" fill="#070706"/>
<path transform="translate(640,111)" d="m0 0h5l1 1 10-1-3 2-21 4-2-1v-2l7-1z" fill="#4A4A4A"/>
<path transform="translate(987,109)" d="m0 0h27l-3 2-3 1h-14v-1l-7-1z" fill="#171716"/>
<path transform="translate(650,475)" d="m0 0 3 1-5 4-10 5h-3l-3-6 2-1 2 3 5-1z" fill="#494948"/>
<path transform="translate(484,372)" d="m0 0 4 5 7 11 2 3-4-1-9-12-2-4h2z" fill="#373736"/>
<path transform="translate(357,312)" d="m0 0 5 2 1 4 5 2 13 1-4 2h-10l-7-4-3-5z" fill="#515150"/>
<path transform="translate(228,266)" d="m0 0 5 2 1 4 9 3 2 2-10-2-8-5z" fill="#525251"/>
<path transform="translate(503,256)" d="m0 0h5l2 3-5 3h-7l-2-1v-3h7z" fill="#5C5C5C"/>
<path transform="translate(941,150)" d="m0 0 1 3-6 5-7 1-8-6 2-1 14 3z" fill="#343433"/>
<path transform="translate(886,326)" d="m0 0 5 1 9 3 16 1-4 2h-11l-11-3z" fill="#B9B9B9"/>
<path transform="translate(1236,218)" d="m0 0h1v10l-3 6-5 4-4 1h-9v-1l12-3 4-2 1-4h2z" fill="#717171"/>
<path transform="translate(713,471)" d="m0 0 5 2v2l7 2 3 2 4-1h3l-4 4-9-3-7-4-5 1z" fill="#2F2F2E"/>
<path transform="translate(547,243)" d="m0 0 1 2-5 15-2 10h-1v-11l5-14z" fill="#E8E8E8"/>
<path transform="translate(213,250)" d="m0 0h8l3 1 4-1-1 9v8l-2-4-1-9-7-1z" fill="#454545"/>
<path transform="translate(629,114)" d="m0 0 1 2 2 1-6 2v2l-7 1-3-1 1-3z" fill="#2D2D2C"/>
<path transform="translate(752,88)" d="m0 0 19 3 5 4-10-1-14-4z" fill="#242423"/>
<path transform="translate(881,325)" d="m0 0 6 2 9 4 5 1-4 2-11-4-6-2-1 3h-2l2-4z" fill="#1F1F1E"/>
<path transform="translate(442,223)" d="m0 0 9 1h11l-2 4h-5l-1-1v1h-6l-6-3z" fill="#B9B9B9"/>
<path transform="translate(387,109)" d="m0 0h23v1h-7v2h-13l-3-1z" fill="#161615"/>
<path transform="translate(703,84)" d="m0 0h12l10 1-1 3-22-1z" fill="#D0D0D0"/>
<path transform="translate(812,429)" d="m0 0 2 1-4 4-11 6h-2l-1-3z" fill="#B9B9B9"/>
<path transform="translate(857,287)" d="m0 0h1l-1 13-2 7-3 1 1-9 1-5h2z" fill="#E9E9E9"/>
<path transform="translate(241,240)" d="m0 0h9v3l-18 1 1-3z" fill="#10100F"/>
<path transform="translate(645,108)" d="m0 0 4 1 1 2-10 1-3 2h-8l-2-2z" fill="#1B1B1A"/>
<path transform="translate(771,462)" d="m0 0 5 1 6 3 6 1 4 3-8-1-8-3h-5l-3 3 2-6z" fill="#30302F"/>
<path transform="translate(883,361)" d="m0 0h2l-1 5-9 12-2-1 2-4z" fill="#191918"/>
<path transform="translate(417,321)" d="m0 0 5 1 2 3v2l7 3v1h-7l-5-4z" fill="#393938"/>
<path transform="translate(1130,283)" d="m0 0 1 2-5 8-10 3h-6v-2l12-2 4-4z" fill="#656564"/>
<path transform="translate(518,267)" d="m0 0 4 2 7 3-1 2 2 2-7-1-6-3 2-1z" fill="#2E2E2D"/>
<path transform="translate(453,144)" d="m0 0 2 4 2 8-6-4v-2h-6l1-2z" fill="#0C0C0B"/>
<path transform="translate(772,467)" d="m0 0 2 1-10 16-3 1-2-1v-2l4-1 8-13z" fill="#373737"/>
<path transform="translate(710,421)" d="m0 0 2 1v17l-1-2h-2v-15z" fill="#141413"/>
<path transform="translate(1070,294)" d="m0 0 1 4-2 6-2 2-4 1h-18v-1l16-1 6-4h2z" fill="#B9B9B9"/>
<path transform="translate(575,203)" d="m0 0h3l-2 4-9 9-2-1 2-4z" fill="#DADADA"/>
<path transform="translate(1274,173)" d="m0 0 4 2-4 1 3 11v7l-2-2-4 2 3-5-2-11z" fill="#565656"/>
<path transform="translate(950,169)" d="m0 0 6 1v3l-6 1-13-1v-1h8v-2z" fill="#343433"/>
<path transform="translate(465,170)" d="m0 0 10 1 4 2-5 3-6-1-3-2z" fill="#353534"/>
<path transform="translate(819,107)" d="m0 0 6 1v1l-18 5-5 2-3-1 16-7z" fill="#CFCFCF"/>
<path transform="translate(654,84)" d="m0 0h8l5 1v1l-21 3-4-1 9-3z" fill="#262625"/>
<path transform="translate(914,246)" d="m0 0 11 1 10 6-2 1-10-4v-1l-11-1v2l-3 1 2-4z" fill="#B9B9B9"/>
<path transform="translate(684,464)" d="m0 0 3 2 2 7v3l-5-4-6 4 2-4z" fill="#111110"/>
<path transform="translate(918,329)" d="m0 0h2l-1 4-3 3-2 5-3 1 2-8-3-1 3-3z" fill="#131312"/>
<path transform="translate(892,256)" d="m0 0 10 1-2 4h-9l-3-3z" fill="#626262"/>
<path transform="translate(952,223)" d="m0 0 3 1-9 4h-8l-2-4h12z" fill="#B9B9B9"/>
<path transform="translate(775,177)" d="m0 0 5 1 15 8v2l-6-2-14-7z" fill="#10100F"/>
<path transform="translate(764,109)" d="m0 0 9 2 5 3v2l-9-2-7-2 2-1z" fill="#BFBFBF"/>
<path transform="translate(683,475)" d="m0 0 2 1-8 6-5 1-4 2-5-6 7 2 9-4z" fill="#BABABA"/>
<path transform="translate(764,475)" d="m0 0h2l-2 6-5 1-6-4v-1h8z" fill="#D9D9D9"/>
<path transform="translate(610,390)" d="m0 0 9 3 10 4-4 1-7-1-8-5z" fill="#30302F"/>
<path transform="translate(471,325)" d="m0 0h29l-4 2-15 1-8 1z" fill="#3C3C3B"/>
<path transform="translate(882,252)" d="m0 0 5 3 5 1-3 3 6 1 2 1-2 2h-6l-7-9z" fill="#2D2D2C"/>
<path transform="translate(535,227)" d="m0 0h11l-3 2 1 5-1-3-9 1-3-2v-2z" fill="#30302F"/>
<path transform="translate(1084,215)" d="m0 0 10 1 12 2-2 2-12-1-6-1v-2z" fill="#151514"/>
<path transform="translate(835,157)" d="m0 0h1l3 10 5 11-2 2-6-13-2-9z" fill="#262625"/>
<path transform="translate(1006,105)" d="m0 0h24l-4 2-5 1h-10v-1l-5-1z" fill="#DBDBDB"/>
<path transform="translate(837,103)" d="m0 0 4 1v2l-12 2h-7v-2z" fill="#DCDCDC"/>
<path transform="translate(372,105)" d="m0 0h20v1h-5v2h-10l-5-1z" fill="#DBDBDB"/>
<path transform="translate(743,473)" d="m0 0 5 2 11 6v2l-6-2-7-4-5 1v-3z" fill="#585857"/>
<path transform="translate(572,427)" d="m0 0 6 2 16 8 2 2-5-1-12-5-7-5z" fill="#B9B9B9"/>
<path transform="translate(769,388)" d="m0 0h3l-1 3-11 4h-5l3-3z" fill="#E1E1E1"/>
<path transform="translate(799,388)" d="m0 0m-1 1v3l-13 7-5 3-3-2 12-6z" fill="#2D2D2C"/>
<path transform="translate(822,358)" d="m0 0 2 1-8 9-8 6-2-1 5-5z" fill="#0F0F0E"/>
<path transform="translate(488,288)" d="m0 0 2 1-12 12-7 8-2-1 12-13z" fill="#131312"/>
<path transform="translate(492,234)" d="m0 0 2 1-6 5-7 2-14-1v-1l16-1 8-4z" fill="#0F0F0E"/>
<path transform="translate(1200,239)" d="m0 0h15l-3 2-9 1h-10v-2z" fill="#3E3E3D"/>
<path transform="translate(346,219)" d="m0 0h5l-1 3-9 2h-6l-2-2z" fill="#131312"/>
<path transform="translate(414,180)" d="m0 0h8l-4 6-2 10-3-3 2-6z" fill="#1A1A19"/>
<path transform="translate(477,187)" d="m0 0 8 1 4 2v3l-6 1-3-2-3-3z" fill="#3F3F3E"/>
<path transform="translate(474,152)" d="m0 0 3 1-9 6-6-1v-3z" fill="#363635"/>
<path transform="translate(100,136)" d="m0 0 4 1v2l-4 4-5 14-2 1 3-12 2-6z" fill="#454544"/>
<path transform="translate(724,109)" d="m0 0 14 2v2h-9l-13-2v-1z" fill="#242423"/>
<path transform="translate(1242,104)" d="m0 0h25v1l-15 2h-8z" fill="#DEDEDE"/>
<path transform="translate(137,104)" d="m0 0h19l-2 1v2l-17-1z" fill="#DEDEDE"/>
<path transform="translate(908,370)" d="m0 0 1 4-6 9-3-1 2-5 3-5z" fill="#313130"/>
<path transform="translate(427,260)" d="m0 0 3 1-1 3-10 5-3-1h2l2-4z" fill="#272726"/>
<path transform="translate(495,204)" d="m0 0h9l2 4-1 1-10-1z" fill="#474746"/>
<path transform="translate(484,184)" d="m0 0h9l1 3-9 2-6-1 4-1z" fill="#B9B9B9"/>
<path transform="translate(931,170)" d="m0 0 2 1-1 3-5 2-6-1-3-3 10-1z" fill="#383837"/>
<path transform="translate(1299,140)" d="m0 0 2 3 6 12 1 6-2 2-3-10-5-9z" fill="#565655"/>
<path transform="translate(1316,124)" d="m0 0h4v2l-11 5h-3l1-4z" fill="#181817"/>
<path transform="translate(459,105)" d="m0 0h17l6 1v1l-22 1z" fill="#D3D3D3"/>
<path transform="translate(575,425)" d="m0 0 5 2 8 4v3l-6-2-8-4z" fill="#1A1A19"/>
<path transform="translate(879,396)" d="m0 0v3l-13 13-3 4-3-1z" fill="#060605"/>
<path transform="translate(464,332)" d="m0 0h2l1 6h2l2 6v4l-3-1-3-7z" fill="#242423"/>
<path transform="translate(958,320)" d="m0 0h1v5l-2 2h-13l-3-2h9l5-2z" fill="#B9B9B9"/>
<path transform="translate(580,196)" d="m0 0 3 1-10 9-3-1 1-5 1 2z" fill="#222221"/>
<path transform="translate(1307,103)" d="m0 0h8l6 4v2l6 3-1 3-7-6-8-4z" fill="#1B1B1A"/>
<path transform="translate(817,105)" d="m0 0h7l-2 2-12 4h-2l-1-5h7z" fill="#2F2F2E"/>
<path transform="translate(963,273)" d="m0 0 4 2 15 11 3 3-4-1-18-13z" fill="#131312"/>
<path transform="translate(921,214)" d="m0 0 5 1 12 6 6 1v1h-8l-10-5-5-2z" fill="#1F1F1E"/>
<path transform="translate(911,209)" d="m0 0 6 2 5 2-1 3 3 1-2 1-7-4-6-2 2-1z" fill="#3D3D3C"/>
<path transform="translate(1213,205)" d="m0 0 14 1 8 2 1 4-2 3-3-6-15-2z" fill="#292928"/>
<path transform="translate(274,199)" d="m0 0h14l-1 2-16 1-5-1v-1z" fill="#121211"/>
<path transform="translate(1091,188)" d="m0 0h14l8 2v1h-11l-11-1z" fill="#0C0C0B"/>
<path transform="translate(903,183)" d="m0 0 9 1 2 1v4l-8-1-2-2z" fill="#BABABA"/>
<path transform="translate(404,153)" d="m0 0 9 1-4 5-3 6h-1v-10z" fill="#0D0D0C"/>
<path transform="translate(713,476)" d="m0 0 4 1 7 5-1 2-5-2-2-2-4 1-2 1 1-4z" fill="#444443"/>
<path transform="translate(788,382)" d="m0 0 2 1-3 3-13 6-3-1 3-2z" fill="#131312"/>
<path transform="translate(901,381)" d="m0 0 1 3-7 10-2-4 6-8z" fill="#2A2A29"/>
<path transform="translate(440,286)" d="m0 0 3 1-14 11-2-1 5-5z" fill="#0D0D0C"/>
<path transform="translate(876,244)" d="m0 0 4 2 7 8-1 2-3-3-3 1-4-7z" fill="#161615"/>
<path transform="translate(774,174)" d="m0 0 9 3 8 4v2l-5-1-12-6z" fill="#DFDFDF"/>
<path transform="translate(908,165)" d="m0 0 5 2 11 5-3 1h-2l-1 2-10-9z" fill="#181817"/>
<path transform="translate(97,162)" d="m0 0 9 2 8 2-1 2h-7l-7-3v-2z" fill="#181817"/>
<path transform="translate(737,159)" d="m0 0 9 1 7 2v2l-9-1-10-2z" fill="#ccc"/>
<path transform="translate(907,101)" d="m0 0 18 1v2h-11l-10-1z" fill="#575756"/>
<path transform="translate(647,85)" d="m0 0 4 1-15 5-7-1 4-2z" fill="#575756"/>
<path transform="translate(391,276)" d="m0 0h2v2l-17 9-2-1 3-3z" fill="#0D0D0C"/>
<path transform="translate(1182,266)" d="m0 0h2l-2 4-7 2h-10l1-2 13-2z" fill="#4E4E4D"/>
<path transform="translate(902,190)" d="m0 0 11 3-3 3h-2l-1 5h-1l-2-7z" fill="#0E0E0D"/>
<path transform="translate(573,105)" d="m0 0h13l1 2 3 2-5 1-12-4z" fill="#30302F"/>
<path transform="translate(923,105)" d="m0 0h16l-2 1v2h-9l-5-1z" fill="#ddd"/>
<path transform="translate(560,101)" d="m0 0 13 2 3 2-8 1-10-2z" fill="#686868"/>
<path transform="translate(775,468)" d="m0 0 6 1 11 5v1l-7-1-9-4z" fill="#393938"/>
<path transform="translate(784,391)" d="m0 0m-2 1h2l-2 4-4 2h-9l2-2z" fill="#30302F"/>
<path transform="translate(876,377)" d="m0 0h2l-2 4-4 5-5 4-1-2 7-8z" fill="#BFBFBF"/>
<path transform="translate(876,323)" d="m0 0 1 3-3 5-3 2h-3l-1-3 6-4z" fill="#171716"/>
<path transform="translate(373,285)" d="m0 0 2 1-1 2-13 6-4-1 3-2z" fill="#131312"/>
<path transform="translate(298,285)" d="m0 0 1 2 4 2v2l5 2v1l-7-1-2-3-2 3-1-6z" fill="#ACACAC"/>
<path transform="translate(331,264)" d="m0 0h2l-1 3-11 4h-6l3-2z" fill="#10100F"/>
<path transform="translate(543,239)" d="m0 0h2l-6 18h-2l2-10z" fill="#30302F"/>
<path transform="translate(852,238)" d="m0 0 4 2 4 11 1 7-2-2-5-13z" fill="#30302F"/>
<path transform="translate(616,176)" d="m0 0h3l-1 3-10 5-3-1 5-4z" fill="#D0D0D0"/>
<path transform="translate(1252,172)" d="m0 0 20 1 1 5h-2l-1-2-4-1-14-1z" fill="#2A2A29"/>
<path transform="translate(75,122)" d="m0 0 5 1 8 3-1 3-5-1-7-4z" fill="#1D1D1C"/>
<path transform="translate(553,103)" d="m0 0 13 1 6 2v1l-16-1-3-1z" fill="#E8E8E8"/>
<path transform="translate(527,424)" d="m0 0 5 1 9 7-1 3-13-10z" fill="#494948"/>
<path transform="translate(307,272)" d="m0 0 2 3-11 4h-2l-1 4-1-4 5-4z" fill="#292928"/>
<path transform="translate(174,236)" d="m0 0 4 2v2l4 2v2l-7-1-2-3z" fill="#313130"/>
<path transform="translate(940,232)" d="m0 0 6 1 9 4-3 1-5-2-9-1v-2z" fill="#B9B9B9"/>
<path transform="translate(409,188)" d="m0 0 5 1-1 4-17-1v-1l11-2z" fill="#B9B9B9"/>
<path transform="translate(601,456)" d="m0 0h1l3 11 1 2-5 1-3-6h2z" fill="#414140"/>
<path transform="translate(871,415)" d="m0 0h2l-2 4-8 7-2-3z" fill="#444443"/>
<path transform="translate(443,328)" d="m0 0 4 1-2 2-7 1h-10l3-2z" fill="#484848"/>
<path transform="translate(298,293)" d="m0 0 6 3-1 2 7 3v2l-6-1-5-4z" fill="#575757"/>
<path transform="translate(403,237)" d="m0 0 5 1v3l-8 3h-5l3-1 1-3 4-2z" fill="#242423"/>
<path transform="translate(841,229)" d="m0 0h3l8 15-1 4-7-14z" fill="#E9E9E9"/>
<path transform="translate(1039,208)" d="m0 0 12 1 6 1-1 2-11-1-6-1z" fill="#121211"/>
<path transform="translate(547,189)" d="m0 0h2l-1 5-3 9-3-2 1-5z" fill="#181817"/>
<path transform="translate(743,471)" d="m0 0 10 4 2 2-3 1-7-4-4 2h-3z" fill="#B9B9B9"/>
<path transform="translate(742,468)" d="m0 0 4 2 5 3-2 1-6-2h-2l-2 4-4 2 6-9z" fill="#30302F"/>
<path transform="translate(489,376)" d="m0 0 3 1 6 8-1 3-5-5v-2l-4-2z" fill="#8D8D8D"/>
<path transform="translate(471,346)" d="m0 0 2 2 2 5-1 5-3-3-2-7h2z" fill="#424242"/>
<path transform="translate(845,331)" d="m0 0h2l-2 5-4 6-5 3 2-4z" fill="#111110"/>
<path transform="translate(460,319)" d="m0 0 5 1 2 4-7-1-5 2-3-1h2l1-3z" fill="#C9C9C9"/>
<path transform="translate(406,268)" d="m0 0 2 1-3 3-10 5h-2l1-3z" fill="#151514"/>
<path transform="translate(313,261)" d="m0 0 6 1-3 2-14 4-4-1 10-3h3v-2z" fill="#B9B9B9"/>
<path transform="translate(936,232)" d="m0 0 2 3-3 7-2 2-3-1h2l-1-2-4-2 7-1z" fill="#1E1E1D"/>
<path transform="translate(605,140)" d="m0 0v3l-12 12-2-1 12-12z" fill="#151514"/>
<path transform="translate(798,104)" d="m0 0 7 1 2-1 2 2-1 4-12-4z" fill="#CACACA"/>
<path transform="translate(87,102)" d="m0 0 3 1-3 2-8 4-4 4h-2v-2l10-8z" fill="#1A1A19"/>
<path transform="translate(597,99)" d="m0 0 2 1-5 4-5 2-5-1 3-2z" fill="#404040"/>
<path transform="translate(694,481)" d="m0 0h8l2 2-4 3-5-2z" fill="#A0A0A0"/>
<path transform="translate(830,348)" d="m0 0 1 2-7 8-5 4-2-1z" fill="#EBEBEB"/>
<path transform="translate(479,330)" d="m0 0h15l-2 1-1 5-2-4h-7z" fill="#111110"/>
<path transform="translate(1069,308)" d="m0 0 2 1-2 5-9 4h-5l3-2 9-4z" fill="#5D5D5D"/>
<path transform="translate(450,226)" d="m0 0h5v2h5l-3 3-15-1v-1l8-2z" fill="#30302F"/>
<path transform="translate(885,202)" d="m0 0 8 4 5 1v2h-8l-5-5z" fill="#545453"/>
<path transform="translate(1107,189)" d="m0 0h9l11 1-3 2h-11v-2h-6z" fill="#191918"/>
<path transform="translate(1074,186)" d="m0 0h10l11 1-4 2h-10v-2h-7z" fill="#1A1A19"/>
<path transform="translate(474,175)" d="m0 0h3l-2 9-3 1-2-7-2-2z" fill="#191918"/>
<path transform="translate(518,319)" d="m0 0 7 6-1 3 4 2-5-1-4-3-2-5z" fill="#1E1E1D"/>
<path transform="translate(328,223)" d="m0 0h7v2l-9 2h-5l2-3z" fill="#0B0B0A"/>
<path transform="translate(529,211)" d="m0 0 1 2-2 3-2 2-2 4h-2l-2-4 6-4z" fill="#262625"/>
<path transform="translate(912,212)" d="m0 0 5 2 10 6 1 3-5-2-10-7z" fill="#1B1B1A"/>
<path transform="translate(508,202)" d="m0 0 4 2-5 5-2-1 1-2h-7v-1z" fill="#272726"/>
<path transform="translate(580,202)" d="m0 0 2 1-9 10-5 3 2-4z" fill="#161615"/>
<path transform="translate(589,195)" d="m0 0h2l-2 4-9 8-2-1 8-9z" fill="#0D0D0C"/>
<path transform="translate(753,163)" d="m0 0 10 2 5 2v2l-9-2-7-2z" fill="#C0C0C0"/>
<path transform="translate(1303,100)" d="m0 0m-13 1h13l-1 2-13 1z" fill="#EDEDED"/>
<path transform="translate(751,90)" d="m0 0 8 1 4 2v2l-15-3z" fill="#D6D6D6"/>
<path transform="translate(480,305)" d="m0 0h3v2l-4 3-7 6-2 4v-5z" fill="#D1D1D1"/>
<path transform="translate(335,257)" d="m0 0 4 1-1 2-7 2-5-1 3-2z" fill="#131312"/>
<path transform="translate(515,252)" d="m0 0v3l-5 7h-5l1-2 3-2v-3l4-1z" fill="#2D2D2C"/>
<path transform="translate(1275,191)" d="m0 0h1v5l-6 5h-3v-2l4-2 3-5z" fill="#2D2D2C"/>
<path transform="translate(828,417)" d="m0 0h5l-5 4-5 3h-3v-2z" fill="#171716"/>
<path transform="translate(677,401)" d="m0 0h8l5 1v2h-10l-3-1z" fill="#E4E4E4"/>
<path transform="translate(855,329)" d="m0 0 1 3 12-1v2l-5 1h-9z" fill="#030302"/>
<path transform="translate(921,327)" d="m0 0h6l1 3-3 8-2 1 2-9-4-1z" fill="#10100F"/>
<path transform="translate(554,230)" d="m0 0v3l-5 10-3 1 2-6 4-7z" fill="#E2E2E2"/>
<path transform="translate(178,233)" d="m0 0 8 2v2l6 1v1l-9-1-6-3z" fill="#bbb"/>
<path transform="translate(1283,163)" d="m0 0h9l-1 2-12 1-4-2z" fill="#121211"/>
<path transform="translate(770,117)" d="m0 0 6 1 5 3v2l-9-2z" fill="#414140"/>
<path transform="translate(583,456)" d="m0 0 13 5-1 2-9-3-5-2z" fill="#474746"/>
<path transform="translate(816,443)" d="m0 0h3v2l-4 2-3 3h-3l1-4z" fill="#161615"/>
<path transform="translate(860,424)" d="m0 0h2l-2 4-7 5-3-1z" fill="#282827"/>
<path transform="translate(881,405)" d="m0 0h2l-2 4-7 7-2-2z" fill="#1C1C1B"/>
<path transform="translate(450,319)" d="m0 0 3 1 1 2-6 2h-4l-1-3z" fill="#1B1B1A"/>
<path transform="translate(359,308)" d="m0 0 10 4 9 1v1h-11l-8-4z" fill="#B9B9B9"/>
<path transform="translate(869,304)" d="m0 0 6 1 2 2 1 6-7-6z" fill="#B9B9B9"/>
<path transform="translate(360,297)" d="m0 0m-3 1h3v2h-2v8l-2 2-2-5-3-2 4-1z" fill="#3A3A39"/>
<path transform="translate(273,278)" d="m0 0h13l1 4-14-2z" fill="#4F4F4E"/>
<path transform="translate(852,249)" d="m0 0h2l3 9v8h-1l-4-14z" fill="#DFDFDF"/>
<path transform="translate(1265,200)" d="m0 0 3 1-2 2-12 3 1-3z" fill="#5B5B5B"/>
<path transform="translate(603,183)" d="m0 0h3v2l-11 6 1-4z" fill="#D6D6D6"/>
<path transform="translate(651,164)" d="m0 0h8l-2 2-8 2h-5l3-3z" fill="#ddd"/>
<path transform="translate(392,135)" d="m0 0h1l-1 9-1 1-7-1 1-2 5 1 1-6z" fill="#1B1B1A"/>
<path transform="translate(87,133)" d="m0 0 7 1 4 4-7-1-4-2z" fill="#2A2A29"/>
<path transform="translate(1321,119)" d="m0 0h5l-4 3-9 4-3-1 6-3 2-2z" fill="#bbb"/>
<path transform="translate(753,114)" d="m0 0 13 3-3 2-11-2z" fill="#2D2D2C"/>
<path transform="translate(603,468)" d="m0 0 8 2v3l-6 1z" fill="#C6C6C6"/>
<path transform="translate(717,403)" d="m0 0h10l4 2-7 1h-9z" fill="#252524"/>
<path transform="translate(778,384)" d="m0 0h3l-1 3-6 3h-2l-1-3z" fill="#DCDCDC"/>
<path transform="translate(401,316)" d="m0 0 7 1v1l-10 2h-8l4-2z" fill="#585857"/>
<path transform="translate(254,238)" d="m0 0 4 1 2 2-10 1v-2l-3-1z" fill="#1D1D1C"/>
<path transform="translate(322,194)" d="m0 0h6l-2 1v2h-10l-3-2z" fill="#141413"/>
<path transform="translate(900,187)" d="m0 0 14 3v2h-9z" fill="#4C4C4B"/>
<path transform="translate(125,178)" d="m0 0 5 1 4 1h5l-4 1-1 3-5-2-4-2z" fill="#3E3E3E"/>
<path transform="translate(113,167)" d="m0 0 9 1 6 1-3 2-8-1-4-1z" fill="#121211"/>
<path transform="translate(806,429)" d="m0 0h3v3l-6 3h-2l-1-3z" fill="#1C1C1B"/>
<path transform="translate(475,355)" d="m0 0 3 4 1 6-2 1-3-6z" fill="#2E2E2D"/>
<path transform="translate(551,329)" d="m0 0 4 5 3 6-3 1-4-8z" fill="#1B1B1A"/>
<path transform="translate(396,241)" d="m0 0h2l-1 4-9 1-3-1 8-3z" fill="#2E2E2D"/>
<path transform="translate(487,206)" d="m0 0 2 1-2 6h-3v-2l-5 2v-2z" fill="#191918"/>
<path transform="translate(330,193)" d="m0 0h8l-1 3h-11z" fill="#0E0E0D"/>
<path transform="translate(1056,186)" d="m0 0 7 1v2h-11l-2-2z" fill="#212120"/>
<path transform="translate(665,161)" d="m0 0h5l-1 3-10 1-3-2z" fill="#CFCFCF"/>
<path transform="translate(87,127)" d="m0 0 8 1 4 2-7 1-5-1z" fill="#141413"/>
<path transform="translate(1325,122)" d="m0 0 1 2 2 1-10 6-2-2 8-5z" fill="#535352"/>
<path transform="translate(76,104)" d="m0 0 2 4-5 4-4 1 6-8z" fill="#989898"/>
<path transform="translate(733,84)" d="m0 0 16 2v1h-6l-2-1v2l-8-1z" fill="#5A5A59"/>
<path transform="translate(602,470)" d="m0 0h2l1 3 8-1 1 2-9 3-3-5z" fill="#515151"/>
<path transform="translate(757,395)" d="m0 0h4v2l-11 3-3-1 6-3z" fill="#10100F"/>
<path transform="translate(754,393)" d="m0 0 3 1v2l-7 2-4-1 1-2z" fill="#D7D7D7"/>
<path transform="translate(899,366)" d="m0 0h2l-2 5-4 6h-2l2-5z" fill="#151514"/>
<path transform="translate(839,342)" d="m0 0 1 3-4 4h-2l-4 3 2-4z" fill="#181817"/>
<path transform="translate(519,247)" d="m0 0 1 3-3 6-3 1 2-7z" fill="#0D0D0C"/>
<path transform="translate(838,227)" d="m0 0 4 5 3 5v2l-4-2-3-6z" fill="#151514"/>
<path transform="translate(1140,225)" d="m0 0h10l3 3-13-1z" fill="#0B0B0A"/>
<path transform="translate(950,220)" d="m0 0h4v2l-7 2h-8v-1z" fill="#0E0E0D"/>
<path transform="translate(956,203)" d="m0 0 4 1 3 2-1 9-2-1v-7z" fill="#1D1D1C"/>
<path transform="translate(994,170)" d="m0 0 1 3 4 2v3h-6l-1-2z" fill="#B9B9B9"/>
<path transform="translate(727,105)" d="m0 0h6l2 2-1 1-14-1v-1z" fill="#272726"/>
<path transform="translate(794,101)" d="m0 0h6l6 4-3 1-9-4z" fill="#2D2D2C"/>
<path transform="translate(673,403)" d="m0 0h7l3 1v2h-9z" fill="#1C1C1B"/>
<path transform="translate(714,401)" d="m0 0h8l-2 2-3 1h-10v-1z" fill="#E0E0E0"/>
<path transform="translate(612,381)" d="m0 0 10 4-1 3-6-2z" fill="#D4D4D4"/>
<path transform="translate(1010,319)" d="m0 0h2l-2 5-5 1h-5l4-2z" fill="#4F4F4E"/>
<path transform="translate(1071,293)" d="m0 0h2v12l-3-2z" fill="#242423"/>
<path transform="translate(1077,293)" d="m0 0h8l5 1v1l-15 1z" fill="#191918"/>
<path transform="translate(1230,234)" d="m0 0 1 3-6 2h-9v-1l12-3z" fill="#4F4F4E"/>
<path transform="translate(1104,219)" d="m0 0h10v2l2 1-12-1z" fill="#0D0D0C"/>
<path transform="translate(487,188)" d="m0 0h9l-3 3-4 1v-2h-7v-1z" fill="#222221"/>
<path transform="translate(1318,101)" d="m0 0 4 2 6 8-3 2-2-5z" fill="#515150"/>
<path transform="translate(739,88)" d="m0 0 10 1 2 2h-8l-7-1z" fill="#ddd"/>
</svg>
