<?xml version="1.0" encoding="UTF-8"?>
<svg version="1.1" viewBox="0 0 800 800" width="1280" height="1280" xmlns="http://www.w3.org/2000/svg">
<path transform="translate(374,1)" d="m0 0h52l30 3 28 5 28 7 30 10 26 11 24 12 22 13 16 11 19 14 14 12 12 11 22 22 9 11 8 9 14 19 13 20 12 21 12 24 11 27 9 28 7 29 5 31 2 21 1 30-1 27-3 28-5 28-6 24-12 36-10 23-8 16-9 17-13 21-13 18-8 10-9 11-12 13-11 12h-2v2l-8 7-12 11-10 8-16 12-18 12-15 9-26 14-28 12-19 7-32 9-24 5-29 4-31 2h-20l-31-2-29-4-28-6-24-7-28-10-29-13-22-12-21-13-18-13-10-8-11-9-13-12-11-10-7-8-7-7-9-11-13-16-15-22-8-13-10-18-8-16-9-20-10-28-7-25-5-22-5-35-1-12v-56l3-28 5-28 7-28 10-30 11-26 12-24 10-17 14-21 12-16 9-11 12-14 26-26 11-9 13-11 18-13 22-14 22-12 25-12 29-11 31-9 29-6 20-3z" fill="#2F2F2F"/>
<path transform="translate(480,30)" d="m0 0 10 1 25 7 26 9 27 12 26 14 27 18 12 9 11 9 10 9 8 7 20 20 9 11 10 12 13 18 11 17 14 25 12 26 9 24 7 23 6 26 4 24 2 20 1 20v19l-2 30-4 28-6 28-9 29-10 26-14 29-11 19-14 21-13 17-11 13-11 12-21 21-11 9-12 10-18 13-19 12-22 12-23 11-27 10-26 8-27 6-28 4-28 2h-26l-28-2-28-4-27-6-29-9-26-10-29-14-27-16-17-12-13-10-13-11-13-12-20-20-9-11-10-12-13-18-13-21-12-22-11-24-10-28-2-8 1-1 37-5 34-7 29-8 18-6h4l4 11 5 13 12 22 14 21 11 14 12 13 13 13 11 9 12 9 17 11 23 12 19 8 19 6 21 5 26 3h44l33-5 27-8 25-10 23-12 12-8 11-8 10-8 12-11 15-15 11-14 10-14 8-13 12-23 9-24 4-12 5-22 2-13 1-12v-40l-4-33-5-18-5-16-8-20-12-23-14-21-11-14-14-15-11-11-14-11-15-11-15-9-16-8-7-4-14-5-7-3-17-5-1-4 6-26 5-28 3-25 1-13 1-26z"/>
<path transform="translate(375,21)" d="m0 0h21v18l-2 30-2 16 7 18 2-2 12-32 13-34h31v100h-20l-1-67-22 59-3 8h-23l-13-35-4-9 6 18 2 5-1 7-6 21-3 5-39 9-24 8-26 12-17 10-17 12-11 9-12 11-13 13-9 11-11 15-13 21-11 23-8 22-6 23-4 23-1 10v16l5-3h2v-12l3-23h1v6h5l-1 17-1 16h200l-4 7 39 1v235h-16l-23-3-22-5-23-8-24-11-17-10-17-12-14-12-13-12-7-8-10-12-12-17-12-21-9-20-1-5-7 1 7 17 8 15 3 6 7 12 8 11 10 13 11 12 15 15 14 11 17 12 22 12 22 10 22 7 21 5 27 3h35l20-2 26-6 16-5 18-7 21-10 15-9 18-13 14-12 6-6h2l2-4 9-9 11-14 10-14 12-21 9-19 9-25 7-32 2-24v-26l-2-22-3-16-5-21-8-22-12-25-12-19-1-5 4-3h3l12 19 12 23 10 26 5 19 2 7 4 33v40l-2 17-3 18-6 21-8 22-12 25-12 19-8 11-8 10-11 12-16 16-14 11-14 10-13 8-23 12-24 9-24 7-33 5h-44l-26-3-28-7-22-8-27-13-19-12-11-8-11-9-12-11-14-14-9-11-11-15-11-18-7-12-6-14-5-13-8-27-4-21-2-17-1-21-1-2-4 3-33 11-28 7-29 5-17 2h-11l-1-3v-52l3-27 4-23 6-24 12-36 9-20 8-17 12-21 16-24 13-17 12-14 11-12 16-16 8-7 13-11 18-13 18-12 21-12 19-10 27-11 17-6 21-6 27-6 30-4z" fill="#6D6E6F"/>
<path transform="translate(379,161)" d="m0 0h17v235h-235v-16l2-17h-5v-11l7-27 8-21 10-21 11-18 10-14 9-11 11-12 12-12 11-9 18-13 20-12 21-10 16-6 8-2h5l1 4 11-2 23-4z" fill="#4AA4D1"/>
<path transform="translate(404,404)" d="m0 0h235v18l-4 27-6 23-8 22-8 16-8 15-11 16-11 14-12 13-11 11-11 9-15 11-18 11-16 8-19 8-23 7-26 5-27 2-1-1z" fill="#3081AA"/>
<path transform="translate(404,161)" d="m0 0h11l25 3 23 5 27 9 25 12 20 12 13 10 13 11 20 20 11 14 11 16 12 21 9 21 8 24 5 25 2 17v15h-235z" fill="#F8F8F8"/>
<path transform="translate(161,404)" d="m0 0h152l23 1 1 4h54v118l-1 29-27 10-22 7-24 6-30 5-29 3-11-9-10-9-14-14-5-6-5 1-13-18-9-15-8-16-7-16-7-21-6-29-2-16z" fill="#F8F8F8"/>
<path transform="translate(606,254)" d="m0 0h3l12 19 12 23 10 26 5 19 2 7 4 33v40l-2 17-3 18-6 21-8 22-12 25-12 19-8 11-8 10-11 12-16 16-14 11-14 10-13 8-23 12-24 9-24 7-33 5h-44l-26-3-28-7-22-8-27-13-19-12-11-8-11-9-12-11-14-14-9-11-11-15-11-18-7-12-6-14-5-13-8-27-4-21-2-17-1-21-1-2-4 3-33 11-28 7-29 5-17 2h-11l-1-3v-52l2-20 21-2 26-5 25-7 25-9 26-12 12-7h4l-3 11-6 21-5 28-1 10v16l5-3h2v-12l3-23h1v6h5l-1 17-1 16h200l-4 7 39 1v235h-16l-23-3-22-5-23-8-24-11-17-10-17-12-14-12-13-12-7-8-6-8 4-2 15 16 11 11 14 11 36-4 27-5 27-7 29-10 10-4h3v-29l1-118h-54l-1-4-175-1 2 25 6 31 5 17 2 6-7 1 7 17 8 15 3 6 7 12 8 11 10 13 11 12 15 15 14 11 17 12 22 12 22 10 22 7 21 5 27 3h35l20-2 26-6 16-5 18-7 21-10 15-9 18-13 14-12 6-6h2l2-4 9-9 11-14 10-14 12-21 9-19 9-25 7-32 2-24v-26l-2-22-3-16-5-21-8-22-12-25-12-19-1-5z" fill="#3F4446"/>
<path transform="translate(374,1)" d="m0 0h52l30 3 28 5 28 7 30 10 26 11 24 12 22 13 16 11 19 14 14 12 12 11 17 17-6 7-5 4-4-1-20-20-11-9-12-10-18-13-17-11-25-14-28-13-28-10-13-4-19-5-26-5-24-3-13-1h-51l-40 5-31 7-29 9-25 10-29 14-17 10-24 16-17 13-14 12-13 12-15 15-7 8-13 16-13 18-11 17-12 21-13 27-10 26-8 26-7 31-4 29-1 16v46l2 25 5 30 6 25 11 33 11 26 11 22 15 25 12 17 10 13 12 14 9 10 21 21 4 3-1 5-7 8-2 2-12-11-11-10-7-8-7-7-9-11-13-16-15-22-8-13-10-18-8-16-9-20-10-28-7-25-5-22-5-35-1-12v-56l3-28 5-28 7-28 10-30 11-26 12-24 10-17 14-21 12-16 9-11 12-14 26-26 11-9 13-11 18-13 22-14 22-12 25-12 29-11 31-9 29-6 20-3z" fill="#BED1DB"/>
<path transform="translate(691,128)" d="m0 0 4 2 9 10 9 11 15 20 13 20 12 21 12 24 11 27 9 28 7 29 5 31 2 21 1 30-1 27-3 28-5 28-6 24-12 36-10 23-8 16-9 17-13 21-13 18-8 10-9 11-12 13-11 12h-2v2l-8 7-12 11-10 8-16 12-18 12-15 9-26 14-28 12-19 7-32 9-24 5-29 4-31 2h-20l-31-2-29-4-28-6-24-7-28-10-29-13-22-12-21-13-18-13-10-8-11-9 1-4 7-9 2-2 14 12 19 14 22 14 22 12 27 13 16 6 16 5 17 5 1 1 11 2 12 3 34 5 11 1h53l30-3 28-5 24-6 30-10 24-10 24-12 17-10 18-12 19-14 14-12 12-11 20-20 9-11 10-12 13-18 12-19 12-22 12-25 11-30 7-24 6-29 3-20 2-23v-45l-2-26-5-31-4-15-5-19-8-23-11-26-10-20-10-17-10-16-14-19-11-13-7-8-5-7 6-4z" fill="#4B4B4C"/>
<path transform="translate(379,161)" d="m0 0h17l-1 47h-3l-1-42-10 1-13 22-12 17-10 13-12 14-15 16-12 11-13 11-16 12-15 10-21 12-16 8-20 9-30 10-3 8-5 25-3 27h49v3l-53 1v-16l2-17h-5v-11l7-27 8-21 10-21 11-18 10-14 9-11 11-12 12-12 11-9 18-13 20-12 21-10 16-6 8-2h5l1 4 11-2 23-4z" fill="#6BB5D9"/>
<path transform="translate(404,161)" d="m0 0h11v1h-5l1 4h-2v2l-3-1-1 20 4-1v204l113-1 6-11 10-18 9-19 10-26 8-28 5-25 3-20-17-17-10-8-18-13-17-10-23-11-27-9-22-5-12-2v-4h8l24 5 20 6 20 8 20 10 17 11 12 9 13 11 20 20 11 14 11 16 12 21 9 21 8 24 5 25 2 17v15h-235z" fill="#D5D5D7"/>
<path transform="translate(465,163)" d="m0 0 5 1 23 8 9 4 17 8 9 6 9 5 12 9 11 9 10 9 15 15 11 14 10 14 12 20 10 21 8 22 6 25 3 19 1 15v26l-2 24-7 32-10 27-11 23-11 18-12 16-11 13-20 20-14 11-17 12-22 12-18 8-23 8-20 5-19 3-11 1h-35l-27-3-28-7-17-6-20-9-19-10-20-14-11-9-10-9-17-17-11-14-7-10-8-12-16-32-3-10 7-1 11 25 10 18 12 17 8 10 18 20 8 7 15 12 18 12 18 10 23 10 22 7 24 5 17 2 16 1v-235h-40l4-7 1-1h35v-39l7-6h1v45h235l-2-25-3-19-6-23-9-24-8-17-12-20-12-16-11-13-19-19-14-11-13-9-15-9-25-12-25-9-1-5zm-61 241v235l4 1 24-2 26-5 26-8 25-11 19-11 17-12 11-9 12-11 11-11 9-11 11-15 11-18 8-16 8-19 7-23 4-20 2-16v-18z" fill="#020202"/>
<path transform="translate(158,126)" d="m0 0h9l8 4 6 5 6 9 1 3v10l-1 2 9-4h9l9 4 8 7 4 6 1 4v10l-4 10-8 10-11 13-9 11-12 14-9 11-8 9-8-6-14-12-11-9-14-12-11-9-13-11-6-5 6-8 22-26 9-11 18-21 11-7z" fill="#F7F7F7"/>
<path transform="translate(257,48)" d="m0 0 5 1-2 20-5 24-6 20-8 21-9 19-6 10-5 3-8-7-8-3h-9l-9 3v-12l-5-9-5-5-7-5-3-1h-9l-10 5-7 6-9 11-13 15-9 11-12 14-8 10 5 5 10 9 11 9 7 6-1 3-18 10-17 8-30 10-9 1 1-5 5-12 9-19 12-21 16-24 13-17 12-14 11-12 16-16 8-7 13-11 18-13 18-12 21-12 19-10z" fill="#A1A2A2"/>
<path transform="translate(313,404)" d="m0 0h83v235h-16l-23-3-22-5-23-8-24-11-17-10-17-12-14-12-13-12-7-8-6-8 4-2 15 16 11 11 14 11 36-4 27-5 27-7 29-10 10-4h3v-29l1-118h-54l-1-4h-23z" fill="#BABBBC"/>
<path transform="translate(342,35)" d="m0 0h31l14 37 12 31 2-2 12-32 13-34h31v100h-20l-1-67-22 59-3 8h-23l-13-35-12-32-1 67h-20z" fill="#F7F7F8"/>
<path transform="translate(162,425)" d="m0 0 1 3h4l4 21 6 23 10 25 12 23 10 15 6 8h45l28-3 31-6 24-7 22-8 20-9 5-1v-50h1v68l-1 29-27 10-22 7-24 6-30 5-29 3-11-9-10-9-14-14-5-6-5 1-13-18-9-15-8-16-7-16-7-21-6-29z" fill="#D5D5D7"/>
<path transform="translate(635,118)" d="m0 0 4 2 11 13-1 5-14 18-10 14-8 11 21-9 29-13 5 1 13 15-1 5-12 18-13 19-6 9 50-25 4 1 13 15v2l-23 11-19 10-23 11-18 9h-3l-9-11-6-8 1-4 10-16 19-28 1-2-52 22-4-1-9-11-6-7 2-5 9-11 14-19 16-21z" fill="#F6F6F6"/>
<path transform="translate(628,404)" d="m0 0h11v18l-4 27-6 23-8 22-8 16-8 15-11 16-11 14-12 13-11 11-11 9-15 11-18 11-16 8-19 8-23 7-26 5-27 2-1-5 5-1 9-1 5-3 24-14 21-13 25-17 19-14 14-11 11-9 14-12 12-11 8-7 34-34 7-8 9-10 4-1 2-10 5-26 3-24h-9z" fill="#2C607A"/>
<path transform="translate(606,254)" d="m0 0h3l12 19 12 23 10 26 5 19 2 7 4 33v40l-2 17-3 18-6 21-8 22-12 25-12 19-8 11-8 10-11 12-16 16-14 11-14 10-13 8-23 12-24 9-24 7-33 5h-44l-26-3-28-7-22-8-27-13-19-12-11-8-11-9-12-11-14-14-5-6 1-4 3-3 4 2 11 12 15 15 14 11 17 12 22 12 22 10 22 7 21 5 27 3h35l20-2 26-6 16-5 18-7 21-10 15-9 18-13 14-12 6-6h2l2-4 9-9 11-14 10-14 12-21 9-19 9-25 7-32 2-24v-26l-2-22-3-16-5-21-8-22-12-25-12-19-1-5z" fill="#B9CBD5"/>
<path transform="translate(375,21)" d="m0 0h21v18l-2 30-2 12-2 1-14-36-3-8v-3h-31v100h20v-69l2 2 7 20 2 10 6 16-1 7-6 21-3 5-39 9-24 8-16 7-1-3 10-23 10-30 6-26 4-26 1-10 1-24 6-2 26-4z" fill="#5B5B5C"/>
<path transform="translate(123,229)" d="m0 0 4 2 14 12 13 11 10 8-5 4-14 9-18 10-19 9-25 9-21 6-27 5-4-1 2-12 8-26 6-16 10-1 30-10 25-12z" fill="#757576"/>
<path transform="translate(158,309)" d="m0 0h4l-3 11-6 21-4 18-12 5-20 8-26 8-26 6-25 4-9 1h-10v-20l2-20 21-2 26-5 25-7 25-9 26-12z" fill="#5A5A5B"/>
<path transform="translate(691,128)" d="m0 0 4 2 9 10 9 11 15 20 13 20 12 21 12 24 11 27 9 28 7 29 5 31 1 9v11l-12 11h-4l-1-4-2-26-5-31-4-15-5-19-8-23-11-26-10-20-10-17-10-16-14-19-11-13-7-8-5-7 6-4z" fill="#888E91"/>
<path transform="translate(257,48)" d="m0 0 5 1-2 20-5 24-6 20-8 21-9 19-6 10-5 3-8-7-8-3h-9l-9 3v-12l-5-9-1-3h2l3 4v2h3l2-5 8-15 10-26 5-19v-7l22-12z" fill="#818181"/>
<path transform="translate(148,688)" d="m0 0 8 6 15 12 17 12 18 11 18 10 29 14 16 6 16 5 17 5 1 1 11 2 12 3 34 5 30 2 6 1-2 5-8 8-2 3h-15l-33-4-30-6-25-7-26-9-23-10-16-8-17-9-21-13-18-13-10-8-11-9 1-4 7-9z" fill="#888E91"/>
<path transform="translate(609,287)" d="m0 0 3 1 11 24 9 27 5 25 2 17v15l-190-1v-4l121-1 10-19 12-28 10-30 5-18 1-7z" fill="#C5C5C6"/>
<path transform="translate(392,146)" d="m0 0h27l24 3 28 6 16 5 11 5 8 3 19 10 18 11 12 9 11 9 10 9 14 14 9 11 9 12-4 4h-2l-1 2-10-13-11-13-17-17-14-11-15-11-14-8-16-8-9-4-30-11v7l-25-5-25-3-11-1v190l-4 2-2 4h-2v-196l-26 2-23 4-11 2-1-5-3-1 16-4 24-4 9-1 7-6z" fill="#49494A"/>
<path transform="translate(313,404)" d="m0 0h83v235h-16l-23-3-22-5-23-8-24-11-17-10-17-12-14-12-13-12-7-8-6-8 4-2 15 16 11 11 14 11 12 9 15 9 16 8 14 6 6-1 29-7 29-9 8-3h3l1-189h-54l-1-4h-23z" fill="#A7A9AB"/>
<path transform="translate(480,30)" d="m0 0 10 1 22 6-1 2-4 48-5 33-9 42-2 1-10-4-17-5-1-4 6-26 5-28 3-25 1-13 1-26z" fill="#161616"/>
<path transform="translate(156,483)" d="m0 0h4l4 11 5 13 2 4-33 11-32 8-32 6-23 3-4 2-10-29 1-3 37-5 34-7 29-8z" fill="#161616"/>
<path transform="translate(182,265)" d="m0 0 2 1-10 18-10 22-1 3-6 2-19 10-26 11-30 10-27 6-19 3-11 1-1-1 1-14 2-9 7-2 24-4 27-7 20-7 25-11 22-12 18-12 10-7z" fill="#696969"/>
<path transform="translate(317,29)" d="m0 0h4v24l-4 31-6 27-8 26-11 27-4 8-22 12-16 11-2 1 1-6 8-13 12-23 8-19 9-27 6-27 3-20 2-25-3-1z" fill="#696969"/>
<path transform="translate(31,510)" d="m0 0h3l11 31 11 25 13 25 13 21 13 18 8 10 11 13 9 10 21 21 4 3-1 5-7 8-2 2-12-11-11-10-7-8-7-7-9-11-13-16-15-22-8-13-10-18-8-16-9-20-9-25 1-4z" fill="#A2B0B9"/>
<path transform="translate(509,16)" d="m0 0 9 2 24 8 26 11 24 12 22 13 16 11 19 14 14 12 12 11 17 17-6 7-5 4-4-1-20-20-11-9-12-10-18-13-17-11-25-14-28-13-28-10-13-4-8-3 3-5z" fill="#A2B0B9"/>
<path transform="translate(379,161)" d="m0 0h17l-1 47h-3l-1-42-17 1-24 4-23 6-25 10-23 12-15 10-13 10-12 11-8 7-7 8-11 13-14 21-11 20-10 25-6 20-4 21-3 27h49v3l-53 1v-16l2-17h-5v-11l7-27 8-21 10-21 11-18 10-14 9-11 11-12 12-12 11-9 18-13 20-12 21-10 16-6 8-2h5l1 4 11-2 23-4z" fill="#BCD0DA"/>
<path transform="translate(148,359)" d="m0 0 1 3-3 25-5 6-22 8-28 8-28 6-30 4h-12v-28l33-4 29-6 25-7 25-9 11-5z" fill="#484849"/>
<path transform="translate(623,469)" d="m0 0 1 3-8 22-7 14-11 9-20 20-8 7-12 11-11 9-17 14-16 12-18 13-26 17-8 7-16 4-20 3h-8l5-4 24-14 21-13 25-17 19-14 14-11 11-9 14-12 12-11 8-7 34-34 7-8 9-10z" fill="#2D6988"/>
<path transform="translate(282,39)" d="m0 0h2v14l-3 23-6 27-11 33-11 24-12 21-8 12-5 2 2-7v-10l-5-10-2-3 4-5 10-19 10-25 6-19 5-22 3-22v-4l-2-2 19-7z" fill="#747475"/>
<path transform="translate(405,405)" d="m0 0h105v4h7v1h-48l-2 5-7 7-8 7-14 12-17 13-9 6h-2v32l-1 63-4 1z" fill="#389BCC"/>
<path transform="translate(123,229)" d="m0 0 4 2 14 12 5 5-10 7-18 10-21 10-33 11-18 4h-9l2-9 8-22 10-1 30-10 25-12z" fill="#828282"/>
<path transform="translate(86,200)" d="m0 0 5 1 14 12 11 9 7 6-1 3-18 10-17 8-30 10-9 1 1-5 5-12 9-19 12-21 7-1z" fill="#929393"/>
<path transform="translate(766,244)" d="m0 0 4 4 9 24 7 23 7 30 4 26 1 9v11l-12 11h-4l-1-4-2-26-5-31-4-15-5-19-8-23-4-11 5-2z" fill="#707578"/>
<path transform="translate(265,758)" d="m0 0 11 3 9 3 17 5 1 1 11 2 12 3 34 5 30 2 6 1-2 5-8 8-2 3h-15l-33-4-30-6-25-7-23-8-1-3 4-6 3-4z" fill="#707578"/>
<path transform="translate(519,763)" d="m0 0h4l-2 6-11 11-1 5-28 7-31 5-19 2-21 1h-20l-6-1 3-5 7-7 2-4h-6v-1l34-1 30-3 28-5 24-6z" fill="#595D5F"/>
<path transform="translate(797,371)" d="m0 0 2 1 1 30-1 27-3 28-5 28-3 13-1-3-6 4-7 8-5 4h-2l1-9 7-30 4-26 2-23 1-41 5-2 7-7z" fill="#585C5E"/>
<path transform="translate(387,556)" d="m0 0h3v18l-24 9-26 8-32 7-25 4-5-1-15-10-4-4 1-1 34-4 27-5 27-7 29-10z" fill="#C5C5C6"/>
<path transform="translate(148,341)" d="m0 0h4l-1 10-3 9-13 5-24 9-24 7-27 6-29 4h-10v-20l1 4 33-4 28-6 29-9 21-8z" fill="#525353"/>
<path transform="translate(388,336)" d="m0 0h3l1 26v29l-1 1h-27l-45-1 2-4 18-12 19-14 11-9 13-11z" fill="#3599CB"/>
<path transform="translate(17,387)" d="m0 0h1l1 36 2 25 5 30 6 25 1 7-12 12h-2l-7-25-5-22-5-35-1-12v-20l7-6 5-6 4-1z" fill="#B0BFC8"/>
<path transform="translate(394,1)" d="m0 0h32l30 3 28 5 24 6v3l-9 9-2 3-26-5-24-4-24-2-42-1 2-5 9-9z" fill="#B0BFC8"/>
<path transform="translate(785,495)" d="m0 0h2v7l-9 29-9 24-13 28-5 9-4 1-8 7-13 13-7 8-6 5h-2v2l-4 1 2-4 14-21 10-17 12-23 8-18 9-24 4-13 1 2 8-6 8-9z" fill="#4C4F52"/>
<path transform="translate(157,357)" d="m0 0h1v6h5l-1 17-1 16h200l-4 7-1 1h-195v9l-1 1h-5l-1-3v-31z" fill="#49494A"/>
<path transform="translate(330,164)" d="m0 0h5l2 6-17 5-20 8-23 12-15 10-13 10-14 12-13 13-11 14-11 15-12 21-9 19-7 19-6 23-2 12h-6v-11l7-27 8-21 10-21 11-18 10-14 9-11 11-12 12-12 11-9 18-13 20-12 21-10 16-6z" fill="#A5A8AA"/>
<path transform="translate(313,404)" d="m0 0h83v235h-16l-23-3-22-5-15-5 2-4 10 2 5 2 31 6 23 2v-225h-54l-1-4h-23z" fill="#9DA1A4"/>
<path transform="translate(628,404)" d="m0 0h11v18l-4 27-6 23-8 22-8 16-8 15-11 16-11 14-12 13-11 11-11 9-15 11-18 11-16 8-19 8-23 7-26 5-27 2-1-5 5-1 17-1 25-4 24-7 21-8 23-12 14-9 17-13 12-11 15-15 11-14 14-21 13-25 9-25 5-19 4-24 2-17h-9z" fill="#253B42"/>
<path transform="translate(167,291)" d="m0 0 3 1-7 17-6 2-19 10-26 11-30 10-27 6-19 3-11 1-1-1 1-14 1 3 27-4 23-5 23-7 25-10 28-14z" fill="#626363"/>
<path transform="translate(208,556)" d="m0 0 4 2 11 12 15 15 14 11 17 12 22 12 22 10 22 7 21 5 27 3-5 8h-11l-19-3-26-7-19-7-27-13-19-12-11-8-11-9-12-11-14-14-5-6 1-4z" fill="#9CAAB2"/>
<path transform="translate(317,29)" d="m0 0h4v24l-4 31-6 27-8 26-11 27-4 8-16 8 3-9 10-21 9-25 6-20 6-29 3-25 1-20z" fill="#626363"/>
<path transform="translate(212,70)" d="m0 0h3l-1 10-6 21-10 24-7 13-2 3h-3l-3-4v-2l-5-1-8-6-5-2 3-7 8-17 2-10 14-10z" fill="#929393"/>
<path transform="translate(404,161)" d="m0 0h11v1h-5l1 4h-2v2l-3-1-1 20 4-1v204h161v1h-121v4h186v1h-231z" fill="#BBBCBE"/>
<path transform="translate(89,623)" d="m0 0 4 4 9 12 12 14 9 10 21 21 4 3-1 5-7 8-2 2-12-11-11-10-7-8-7-7-9-11-13-16-1-4 10-10z" fill="#94A0A8"/>
<path transform="translate(270,43)" d="m0 0h3v12l-4 27-7 28-8 22-11 24-10 17-4 2-6-10 4-5 10-19 10-25 6-19 5-22 3-22v-4l-2-2z" fill="#797979"/>
<path transform="translate(624,71)" d="m0 0 5 1 17 13 14 11 16 15 16 16-6 7-5 4-4-1-20-20-11-9-12-10-18-13-3-3z" fill="#94A0A8"/>
<path transform="translate(228,61)" d="m0 0h3l1 7-6 26-8 23-8 18-11 20-10 4h-2v-12l-5-9-1-3h2l3 4v2h3l2-5 8-15 10-26 5-19v-7z" fill="#8C8C8D"/>
<path transform="translate(185,177)" d="m0 0h10l6 5 2 4v7l-6 8-11 13-9 11-7 8-6-4-13-11 2-5 9-10 9-11 12-14z" fill="#818181"/>
<path transform="translate(145,248)" d="m0 0 5 2 4 4-2 4-18 11-23 12-25 10-24 7-19 4h-9l1-7 1-5 15-2 23-6 23-8 29-14 18-11z" fill="#797A7A"/>
<path transform="translate(596,728)" d="m0 0 3 1-2 5-18 18-3 5 1 2-27 12-24 9-13 4h-5l2-5 11-11 1-6 27-10 33-16z" fill="#4B4F52"/>
<path transform="translate(152,153)" d="m0 0h7l5 2 4 5 1 7-4 7-9 10-18 22-5-3-13-11 1-4 13-15 9-11 7-8z" fill="#929393"/>
<path transform="translate(341,39)" d="m0 0h1v96h20v-69l2 2 7 20 2 10 6 16-1 7-6 21-3 5-13 3-14 3h-3l2-9 2-5h-2z" fill="#474849"/>
<path transform="translate(609,287)" d="m0 0 3 1 11 24 9 27 5 25 2 17v15l-190-1v-4h185l-2-23-2-13-3-13-7-23-11-25-1-6z" fill="#595B5D"/>
<path transform="translate(375,21)" d="m0 0h21v18l-2 30-2 12-2 1-14-36-4-11-27-1v-10z" fill="#49494A"/>
<path transform="translate(395,284)" d="m0 0h1v112h-167v-1h10l1-4h151v-96l4 2z" fill="#7F8D95"/>
<path transform="translate(503,169)" d="m0 0 6 1 16 8 18 11 12 9 11 9 10 9 14 14 9 11 9 12-4 4h-2l-1 2-10-13-11-13-17-17-14-11-15-11-14-8-16-8-5-4z" fill="#7C8990"/>
<path transform="translate(207,730)" d="m0 0 15 8 31 15 12 5-1 5-5 6-2 4-9-3-25-11-24-13-2-3 7-8z" fill="#768187"/>
<path transform="translate(735,186)" d="m0 0h3l14 24 13 26 3 9-5 2-6 6-5-1-9-20-11-21-8-13 1-3 8-7z" fill="#768187"/>
<path transform="translate(110,219)" d="m0 0 4 1 9 8-1 3-18 10-17 8-30 10-9 1 1-5 5-12 2-2 9-1 21-8 22-11z" fill="#8C8C8D"/>
<path transform="translate(305,29)" d="m0 0 4 1 1 2-16 4-30 10-28 12-28 15-19 12-18 13-10 8-13 11-13 12-15 15-9 11-11 13-13 18-12 19-9 16-8 15-7 16-6 15-6 17h-3l2-9 8-21 11-24 11-21 12-19 12-17 10-13 11-13 12-13 16-16 8-7 13-11 19-14 17-11 17-10 23-12 26-11 24-8z" fill="#3A3A3A"/>
<path transform="translate(606,254)" d="m0 0h3l12 19 12 23 10 26 5 19 2 7 2 14v8l-7 3-1-1-3-19-6-25-8-22-12-25-12-19-1-5z" fill="#9FACB5"/>
<path transform="translate(703,201)" d="m0 0 4 1 13 15v2l-23 11-19 10-10 4 1-8 5-15-1-5z" fill="#D3D3D5"/>
<path transform="translate(427,163)" d="m0 0h8l24 5 20 6 20 8 20 10 17 11 12 9 13 11 20 20 11 14 11 16 7 12-2 6-3-4-9-15-12-17-13-15-15-15-10-8-18-13-17-10-23-11-27-9-22-5-12-2z" fill="#D3D3D5"/>
<path transform="translate(405,405)" d="m0 0h105v4h-101v146l-4 1z" fill="#D6D6D8"/>
<path transform="translate(160,460)" d="m0 0h2l6 21 8 20 8 15 3 6 7 12 8 11 7 9-2 4-4 4-12-16-12-19-8-14-6-14-5-13-5-16v-6z" fill="#6C7174"/>
<path transform="translate(626,338)" d="m0 0 2 4 4 18 2 16v15h-64v-1l34-1 11-25 9-23z" fill="#AFB2B4"/>
<path transform="translate(388,587)" d="m0 0h2v11l-36 12-28 7-7 2-7-1-11-5 3-3 26-5 26-7 27-9z" fill="#AFB2B4"/>
<path transform="translate(619,317)" d="m0 0 2 2 5 17-1 5-12 30-8 18-1 1h-13l1-5 11-24 9-24z" fill="#B9BABB"/>
<path transform="translate(161,404)" d="m0 0h152l23 1 1 4h-174v-4z" fill="#BCC1C5"/>
<path transform="translate(582,46)" d="m0 0 6 1 23 13 15 10-12 12-4-1-18-11-20-11 3-5z" fill="#99A8B3"/>
<path transform="translate(63,584)" d="m0 0 3 1 9 16 14 21-1 4-10 10-4-4-10-15-8-13-4-7 2-4z" fill="#99A8B3"/>
<path transform="translate(403,246)" d="m0 0h1v105l-4 2-2 4h-2v-99l3-4z" fill="#2F2F2F"/>
<path transform="translate(390,605)" d="m0 0h1v29h-16l-28-5-12-3 4-3 29-8 20-7h2z" fill="#A1A2A2"/>
<path transform="translate(391,532)" d="m0 0h4l1 74v33h-16l-23-3-22-5-15-5 2-4 10 2 5 2 31 6 23 2z" fill="#565859"/>
<path transform="translate(118,659)" d="m0 0 7 6 19 19 4 3-1 5-7 8-2 2-12-11-11-10-6-7 1-5 6-6z" fill="#93999D"/>
<path transform="translate(660,100)" d="m0 0 5 1 8 7 19 19-6 7-5 4-4-1-20-20-9-7 3-2 8-7z" fill="#93999D"/>
<path transform="translate(791,331)" d="m0 0h3l4 29v11l-12 11h-4l-1-4-2-26-1-10 5-3 6-7z" fill="#616C73"/>
<path transform="translate(355,780)" d="m0 0 35 2 6 1-2 5-8 8-2 3h-15l-24-3-1-2 7-8z" fill="#606B72"/>
<path transform="translate(637,700)" d="m0 0h2l-2 5-7 8-19 19-7 10-1 3-24 13-4-1 6-8 16-16 2-7 16-10 19-14z" fill="#4B4F52"/>
<path transform="translate(280,396)" d="m0 0h81l-4 7-1 1h-83l1-3 5-3z" fill="#2F2F2F"/>
<path transform="translate(208,556)" d="m0 0 4 2 11 12 15 15 14 11 14 10-5 7-7-4-13-10-14-12-18-18-5-6 1-4z" fill="#7C8990"/>
<path transform="translate(194,81)" d="m0 0h2l1 4-6 18-9 20-4 7h-5l-8-4 3-7 8-17 2-10 14-10z" fill="#94999D"/>
<path transform="translate(340,91)" d="m0 0h1v48h2l-3 11-1 3-16 5h-2l1-8 10-30 6-24z" fill="#525353"/>
<path transform="translate(650,370)" d="m0 0h3l1 11v40l-2 17-1 8-1-2-7 4-2 1 3-21 1-15v-40z" fill="#ADBCC5"/>
<path transform="translate(713,157)" d="m0 0 5 1 10 13 9 14-5 5-7 6h-2l-10-15-10-14 5-5z" fill="#7F8D94"/>
<path transform="translate(177,711)" d="m0 0 30 19-2 5-8 9-8-4-15-10-7-5 2-5z" fill="#7F8D94"/>
<path transform="translate(162,425)" d="m0 0 1 3h4l4 21 6 23 10 25 12 23 10 15 9 12-3 3h-2l-13-18-9-15-8-16-7-16-7-21-6-29z" fill="#D1D1D3"/>
<path transform="translate(452,640)" d="m0 0h5l-6 10-28 4h-44l-1-2 4-6 36-1 20-2z" fill="#AEBEC7"/>
<path transform="translate(147,354)" d="m0 0h3l-2 6-13 5-24 9-24 7-27 6-29 4h-10v-4l14-2 32-5 25-6 20-6 28-11z" fill="#4A4E51"/>
<path transform="translate(216,548)" d="m0 0 4 2 12 13 12 12 14 11 12 9 15 9 16 8 21 9-1 4-6-1-21-9-20-11-20-14-14-12-13-12-7-8-6-8z" fill="#92989B"/>
<path transform="translate(320,774)" d="m0 0 12 2 22 3 1 2-3 5-7 8v2l-20-3-13-3-1-3 8-10z" fill="#6D6F70"/>
<path transform="translate(784,297)" d="m0 0h2l5 18 2 10v6l-6 4-5 6-4 1-3-13-3-17-1-5 6-3 5-6z" fill="#6E6F70"/>
<path transform="translate(404,161)" d="m0 0h11v1h-5l1 4h-2v2l-3-1-1 20 4-1v106l-1-2h-3l-1-7z" fill="#D6D6D8"/>
<path transform="translate(157,357)" d="m0 0h1v6h5l-1 17-1 16h38l-4 3-19 5h-15v9l-1 1h-5l-1-3v-31z" fill="#5A5A5C"/>
<path transform="translate(395,284)" d="m0 0h1v112h-20l-4-1v-3l19-1v-96l4 2z" fill="#7F8D95"/>
<path transform="translate(181,287)" d="m0 0h7l-1 5-8 17-7 19-6 23-2 12h-6v-11l7-27 8-21z" fill="#909192"/>
<path transform="translate(17,387)" d="m0 0h1v36l-4 2-7 8-4 2v5h-1l-1-12v-20l7-6 5-6 4-1z" fill="#BAC3C9"/>
<path transform="translate(503,169)" d="m0 0 6 1 16 8 18 11 12 9-5 5h-3l-16-11-11-6-16-8-5-4z" fill="#6D7275"/>
<path transform="translate(330,164)" d="m0 0h5l2 6-17 5-20 8-23 12-6 3-1-7 15-9 21-10 16-6z" fill="#909191"/>
<path transform="translate(222,165)" d="m0 0 5 5 4 8v10l-7 14-13 15-11 13-9 11-11 13-10 12-3-2 2-4 12-14 9-11 12-14 9-11 11-14 4-10v-10l-3-8z" fill="#373737"/>
<path transform="translate(394,1)" d="m0 0h32v1h-5l-2 4-9 11-29 1 2-5 9-9z" fill="#BCC5CB"/>
<path transform="translate(405,443)" d="m0 0h4v112l-4 1z" fill="#BFD2DC"/>
<path transform="translate(395,165)" d="m0 0h1v119l-1 13-3 1-1-3v-60l1-27h3z" fill="#99A9B4"/>
<path transform="translate(748,591)" d="m0 0h2l-1 5-4 6h-3v2l-9 7-6 6-1 4-8 8-4 2-15 15-3 5-5 2-1 4-7 4-3-1 11-12 11-14 4-5 5-1v-2l8-6 15-16 11-11z" fill="#49494A"/>
<path transform="translate(456,152)" d="m0 0 15 3 16 5 11 5 8 3-5 4-3 3-25-9-21-7 2-5z" fill="#55595B"/>
<path transform="translate(630,355)" d="m0 0h1l3 21v15h-64v-1l45-1 12-29z" fill="#A6A8AA"/>
<path transform="translate(547,214)" d="m0 0 5 1 13 12 16 16 11 14 11 16 7 12-2 6-3-4-9-15-12-17-13-15-15-15-10-8z" fill="#A9ABAD"/>
<path transform="translate(678,662)" d="m0 0 1 3-7 8-9 9-4 6-18 18-7 8-17 17-6 9-5 3-3-1 9-12 23-23 3-5 1-4 13-11 12-11z" fill="#49494A"/>
<path transform="translate(160,460)" d="m0 0h2l6 21 8 20 3 5-1 2-4 2-3 3-6-14-5-13-5-16v-6z" fill="#565A5C"/>
<path transform="translate(264,607)" d="m0 0 5 1 22 12 18 8-3 5-1 3-6-2-23-11-14-9v-4z" fill="#909DA4"/>
<path transform="translate(606,254)" d="m0 0h3l12 19 11 21-1 3-6 5-10-21-12-19-1-5z" fill="#8F9CA3"/>
<path transform="translate(389,21)" d="m0 0h7v18l-2 30-2 12-2 1-4-10 1-13z" fill="#3F4446"/>
<path transform="translate(86,200)" d="m0 0 5 1 8 7-5 4-16 8-8 3h-5l2-6 8-14 7-1z" fill="#93999D"/>
<path transform="translate(390,605)" d="m0 0h1v29h-16l-21-4 4-3 31-10z" fill="#93999D"/>
<path transform="translate(391,464)" d="m0 0h4l1 42v100h-1v-74h-4z" fill="#838485"/>
<path transform="translate(449,391)" d="m0 0h90v4h-90z" fill="#949A9E"/>
<path transform="translate(756,577)" d="m0 0 1 4-6 11-4 1-8 7-13 13-7 8-6 5h-2v2l-4 1 2-4 13-19 5-2 5-4 7-8 12-12z" fill="#4B4F52"/>
<path transform="translate(408,387)" d="m0 0 1 3h161v1h-121v4h-44v-6z" fill="#B4B5B7"/>
<path transform="translate(415,155)" d="m0 0h10l26 4 14 3v8l-25-5-25-3z" fill="#313131"/>
<path transform="translate(157,435)" d="m0 0h7l6 29 6 19-8 1-6-19-5-24z" fill="#313131"/>
<path transform="translate(322,28)" d="m0 0 2 1v12l-2 25-5 30-7 27-9 26-9 21-3 1 1-5 11-26 8-25 6-26 4-26 1-10 1-24z" fill="#575B5D"/>
<path transform="translate(372,155)" d="m0 0h12v6l-32 5-13 3-4-1v-4l-3-1 16-4z" fill="#696A6A"/>
<path transform="translate(158,309)" d="m0 0h4l-1 3-16 8-24 11-25 9-25 7-26 5-15 2h-6l1-3 25-3 28-6 26-8 25-10 17-8z" fill="#585C5E"/>
<path transform="translate(785,495)" d="m0 0h2v7l-3 10-5 1-14 15-5 2 3-11 3-10 1 2 8-6 8-9z" fill="#535454"/>
<path transform="translate(161,404)" d="m0 0 77 1v4h-75v-4z" fill="#D5D5D7"/>
<path transform="translate(609,287)" d="m0 0 3 1 11 24 9 27 2 13-4-1-1 2-3-15-7-21-10-23-1-6z" fill="#6B6C6D"/>
<path transform="translate(538,756)" d="m0 0h3l-2 6-14 14-1 3 2 1-13 4h-5l2-5 11-11 1-6z" fill="#535455"/>
<path transform="translate(240,391)" d="m0 0h56l5 1-1 3-9 1h-62v-1h10z" fill="#99A9B4"/>
<path transform="translate(199,396)" d="m0 0h33l-4 4-8 4h-44l4-2 15-4z" fill="#535454"/>
<path transform="translate(553,199)" d="m0 0 5 1 15 13 8 8-5 7-7-6-12-11-8-6 2-4z" fill="#737D83"/>
<path transform="translate(208,556)" d="m0 0 4 2 11 12 11 11-5 5h-3l-17-17-5-6 1-4z" fill="#737D83"/>
<path transform="translate(510,405)" d="m0 0h74l-2 4h-72z" fill="#99A9B4"/>
<path transform="translate(513,404)" d="m0 0h115l-2 5h-44l1-3-70-1z" fill="#2D6581"/>
<path transform="translate(424,147)" d="m0 0 13 1 17 3 2 2-3 4v3l-33-5 1-5z" fill="#4A4E51"/>
<path transform="translate(152,429)" d="m0 0h2v3h2l2 9 3 15-1 5-4 3-2 3-5-23-1-12z" fill="#4A4E51"/>
<path transform="translate(379,782)" d="m0 0h11l6 1-2 5-8 8-2 3h-15l2-5 7-9z" fill="#646565"/>
<path transform="translate(442,405)" d="m0 0h68v4h-68z" fill="#BFD2DC"/>
<path transform="translate(795,356)" d="m0 0h2l1 4v11l-12 11h-4l-1-4v-11l6-4z" fill="#636464"/>
<path transform="translate(370,88)" d="m0 0 3 4 12 32-3 9-3 10-4 4-8 1 4-6 7-24-1-8-3-8-4-11z" fill="#3D4244"/>
<path transform="translate(217,64)" d="m0 0m-2 1 2 1-5 5-17 10-20 14-13 10-14 12-11 10v-3l9-9 4-5 11-9 20-15 17-11z" fill="#39393A"/>
<path transform="translate(166,322)" d="m0 0 1 2 5 1-2 11-5 21-1 6h-6v-11l7-27z" fill="#808181"/>
<path transform="translate(313,404)" d="m0 0h70l-1 5h-45l-1-4h-23z" fill="#A8AAAC"/>
<path transform="translate(216,548)" d="m0 0 4 2 12 13 12 12 13 10-3 3-5-2-12-11-8-7-11-12-4-6z" fill="#A2A4A6"/>
<path transform="translate(631,296)" d="m0 0h2l10 26-1 2-7 4-8-22-1-6z" fill="#94A4AE"/>
<path transform="translate(308,629)" d="m0 0 5 1 22 7-2 5-2 3-9-2-17-6-1-3z" fill="#94A4AE"/>
<path transform="translate(154,411)" d="m0 0 1 3 6-1 2 16v6h-6l-1-3h-2v-3l-6 3-1-1v-7l4-5 2-3z" fill="#49494A"/>
<path transform="translate(539,391)" d="m0 0h59v4h-59z" fill="#717577"/>
<path transform="translate(148,339)" d="m0 0m-2 1h2v2l-25 11-33 11-25 6-24 4-8 1h-11l2-2 26-3 29-6 25-7 24-9z" fill="#585C5E"/>
<path transform="translate(185,177)" d="m0 0h10l1 2-9 2-11 12-9 11-11 13-4 2v-4l9-11 12-14 9-11z" fill="#383838"/>
<path transform="translate(190,508)" d="m0 0 3 1 9 16 12 17 4 6-5 2-13-18-9-15-4-8z" fill="#BBC1C6"/>
<path transform="translate(165,382)" d="m0 0h1v9h74l-1 4-10 1h-64v-1h49v-3h-49z" fill="#7EB3CE"/>
<path transform="translate(507,187)" d="m0 0 6 2 14 8 16 11 6 5-3 3-4-2-17-12-19-11z" fill="#BAC1C7"/>
<path transform="translate(176,507)" d="m0 0 4 1 7 14 3 7-5 6-3-3-10-18 1-4z" fill="#5C676E"/>
<path transform="translate(392,146)" d="m0 0h27l-4 2-3 3v3l-31 1 5-6z" fill="#3F4446"/>
<path transform="translate(503,169)" d="m0 0 6 1 16 8 2 2-5 6-5-2-16-8-2-2z" fill="#5C676E"/>
<path transform="translate(152,153)" d="m0 0h7l3 2-7 1-7 7-9 11-12 14-4 5-3-1 1-4 13-15 9-11 7-8z" fill="#383838"/>
<path transform="translate(403,351)" d="m0 0h1v27l-6 5h-2v-26z" fill="#161616"/>
<path transform="translate(404,283)" d="m0 0h1v7h3l1 2v39l-4 1-1-3z" fill="#BCC5CB"/>
<path transform="translate(330,164)" d="m0 0h5l2 6-17 5-11 4h-3l-2-6 18-7z" fill="#808181"/>
<path transform="translate(404,571)" d="m0 0h1l1 32 3-1 1 32 4 1h-10z" fill="#2C607A"/>
<path transform="translate(637,700)" d="m0 0h2l-2 5-7 8-19 19-7 10-1 3-7 3 1-5h2l2-5 23-23 5-9z" fill="#4B4F52"/>
<path transform="translate(361,396)" d="m0 0h24l-4 7-1 1h-24l4-7z" fill="#161616"/>
<path transform="translate(407,555)" d="m0 0h2v47l-4 2v-48z" fill="#768187"/>
<path transform="translate(322,622)" d="m0 0 10 2 5 2 26 5-2 1-1 3h-8l-17-4-15-5z" fill="#696969"/>
<path transform="translate(586,252)" d="m0 0 4 2 13 19 7 12-2 6-3-4-9-15-11-16z" fill="#93999C"/>
<path transform="translate(139,126)" d="m0 0 1 2-8 11-9 10-12 12-5 3h-2l2-4 9-11 10-9z" fill="#A6A8AA"/>
<path transform="translate(627,707)" d="m0 0 1 3-6 8-20 20-3 5h-2l-1 6-6 3h-2l2-6 23-23 3-5v-3z" fill="#4A4A4B"/>
<path transform="translate(264,607)" d="m0 0 5 1 16 9-6 7-11-6-7-5 2-5z" fill="#8F959A"/>
<path transform="translate(395,368)" d="m0 0h1v28h-20l-4-1v-3l19-1 1-20h3z" fill="#5A6D78"/>
<path transform="translate(341,39)" d="m0 0h1v96h20v4h-21z" fill="#454647"/>
<path transform="translate(606,254)" d="m0 0h3l10 16-4 5-3 1-9-14-1-5z" fill="#8E9599"/>
<path transform="translate(263,404)" d="m0 0h50l23 1 1 4h-32l1-4h-43z" fill="#B0B3B5"/>
<path transform="translate(268,192)" d="m0 0h2l1 7-16 11-4 3h-2l-1-7 17-12z" fill="#A0A1A1"/>
<path transform="translate(391,532)" d="m0 0h4v42h-4z" fill="#6E6F70"/>
<path transform="translate(194,265)" d="m0 0h8l-6 11-7 12-7-1 2-5 8-14z" fill="#A0A1A1"/>
<path transform="translate(390,621)" d="m0 0h1v13h-16l-7-1-1-2 7-3 14-5h2z" fill="#929393"/>
<path transform="translate(408,513)" d="m0 0h1v42l-4 1v-42z" fill="#99A9B4"/>
<path transform="translate(157,357)" d="m0 0h1v6h5l-1 17-1 9-6-1v-14z" fill="#6A6B6B"/>
<path transform="translate(760,568)" d="m0 0h2l-3 9-2 2h-3l-10 9-10 10-4 5-7 4 1-5 5-5 10-8 12-12 5-6z" fill="#4D5153"/>
<path transform="translate(391,574)" d="m0 0h4l1 32v28h-1v-26h-4z" fill="#595B5D"/>
<path transform="translate(473,173)" d="m0 0 9 2 19 8 6 3-1 5-23-10-10-4z" fill="#D2D2D4"/>
<path transform="translate(146,114)" d="m0 0m-1 1m-1 1m-1 1m-2 1 2 1-6 6-3 5-14 14-9 11-6 7-5 2 2-4 11-13 12-13z" fill="#3A3B3B"/>
<path transform="translate(756,577)" d="m0 0 1 4-1 2-7 3-14 15-11 11-7 5-2-1 7-10 5-2 5-4 7-8 12-12z" fill="#494A4B"/>
<path transform="translate(155,155)" d="m0 0 4 1-3 6-12 13-10 8-3 1 2-4 12-14 9-10z" fill="#91969A"/>
<path transform="translate(630,351)" d="m0 0 5 1 3 19v15l-2 1-2 4-2-23z" fill="#595B5D"/>
<path transform="translate(395,250)" d="m0 0h1v34l-1 13-3 1-1-3v-31l4 2z" fill="#94A1A9"/>
<path transform="translate(290,608)" d="m0 0 6 2 26 11-1 4-6-1-21-9-4-2-1-3z" fill="#808181"/>
<path transform="translate(391,464)" d="m0 0h4v38l-4 1z" fill="#828282"/>
<path transform="translate(194,396)" d="m0 0h5l-4 3-19 5h-15v9l-1 1h-5l-1-3v-10l6 1h10l21-5z" fill="#585C5E"/>
<path transform="translate(267,391)" d="m0 0h29l5 1-1 3-9 1h-28v-1h7v-2z" fill="#94A1A9"/>
<path transform="translate(391,161)" d="m0 0h5l-1 47h-3z" fill="#B1C1CA"/>
<path transform="translate(404,260)" d="m0 0h5v32l-1-2h-3l-1-7z" fill="#D6D6D8"/>
<path transform="translate(166,392)" d="m0 0h48v3h-48z" fill="#B1C1CA"/>
<path transform="translate(340,80)" d="m0 0h1v11l-4 13-7 26-8 23h-2l3-10 8-26 7-32z" fill="#585C5E"/>
<path transform="translate(404,329)" d="m0 0 1 3 4-1v27l-4 1-1 3z" fill="#BABBBC"/>
<path transform="translate(607,721)" d="m0 0 1 2-3 6-22 22-2 6-6 1 4-7 18-18 2-7z" fill="#4A4A4B"/>
<path transform="translate(600,404)" d="m0 0h28l-2 5h-27z" fill="#2C607A"/>
<path transform="translate(351,391)" d="m0 0h13l8 1v3l4 1h-34v-4z" fill="#738188"/>
<path transform="translate(633,376)" d="m0 0h1v15h-64v-1h56l3-9z" fill="#969798"/>
<path transform="translate(505,391)" d="m0 0h34v4h-34z" fill="#828282"/>
<path transform="translate(395,336)" d="m0 0h1v32l-1 3h-3l-1-12 1-19 3-1z" fill="#768187"/>
<path transform="translate(763,563)" d="m0 0 1 3-1 2-7 4-12 13-8 8-8 5 2-6 11-8 7-8 12-12z" fill="#49494A"/>
<path transform="translate(551,405)" d="m0 0h33l-2 4h-32z" fill="#7F8D95"/>
<path transform="translate(305,29)" d="m0 0 4 1 1 2-16 4-27 9-1-2 1-2 21-7z" fill="#393A3A"/>
<path transform="translate(103,161)" d="m0 0v3l-14 19-11 17-4 1 2-5 13-19 9-12z" fill="#383839"/>
<path transform="translate(348,159)" d="m0 0h5v6l-6 2-11 2-1-5-3-1z" fill="#6C6D6E"/>
<path transform="translate(217,64)" d="m0 0m-2 1 2 1-5 5-17 10-16 11v-3l5-5 22-14z" fill="#373738"/>
<path transform="translate(395,165)" d="m0 0h1v45l-1 24h-3v-26h3z" fill="#8EB2C5"/>
<path transform="translate(171,483)" d="m0 0h5l6 14v2l-7 2-6-15v-2z" fill="#181818"/>
<path transform="translate(609,287)" d="m0 0 3 1 10 22v2h-3l-1 3-9-21-1-6z" fill="#7F8080"/>
<path transform="translate(403,229)" d="m0 0h1v17l-6 11-2 1v-13l4-9z" fill="#3F4446"/>
<path transform="translate(465,163)" d="m0 0 5 1 12 4-1 7-11-3-6-3z" fill="#181818"/>
<path transform="translate(391,608)" d="m0 0h4v29h-4z" fill="#535454"/>
<path transform="translate(278,405)" d="m0 0h28l-1 4h-28z" fill="#BABBBC"/>
<path transform="translate(354,404)" d="m0 0h29l-1 5h-21v-4h-7z" fill="#A2A3A3"/>
<path transform="translate(171,707)" d="m0 0 6 3-2 5-8 9-5-3 2-5 6-7z" fill="#858D91"/>
<path transform="translate(160,343)" d="m0 0 1 3h5l-1 11-1 6h-6v-11z" fill="#737475"/>
<path transform="translate(345,24)" d="m0 0h11v10h-11z" fill="#525353"/>
<path transform="translate(180,487)" d="m0 0 3 1 9 20-5 1-8-16v-5z" fill="#D1D1D3"/>
<path transform="translate(212,405)" d="m0 0h26v4h-27z" fill="#D6D6D8"/>
<path transform="translate(650,431)" d="m0 0 2 1-1 14-1-2-7 4-2 1 2-12z" fill="#B6BFC5"/>
<path transform="translate(452,640)" d="m0 0h5l-6 10-11 1 2-5 2-4z" fill="#B8C1C7"/>
<path transform="translate(372,155)" d="m0 0h12v6l-5 1h-10v-5h-5v-1z" fill="#595A5B"/>
<path transform="translate(407,489)" d="m0 0h2v24l-4 1v-24z" fill="#B2C1CA"/>
<path transform="translate(411,133)" d="m0 0 1 3-2 3h-22l-1-5 24 1z"/>
<path transform="translate(391,440)" d="m0 0h4v24h-4z" fill="#888E91"/>
<path transform="translate(415,147)" d="m0 0h9l-4 8h-5v6h-4l-1-6h2l-1-4z" fill="#49494A"/>
<path transform="translate(216,548)" d="m0 0 4 2 12 13-3 3h-2l-7-8-6-8z" fill="#ADB0B2"/>
<path transform="translate(687,657)" d="m0 0 2 1-7 8-20 20-1-2 7-8 9-9 2-6 7-3z" fill="#4A4E51"/>
<path transform="translate(487,405)" d="m0 0h23v4h-24z" fill="#B2C1CA"/>
<path transform="translate(547,214)" d="m0 0 5 1 13 12-4 3-12-11-3-2z" fill="#AEB1B3"/>
<path transform="translate(532,201)" d="m0 0 7 4 10 8-3 3-4-2-11-8z" fill="#B9BABB"/>
<path transform="translate(170,311)" d="m0 0 7 1-3 11-2 3-5-2 1-8z" fill="#8A8B8C"/>
<path transform="translate(404,283)" d="m0 0h1v7h3l1 2v13l-3 1-1 2 2 1-3 1z" fill="#C6C6C7"/>
<path transform="translate(181,287)" d="m0 0h7l-1 5-4 8-6-1 1-6z" fill="#92989C"/>
<path transform="translate(205,533)" d="m0 0 4 2 9 12-3 3h-2l-10-14z" fill="#B8B9BA"/>
<path transform="translate(302,174)" d="m0 0h3l2 6-11 5h-2l-1-7z" fill="#8B8B8C"/>
<path transform="translate(619,312)" d="m0 0h4l5 14-1 5h-3l-5-14z" fill="#707274"/>
<path transform="translate(278,186)" d="m0 0h3l2 6-12 6-1-7z" fill="#93999D"/>
<path transform="translate(436,135)" d="m0 0h21v4h-21z" fill="#010101"/>
<path transform="translate(429,391)" d="m0 0h20v4h-20l-1-2z" fill="#A2A3A3"/>
<path transform="translate(256,602)" d="m0 0 6 1 4 4-6 6-7-5 1-4z" fill="#848A8E"/>
<path transform="translate(578,391)" d="m0 0h20v4h-20z" fill="#6A6A6A"/>
<path transform="translate(485,391)" d="m0 0h20v4h-20z" fill="#888E91"/>
<path transform="translate(794,352)" d="m0 0h2l1 4-6 4-8 7h-2l-1-2v-6l1 3 6-4z" fill="#5D6870"/>
<path transform="translate(342,135)" d="m0 0h20v4h-20z"/>
<path transform="translate(146,114)" d="m0 0m-1 1m-1 1m-1 1m-2 1 2 1-6 6-3 5-7 7-4 2-6 5 2-4z" fill="#3B3D3D"/>
<path transform="translate(407,555)" d="m0 0h2v19l-4 1v-19z" fill="#7F8D95"/>
<path transform="translate(601,246)" d="m0 0 3 1 4 7-4 3h-2l-1 2-4-6 2-6z" fill="#838A8D"/>
<path transform="translate(340,136)" d="m0 0 1 3h2l-3 11-1 3-5 1 1-7 4-10z" fill="#4A4E51"/>
<path transform="translate(46,258)" d="m0 0 1 3-8 23h-3l2-9 6-16z" fill="#3B3B3C"/>
<path transform="translate(638,381)" d="m0 0h1v15l-12-1 1-4h7l1-5h2z" fill="#525353"/>
<path transform="translate(272,396)" d="m0 0h8l-1 3-5 3-1 2h-10l5-5z" fill="#3F4446"/>
<path transform="translate(224,396)" d="m0 0h8l-4 4-8 4h-10l3-3 9-4z" fill="#4B4F52"/>
<path transform="translate(243,576)" d="m0 0 4 1 10 8-3 3-5-2-8-7 2-1z" fill="#A0A1A2"/>
<path transform="translate(406,242)" d="m0 0h3v18h-4v-17z" fill="#BFD2DC"/>
<path transform="translate(277,601)" d="m0 0 4 1 10 5-1 5-5-2-9-5z" fill="#868C8E"/>
<path transform="translate(264,42)" d="m0 0 3 1-3 3-19 8-1-2 3-3z" fill="#3B3C3C"/>
<path transform="translate(157,357)" d="m0 0h1v6h5v7l-2 3h-5z" fill="#6C6D6F"/>
<path transform="translate(391,423)" d="m0 0h4v17h-4z" fill="#939494"/>
<path transform="translate(577,240)" d="m0 0 5 5 5 6-3 4-9-11z" fill="#A0A2A2"/>
<path transform="translate(154,403)" d="m0 0 7 1v9l-1 1h-5l-1-3z" fill="#505253"/>
<path transform="translate(600,275)" d="m0 0 5 1 5 9-2 6-3-4-5-9z" fill="#898E91"/>
<path transform="translate(175,474)" d="m0 0 3 1 4 10v2l-4 3-5-14z" fill="#BECDD6"/>
<path transform="translate(181,135)" d="m0 0h2l8 12v11l-4 1v-12l-5-9z" fill="#3A3A3A"/>
<path transform="translate(404,161)" d="m0 0h11v1h-5l1 4h-2v2l-3-1-1 20h-1z" fill="#D3D3D5"/>
<path transform="translate(159,103)" d="m0 0m-1 1m-2 1 2 1-4 6-8 7-9 8v-3l9-9 4-5z" fill="#383839"/>
<path transform="translate(384,155)" d="m0 0h9l1 5 2 1h-12z" fill="#505253"/>
<path transform="translate(370,88)" d="m0 0 3 4 10 27-1 4-5-13-3-8-4-11z" fill="#1B1C1C"/>
<path transform="translate(473,173)" d="m0 0 9 2 5 2-2 4-11-3z" fill="#BECED7"/>
<path transform="translate(339,161)" d="m0 0h4l1 6-5 2-4-1v-4l-3-1z" fill="#717172"/>
<path transform="translate(393,600)" d="m0 0h2l1 6v28h-1v-26h-4v-7z" fill="#606264"/>
<path transform="translate(526,180)" d="m0 0 4 1 3 3-4 3-2 3-5-3 1-4z" fill="#6A6C6D"/>
<path transform="translate(353,23)" d="m0 0h7l1 1v10h-5v-10z" fill="#4A4E51"/>
<path transform="translate(408,588)" d="m0 0h1v14l-4 2v-14z" fill="#5F6B73"/>
<path transform="translate(564,391)" d="m0 0h14v4h-14z" fill="#6E6F70"/>
<path transform="translate(160,343)" d="m0 0 1 3h5l-1 11-1-3h-5z" fill="#787979"/>
<path transform="translate(217,64)" d="m0 0m-2 1 2 1-5 5-12 7v-3l4-4z" fill="#383939"/>
<path transform="translate(322,622)" d="m0 0 10 2 3 2-3 3-9-2-3-2z" fill="#707375"/>
<path transform="translate(392,502)" d="m0 0h3v14h-4v-13z" fill="#7A7A7A"/>
<path transform="translate(198,405)" d="m0 0h14l-1 4h-13z" fill="#BFD2DC"/>
<path transform="translate(361,632)" d="m0 0 14 1-4 1v3h-8l-6-1z" fill="#585A5B"/>
<path transform="translate(405,542)" d="m0 0h4v13l-4 1z" fill="#94A1A9"/>
<path transform="translate(189,529)" d="m0 0h2l3 6-7 5-2-3 1-5z" fill="#6B6D6E"/>
<path transform="translate(408,513)" d="m0 0h1v14l-4 1v-14z" fill="#A3B1BA"/>
<path transform="translate(584,405)" d="m0 0h13l-1 4h-14z" fill="#5F6B73"/>
<path transform="translate(570,405)" d="m0 0h14l-2 4h-13z" fill="#768187"/>
<path transform="translate(394,560)" d="m0 0h1v14h-4v-13z" fill="#636464"/>
<path transform="translate(510,405)" d="m0 0h14l-1 4h-13z" fill="#A3B1BA"/>
<path transform="translate(538,405)" d="m0 0h13l-1 4h-13z" fill="#94A1A9"/>
<path transform="translate(472,391)" d="m0 0h13v4h-13z" fill="#939494"/>
<path transform="translate(330,164)" d="m0 0h5l2 6-9 1-1-1v-5z" fill="#7A7C7D"/>
<path transform="translate(391,548)" d="m0 0h4v12l-4 1z" fill="#6A6A6A"/>
<path transform="translate(596,265)" d="m0 0h2l5 8v2h-3l-1 2-5-8z" fill="#929393"/>
<path transform="translate(404,571)" d="m0 0h1l1 32 3-1v4l-5 1z" fill="#2D6784"/>
<path transform="translate(265,758)" d="m0 0 3 1-1 5-7 8-2 2-1-3 4-6 3-4z" fill="#79797A"/>
<path transform="translate(333,626)" d="m0 0 10 1 1 2-1 3-8-1-3-2z" fill="#6B6C6D"/>
<path transform="translate(630,717)" d="m0 0v3l-9 9-2 5-5 4-1-2 6-8z" fill="#4F5255"/>
<path transform="translate(358,157)" d="m0 0h11l1 6h-8v-5z" fill="#616363"/>
<path transform="translate(742,602)" d="m0 0h2l-2 6-6 2-5 5-5 4 2-4 8-8 4-3h2z" fill="#4E5255"/>
<path transform="translate(190,508)" d="m0 0 3 1 2 4v4h-2l-1 2-5-10z" fill="#BFBFC0"/>
<path transform="translate(766,244)" d="m0 0 2 2-7 6-5 5h-2l-1-4 5-2z" fill="#787878"/>
<path transform="translate(391,626)" d="m0 0h4v11h-4z" fill="#49494A"/>
<path transform="translate(539,391)" d="m0 0h11v4h-11z" fill="#7A7A7A"/>
<path transform="translate(269,596)" d="m0 0 4 1 5 3-2 4-5-2-3-2z" fill="#909192"/>
<path transform="translate(155,381)" d="m0 0h6v8l-6-1z" fill="#636464"/>
<path transform="translate(52,244)" d="m0 0 1 3-5 12h-3l3-10 2-4z" fill="#383939"/>
<path transform="translate(507,187)" d="m0 0 6 2 3 2-2 4-8-4z" fill="#C6C6C7"/>
<path transform="translate(238,405)" d="m0 0h11l-1 4h-10z" fill="#C5C5C7"/>
<path transform="translate(390,621)" d="m0 0h1v13h-16v-1l9-1 6-2z" fill="#888889"/>
<path transform="translate(630,351)" d="m0 0 5 1v8h-4z" fill="#616262"/>
<path transform="translate(619,312)" d="m0 0h4l2 8-4 2-2-5z" fill="#787878"/>
<path transform="translate(125,136)" d="m0 0v3l-9 10-4 2-3 2 2-4 12-11z" fill="#383939"/>
<path transform="translate(352,631)" d="m0 0h11l-2 1-1 3h-8z" fill="#636464"/>
<path transform="translate(314,619)" d="m0 0 6 1 2 1-1 4-6-1-2-3z" fill="#7A7A7A"/>
<path transform="translate(589,391)" d="m0 0h9v4h-9z" fill="#636464"/>
<path transform="translate(147,687)" d="m0 0 1 3-8 10-2 2v-4l7-8z" fill="#929394"/>
<path transform="translate(619,391)" d="m0 0h9l-1 4h-8z" fill="#585C5E"/>
<path transform="translate(76,199)" d="m0 0 1 3-5 8-4 1 2-5 3-5z" fill="#3B3B3B"/>
<path transform="translate(690,127)" d="m0 0 2 1-9 9-5 1 5-5z" fill="#929494"/>
<path transform="translate(159,430)" d="m0 0h4v5h-6l-1-4z" fill="#3F4446"/>
<path transform="translate(391,593)" d="m0 0h4v7l-4 1z" fill="#5B5B5C"/>
<path transform="translate(412,154)" d="m0 0 4 1-1 6h-4l-1-6z" fill="#3F4446"/>
<path transform="translate(392,525)" d="m0 0h3v7h-4v-6z" fill="#707578"/>
<path transform="translate(393,619)" d="m0 0h2v7h-4v-6z" fill="#4B4F52"/>
</svg>
