<?xml version="1.0" encoding="UTF-8"?>
<svg version="1.1" viewBox="0 0 1600 900" width="1280" height="1280" xmlns="http://www.w3.org/2000/svg">
<path transform="translate(768,187)" d="m0 0h63l38 2 43 4 49 7 45 9 39 10 35 11 25 9 31 13 17 8 22 12 17 10 19 13 13 10 13 11 16 15 7 8 12 15 10 15 8 15 8 21 4 16 3 24v10l-3 23-5 20-8 19-8 15-8 12-10 13-11 12-17 17-11 9-20 15-19 12-21 12-30 15-24 10-27 10-34 11-38 10-38 8-37 6-31 4-33 3-35 2h-77l-34-2-41-4-42-6-41-8-44-11-36-11-30-11-30-13-32-16-20-12-15-10-19-14-10-9-8-7-17-17-11-14-9-13-9-16-7-16-6-20-3-19-1-10v-9l3-24 5-19 8-20 10-18 13-18 11-12 7-8 15-14 14-11 16-12 21-13 25-14 25-12 32-13 25-9 33-10 40-10 35-7 38-6 45-5 29-2z" fill="#0A2D12"/>
<path transform="translate(795,241)" d="m0 0 54 1 41 3 35 4 39 6 19 4v2h2l1 2 5 1 3 2 2 5-6 2-1 4-2 4-2 2-2 4 4 1 1 5-3 2v3l1 3-2 4-2 2-1-2-1 3h-6l-4-3-9-1v-2l-4 1v-2h-5v-2h-13l-3-1-11 3h-11l-2-1-1 2-18 2v2h43l15 3 10 5 6 5 5 4 5 10 2 8 1 9 1 1v19l2 4h5v-3h2v-2h3l1-4 9-9 2-1 3-6 72-1 5 1-2 5-8 23-71 24-8 3h-3l-2 6 1 1h13v-2h7l2 5v2h-2l-2 4-4 6-1 4-6 2-9 2-5-7v-2l-11 1-1 2h-3v2l-6 4-4 4-9 4-7 2-1 2-5 2h-14v-2l-3 1-12-1v2l30 1v2l-6 3-8 9-13 18-16 21-14 19-16 21-12 17-2 8-33 1-3 1 2-5 1-7v-98l-1-3v53l-4 2-3-2-1-5v-8l-6-22-6-11-8-9 4 5 6 9 4 15v24l-4 16-8 16-8 11-9 8-16 8-11 3-17 1-15-3-11-6-7-8-5-11-2-12v-13l4-20 7-16 1-3-4 7h-2l-1 2-5-12-7-13-1-2h5v2l5 2 3 1 9-4 5-3 7-2 2 1v-2l7-1 7-4 12-4 5-1h22l14 5 10 1v2h3v2l7-1 3-1 3-3 10-5 11-2h7l3-1 5 1 5-1 4 1h11l1 2h6l-2 3 3-1v2l4-4 4-1 4-3-1-5h-4v-2l-11-2v2h-9l-4-1-7-1-2-4h-2l-1-4 5-6 6-14 18-50 13-36v-3l-3 9-3 6-3 9-4 5-4 9-2 1v4l-4 2-2 7-3 3-2 4-3 2-2 5-2 1-2 3-1-6 2-9 4-11 8-23 7-18 4-5-1-5-6 1-2 1-13 36-21 58-7 19-1 1-31 1-3-20-5-40v-4h-2l-3 11-15 41v11l-36 1 6-10 20-55 13-36-1 1-9 25-15 41-3 4h-2l-2 6-4 4-5 1-2-11-2-41-1-5v-14l-1-9 2-12 2-3-3 1 1-4-5 1-1 1v18l4 89 3 6-1 2h-37l2-6 1-12-41 1-6 11-1 5-39 1 5-5 8-10 16-24 10-14 6-9-4 5-8 11h-2l-2 6h-2v3l-3 3-2 1v2l-6 3-4 4-5-1v-2l-5 2-8 22-1 1-71 1-4 1 6-9 11-29 14-38-1 1-8 21-6 7v2l-3 3-4 5-3 7v2l-5 2-2 5-2 4h-3l1 2h-2l2 3v3h-2l1 3-2 1-2 3 2 2-9 2-1-4-1 2h-2l-4-4v-2l-2-1 1-3 2 1 1-2-4-2v-3l-2-1-1-2-2 1 2 3h-3l-2 4-4-1v-4-2l-4-2-2 2h-3l-1-2-7 1-5-2-4 3v-2l-4 3h-2l-3 2-5 1-7-2-1 3-3 1-3 3h-5l-2 2h-8l-2 2-9 1h-2l-7 4h-4l-1 2-5-1-1 2-9 1h-2v2h-2l-2 7-1-2h-2v2h-2l-1 2-4-1-2-5 1-9 6-16 9-16 10-14 12-13 11-11 11-9 16-12 19-12 22-12 22-11 27-11 29-10 26-8 36-9 29-6 54-8 46-4 18-1z" fill="#0A6A33"/>
<path transform="translate(768,187)" d="m0 0h63l38 2 43 4 49 7 45 9 39 10 35 11 25 9 31 13 17 8 22 12 17 10 19 13 13 10 13 11 16 15 7 8 12 15 10 15 8 15 8 21 4 16 3 24v10l-3 23-5 20-8 19-8 15-8 12-10 13-11 12-17 17-11 9-20 15-19 12-21 12-30 15-24 10-27 10-34 11-38 10-38 8-37 6-31 4-33 3-35 2h-77l-34-2-41-4-42-6-41-8-44-11-36-11-30-11-30-13-32-16-20-12-15-10-19-14-10-9-8-7-17-17-11-14-9-13-9-16-7-16-6-20-3-19-1-10v-9l3-24 5-19 8-20 10-18 13-18 11-12 7-8 15-14 14-11 16-12 21-13 25-14 25-12 32-13 25-9 33-10 40-10 35-7 38-6 45-5 29-2zm28 21-40 1-52 4-40 5-41 7-36 8-33 9-36 12-33 13-26 12-23 12-18 11-20 14-16 13-10 9-15 15-11 14-10 15-8 16-6 16-4 18-1 9v21l3 17 5 16 7 16 9 15 9 12 9 11 19 19 11 9 15 12 15 10 20 12 23 12 21 10 27 11 41 14 36 10 27 6 32 6 43 6 40 4 39 2h66l36-2 41-4 42-6 37-7 33-8 29-8 36-12 32-13 22-10 22-12 18-11 16-11 16-12 13-12 7-6 7-8 8-9 11-15 9-16 7-16 5-19 2-15v-20l-3-19-8-24-10-19-9-13-8-10-11-12-11-11-11-9-18-14-22-14-18-10-23-12-28-12-30-11-28-9-35-9-37-8-34-6-40-5-55-4z" fill="#C9CED2"/>
<path transform="translate(718,307)" d="m0 0 4 1v3h2l-3 15 1 9v15l1 8 2 37 2 10 6-1 2-6 6-7 11-30 14-38 2 1-23 64-10 27-5 8 1 1 32-1v-10l19-52h2l3 21 5 39 1 3 30-1 17-47 18-50 6-16 6-3 4 1 1 5-5 7-8 21-9 27-3 8v7l4-2 2-6 3-1 2-6 10-15 7-14h2l2-10h2l1-5 2-5v-4h2v-6l2 1-1 8-15 42-19 52-5 9-3 3v4h2l2 3 9 1 7 1 4 1v-2h8l4 3 3-1 2 3-1 5-6 4-2-1-2 4h-4l-2-2 1-1h-6l-1-2h-13v-2l-6 2-5-1-7 1-10 1-6 2-3 2-6 2-1 3-5 2-5-1v-2h-3v-2h-10l-14-5h-22l-11 3-15 6h-5v2l-5 1-6 2-9 5-4 1-8-5-5-2v-2l-4-1-14-7h-6l-3-1h-29l-3-1h-6l-1 1 35 1 14 2 12 5 7 8 2 5v17l-4 12-6 9-9 8-12 5-8 2 1 4 14 25 7 11 4 4-1 2h-40l-4-11-12-25-3-7-2 3-11 31v8l-37 1-3 1v-2l4-4 5-11 20-55 13-36 1-10h-2l-1 4-5 5-3 4h-2v2l-2 1v2l-7-1-3 3h-9l-4-4v-3l-5 2-3 7-44 15-11 4-1 2h49l-7 20-2 4-25 1-50 1 3-11 6-17 10-4 40-13-11 3-9 2-8 2-9 1-1 3-9 1v2l-6 4-1-1-2 2-9 6-9 7-8-3-8-1-6 4-3-2v-2h-7l-3-1h-3l-1 2-2-1-1 2-4 6-2 4-3 5v8l3 3 2 5-1 2h4v2l3 1v2h2v2h2l-1 5-7-2-1-3-5-2-4-4v-2l-4-2-4-3v-2l-4-2-9-10-9-12-2-5-8-14-5-14-2-11v-17l2-12 2 1 1 5 7-1v-2h3l2-5h2v-2l3-1h8l1-3 4 2 1-2 8-2 6-4 2 1 7-1 2-2h8l2-2 2 1 1-2v2h2l1-2 2-2h3l-1-3 2-1 7 2 6-2 4-2 1-1 5-1 3-1 6 2 5-1 4 2 2-2 3 2 1 3 3 1-2 2 3 1 4-4-2-4h5l-1 3 3 1v3l3 2-1 3-3 1 3 1v2l3 2 1 1 2-1 2 3 6-2-3-1 4-3 2-4h2l-2-6v-3l5-1 1-4 5-5h2l-1-3 1-3h2l1-4 3-5 2-4 3-3 4-2 3-9 6-16 2 1-18 49-8 20-5 6 3-1 71-1 8-22 3-2h3l2 2 4-1 4-4 5-1 2-5 3-1v-3h2l1-4 8-10 6-9 2 1-26 38-12 17-6 6h37l1-7 6-10h41v12l-2 5h36l-3-7-4-89v-18z" fill="#0D502D"/>
<path transform="translate(889,306)" d="m0 0h47l15 3 10 5 6 5 5 4 5 10 2 8 1 9 1 1v19l2 4h5v-3h2v-2h3l1-4 9-9 2-1 3-6 72-1 5 1-2 5-8 23-71 24-8 3h-3l-2 6 1 1h13v-2h7l2 5v2h-2l-2 4-4 6-1 4-6 2-9 2-5-7v-2l-11 1-1 2h-3v2l-6 4-4 4-9 4-7 2-1 2-5 2h-14v-2l-3 1-12-1v2l30 1v2l-6 3-8 9-13 18-16 21-14 19-16 21-12 17-2 8-33 1-3 1 2-5 1-7v-98l-1-3v53l-4 2-3-2-1-5v-8l-6-22-6-11-8-9 4 5 6 9 4 15v24l-4 16-8 16-8 11-9 8-16 8-11 3-17 1-15-3-11-6-7-8-5-11-2-12v-13l4-20 7-16 1-3-4 7h-2l-1 2-5-12-7-13-1-2h5v2l5 2 3 1 9-4 5-3 7-2 2 1v-2l7-1 7-4 12-4 5-1h22l14 5 10 1v2h3v2l7-1 3-1 3-3 10-5 11-2h7l3-1 5 1 5-1 4 1h11l1 2h6l-2 3 3-1v2l4-4 4-1 4-3-1-5h-4v-2l-11-2v2h-9l-4-1-7-1-2-4h-2l-1-4 5-6 6-14 18-50 13-36 1-8z" fill="#0C3C1E"/>
<path transform="translate(796,208)" d="m0 0 48 1 55 4 40 5 39 7 41 9 36 10 35 12 32 13 29 14 23 13 21 14 17 13 15 13 15 15 11 14 7 10 9 16 6 14 5 16 3 19v20l-3 20-5 17-10 21-10 15-13 16-7 7-4 5-8 7-10 9-19 14-20 13-21 12-16 8-19 9-33 13-36 12-37 10-42 9-43 7-45 5-26 2-22 1h-66l-39-2-40-4-49-7-45-9-34-9-43-14-28-11-26-12-22-11-20-12-19-13-16-13-11-9-20-20-10-13-10-15-8-15-6-16-4-17-1-8v-21l3-20 7-21 8-16 10-16 11-13 7-8 16-16 14-11 13-10 20-13 18-10 23-12 25-11 29-11 33-11 37-10 37-8 43-7 44-5 41-3zm-16 14-42 2-45 4-42 6-38 7-38 9-30 9-29 10-32 13-25 12-21 11-21 14-16 12-13 11-13 12-9 10-10 13-8 13-8 16-5 15-3 15-1 19 2 16 6 20 8 17 9 14 9 12 11 12 13 12 14 11 15 11 19 12 16 9 23 12 28 12 27 10 28 9 33 9 42 9 37 6 43 5 47 3h79l47-3 36-4 39-6 38-8 35-9 29-9 32-12 23-10 23-11 23-13 18-12 19-14 11-10 8-7 7-7 9-11 11-15 11-21 6-18 3-21v-9l-2-16-5-18-10-21-12-18-11-13-18-18-11-9-19-14-19-12-27-15-27-13-27-11-28-10-31-9-34-8-31-6-40-6-40-4-31-2-40-1z" fill="#0A2E13"/>
<path transform="translate(780,222)" d="m0 0h25l40 1 43 3 36 4 49 8 40 9 33 9 29 10 27 11 26 12 21 11 17 10 18 12 16 12 14 12 18 18 10 13 11 18 8 17 5 18 2 16v9l-3 21-6 18-11 21-12 16-12 14-9 9-22 18-20 14-24 14-23 12-25 11-29 11-30 10-33 9-37 8-35 6-39 5-39 3-19 1h-79l-47-3-50-6-35-6-41-9-36-10-35-12-32-13-29-14-21-12-24-16-13-10-13-11-13-12-9-10-11-16-9-16-6-15-4-14-2-16 1-19 3-15 5-15 8-16 10-16 12-14 12-13 10-9 14-11 18-13 18-11 23-12 21-10 33-13 35-12 37-10 37-8 49-8 36-4 41-3zm-3 13-43 2-35 3-38 5-39 7-31 7-33 9-36 12-27 11-26 12-24 13-27 18-14 11-10 9-8 7-11 12-12 16-10 18-7 21-2 11v22l3 15 6 17 8 15 10 14 9 10 7 8 12 11 17 13 13 9 15 9 18 10 24 12 31 13 35 12 36 10 39 9 41 7 41 5 39 3 23 1h60l39-2 42-4 41-6 36-7 40-10 29-9 28-10 30-13 26-13 17-10 15-10 16-12 11-9 16-15 9-11 8-10 9-15 7-16 4-15 1-8v-17l-4-20-6-16-9-16-9-12-11-13-12-12-11-9-17-13-17-11-21-12-24-12-31-13-31-11-34-10-32-8-36-7-33-5-37-4-29-2-25-1z" fill="#CACFD3"/>
<path transform="translate(820,190)" d="m0 0h25l41 3 50 6 41 7 40 9 36 10 36 12 28 11 20 9 21 10 23 13 27 18 14 11 14 12 20 20 11 14 10 15 11 21 6 16 4 16 2 15v24l-3 19-6 21-8 18-9 15-10 14-12 14-20 20-11 9-13 10-7 2-1-4 2-5h-11l-16 10-1-2 24-16 16-12 13-12 6-5 7-8 8-9 11-15 9-16 7-16 5-19 2-15v-20l-3-19-8-24-10-19-9-13-8-10-11-12-10-10-11-9-18-14-22-14-18-10-23-12-28-12-30-11-28-9-35-9-37-8-34-6-40-5-55-4-48-1-40 1-52 4-40 5-41 7-36 8-33 9-36 12-33 13-26 12-23 12-18 11-20 14-16 13-10 9-12 12-4-2-2-5v-5l-6-3 3-4h2v-2l5-5 3-1 1-3 6-4 7-6 3-3h2l1-3 20-14 14-9 10-6h3v-2l34-17 19-8 11-5 12-4 7-3 11-4 11-3 6-2 13-4 25-7 36-8 26-5 16-2 7-1 3 4-1 7h-2l1 3 2 1 1-2v-3l2-3h3v-3l-3 1-2-4 7 1 1-4 15-2 3 6 2-1 2-6h6l1 1 3-2 25-2h6v11l-1 5h3l1-3v3h2l1-16 4-1 24-1z" fill="#CACFD3"/>
<path transform="translate(749,447)" d="m0 0h23l12 4 8 6 6 7 4 10 2 9v24l-4 16-8 16-8 11-9 8-16 8-11 3-17 1-15-3-11-6-7-8-5-11-2-12v-13l4-20 7-16 7-10 7-8 11-8 11-5z" fill="#F9FBFB"/>
<path transform="translate(889,306)" d="m0 0h47l15 3 10 5 7 7 4 8 2 8v21l-4 17-5 12-7 10-6 7-11 8-12 6-14 4-15 2-50 1-3 1 2-4 5-8 9-24 21-58 6-18z" fill="#CACFD3"/>
<path transform="translate(771,191)" d="m0 0h49l22 1 1 4h2v3l2 1-3 7 9 1v1h-57l-40 1-52 4-40 5-41 7-36 8-33 9-36 12-33 13-26 12-23 12-18 11-20 14-16 13-10 9-12 12-4-2-2-5v-5l-6-3 3-4h2v-2l5-5 3-1 1-3 6-4 7-6 3-3h2l1-3 20-14 14-9 10-6h3v-2l34-17 19-8 11-5 12-4 7-3 11-4 11-3 6-2 13-4 25-7 36-8 26-5 16-2 7-1 3 4-1 7h-2l1 3 2 1 1-2v-3l2-3h3v-3l-3 1-2-4 7 1 1-4 15-2 3 6 2-1 2-6h6l1 1 3-2 25-2h6v11l-1 5h3l1-3v3h2l1-16 4-1z" fill="#FAFCFC"/>
<path transform="translate(1037,450)" d="m0 0h57l11 3 8 5 5 6 2 6v17l-4 12-6 9-8 7-11 5-9 2 1 4 14 25 8 13 3 4h-39-3l-3-10-16-33-11 31-1 9v2l-37 1-3 1 2-4 5-8 21-58 13-35 1-4z" fill="#CACFD3"/>
<path transform="translate(602,450)" d="m0 0h58l13 4 6 4 5 6 2 5v17l-4 12-6 9-9 8-12 5-8 2 1 4 14 25 7 11 4 4-1 2h-40l-4-11-12-25-3-7-2 3-11 31v8l-37 1-3 1v-2l4-4 5-11 20-55 13-36z" fill="#CACFD3"/>
<path transform="translate(796,208)" d="m0 0h13l25 1 3 1 17 1 5 1-1 7 1 3h-96l-41 3-1 1-44 5-49 8-37 8-30 8-37 12-33 13-20 9-26 13-21 13-18 13-11 9-10 9-8 7-10 11-10 13-8 13-8 16-5 15-2 8-2 3-1 7v24l2 11-1 10v8l1 5-2 4h-2l-1-4h-2l-4-10-4-17-1-8v-21l3-20 7-21 8-16 10-16 11-13 7-8 16-16 14-11 13-10 20-13 18-10 23-12 25-11 29-11 33-11 37-10 37-8 43-7 44-5 41-3z" fill="#0A6733"/>
<path transform="translate(983,260)" d="m0 0 11 1 39 10 26 8 17 7 5 2 1 2 6 1 2 3 4 2 7 3 9 6v2h3l2 7v5l-8 1v2l-6 1-7-1-1 2-5 2-7 1-3 1-5 5-4 1-7 3-4 1-1 2-11 1-7 1-3 1h-7l-7 2-8 4-6 1-3 6-5 2-2 5-4 3-1 3h-3v2h-2v3l-6 1-2-2h2v-2l-2-1v-19l-1-1-2-14-4-10-5-6-4-2-8-6-13-4-7-1-43-1v-2l12-2 10-2h11l10-3 8 1 10 1v2l7 1v2h9l5 3 5 1 1-4h3l1-3-2-4 4-4-1-5-3-1-1-3 4-4 2-1 2-6h2l1-2 2-1-5-6-5-1v-2z" fill="#0D512D"/>
<path transform="translate(769,306)" d="m0 0h39l1 14 5 42v6h2l2-8 15-42 1-7-1-5h38l-1 2-5 2-13 36-21 58-7 19-1 1-31 1-3-20-5-40v-4h-2l-3 11-15 41v11l-36 1 6-10 20-55 15-41 1-9z" fill="#F9FBFB"/>
<path transform="translate(680,306)" d="m0 0h39l-3 4v18l4 89 3 6-1 2h-37l2-6 1-12-41 1-6 11-1 5-39 1 5-5 8-10 16-24 10-14 8-12 17-25 12-18 2-4z" fill="#F8FAFB"/>
<path transform="translate(768,187)" d="m0 0h63l38 2 43 4 49 7 45 9 39 10 35 11 25 9 31 13 17 8 22 12 17 10 19 13 13 10 13 11 16 15 7 8 12 15 10 15 8 15 8 21 4 16 3 24v10l-3 23-5 20-8 19-8 15-8 12-10 13-11 12-17 17-11 9-20 15-19 12-21 12-30 15-24 10-27 10-34 11-38 10-38 8-37 6-31 4-33 3-35 2h-77l-34-2-41-4-42-6-41-8-44-11-36-11-30-11-30-13-32-16-20-12-15-10-19-14-10-9-8-7-17-17-11-14-9-13-4-7 1-3 11 17 8 10 9 10 7 8 14 13 10 8 16 12 17 11 24 14 16 8 25 12 28 11 35 12 36 10 34 8 44 8 44 6 33 3 39 2h65l37-2 43-4 42-6 42-8 48-12 32-10 35-13 29-13 24-12 22-13 15-10 19-14 15-13 19-19 11-14 12-18 8-16 6-15 5-19 2-15v-24l-3-20-5-17-8-18-8-15-12-17-12-14-19-19-11-9-17-13-20-13-21-12-21-11-32-14-24-9-36-12-37-10-36-8-41-7-50-6-41-3-27-1h-52l-40 2h-12l2-2 29-2z" fill="#193F25"/>
<path transform="translate(1022,449)" d="m0 0v3l-8 20-1 5-4-3h-37l-7 19-1 4 30-1 6-1-4 6-7 19-2 4-2-2-5-1h-25l-5 12-3 9 44-1-6 14-4 11-1 1-76 1-4 1 6-9 23-61 14-37 1-8-1-4z" fill="#F9FBFB"/>
<path transform="translate(817,449)" d="m0 0 39 1-3 3-1 4-1 45-1 20h2l2-5 11-15 11-16 16-23 4-8 1-5 42-1v2l-6 3-8 9-13 18-16 21-14 19-16 21-12 17-2 8-33 1-3 1 2-5 1-7v-98z" fill="#F9FBFB"/>
<path transform="translate(539,462)" d="m0 0h23l-5 11-44 15-11 4-1 2h49l-7 20-2 4-25 1-50 1 3-11 6-17 10-4 40-13-11 3-9 2-8 2-9 1-1 3-9 1v2l-6 4-1-1-2 2-9 6-9 7-8-3-8-1-6 4-3-2v-2h-7l-3-1h-3l-1 2-2-1-1 2-4 6-2 4-3 5v8l3 3 2 5-1 2h4v2l3 1v2h2v2h2l-1 5-7-2-1-3-5-2-4-4v-2l-4-2-4-3v-2l-4-2-9-10-9-12 1-2 2 2h6l2-3 1-11 4-9 3-3-1-4 5 1 7-3 3 3h6l2-1v2l9-2 3-2 2-3v2h2l3 3h4v3l7 1v2l3-1v2l4 1 6 1 5-2 2-5 3-2 14 1 2 1 1-2 5-2 12-2 5-5 8-2 2 1h15l13-3z" fill="#0C3D1E"/>
<path transform="translate(780,222)" d="m0 0h25l40 1 43 3 36 4 43 7 2 2-12-1-27-4-44-5-36-2-33-1h-39l-26 1-30 2-35 4-11 1-17 3-6 1 2 7-7 2h-5l-5 1-1 2-38 8-38 10-36 12-28 11-28 13-24 13-27 18-14 11-10 9-8 7-10 11-12 16-10 18-6 17h-2l-2 9h-3l-1-4-3 2 3 3v3h2l1-3 1 2-2 6-1 2 2 1v9l2 19-2-2-1-4-3-2v-2l-3 1 2 15 7 19 9 17 7 11-3-1-9-14-8-16-6-16-3-14-1-18 2-18 5-18 8-18 10-16 13-16 14-15 8-7 16-13 20-14 15-9 23-12 21-10 33-13 35-12 37-10 37-8 49-8 36-4 41-3z" fill="#F4F6F7"/>
<path transform="translate(561,306)" d="m0 0h43l-1 2-5 3-17 46-16 42h1l38-1-9 24-1 1-71 1-4 1 6-9 11-29 16-44 9-25 1-7z" fill="#F7FAFA"/>
<path transform="translate(350,342)" d="m0 0 3 1 1 7 3 2-1 4-10 12-13 21-7 16-6 21-2 15v21l3 17 5 16 7 16 9 15 8 11-1 2-3-2-3 3-8-1-7-1-8-13-8-15-6-16-5-21-1-7v-34l4-21 3-9 5-13 8-16 7-11h3l2-2-1-4 5-5 7-2 5-5z" fill="#F9FCFC"/>
<path transform="translate(889,306)" d="m0 0h47l15 3 5 2 1 3-15-3-11-1-36 1-1 9-14 40 6 4 10 11v2h3l-1 9-3 8v4l16-2 10-5 8-8 8-14 4-15 1-15 3 3 1 12-4 16-5 10-7 9-10 9 4 8 5 4 7 2-3 3h-2v2l-11 4-20 3-50 1-3 1 2-4 5-8 9-24 21-58 6-18z" fill="#F7F9F9"/>
<path transform="translate(834,209)" d="m0 0 27 1 48 4 42 6 42 8 33 8 29 8 18 6 3 3 11 4 6 9v3l-11-3-33-11-38-10-33-7-41-7-31-4-22-2-15-1h-24l-40-1h-25l-42 2-17 1 1-2 41-3h95l-1-3 1-5-4-1-17-1z" fill="#0C3C1E"/>
<path transform="translate(1072,284)" d="m0 0 6 1 20 8 25 11 7 5 7 3v3l3-1 4 4 10 4 6 3 1 5 2 5-4 2-3 1v-2l-9 2-9-3-3-2-7 1-4 3-2 4-2 6-5 4-1 2-9 2-6 3-2 3-4-2v-5h-2v-2l-3 1-3-3-10-1h-61l3-3 5-2 7-2h9l6-2h8l9-3 4-3 7-2 2-2h3l1-3 12-2 4-3 5-1 4 1 2-1 2 1-1-3h6l2-1-1-11h-3v-2l-5-2-8-5-8-4-3-3-9-3z" fill="#0D3D1F"/>
<path transform="translate(771,191)" d="m0 0h49l22 1 1 4h2v3l2 1-3 7 9 1v1h-57l-40 1-52 4-33 4h-5l1-3-1-4 2-3h3v-3l-3 1-2-4 7 1 1-4 15-2 3 6 2-1 2-6h6l1 1 3-2 25-2h6v11l-1 5h3l1-3v3h2l1-16 4-1z" fill="#F8FAFB"/>
<path transform="translate(780,222)" d="m0 0h25l40 1 43 3 36 4 43 7 2 2-12-1-27-4-44-5-36-2-33-1h-39l-26 1-30 2-35 4-11 1-17 3-6 1 2 7-7 2h-5l-5 1-1 2-38 8-38 10-33 11-7-1-3-6 9-2 1-4 5-3 31-10 44-11 37-7 40-6 40-4 29-2z" fill="#F1F4F5"/>
<path transform="translate(1009,350)" d="m0 0h76l-7 18-3 9-71 24-13 5-2 1 3-10 10-4 46-16h3v-2l-46 1-5 1 2-9 6-17z" fill="#CACFD3"/>
<path transform="translate(749,473)" d="m0 0h10l6 4 4 6 2 13-2 16-4 13-7 11-7 6-6 2h-8l-6-3-4-5-2-7v-17l4-16 7-13 7-7z" fill="#0A2E13"/>
<path transform="translate(558,464)" d="m0 0 3 1-4 8-44 15-11 4-1 2h49l-7 20-2 4-25 1-50 1 3-11 6-17 10-4 49-16z" fill="#CACFD3"/>
<path transform="translate(699,501)" d="m0 0 1 3h3v2h2v2l5 2 1 3h2v2h2v2l4 1 3 3h1l2-16 2-3-1 10v17l3 9 5 4 3 2-2 1 3 1h11l7-2v2h2v2l5 2 5 3 2 5 3 1-14 7-11 3-17 1-15-3-11-6-7-8-5-11 1-4 3 7-2-11v-17l3-14z" fill="#CACFD3"/>
<path transform="translate(1280,481)" d="m0 0h1v5l12 3-2 9-5 12-2 8-8 14-12 17-12 14-20 20-11 9-13 10-7 2-1-4 2-5h-11l-16 10-1-2 24-16 16-12 13-12 6-5 7-8 8-9 11-15 9-16 7-16 2-6h2z" fill="#F6F9F9"/>
<path transform="translate(1037,450)" d="m0 0h57l11 3 2 1v2l-11-2h-53l-1 11 4 8-3 5h-3l-1-3-2 1-7 20-4 10 5 2 6 12 1 3 7 2-2 11-8 24v7l-37 1-3 1 2-4 5-8 21-58 13-35 1-4z" fill="#F8FAFA"/>
<path transform="translate(546,375)" d="m0 0 5 3 12 10 2 3 3-3-1 6-2 6 1-1 38-1-9 24-1 1h-70l4-2 2-6 11-29 4-10z" fill="#CACFD3"/>
<path transform="translate(918,331)" d="m0 0h14l6 4 3 5 1 4v10l-4 15-6 11-9 10-9 6-7 2-13 1 1-7 16-45 5-14z" fill="#0D502D"/>
<path transform="translate(645,362)" d="m0 0 2 1-26 38-12 17-6 6h37l1-7 6-10h41v7l-2 1-4-2h-13l-6 1h-9l-3 3-5 8-1 5-1 1h-38v-2l-6-2-2 4h-73l-5-3 1-4 2-1 71-1 8-22 3-2h3l2 2 4-1 4-4 5-1 2-5 3-1v-3h2l1-4 8-10z" fill="#0C3D1F"/>
<path transform="translate(332,427)" d="m0 0h1v9l-1 19 2 16 6 20 2 5v3l10 19 13 18 5 7 4 4v2l4 2 4 4v2l4 2 6 9 2 1v2l4 1 3 4 14 7 7 8 3 4h-2l-1 4-5-1-18-13-17-14-12-11-14-14-10-13-10-15-8-15-2-6h2l1 4h2l1-5-1-6v-9l1-7-2-11v-24z" fill="#0C3B1E"/>
<path transform="translate(351,361)" d="m0 0v3l-10 14-8 15v2l6 1v-2l7-2 2-5 8-12 2-1-2 5-7 11-8 16-5 15-2 8-2 3-1 7v24l2 11-1 10v8l1 5-2 4h-2l-1-4h-2l-4-10-4-17-1-8v-21l3-20 7-21 8-16 10-16z" fill="#0D4F2C"/>
<path transform="translate(602,450)" d="m0 0h58l13 4 6 4 3 5 3 8v14l-2 7-2-4-13-11v-2h-2v-2l-4-2-8-5v-2l-4-2-5-7-5-1-33-1v9l-10 28-7 20-11 30-8 20-3 5-5 1 2-5 6-14 18-50 13-36z" fill="#F8FAFB"/>
<path transform="translate(750,445)" d="m0 0h22l14 5 10 1v2h3v2l7-1 3-1 3-3 5-2 1 8v53l-4 2-3-2-1-5v-8l-6-22-6-11-8-9-4-1-10-4-4-1h-23l-14 4-11 6-11 9-7 9h-2l-5 9h-2l-1 2-5-12-7-13-1-2h5v2l5 2 3 1 9-4 5-3 7-2 2 1v-2l7-1 7-4 12-4z" fill="#0C3C1E"/>
<path transform="translate(967,319)" d="m0 0 5 4 5 10 2 8v15l-3 18-1 2 2 1-6 16-6 10-13 13-5 3-14 7-15 4-13 1h-8l-11-1h-25l-2-1-11-1v-3l2-1 50-1 20-3 16-6 11-7 7-6 8-11 6-12 4-14 1-6v-21l-4-13z" fill="#0A2F13"/>
<path transform="translate(834,209)" d="m0 0 27 1 48 4 5 1v2h7l10 2v2l4-1v2h2l-1 5-2 2h-12l-38-4-15-1h-24l-40-1h-25l-42 2-17 1 1-2 41-3h95l-1-3 1-5-4-1-17-1z" fill="#0D4E2C"/>
<path transform="translate(547,628)" d="m0 0 9 1 28 8 38 9 39 7 39 5 32 3 39 2h60l39-2 42-4 41-6 36-7 29-7h5v2l-29 7-33 7-33 5-32 4-39 3-26 1h-69l-34-2-34-3-23-3-32-5-28-6-18-4-34-10-12-4z" fill="#F2F4F5"/>
<path transform="translate(758,480)" d="m0 0 7 1 4 2 1 6-1 14-3 5-3 4h-2l-2 2-4 2-2 2h-7v2l-4 2-3-3h-4l-2-4v-7l5-12 6-9 5-4z" fill="#0C3C1E"/>
<path transform="translate(870,307)" d="m0 0 4 1-6 8-13 35-11 31v6l-10 30-5 13-3 1h-16l-14-1-4-4 1-3 30-1 17-47 18-50 6-16z" fill="#0A3115"/>
<path transform="translate(1201,350)" d="m0 0 4 2 19 19v2h2l9 12 8 12 7 14 6 18 2 17v12l-3 17-4 12-8 16-10 15-4 5-2 3h-2l-2 4-5 6-5 5h-2v2h-2v2h-2l-1 3-5 4h-2v2l-5 2-1 3-19 14-9 6h-3v2l-22 12-17 9-15 7-16 7-17 6-19 7-29 9-3-1 1-2 27-8 26-9 27-11 29-14 22-12 18-12 16-12 11-9 15-14 9-11 8-10 9-15 7-16 4-15 1-8v-17l-4-20-6-16-9-16-9-12-11-13-11-11-3-2z" fill="#F1F4F4"/>
<path transform="translate(895,450)" d="m0 0h1v8l-10 15-16 23-14 20-4 6h-2v-20l1-45 2-5 5-1 1 7-2 7 1 29 6-2v-2h2l2-4 4-6 2-2 1-5h3v-2h2l2-4 5-6h2v-2l5-3z" fill="#0A2E13"/>
<path transform="translate(986,304)" d="m0 0 1 2h5l1 2 9 2h2l1-3 4 1h6l2 1v2h2l1-2v3h2l-1 5-5 1-1 5h-2v2l-3 2h-3l-2 6-2 2h-3v2l-5 2h-5l-4-6-1-6-2-4 1-5 2-2-2-3-4-5h3z" fill="#0A6A33"/>
<path transform="translate(918,331)" d="m0 0h14l6 4 1 5-2-1v-2l-16-1-3 10-2 5v6l-2 4-2 8-6 22 1 1h7v-3l5-3h2l1-4 3-1 3-4h4l2-5 5-14 2 1-4 12-7 12-9 9-10 5-16 2h-1l1-7 16-45 5-14z" fill="#0A3014"/>
<path transform="translate(415,510)" d="m0 0 5 2 5 1 3-1 6 3 4-4 8 1v2h2l-2 7v5h-2l-4 5-3 2v8l-1 4-2 1 5 5-1 7-4 1-3-2v-2l-2-1 3-9-6-1-2-2 3-6-2-3-6-4-4-7-3-1 1-6z" fill="#0C3C1E"/>
<path transform="translate(706,195)" d="m0 0 6 2v9l3 7-44 5h-5l1-3-1-4 2-3h3v-3l-3 1-2-4 7 1 1-4 15-2 3 6 2-1 2-6h6l1 1z" fill="#F6F8F9"/>
<path transform="translate(1020,452)" d="m0 0 1 2-7 18-1 5-4-3-37-1v-1l18-1-2-1v-2l-5-2-3-4-2-5-3-3 1-1z" fill="#CACFD3"/>
<path transform="translate(601,451)" d="m0 0h2v10l-3 9-8 8h-3l-1 5-5 4-11 3h-9l-8-3v-4l7-4h2l1-10v-2l3 1 1 2h9l4-3 6 2-1-3h3v-2l5-5 2-3h2z" fill="#0C3C1E"/>
<path transform="translate(718,307)" d="m0 0 4 1-2 6v17l3 72 1 17 3 6v4l-2 1h-34l-5-3 1-4h35l-3-7-4-89v-18z" fill="#0A3216"/>
<path transform="translate(647,407)" d="m0 0h41v7l-2 1-4-2h-13l-6 1h-9l-3 3-5 8-1 5-1 1h-38v-2l-4-1 2-4h36l1-7z" fill="#0A3115"/>
<path transform="translate(768,187)" d="m0 0h63l38 2 43 4 49 7 21 4-3 2h-8l-35-6-50-6-41-3-27-1h-52l-40 2h-12l2-2 29-2z" fill="#204A30"/>
<path transform="translate(782,361)" d="m0 0h2l1 4v9l-2 1-6 17-2 12-6 16h-2l1 10-3 1h-31l-5-3v-3l2-1 32-1v-10z" fill="#0A3015"/>
<path transform="translate(630,475)" d="m0 0h14l5 3 2 3v8l-4 7-10 5h-16l1-6 7-19z" fill="#0A2E13"/>
<path transform="translate(1086,479)" d="m0 0 3 3v9l-4 7-4 2 8 5 1 2 13 5-1 3-4 2-5-1-1 2-2-1v2l-8 1-2 6-4-2-1-4 2-3-6-1-2-1v-7l-2-2 1-1h-11v-4l14-1 8-3 5-6z" fill="#F8FBFB"/>
<path transform="translate(1065,475)" d="m0 0h13l6 3 2 5-1 8-6 7-8 3-15 1 1-7 7-19z" fill="#0A2F13"/>
<path transform="translate(605,398)" d="m0 0h3l-1 6-9 24h-78l1-4 2-1 71-1 8-22z" fill="#0A2E13"/>
<path transform="translate(600,308)" d="m0 0h7l-6 8-7 18-17 48-2 9v7l-9 2-2 1 3-10 11-29 19-51z" fill="#0A3216"/>
<path transform="translate(1054,533)" d="m0 0 8 6 4 5 8 4 2 4h2l4 5 10 5v2l3 1-3 1h-23l-1 3-2-1-3-10-7-15-1-5z" fill="#F9FBFB"/>
<path transform="translate(685,347)" d="m0 0 2 1v34h-23l2-6 18-28z" fill="#0D512D"/>
<path transform="translate(729,193)" d="m0 0h8v17h-8l-3-1v2l-15 1 2-2-2-4v-9l-3-2z" fill="#FBFDFD"/>
<path transform="translate(807,307)" d="m0 0 3 1 1 3 2 2-1 5 2 1 1 10 3 12 1 2h4l3-10 6-18 1-6 2 4-4 14-13 35-2 6h-2l-7-57z" fill="#0D512D"/>
<path transform="translate(1e3 375)" d="m0 0h46v2l-40 14-3-1 5-3-5-3-4-1v-3l-4-1 1-3z" fill="#0A3014"/>
<path transform="translate(1191,556)" d="m0 0 2 1-4 5-18 13-6 4h-3v2l-22 12-17 9-15 7-16 7-17 6-19 7-29 9-3-1 1-2 27-8 26-9 27-11 29-14 22-12 18-12 16-12z" fill="#EDF0F1"/>
<path transform="translate(604,311)" d="m0 0h2l-2 6-3 5-16 48-4 9-3 13 7 1 9 3 8 1-1 2h-31l4-2v-9l16-46 9-24 4-6z" fill="#0D522E"/>
<path transform="translate(558,464)" d="m0 0 3 1-3 3-47 16-30 10h-3l-3 11-5 13h-3l2-9 6-17 10-4 49-16z" fill="#F1F3F4"/>
<path transform="translate(838,310)" d="m0 0h26l-1 5-8 22-1-3 1-3-4-2-1-4-4-1-1-4-4-2-3-4z" fill="#CACFD3"/>
<path transform="translate(823,223)" d="m0 0h22l43 3 36 4 43 7 2 2-12-1-27-4-44-5-36-2-27-1z" fill="#EEF1F2"/>
<path transform="translate(1050,396)" d="m0 0 4 2-1 4-5 2 5 1-1 5-5 3-5 1-6 3-3-3-8-2-1-4 4-4 9-3v-2h6l2-1 2 1 1-2 2 1z" fill="#0C3C1E"/>
<path transform="translate(914,353)" d="m0 0 2 4-2 4-2 8-6 22 1 1h7v-3l5-3h2l1-4 3-1 3-4h4l2-5 5-14 2 1-4 12-7 12-9 9-10 5-8 1-2-4 1-8z" fill="#0C3C1E"/>
<path transform="translate(669,415)" d="m0 0 5 2 4-1 1 6-1 2 2 1-3 3h-3l-8-1-1 2-7-1-4 2-3-1-2-7 1-2h2v-3l3-1h13z" fill="#0A6A33"/>
<path transform="translate(1009,350)" d="m0 0h76l-3 3-70 1-7 18-2 3h-2l1-7 6-17z" fill="#EDF0F1"/>
<path transform="translate(547,628)" d="m0 0 9 1 28 8 38 9 39 7 5 2-1 2-26-4-28-6-18-4-34-10-12-4z" fill="#F2F4F5"/>
<path transform="translate(601,398)" d="m0 0 3 1-5 12h-2l-2 7-2-3-4-5-5-4v-3h-20l2-4z" fill="#F7F9FA"/>
<path transform="translate(768,187)" d="m0 0h63l23 1v1l-15 1h-73l-40 2h-12l2-2 29-2z" fill="#5B8471"/>
<path transform="translate(645,362)" d="m0 0 2 1-26 38-12 17-5 4 1-7 2-6v-7l2-2 5-1 4-4 5-1 2-5 3-1v-3h2l1-4 8-10z" fill="#0D4F2D"/>
<path transform="translate(687,424)" d="m0 0h38l2 2v4l-2 1h-34l-5-3z" fill="#0A3115"/>
<path transform="translate(317,525)" d="m0 0 3 3 9 14 8 10 9 10 7 8 14 13 10 8 13 10 1 2-2 2-14-11-15-13-19-19-11-14-9-13-4-7z" fill="#2A583E"/>
<path transform="translate(651,411)" d="m0 0h37l-1 4-5-2h-13l-6 1h-9l-3 3-5 8-1 5-1 1h-38v-2l-2-1h40v-6l5-9z" fill="#0D3D1F"/>
<path transform="translate(842,383)" d="m0 0 2 1-1 6-5 17-7 18-2 6-3 1h-16l-14-1-1-3h32l1-5z" fill="#0D3D1F"/>
<path transform="translate(855,223)" d="m0 0h14l25 2 28 3 39 6 27 5 1 3-27-5-38-6-36-4-33-3z" fill="#0A3216"/>
<path transform="translate(685,347)" d="m0 0 2 1v17l-3-6-13 21 3 1-1 1h-9l2-6 18-28z" fill="#0B3417"/>
<path transform="translate(1118,284)" d="m0 0 5 1 22 11 21 12 21 14 13 10 14 12 17 17-1 2-20-20-11-9-19-14-19-12-27-15-16-8z" fill="#0D4122"/>
<path transform="translate(1201,350)" d="m0 0 4 2 19 19v2h2l9 12 8 12 7 14 6 18-2 6h-1l-4-16-7-17-9-15-11-14-11-12-7-7-3-2z" fill="#EEF0F2"/>
<path transform="translate(807,307)" d="m0 0 3 1 2 11 4 32v7h2l-1 8-1 2h-2l-7-57z" fill="#0A3216"/>
<path transform="translate(1018,637)" d="m0 0h5v2l-29 7-33 7-19 3-4-1 3-2 44-8z" fill="#EDEFF1"/>
<path transform="translate(1045,378)" d="m0 0h5l-3 3-48 17-4 1v4h-2v2l-4 2 3-10 10-4z" fill="#EFF2F3"/>
<path transform="translate(350,342)" d="m0 0 3 1 1 7 3 2-1 4-4 5-4-1v-2l-6 1v-6l-3 1-5-1 2-2 7-2 5-5z" fill="#FAFCFC"/>
<path transform="translate(1111,394)" d="m0 0 1 2h2l1 5-1 2-3 1-1 3h-2v2l-10 2-4-3v-3l7-2 3-5 4-2h3z" fill="#0C3C1E"/>
<path transform="translate(1191,556)" d="m0 0 2 1-4 5-18 13-6 4h-3v2l-22 12-5 3-2-1 3-3 23-13 15-10 16-12z" fill="#EEF1F2"/>
<path transform="translate(1073,399)" d="m0 0h4v2l2 1 3-3 5 1 3 3-3 1h-3v2h-3l1 3h-8l-4 2-1 3h-3v-7l3-3h2v-2h2z" fill="#0C3C1E"/>
<path transform="translate(1237,507)" d="m0 0h2l-2 5-5 8-3 3-2 3h-2l-2 4-5 6-5 5h-2v2h-2v2h-2l-1 3-5 4h-2v2l-5 2-1 3-2-1 5-6 8-7 12-11 9-11 8-10z" fill="#EEF1F2"/>
<path transform="translate(503,494)" d="m0 0h47l-2 3h-46l-2-2z" fill="#FBFDFD"/>
<path transform="translate(652,481)" d="m0 0 2 1 1 6-4 9-8 6-12 2h-7l-3-1v-2l13-1 12-5 4-7z" fill="#F7F9FA"/>
<path transform="translate(547,628)" d="m0 0 9 1 28 8 25 6-4 3-33-9-25-8z" fill="#EBEEEF"/>
<path transform="translate(588,250)" d="m0 0 4 1-4 2v3l1-2h2l1 3 6-1 1 2-16 4-6-1v-3l-2-1v-2l10-4z" fill="#E1E5E7"/>
<path transform="translate(523,474)" d="m0 0 3 1-10 4-37 12h-2l1-4 6-2h3l3-3 7-1 20-5z" fill="#0A2F14"/>
<path transform="translate(616,446)" d="m0 0h8l2 1h33l4 1 14 6 5 3 1 3h-3l-5-4-10-4-14-2-49-1v-1h14z" fill="#0A3115"/>
<path transform="translate(391,602)" d="m0 0 30 19 1 4-5-2-18-11-9-7z" fill="#1E492E"/>
<path transform="translate(333,466)" d="m0 0 3 1 3 15 6 16 9 17 7 11-3-1-9-14-8-16-6-16-2-8z" fill="#E7EAEC"/>
<path transform="translate(609,245)" d="m0 0 7 1 2 5-10 2h-3l-2-1-2 1 2 4h-4l-3-5-3-2 10-2h2l1-2z" fill="#CBD0D4"/>
<path transform="translate(979,205)" d="m0 0h8l31 7-2 1v2l-11-2-28-6z" fill="#1C472C"/>
<path transform="translate(317,525)" d="m0 0 3 3 9 14 8 10 9 10 4 6h-3l-11-12-14-19-5-9z" fill="#43755D"/>
<path transform="translate(663,654)" d="m0 0 12 1 34 4-4 3-27-3-12-2v-2z" fill="#E9ECEE"/>
<path transform="translate(726,426)" d="m0 0 1 4-2 1h-34l-2-3h37z" fill="#0D3D1F"/>
<path transform="translate(502,278)" d="m0 0h2v5l3 1-7 3h-2l-3 1v-3l-4 2 1 4 3 1-5 1-1-3-4-2 2-1v-2z" fill="#CACFD3"/>
<path transform="translate(831,663)" d="m0 0h18l-1 2-17 1h-44v-1z" fill="#F3F5F6"/>
<path transform="translate(767,426)" d="m0 0 1 4-3 1h-31l-2-3h35z" fill="#0D3D1F"/>
<path transform="translate(347,336)" d="m0 0 5 1 3 2 1 9 3 4-2 1-5-5v-5l-7 1-4 2v-3l4-4h2z" fill="#CACFD3"/>
<path transform="translate(918,230)" d="m0 0 13 1 36 6 2 2-12-1-27-4-7-1v-2h-5z" fill="#E9ECEE"/>
<path transform="translate(334,353)" d="m0 0h8v3l2 1-1 1h5v2l3 1-5 7-4-1-2-6-1-5-5-2z" fill="#D3D7DB"/>
<path transform="translate(554,260)" d="m0 0 4 1-2 2-2-1-1 6 2 2-16 5-3-1 5-1v-3l4 1 1-4 2-2-3-1 1-2z" fill="#D2D6D9"/>
<path transform="translate(1061,478)" d="m0 0 1 2-2 5-2 10-1 2h-2l-1 2-1-4v-8l5-7z" fill="#F5F8F8"/>
<path transform="translate(952,199)" d="m0 0 14 2 16 3-3 2h-8l-19-4z" fill="#264D34"/>
<path transform="translate(839,189)" d="m0 0h30l11 2v1h-19l-16-1-6-1z" fill="#1B4C30"/>
<path transform="translate(754,663)" d="m0 0h17l41 1v1l-25 1h-18v-2h-15z" fill="#E1E4E6"/>
<path transform="translate(432,546)" d="m0 0 5 2 2 3-1 7-4 1-3-2v-2l-2-1 2-6z" fill="#0D3D1F"/>
<path transform="translate(607,644)" d="m0 0 10 1 21 4-4 3-25-5-2-1z" fill="#F0F3F3"/>
<path transform="translate(1201,350)" d="m0 0 4 2 19 19v2h2l6 8-1 3-11-13-7-8-9-9-3-2z" fill="#EDEFF1"/>
<path transform="translate(527,268)" d="m0 0h4l-1 3h-2v3l2 1v1l3 1-5 2-7-1-3-6 9-2z" fill="#CACFD3"/>
<path transform="translate(1e3 392)" d="m0 0 3 1-3 3-10 3v4h-2v2l-4 2 3-10 10-4z" fill="#EEF1F2"/>
<path transform="translate(1018,637)" d="m0 0h5v2l-29 7-5-1 4-2z" fill="#EAEDEE"/>
<path transform="translate(774,396)" d="m0 0h2l-1 8-6 16h-2v5h-1l1-9z" fill="#0D3D1F"/>
<path transform="translate(875,190)" d="m0 0 18 1 10 1-3 1v2l-25-2z" fill="#456E59"/>
<path transform="translate(900,193)" d="m0 0h12l16 2v1l-5 1h-10l-13-2z" fill="#29533A"/>
<path transform="translate(655,447)" d="m0 0 9 1 18 9 1 3h-3l-5-4-10-4-12-3z" fill="#0C3D1F"/>
<path transform="translate(1232,383)" d="m0 0 5 5 6 9 5 11-1 2-2-1-8-16-5-7z" fill="#EFF2F3"/>
<path transform="translate(400,348)" d="m0 0 2 1-26 26v-3l16-17z" fill="#0C3C1E"/>
<path transform="translate(684,366)" d="m0 0h1v8l-3 6h-6l3-7h2l1-5z" fill="#0A6B34"/>
<path transform="translate(349,568)" d="m0 0 4 2 14 13v2l-4-1-14-14z" fill="#36634B"/>
<path transform="translate(1211,539)" d="m0 0h2v2h-2v2h-2v2h-2l-1 3-5 4h-2v2l-5 2-1 3-2-1 5-6 8-7z" fill="#F0F3F4"/>
<path transform="translate(894,228)" d="m0 0h14l15 3v1l-18-1-11-1z" fill="#F0F3F4"/>
<path transform="translate(979,205)" d="m0 0h8l10 2 2 3h-8l-14-3z" fill="#1F452C"/>
<path transform="translate(1191,556)" d="m0 0 2 1-4 5-15 11-2-1 5-5 13-10z" fill="#ECEFF0"/>
<path transform="translate(1075,619)" d="m0 0h4v2l-23 8-2-1 1-2z" fill="#EDF0F1"/>
<path transform="translate(317,525)" d="m0 0 3 3 9 14 4 5-1 4-11-16-4-7z" fill="#55816D"/>
<path transform="translate(686,509)" d="m0 0h3l-1 7-5 4-2 1-1 2-2-4z" fill="#0D3D1F"/>
<path transform="translate(346,424)" d="m0 0 1 4-3 15-2 1 1-9-1 2h-2l-2-4-2-3 4-1 3 3z" fill="#CBD0D4"/>
<path transform="translate(934,654)" d="m0 0h5l-3 3-16 2-8-1v-1z" fill="#E9ECEE"/>
<path transform="translate(762,413)" d="m0 0h1l1 11h-33v-1l30-1z" fill="#CACFD3"/>
<path transform="translate(1110,383)" d="m0 0 2 3v3l-6 2-2 1-2-1 1-5z" fill="#0C3C1E"/>
<path transform="translate(333,466)" d="m0 0 3 1 3 15 1 6h-2l-5-17z" fill="#EAEDEE"/>
<path transform="translate(1045,378)" d="m0 0h5l-3 3-14 5-3-1 1-2z" fill="#F1F4F4"/>
<path transform="translate(874,226)" d="m0 0h14l10 1-4 2h-12l-8-1z" fill="#EDF0F1"/>
<path transform="translate(926,342)" d="m0 0 4 4-2 4-6 1v-7l2-1 2 1z" fill="#0A6B34"/>
<path transform="translate(955,519)" d="m0 0h29l4 1-1 4-2-2-5-1-25-1z" fill="#CACFD3"/>
<path transform="translate(523,474)" d="m0 0 3 1-10 4-13 4 2-4 12-3z" fill="#0A3518"/>
<path transform="translate(592,251)" d="m0 0 5 1 2 5-8 1-1-5z" fill="#F8FAFA"/>
<path transform="translate(1130,279)" d="m0 0 1 2 4 1 1 5-7-2-3-3z" fill="#0D3D1F"/>
<path transform="translate(1093,612)" d="m0 0 3 1-4 3-10 4-4-1 2-2z" fill="#EAEDEE"/>
<path transform="translate(1016,213)" d="m0 0 10 1 4 2h-2v2l-11-2z" fill="#1A4227"/>
<path transform="translate(708,196)" d="m0 0 4 1v9l2 5h-4l-1-6z" fill="#CACFD3"/>
<path transform="translate(903,658)" d="m0 0h12l-1 2-18 2v-2z" fill="#F3F6F7"/>
<path transform="translate(663,654)" d="m0 0 12 1 7 1-4 2h-9l-3-1v-2z" fill="#E9ECED"/>
<path transform="translate(985,645)" d="m0 0h8l-3 2-17 3 2-3z" fill="#F1F3F4"/>
<path transform="translate(495,284)" d="m0 0 2 1-2 3h7l-2 2-9 2 1-4-2-1 2-2z" fill="#EEF1F2"/>
<path transform="translate(1255,465)" d="m0 0h1l-1 10-1 3-3 1 2-12z" fill="#F2F4F5"/>
<path transform="translate(934,452)" d="m0 0 2 1-8 9-4 6-3-1 9-11z" fill="#0C3E20"/>
<path transform="translate(1201,350)" d="m0 0 4 2 13 13-1 2-13-13-3-2z" fill="#E8EBEC"/>
<path transform="translate(678,657)" d="m0 0h13l3 3h-9l-7-1z" fill="#F3F5F6"/>
<path transform="translate(391,602)" d="m0 0 11 7-2 1-6-2-4-3z" fill="#18492C"/>
<path transform="translate(545,264)" d="m0 0 4 1-3 3-1 3-5-2-1-2h3v-2z" fill="#FCFEFE"/>
<path transform="translate(952,199)" d="m0 0 14 2-4 2h-7l-3-2z" fill="#3B5D48"/>
<path transform="translate(893,659)" d="m0 0h7l-6 3-10 1-1-3z" fill="#E7EAEB"/>
<path transform="translate(749,472)" d="m0 0h11l6 3 2 6-7-6-2-1-10-1z" fill="#CACFD3"/>
<path transform="translate(347,336)" d="m0 0 2 4-2 4-6 2v-3l4-4h2z" fill="#F8FAFB"/>
<path transform="translate(603,251)" d="m0 0 4 2 5 1-4 2h-7l-1-4z" fill="#E7EAEB"/>
<path transform="translate(854,662)" d="m0 0h12v1l-8 1-1 1h-9l1-2z" fill="#E6E9EB"/>
<path transform="translate(396,609)" d="m0 0 8 1 3 4v2l-5-2-6-4z" fill="#375A44"/>
<path transform="translate(578,253)" d="m0 0h4v2l-3 3 1 3 3 1-6-1v-3l-2-1v-2z" fill="#CACFD3"/>
<path transform="translate(1052,627)" d="m0 0 3 1-5 3-4 1h-7l4-2z" fill="#E9ECED"/>
<path transform="translate(875,190)" d="m0 0h7l8 2v1h-15z" fill="#3A654E"/>
<path transform="translate(414,617)" d="m0 0 7 4 1 4-5-2-2-1z" fill="#204A2F"/>
<path transform="translate(1105,607)" d="m0 0h3v2l-11 5-2-1 3-3z" fill="#F1F3F4"/>
<path transform="translate(548,266)" d="m0 0m-2 1 2 1v3l-3 2-9 2 2-2h3v-3l4 1z" fill="#CBD0D4"/>
<path transform="translate(1008,210)" d="m0 0 10 2-2 1v2l-7-1z" fill="#2D513A"/>
<path transform="translate(1075,619)" d="m0 0h4v2l-11 4-2-1 1-2z" fill="#EFF1F2"/>
<path transform="translate(1132,594)" d="m0 0 2 1-3 3-6 3-3-1 4-3z" fill="#E7EAEC"/>
<path transform="translate(1252,478)" d="m0 0 1 3-3 7-3 1 3-10z" fill="#EFF1F2"/>
<path transform="translate(566,634)" d="m0 0h7l7 2-1 2-7-1-6-2z" fill="#EEF1F2"/>
<path transform="translate(349,568)" d="m0 0 4 2 5 5-1 3-8-8z" fill="#144E2F"/>
</svg>
