<?xml version="1.0" encoding="UTF-8"?>
<svg version="1.1" viewBox="0 0 1200 800" width="1280" height="1280" xmlns="http://www.w3.org/2000/svg">
<path transform="translate(581,66)" d="m0 0h39l27 2 34 5 30 7 25 8 21 8 25 12 20 12 14 10 11 9 12 11 8 8 11 14 10 15 3 7-8-1-42-9-45-8-41-6-48-5-31-2h-28l-7 3-5 6-2 10v82l1 96v88l-18 1-11-1v-75l1-99v-92l-2-10-3-5-8-4h-29l-42 3-44 5-46 7-48 9-31 7-4-1 8-14 9-12 12-14 10-10 11-9 13-10 21-13 21-11 27-11 28-9 30-7 34-5z" fill="#0072BD"/>
<path transform="translate(506,201)" d="m0 0h15l12 2 10 5 4 5 2 6v20l-6 37-11 57-10 48-13 56-5 1-26-7-23-8-23-10-21-11-17-11-12-9-11-9-20-20-10-13-8-13-8-16-5-13-4-16-2-17v-16l3-21 3-3 45-9 38-6 44-5 41-3z" fill="#0072BD"/>
<path transform="translate(680,201)" d="m0 0h15l47 3 41 4 42 6 47 9 11 3 3 13 1 10v17l-3 20-6 20-9 19-10 15-11 14-21 21-17 13-15 10-16 9-16 8-21 9-30 10-16 4-4-1-14-61-13-63-11-61-2-14v-18l4-10 9-6 7-2z" fill="#0072BD"/>
<path transform="translate(455,544)" d="m0 0h80l5 12 19 48 16 42 18 46 16 41v2h-74l-4-9-15-44-15-43-5-14-1-1-19 56-15 43-4 12h-74l3-9 18-48 19-50 17-45z" fill="#0072BD"/>
<path transform="translate(829,544)" d="m0 0h79l4 8 16 42 18 46 19 49 17 44v2h-74l-4-10-19-55-16-46-4 9-25 74-10 28h-73l2-9 16-42 17-45 19-50 16-42z" fill="#0072BD"/>
<path transform="translate(592,544)" d="m0 0h183v56h-52v135h-77v-135h-55v-55z" fill="#0072BD"/>
<path transform="translate(219,544)" d="m0 0h183v56l-52 1v133l-1 1h-76v-135h-55v-55z" fill="#0072BD"/>
</svg>
