<?xml version="1.0" encoding="UTF-8"?>
<svg version="1.1" viewBox="0 0 2048 1152" width="1280" height="1280" xmlns="http://www.w3.org/2000/svg">
<path transform="translate(983,13)" d="m0 0h99l53 3 52 5 45 6 47 8 47 10 39 10 40 12 38 13 33 13 25 11 29 14 23 12 27 16 21 14 14 10 14 11 11 9 12 11 8 7 12 12 7 8 11 13 13 18 12 20 8 16 7 17 6 19 4 20 1 8v41l-3 19-6 22-6 16-12 25-12 19-14 19-13 15-28 28-11 9-12 10-16 12-27 18-22 13-18 10-25 13-31 14-35 14-34 12-38 12-37 10-49 11-43 8-48 7-46 5-40 3-45 2h-76l-45-2-50-4-43-5-47-7-42-8-39-9-38-10-39-12-29-10-33-13-32-14-21-10-22-12-23-13-17-11-16-11-19-14-13-11-14-12-24-24-9-11-12-15-10-15-12-21-9-20-7-22-4-17-2-16v-35l3-21 6-23 10-25 11-21 14-21 10-13 12-14 16-17 10-9 11-10 14-11 16-12 30-20 22-13 24-13 24-12 32-14 36-14 38-13 52-15 38-9 39-8 41-7 45-6 40-4 44-3zm34 68-20 4-16 6-11 7-11 9-9 9-10 13-11 18-8 16-7 15-14 34-8 24-4 19-1 7v22l4 15 6 10 8 8 12 7 14 4 13 2h24l23-3 36-8 35-10 37-12 41-15 41-16 29-12 27-12 34-16 23-12 23-13 20-12 30-20 17-13 12-10 3-5-1-6-10-5-43-12-37-9-50-10-53-8-56-6-46-3-23-1zm-228 23-18 3-40 9-41 11-35 11-38 14-26 11-30 14-26 14-23 14-16 11-12 9-10 8-14 12-21 21-9 11-12 17-11 19-8 20-5 18-2 13v30l3 18 8 24 12 23 8 12 11 14 11 12 19 19 11 9 15 12 30 20 9 5h9l5-6 9-19 13-30 16-35 19-40 28-56 12-22 15-28 14-24 12-21 14-23 12-19 28-42 12-17 14-19 10-13 11-14 11-13 7-10 1-5-5-2zm742 92-5 3-10 19-13 30-15 33-14 30-19 39-11 22-10 19-15 28-13 23-16 28-17 28-15 24-24 36-14 20-14 19-14 18-13 16-12 15-1 7 1 1h15l29-6 52-13 39-12 29-10 30-12 27-12 30-15 24-14 16-10 18-13 14-11 14-12 21-21 9-11 11-15 10-17 7-15 7-21 3-15 1-9v-21l-2-15-4-17-8-21-9-17-11-16-8-10-9-10-7-8-8-8-8-7-13-11-19-14-15-10-13-8zm-429 232-26 3-36 8-35 10-37 12-33 12-42 16-37 15-33 15-25 12-20 10-23 13-21 12-33 22-12 9-10 8-10 9-1 2v6l8 5 18 6 50 13 38 8 38 7 49 7 49 5 46 3 24 1h62l17-3 16-6 11-6 10-8 10-9 11-14 10-15 11-21 12-28 11-28 7-23 3-16 1-18-2-15-5-13-8-10-10-7-12-5-13-3-10-1z" fill="#888E90"/>
<path transform="translate(991,19)" d="m0 0h82l51 2 44 4 52 6 49 8 31 6 33 8 16 4 19 5 50 15 48 18 21 9 10 4 24 12 19 9 4 3 8 4 21 12 27 18 10 7v2l5 2 14 11 13 11 4 3v2l4 2 19 19 14 16v2h2l13 19 1 4-5 1-9 1h-10l11 17 8 16 4 7 10 30 2 10 1 13h-2l-2-9-5-21-8-21-6-12-5-9-14-21-13-16-11-12-16-16-11-9-13-11-19-14-11-7-17-11-35-20-13-6v-2l-6-1-6-3-8 1-2 6-12 25-4 1-16 32-11 23-20 40-10 19-14 27-13 23-5 9-2 1h-24l-72 4-96 5-26 2h-9l-10 1-30 1-24 1-6-1-50 15-35 9-37 8-26 4-20 2h-37l-19-3-20-6-11-6-9-8-46 3-60 3h-13l1-5 13-24 14-24 21-35 17-28 14-23 6-10-2-2 11-18 15-23 18-27 11-16 16-23 13-18 16-23 16-24 1-4-33 3-46 7-46 8-41 9-16 4-5 2-9 2-21 6-32 10-33 12-34 14-28 13-20 10-16 9-22 13-18 12-17 12-11 9-13 11h-2v2l-8 7-20 20-11 14-9 12-11 18-8 16-8 20-4 15-3 17-2 22h-2l-1-3-1-15-21 2-1-4 2-19 4-16 7-21 11-23 8-14 11-16 14-18 9-10 7-8 7-7 8-7 13-12 14-11 20-15 26-17 24-14 26-14 17-8 13-6 30-13 41-15 37-12 14-4 42-11 31-7 41-8 53-8 35-4 47-4zm26 62-20 4-16 6-11 7-11 9-9 9-10 13-11 18-8 16-7 15-14 34-8 24-4 19-1 7v22l4 15 6 10 8 8 12 7 14 4 13 2h24l23-3 36-8 35-10 37-12 41-15 41-16 29-12 27-12 34-16 23-12 23-13 20-12 30-20 17-13 12-10 3-5-1-6-10-5-43-12-37-9-50-10-53-8-56-6-46-3-23-1z" fill="#FDFDFD"/>
<path transform="translate(1494,139)" d="m0 0 7 1 9 4v2l4 1 16 8 23 13 16 10 12 8 13 9 17 13 13 11 3 2v2l4 2 23 23 9 11 10 13 7 11 5 7 11 22 7 19 5 21 1 9h2l-2-13v-5l2 4 2 13v39l-3 16-5 19-7 18-10 19-7 11-9 13-8 10-12 14-21 21-11 9-13 11-18 13-15 10-21 13-29 16-24 12-34 15-34 13-41 14-39 11-40 10-44 9-43 7-37 5-51 5h-14v-1l12-3 10-6 12-16 14-21 13-21 13-23-1-4 8-16 8-17 8-16 14-34 11-31 6-21 5-24 1-8v-28l-1-11h-2l-2-8-6-11-8-9-13-8-14-5-19-4-2-2 4-2-9-1h-36l-27 3-29 5-36 8-13 4-9 2-24 7-18 6-17 5-10 3-8-1-65 3-17 1-40 2-14 1-139 7-2-1 2-6 12-23 5-9 1 2 53-3 37-2 29-2 9 8 14 7 17 5 19 3h37l28-3 38-7 33-8 36-10 33-10 9 1 46-2h10l5-1h11l24-2 154-8 14-1h25l13-23 12-23 10-19 20-39 17-34 11-23 7-13h3l15-31zm37 57-5 3-10 19-13 30-15 33-14 30-19 39-11 22-10 19-15 28-13 23-16 28-17 28-15 24-24 36-14 20-14 19-14 18-13 16-12 15-1 7 1 1h15l29-6 52-13 39-12 29-10 30-12 27-12 30-15 24-14 16-10 18-13 14-11 14-12 21-21 9-11 11-15 10-17 7-15 7-21 3-15 1-9v-21l-2-15-4-17-8-21-9-17-11-16-8-10-9-10-7-8-8-8-8-7-13-11-19-14-15-10-13-8z" fill="#A2A8AB"/>
<path transform="translate(1009,47)" d="m0 0h66l43 2 50 4 27 3 49 7 38 7 13 2 16 4 27 6 20 6 13 3 5 2 18 5 10 4 17 5 7 3 12 4 9 4 16 6 7 6-1 6-7 12-9 11-11 12-13 12-10 8-20 15-27 18-28 17-25 14-28 15-22 11-33 15-30 13-38 15-40 15-52 18-46 14-52 13-33 6-21 2 2-5 6-7h2l2-5h2v-2h2l2-5 5-2 1-4 4-2v-2h2v-2h2l2-5 6-5 1-3h2v-2h2v-2h2l1-4h-28l-21-3-14-5-11-8-5-5-6-8-5-12-2-4-11 11-5 6-26 26-2 3h-2l-2 4-13 13-6 5-4-8-3-12-1-9v-14l3-24 6-25 12-36 13-32 11-24 12-24 13-23 13-22 13-20 12-17 8-10h2v-2l11-5 13-2 16-1zm8 34-20 4-16 6-11 7-11 9-9 9-10 13-11 18-8 16-7 15-14 34-8 24-4 19-1 7v22l4 15 6 10 8 8 12 7 14 4 13 2h24l23-3 36-8 35-10 37-12 41-15 41-16 29-12 27-12 34-16 23-12 23-13 20-12 30-20 17-13 12-10 3-5-1-6-10-5-43-12-37-9-50-10-53-8-56-6-46-3-23-1z" fill="#A3A9AC"/>
<path transform="translate(983,13)" d="m0 0h99l53 3 52 5 45 6 47 8 47 10 39 10 40 12 38 13 33 13 25 11 29 14 23 12 27 16 21 14 14 10 14 11 11 9 12 11 8 7 12 12 7 8 11 13 13 18 12 20 8 16 7 17 6 19 4 20 1 8v41l-3 19-6 22-6 16-12 25-12 19-14 19-13 15-28 28-11 9-12 10-16 12-27 18-22 13-18 10-25 13-31 14-35 14-34 12-38 12-37 10-49 11-43 8-48 7-46 5-40 3-45 2h-76l-45-2-50-4-43-5-47-7-42-8-39-9-38-10-39-12-29-10-33-13-32-14-21-10-22-12-23-13-17-11-16-11-19-14-13-11-14-12-24-24-9-11-12-15-10-15-12-21-9-20-7-22-4-17-2-16v-35l3-21 6-23 10-25 11-21 14-21 10-13 12-14 16-17 10-9 11-10 14-11 16-12 30-20 22-13 24-13 24-12 32-14 36-14 38-13 52-15 38-9 39-8 41-7 45-6 40-4 44-3zm8 6-50 2-25 2-29 3-36 4-56 9-35 7-50 12-18 5-24 7-47 16-28 11-19 8-14 7-18 8-25 13-27 16-30 20-21 16-13 11-12 11-13 12-11 12-11 14-10 13-10 16-4 7-9 17-8 20-6 21-2 11-1 16 2 1 20-2 1 26 2 16 4 20 7 20 12 24 14 21 11 14 12 13 7 8 17 16 11 9 15 12 19 13 15 10 22 13 24 13 16 8 33 15 27 11 42 15 40 12 56 14 45 9 44 7 60 7 51 4 23 1h92l51-2 46-4 41-5 46-7 41-8 39-9 37-10 35-11 29-10 30-12 25-11 29-14 26-14 23-14 22-15 16-12 11-9 14-12 21-21 18-22 10-15 7-11 9-19 7-18 5-19 2-13v-39l-3-17-10-29-4-9-8-16-7-12-6-9h10l13-1 1-4-10-14-4-6h-2l-2-4-8-10-25-25h-2v-2l-11-9-12-10-11-8h-2v-2l-20-14-13-8-16-10-11-6-9-5-16-8-17-9-10-4-9-4-20-9-14-5-10-4-30-11-47-14-19-5-40-10-45-9-51-8-56-6-33-3-51-2z" fill="#545758"/>
<path transform="translate(1607,877)" d="m0 0h196v262h-63v-81h-112v81h-63v-212l2-14 5-12 6-8 7-7 14-7zm30 57-6 4-3 6v57h112v-67z" fill="#010101"/>
<path transform="translate(1274,877)" d="m0 0h196l13 4 10 6 9 9 6 12 3 13v174l-3 13-5 10-9 10-10 6-11 4-5 1h-194zm63 57v148h102l6-4 3-4 1-3v-127l-4-6-5-4z" fill="#010101"/>
<path transform="translate(1499,141)" d="m0 0 5 1 6 2v2l4 1 16 8 23 13 16 10 12 8 13 9 17 13 13 11 3 2v2l4 2 23 23 9 11 10 13 7 11 5 7 11 22 2 5 2 12-15 9-10 5-2-1 3 12 2 18v15l-2 18-4 16-6 17-5 12-11 19-9 12-13 16-25 25-11 9-18 14-18 12-18 11-21 12-32 16-30 13-35 13-36 12-34 10-41 10-25 5h-19l-4-4-7 1-5 1v2l-7 3h-3v2h-4v2l-7 3-15 3v2h-5v2l-5 1v2h-4v2l-7 3h-3v2h-5v2l-5 1v2h-5v2h-3l-1 3h-2l2-5 14-21 14-20 13-18 13-19 10-14 29-44 17-26 12-19 16-26 17-28 17-29 13-22 6-11 6-10 6-12 2-2 3-7 16-30 12-22 14-27 10-19 11-22 4-4v2h3v2l4 1 17 11 15 10 3 5 2-2 13-29 7-17 7-15 5-9 7-6v-5h-2v-3h-2l-1-5h-2l-6-11-8-12-1-3-2-2v-3h-2v-3h-2zm32 55-5 3-10 19-13 30-15 33-14 30-19 39-11 22-10 19-15 28-13 23-16 28-17 28-15 24-24 36-14 20-14 19-14 18-13 16-12 15-1 7 1 1h15l29-6 52-13 39-12 29-10 30-12 27-12 30-15 24-14 16-10 18-13 14-11 14-12 21-21 9-11 11-15 10-17 7-15 7-21 3-15 1-9v-21l-2-15-4-17-8-21-9-17-11-16-8-10-9-10-7-8-8-8-8-7-13-11-19-14-15-10-13-8z" fill="#898F91"/>
<path transform="translate(123,877)" d="m0 0h63v100l111-1 1-99h62v262h-62v-105h-112v105h-63z"/>
<path transform="translate(685,877)" d="m0 0h63l1 204h101l6-3 3-5 1-196h63v215l-2 12-4 10-6 8-8 8-14 7-10 2h-194z" fill="#010101"/>
<path transform="translate(980,877)" d="m0 0h195l9 2 12 6 10 9 6 10 5 16v219h-62l-1-193-3-8-5-3-104-1v205h-62z"/>
<path transform="translate(1152,365)" d="m0 0h30l21 3 17 5 14 7 3 4h-2v2h-3v2l-4 1v2h-2v2l-4 3-3 2h-3v2l-7 4-3 4-4 1-4 4-6 4-3 1v2l-5 3h-2l-1 3-2 2h-4v2h-3l-1 3-6 3-5-1-12-6-17-4-6-1h-29l-22 3-28 6-36 10-47 15-40 15-39 15-31 13-27 12-33 16-31 16-24 14-21 13-19 13-16 12-13 11-6 6h-7v2h-21v2l-21 2-1 1h-16l1-4 7-11 11-12 16-16 14-11 17-13 33-22 25-15 23-13 42-22 27-13 41-18 43-17 40-15 39-14 46-14 41-11 31-7 37-6z" fill="#363A3B"/>
<path transform="translate(384,877)" d="m0 0h74l7 10 13 21 15 24 12 19 13 21 4 6 2 1 2-5 12-20 11-17 13-21 15-24 9-14 1-1h74l-8 14-14 22-16 26-24 38-30 48-14 22-1 92h-63l-1-92-15-24-12-19-65-104-12-19z" fill="#010101"/>
<path transform="translate(1650,520)" d="m0 0 2 1-1 2 3 1 18-1 4 2-7 8h-2l-2 4-6 7-8 7-12 11-11 9-16 13-16 11-15 10-23 14-22 12-34 17-30 13-37 14-38 13-35 10-52 13-34 7-37 6-10 2-41 5-14 2-50 4-60 3h-64l-59-3-51-4-31-4-37-5-16-3-23-4-28-6-10-2-15-4-18-4-21-6-20-6-18-6-17-5-15-6-12-4-11-5-10-4-13-5-14-7-10-4v-2l-5-1-17-8v-2l-7-2-20-11-8-5v-2l8-2 24-2v-2l5 1 22 12 20 9 34 15 35 13 36 12 39 11 41 10 45 9 44 7 60 7 51 4 23 1h92l51-2 46-4 41-5 46-7 41-8 39-9 37-10 35-11 29-10 30-12 25-11 29-14 26-14 23-14 22-15 16-12 11-9 14-12z" fill="#091211"/>
<path transform="translate(1237,383)" d="m0 0 7 6 7 11 3 6v6h2l2 11v28l-4 23-5 20-12 36-14 34-9 20-16 32v3l-1 5-13 23-12 19-12 18-14 19-9 6-13 4v1l-51 2h-92l-23-1-61-5-8-1-5-2-4-2h19l35 3 34 2 27 1h76l46-2 16-4 8-4 4-5 1-2h2l-1-5-10-5-1-2-3-1-4-4-2-1v-2l-4-1-3-1-3-3v-2l-6-2-6-5-11 8-14 7-21 6-7 1h-72l-39-2-57-5-47-6-42-7-44-9-48-12-24-7-8-3v-2l-5-2-3-3-1-7-7 2h-14v2h-19v2l-25 2h-3l2-6 1 2 16-1 3-1 10-1h9v-2h21v-2l7-1 10-10 14-11 18-13 20-13 25-15 22-12 23-12 22-11 31-14 41-17 29-11 45-17 47-15 29-8 30-7 19-3 8-1h29l20 4 12 5 5 3 5-1 4-2 1-2h3v-2h4l1-3 7-5h2v-2l9-6 4-4 6-4 3-3 5-1v-2l2-2h3l1-2 4-1v-2h2v-2l4-1v-2h3v-2zm-135 45-26 3-36 8-35 10-37 12-33 12-42 16-37 15-33 15-25 12-20 10-23 13-21 12-33 22-12 9-10 8-10 9-1 2v6l8 5 18 6 50 13 38 8 38 7 49 7 49 5 46 3 24 1h62l17-3 16-6 11-6 10-8 10-9 11-14 10-15 11-21 12-28 11-28 7-23 3-16 1-18-2-15-5-13-8-10-10-7-12-5-13-3-10-1z" fill="#888E91"/>
<path transform="translate(1377,367)" d="m0 0 5 1 3 2v2l10 5 8 5 4 2 3 4 10 5 2 2h2l-1 6-13 25-13 23-15 26-24 39-28 42-14 20-14 19-10 13-11 14-12 14-7 11-2 3h-3v2h-3v2l-10 4-4 2-3 2h-4v2l-6 3h-4v2l-7 3h-3v2h-5v2l-5 1v2h-4v2l-7 3h-3v2h-5v2l-5 1v2h-5v2h-3l-1 3h-2l2-5 14-21 14-20 13-18 13-19 10-14 29-44 17-26 12-19 16-26 17-28 17-29 13-22 6-11 6-10 6-12z" fill="#363A3B"/>
<path transform="translate(1862,877)" d="m0 0h63v262h-63z" fill="#010101"/>
<path transform="translate(891,54)" d="m0 0h11v4h-5v2l-5 1-1 2-3 1v1l-5 1-1 2h-4v2l-5 2-8 4-6 4h-4v2l-5 2-9 5-5 1v2l-9 3v2h-5v2l-5 1v2l-7 3-4 1-2-4-6-2h-12l-23 4-38 9-36 10-35 11-33 12-29 12-28 13-27 14-17 10-27 18-16 12-11 9-10 9-12 11-9 10-11 13-10 15-9 15-9 20-5 1h-17-3l-6 1 1-7 6-16 9-17 14-21 13-16 9-10 20-20h2v-2l11-9 10-8 13-10 21-14 21-13 18-10 27-14 28-13 27-11 27-10 30-10 26-8 8-2 11-3 17-4 16-4 32-7 66-11 21-3z" fill="#373B3C"/>
<path transform="translate(669,630)" d="m0 0 10 3 43 12 38 9 40 8 44 7 40 5 34 3 40 3 22 1h72l15-3 18-6 15-9 5-4 2 1 6 5 4 2v2l5 2 5 3v2l5 2 1 3 4 1v2l4 1 6 4 1 5h-2l-2 5-6 5-11 4-10 2-46 2h-76l-46-2-40-3-40-4-49-7-44-8-36-8-20-5-18-5-30-9-36-12-23-9v-3l13-1 2-1h17v-2l14-1h10z" fill="#FDFDFD"/>
<path transform="translate(915,68)" d="m0 0 5 1 5 4 4 4 7 5v2l4 2 6 4 10 9h4v2l-8 7-9 10-12 17-13 24-13 30-10 25-6 19-4 13-2 13v30l-12 12-5 6-26 26-2 3h-2l-2 4-13 13-6 5-4-8-3-12-1-9v-14l3-24 6-25 12-36 13-32 11-24 12-24 13-23 13-22 13-20z" fill="#A3A9AC"/>
<path transform="translate(1648,470)" d="m0 0 2 1 1 5 12 20 1 2-8 10-11 12-20 20-11 9-15 12-19 13-15 10-24 14-26 14-27 13-33 14-38 14-37 12-44 12-39 9-47 9-40 6-34 4h-12v-2h3v-2l7-3h3v-2h4v-2l6-1v-2l8-3 3-2h3v-2l7-3h3v-2l10-4 15-8 21-10 5-1 3 2h19l38-8 31-8 40-12 36-12 28-11 23-10 25-12 25-13 20-12 15-10 14-10 14-11 14-12 23-23 11-14z" fill="#FDFDFD"/>
<path transform="translate(1009,47)" d="m0 0h66l43 2 50 4 27 3 49 7 38 7 13 2 16 4 27 6 20 6 13 3 5 2 18 5 10 4 17 5 7 3 12 4 9 4 16 6 1 3-13 2-14 1v1l-19 1-10 2h-7l-6-5-14-5-29-8-36-9-32-7-39-7-50-7-36-4-55-4-23-1h-68l-22 5-15 5-3-2v-2h-2v-2l-4-2-1-3-4-1-2-2-1-3-3-1-2-1v-2l-3-1-5-5v-2h-2v-2h-2v-3h-3v-2l8-2 16-1z" fill="#363A3B"/>
<path transform="translate(1357,346)" d="m0 0h26l-2 5-15 27-5 5h-12l-53 3-39 2-8 1-9-9-13-8-18-6-15-3-9-1h-36l-27 3-29 5-36 8-13 4-9 2-24 7-18 6-17 5-10 3-8-1-65 3-17 1-40 2-14 1-139 7-2-1 2-6 12-23 5-9 1 2 53-3 37-2 29-2 9 8 14 7 17 5 19 3h37l28-3 38-7 33-8 36-10 33-10 9 1 46-2h10l5-1h11l24-2 154-8z" fill="#C2C6C9"/>
<path transform="translate(890,68)" d="m0 0h5l-7 11-16 23-12 17-13 18-16 24-8 11-22 34-12 19-3 5 2 2-13 22-10 16-9 15-13 22-4-2 11-22-12-6-11-4-10-5-12-5h-7l2-5 11-18 18-27 15-22 13-18 12-16 14-18 11-13 9-12h2v-2h5v-2l5-1v-2l10-5h4v-2l6-3h4v-2l5-1v-2h4v-2l6-3h4v-2l18-9 4-1v-2l7-3h3z" fill="#A3A9AC"/>
<path transform="translate(983,13)" d="m0 0h99l53 3 52 5 45 6 47 8 47 10 39 10 40 12 38 13 33 13 25 11 29 14 23 12 27 16 21 14 14 10 14 11 11 9 12 11 8 7 12 12 7 8 11 13 13 18 12 20 8 16 7 17 6 19 4 20 1 8v41l-3 19-3 12-2-1v-3l-2 2-2 1 1 3-3 3 2-11 4-20 1-15 1-4-1-23-3-19v-5l-12 2-11-1-9-26-4-9-8-16-7-12-5-7v-2l19-2h4l-1-4-9-13-3-4v-2h-2l-8-10-5-5-9-10-13-13-2-1v-2l-4-2-9-8-14-11-9-6v-2l-4-2-24-16-18-11-14-8-9-5-16-8-17-9-10-4-9-4-20-9-14-5-10-4-30-11-47-14-19-5-40-10-45-9-51-8-56-6-33-3-51-2h-82l-50 2-25 2-29 3-36 4-56 9-35 7-50 12-18 5-24 7-47 16-28 11-19 8-14 7-18 8-25 13-27 16-30 20-21 16h-3l-6 1v2l-3 1-1-2 14-11 16-12 30-20 22-13 24-13 24-12 32-14 36-14 38-13 52-15 38-9 39-8 41-7 45-6 40-4 44-3z" fill="#8D9395"/>
<path transform="translate(954,403)" d="m0 0h8l6 1-1 2-13 4-37 13-52 20-29 12-9 1-22 1-18 1-73 4-39 2h-16l-3-2 11-23 12-22 2-2v2l25-1 172-9z" fill="#A2A8AB"/>
<path transform="translate(626,396)" d="m0 0 6 1h3l6 3 2 4 4-2 5 3h5l5 6 4-1 4 3h3l1 6-10 19-14 27-12 23-20 40-11 23-13 25-4 7-2 8-4 5v-2h-2l-1-4-2-1v-2h-2v-3h-2l-1-4h-2v-3h-2l-3-5-4-5-1-3-2-1v-3h-2v-2h-2l-4-8 1-6 10-23 2-5h2l3-9 16-35 16-33 20-40z" fill="#7A7F81"/>
<path transform="translate(940,50)" d="m0 0 4 1h-3v2h3v3h2v2h2v2l3 1v2l3 1 2 4 3 1 5 4v2l4 1v2l2 1 3 2v2h2v2l4 1 14-5 22-5h68l37 2 51 4 33 4 50 7 47 9 37 9 35 9 22 7 6 4 2 2 14-1 3-1 17-1v-1l24-2 7-1 2 3-2 2-23 2-4 1-16 1-1 1-20 1-1 8-8 9-4 3h-2v2l-19 14-30 20-22 13-16 9-24 13-23 11-32 15-36 15-28 11-21 8-36 13-36 12-35 10-26 6-12 3-19 3h-28l-21-3-14-5-11-8-5-5-6-8-5-12-2-10v-25l2-13 4-13 9-27 16-38 8-16 9-17 10-14 11-13 8-8-4-1-10-9-9-6v-2l-4-2-7-5v-2l-8-4v-3l6-8h2v-2l11-5zm77 31-20 4-16 6-11 7-11 9-9 9-10 13-11 18-8 16-7 15-14 34-8 24-4 19-1 7v22l4 15 6 10 8 8 12 7 14 4 13 2h24l23-3 36-8 35-10 37-12 41-15 41-16 29-12 27-12 34-16 23-12 23-13 20-12 30-20 17-13 12-10 3-5-1-6-10-5-43-12-37-9-50-10-53-8-56-6-46-3-23-1z" fill="#8A9092"/>
<path transform="translate(398,439)" d="m0 0 3 3 10 19 14 20 12 14 15 16 8 7 10 9 20 15 14 10 19 12 9 3 7-1 5-2 2 1v3h2l8 12v2h2l3 5v2h2v3h2v2h2l5 8v2h2l1 5h3l-1 4-4 6h-8l-32-16-24-14-21-13-17-12-13-10-11-9-10-9-8-7-15-15-7-8-12-15-9-14-9-16-8-17v-2l2-1 26-1z" fill="#FDFDFD"/>
<path transform="translate(1009,47)" d="m0 0h66l43 2 50 4 27 3 2 2h-7v3h-2l-2 18 2 1v2l5 1v1h-12l-46-4-29-2-23-1h-68l-22 5-15 5-3-2v-2h-2v-2l-4-2-1-3-4-1-2-2-1-3-3-1-2-1v-2l-3-1-5-5v-2h-2v-2h-2v-3h-3v-2l8-2 16-1z" fill="#1C2120"/>
<path transform="translate(1709,339)" d="m0 0 11 1 6-1h5l4 26 1 22-1 9-2 16-5 22 3-7h2l1 8-7 20-13 27-12 19-14 19-13 15-28 28-11 9-12 10-7 1v-2h2v-4l10-8 14-12 11-10h2l1-3 6-5 4-6 8-8-9-1-13 1-3-3 3-5 12-14 12-16 8-13 5-9 8-16 7-18 5-19 2-13v-39l-3-17z" fill="#383C3D"/>
<path transform="translate(361,438)" d="m0 0 3 3 5 12 12 23 11 16 11 14 12 13 7 8 16 15 11 9 15 12 19 13 15 10 22 13 7 4-1 3-9 2-21 2-4 1-30-20-17-13-6-4v-2l-6-3v-2l-4-2-3-2v-2l-4-2-9-8v-2l-4-2-14-14-6-7v-2h-2l-3-4v-2h-2l-8-11-7-10-11-18-8-16-8-19v-3l10-2h10z" fill="#363A3B"/>
<path transform="translate(1507,145)" d="m0 0 6 1 17 9 23 13 16 10 12 8 13 9 17 13 13 11 3 2v2l4 2 23 23 9 11 10 13 6 10v2l-10 4-3 3-7 4-4 2-7-9-10-14-13-15-20-20-11-9-10-8-18-13-20-13-10-5v-2h-2l-1-5h-2v-2l-2-1-1-4h-2v-3l-2-1-3-4v-4h-2v-3h-2l-1-5h-2v-2h-2l-1-5h-2z" fill="#373B3C"/>
<path transform="translate(389,357)" d="m0 0 2 2 2-1v36l3 18 8 24 12 23 8 12 11 14 11 12 18 18 11 9 15 12 30 20 9 5h9l4-5 9-19 12-28h2l-3 9 1-1 3-4-1 5-8 20-6 13-1 5 1 4h2v3h2l1 4h2v3h2l3 4v3h2l3 5v2h2v3h2l3 5v2h2l5 6-1 5-2 4h-4l-1-5h-2l-5-8v-2h-2v-2h-2v-3h-2l-3-5v-2h-2l-7-11-1-3h-2v-3l-5 1-5 2-8-1-12-6-22-15-21-16-14-12-16-15-9-10-11-13-14-21-10-19-2 1-26 1-3 1-5-13v-3h-5l-5-24-1-12v-11l1 3h2l1-22h1v14l2-1h25l2-2v-5h2l-1-6z" fill="#A4AAAD"/>
<path transform="translate(884,242)" d="m0 0 1 4-2 13v30l-12 12-5 6-26 26-2 3h-2l-2 4-13 13-6 5-4-8-3-12-1-9v-14l3-24 5-2 19-10 5-2 1-5-5 1 3-3h3l1-2 24-12 13-8 3-3h2z" fill="#C2C6C9"/>
<path transform="translate(1698,320)" d="m0 0 2 2 6 20 2 10 1 13v30l-4 24-6 19-5 12-8 16-5 5-7-10-9-15-1-6 6-15 3-12 3-15 1-11v-15l-2-18-2-8v-4l5-1 21-12z" fill="#A3A9AC"/>
<path transform="translate(1635,189)" d="m0 0 9 4 8 8 8 7 12 12 7 8 11 13 13 18 12 20 8 16 7 17 6 19 4 20 1 8v41l-3 19-3 12-2-1v-3l-2 2-2 1 1 3-3 3 2-11 4-20 1-15 1-4-1-23-3-19v-5l-12 2-11-1-9-26-4-9-8-16-7-12-5-7v-2l19-2h4l-1-4-9-13-3-4v-2h-2l-8-10-5-5-9-10-13-13-2-1v-2l-4-2-8-7z" fill="#56595B"/>
<path transform="translate(1325,431)" d="m0 0h6l2 2-1 4-10 18-9 15-14 22-3 3-10-1-25-5-4-1-1-2 1-11 4-25 1-13 5-3 43-2z" fill="#888E90"/>
<path transform="translate(1239,534)" d="m0 0 11 2 9 2 8 2-2 6-38 57-14 20-24 34-14 20-8 12-8 13 1 5 3 3-3 1-23 2h-14v-1l12-3 10-6 12-16 14-21 13-21 16-28 12-22 15-32z" fill="#FCFCFD"/>
<path transform="translate(439,220)" d="m0 0 2 1-2 1zm-2 2 2 1-17 17-1 2 12-1 8 1h7l3-1 4 3-10 9-11 12-13 16-12 19-8 15-5 12-5 1h-17-3l-6 1 1-7 6-16 9-17 14-21 13-16 9-10z" fill="#525557"/>
<path transform="translate(432,185)" d="m0 0 5 1-5 6-11 9-10 10-8 7-12 13-11 14-10 13-10 16-4 7-9 17-8 20-6 21-2 11-1 16 22-2 1 27 2 16v6l-4 1-15 2h-5l-2-3-2 5h-1l-3-21v-35l3-21 6-23 10-25 11-21 14-21 10-13 12-14 16-17 20-18h5v-2h2z" fill="#595D5E"/>
<path transform="translate(1398,329)" d="m0 0 9 6 3 1v2l6 1v2l4 1 2 2 4 3 9 5 9 7-4 10-15 29-1-3-3 1-1-3-6-2-8-5-1-2-14-8-8-5-3-3h-4l2-5 16-30 4-2z" fill="#7A7F81"/>
<path transform="translate(1624,194)" d="m0 0h10l5 2 7 6v2l4 2 19 19 14 16v2h2l13 19 1 4-5 1-20 2-10-13-12-14-25-25-11-9-9-8-1-3 3-2h11z" fill="#C2C6C9"/>
<path transform="translate(890,68)" d="m0 0h5l-7 11-16 23-12 17-5 7-59-1 2-4 5-7h2v-2h5v-2l5-1v-2l10-5h4v-2l6-3h4v-2l5-1v-2h4v-2l6-3h4v-2l18-9 4-1v-2l7-3h3z" fill="#A4AAAD"/>
<path transform="translate(1627,226)" d="m0 0 5 2 5 3 17 17 9 11 10 13 6 10v2l-10 4-3 3-7 4-4 2-7-9-10-14-13-15-18-18 3-4 5-3h3v-2l6-2 1-2z" fill="#525657"/>
<path transform="translate(1252,409)" d="m0 0h2v3h2l1 4v15l-5 4h-2l-1 2-3 3h-2l-2 4h-2l-1 3-5 3-4 2-1 2-3 3h-2v2h-2l-2 4-4 3h-2l-1 2-5 5-5 6h-2l-1 2h-3v2l-5 5-1 2-5-2-4-24v-5h2v-2l4-1 2-2h1v-2l5-1 12-9 2-2 9-6 21-16z" fill="#797E80"/>
<path transform="translate(781,534)" d="m0 0 2 1v2l-11 7h-2l-1 3-25 14-24 15-19 13-12 9-10 8-9 8-1 2v6l12 6 28 8 48 12 51 10 46 7 9 3 8 1 1 3h-13l-41-6-44-8-40-9-31-8-24-7-8-3v-2l-5-2-3-3-1-7-7 2h-14v2h-19v2l-25 2h-3l2-6 1 2 16-1 3-1 10-1h9v-2h21v-2l7-1 10-10 14-11 18-13 20-13 25-15 22-12z" fill="#808587"/>
<path transform="translate(329,412)" d="m0 0 2 1v3l5-1 19-2 3 9 4 16-2 2h-11l-9 1 8 20 8 16 8 14 8 12 10 13v2h2l3 4v2h2l9 11 18 18 10 8v2l4 2 3 2v2l6 3v2l5 2 11 9 14 10 5 7-9-2-18-13-14-11-14-12-12-11-19-19-9-11-12-15-10-15-12-21-9-20-7-22-2-8v-6z" fill="#404445"/>
<path transform="translate(1709,343)" d="m0 0 2 4 2 13v39l-3 16-5 19-7 18-10 19-7 11-9 13-8 10-12 14-21 21-11 9-13 11-13 9h-2l2-6 11-8 16-13 12-11 19-19 9-11 2-4-12-19-2-3v-6l12-21 3-5 3 4 12 20 3 3 6-9 9-20 6-18 4-20 1-8v-36l1 2h2l-2-13z" fill="#C0C4C7"/>
<path transform="translate(364,286)" d="m0 0h12l2 2-8 15-8 21-6 22-2 13-1 12h-1l-1-6-21 2-1-4 2-19 4-16 7-21 9-19z" fill="#C2C6C9"/>
<path transform="translate(965,48)" d="m0 0h44v30l-23 6-8 3-3-2v-2h-2v-2l-4-2-1-3-4-1-2-2-1-3-3-1-2-1v-2l-3-1-5-5v-2h-2v-2h-2v-3h-3v-2l8-2z" fill="#1B201F"/>
<path transform="translate(1125,638)" d="m0 0h2v2l4 1 8 5 3 1v2l4 1v2l4 1 10 6 7 5-2 5-8 13-4 4-4 6-2-1v-2l-10-5-1-2-3-1-4-4-2-1v-2l-4-1-3-1-3-3v-2l-6-2-5-5v-2l6-5 3-4h2v-2h2l2-4 2-3h2z" fill="#A3A9AC"/>
<path transform="translate(1e3 329)" d="m0 0h2v2h-3l-2 4-18 20h-2v3h-2v2l-5 5h-2l-2 4-3 1v3h-2l-2 4-3 1v2h-2l-2 4-2 5-23 3-4-1 3-5 5-6h2l2-5h2v-2h2l2-5 5-2 1-4 4-2v-2h2v-2h2l2-5 6-5 1-3h2v-2h2v-2h2l2-5z" fill="#C3C7CA"/>
<path transform="translate(1650,520)" d="m0 0 2 1-1 2 3 1 18-1 4 2-7 8h-2l-2 4-6 7-8 7-12 11-7 3h-18l-6 1-5-1 6-8 11-9 14-12z" fill="#091211"/>
<path transform="translate(1149,361)" d="m0 0h36l9 1 1 2-5 2h-38l-28 3-35 6-42 10-38 11-36 11-36 13-43 16-11 4-3-3 8-4 46-17 28-10 9-3 17-6 13-4 25-7 12-4 16-4 29-7 32-6 23-3z" fill="#7C8183"/>
<path transform="translate(1409,105)" d="m0 0 9 1 10 4 12 4 9 4 16 6 1 3-13 2-14 1v1l-19 1-10 2h-7l-6-5-14-5 2-2 1-2h3v-2h3v-2h3l1-3 5-2 2-3z" fill="#383C3D"/>
<path transform="translate(1699,264)" d="m0 0 4 5 8 14 8 16 5 13-1 3h-14l-7 1-1 3-5-12-8-17-10-16-3-4v-2l19-2h4z" fill="#888E90"/>
<path transform="translate(355,375)" d="m0 0h1l2 26 1 7 30-1 2 6 5 16 3 7-1 4-1 1-26 1-3 1-5-13v-3h-5l-5-24-1-12v-11l1 3h2z" fill="#C2C6C9"/>
<path transform="translate(1377,367)" d="m0 0 5 1 3 2v2l10 5 8 5 4 2 3 4 10 5 2 2h2l-1 6-8 15-4-2v-2h-4v-2l-5-2-1-2-14-7-3-3-10-6v-2l-6-2v-5l4-7z" fill="#525556"/>
<path transform="translate(611,572)" d="m0 0h22l-6 7-9 8h-2l-2 4-10 11-12 18-1 2v9l3 4-5-1-20-9-1-2 8-2 5-8 16-34 4-6z" fill="#A3A9AC"/>
<path transform="translate(351,364)" d="m0 0h1l1 27 2 16v6l-4 1-15 2h-4l-3-19-1-11v-14l1-6z" fill="#888E90"/>
<path transform="translate(1672,229)" d="m0 0 5 5 6 7v2h2l13 19 1 4-5 1-20 2-10-13-12-14-5-5v-4l7-1 18-1z" fill="#A3A9AC"/>
<path transform="translate(351,327)" d="m0 0h8v7l-4 18-2 19h-1l-1-6-21 2-1-4 2-19 4-16z" fill="#A3A9AC"/>
<path transform="translate(1497,105)" d="m0 0 21 7 28 14 24 14 21 13 20 14 13 10 16 13-2 2h-4l-5-3-15-12-4-2v-2l-4-2-24-16-18-11-14-8-9-5-16-8-17-9-10-4-2-4z" fill="#808587"/>
<path transform="translate(570,103)" d="m0 0 1 2 1-2 3 1-2 3-9 4-24 11-23 12-27 16-30 20-21 16h-3l-6 1v2l-3 1-1-2 14-11 16-12 30-20 22-13 24-13 24-12 9-2z" fill="#7F8486"/>
<path transform="translate(1177,537)" d="m0 0 3 1 1 4-2 5 1 2-2 4 1 2-2 1 1 3-3 5v5l-3 9-2 5v3l-2 4-4-1h-2l2 7-2 6-4 13-7 1-2 1v-2h-5l-1-4 13-26 6-15 11-28 2-4z" fill="#7A7F81"/>
<path transform="translate(526,604)" d="m0 0 5 1 22 12 9 4-2 2-9 2-21 1-5 1v2l-5-2-23-13-3-2v-2l8-2 24-2z" fill="#1C2120"/>
<path transform="translate(880,705)" d="m0 0h19l35 3 34 2 92 3-3 2-7 1h-69l-23-1-61-5-8-1-5-2z" fill="#7D8284"/>
<path transform="translate(1237,383)" d="m0 0 5 4v2h-2v2l-6 3-4 4h-2l-1 3-6 2v2l-7 4-1 2h-2l-1 2-5 3-4 2v2l-4 3-5 2v2h-2l-1 3-6 3-3 3h-3v2l-5 5-9-6 5-4 3-1 1-2h3v-2h4l1-3 7-5h2v-2l9-6 4-4 6-4 3-3 5-1v-2l2-2h3l1-2 4-1v-2h2v-2l4-1v-2h3v-2z" fill="#7A7F81"/>
<path transform="translate(1650,520)" d="m0 0 2 1-1 2 3 1 18-1 4 2-7 8h-2l-2 4-6 7-4 3-1-2-5-1-2 1-10 1-9-1-1-3 12-11z" fill="#1C2120"/>
<path transform="translate(662,618)" d="m0 0h1l2 7 6 4-2 1v2l-10 1h-14v2l-17 1-2 1-13 1-2 1-12-5-3-4 10-1v-2h12l7-1v-1l9-1 16 1v-2l-2-1h9l2-1 3 1z" fill="#A3A9AC"/>
<path transform="translate(351,413)" d="m0 0 5 1 6 24-2 2h-11l-9 1 3 8-1 3-8-20-2-11v-5l4-1z" fill="#525556"/>
<path transform="translate(949,49)" d="m0 0h9v2h2l6 7v2l4 2 5 4 3 3v2l5 2 6 7 4 2-15 5-3-2v-2h-2v-2l-4-2-1-3-4-1-2-2-1-3-3-1-2-1v-2l-3-1-5-5v-2h-2v-2h-2v-3h-3v-2z" fill="#363A3B"/>
<path transform="translate(1252,409)" d="m0 0h2l1 7-4 2-3 4-5 3h-2v2h-3l-1 3-7 5h-2v2l-5 3-4 4-6 5h-3l-1 3-5 3-1 2-5 3-5 2v2l-5 3-1 2-4-1-1-9h2v-2l4-1 2-2h1v-2l5-1 12-9 2-2 9-6 21-16z" fill="#525556"/>
<path transform="translate(1113,652)" d="m0 0 5 2 2 1v2l4 1 3 3 3 1v2l4 2 3 1v2l4 1 3 2v2l4 1 3 1 3 3 2 1-2 5-5 7-2-1v-2l-10-5-1-2-3-1-4-4-2-1v-2l-4-1-3-1-3-3v-2l-6-2-5-5v-2z" fill="#C3C7CA"/>
<path transform="translate(1246,516)" d="m0 0 17 3 13 4 2 2-10 17-1-2-15-2-9-2-4-3z" fill="#C3C7CA"/>
<path transform="translate(562,547)" d="m0 0 5 3 3 1 5 3 2-1v2l10 3h2v2l10 3-1 5-7 14-2 5-4-5v-2h-2l-1 2-3-4-2-4 1-2h-2v-2l-2-1-2-2-4-5-5-5-2-8z" fill="#525556"/>
<path transform="translate(1280,622)" d="m0 0 4 1-2 6-12 14-3 5v5h15l29-6 7 1v4l-34 7h-19l-4-4-7 1-5 1v2l-7 3h-3v2h-4v2l-7 3h-5v-2l7-3h3v-2l10-4 4-2 3-2h4v-2h3v-2l3-1 6-10 11-13z" fill="#818688"/>
<path transform="translate(1149,361)" d="m0 0h36l9 1 1 2-5 2h-38l-28 3-35 6-26 6h-6l-3-3 29-7 32-6 23-3z" fill="#8A9092"/>
<path transform="translate(372,326)" d="m0 0 7 1h17l-6 18-6 1h-23l-1-1 1-10 3-8h7z" fill="#7B8082"/>
<path transform="translate(600,597)" d="m0 0h7l-2 4-10 14-4 7v9l3 4-5-1-20-9-1-2 8-2 5-8 7-15z" fill="#F9F9F9"/>
<path transform="translate(1250,404)" d="m0 0h3l1 5-19 14-21 16-6 4-13 10-4-1 1 3-3 1-2 2-3-1v2h-2l-1 2-1-6 9-7 4-3h3l1-3h2v-2l12-8h2v-2h3v-2l8-5h2v-2l4-1v-2h3v-2l4-3h3v-2z" fill="#797E80"/>
<path transform="translate(1679,283)" d="m0 0 3 3 4 7 1 7-5 2-13 8-6 2-3-4-5-9 1-3 7-5 5-1 1-3z" fill="#7A7F81"/>
<path transform="translate(1716,295)" d="m0 0 3 4 5 13-1 3h-14l-7 1-1 3-5-12-3-6v-4z" fill="#7B8083"/>
<path transform="translate(1256,654)" d="m0 0h5l1 2-12 5-15 8-19 9-5 1v2l-6 3h-4v2l-10 5h-4v2l-6 1v2h-4v2l-6 3-4-1 2-1 2-6h3v-2h5v-2l5-1v-2h5v-2l6-3h4v-2h4v-2l5-1v-2h5v-2l7-3 8-1 4-2h3v-2h4v-2l6-3h4v-2z" fill="#B2B7BA"/>
<path transform="translate(900,54)" d="m0 0h2v4h-5v2l-5 1-1 2-3 1v1l-5 1-1 2h-4v2l-5 2-8 4-6 4h-4v2l-5 2-9 5-5 1v2l-9 3v2h-5v2l-5 1v2l-7 3-4 1 1-5 8-4h3v-2h2v-2l7-3 5-3 7-3 5-1v-2l5-1v-2l10-4 6-4h3v-2h5v-2l5-1v-2l9-3v-2l6-3z" fill="#525556"/>
<path transform="translate(349,395)" d="m0 0 4 1 2 11v6l-4 1-15 2h-4l-2-10 1-9 4-1z" fill="#7A7F81"/>
<path transform="translate(1233,380)" d="m0 0 4 4h-2v2h-3v2l-4 1v2h-2v2l-4 3-3 2h-3v2l-7 4-3 4-4 1-4 4-6 4-3 1v2l-5 3h-2l-1 3-2 2h-4v2h-3l-1 3-6 3h-3l1-4h2v-2h2v-2l5-1v-2l5-3h2v-2h3v-2h2v-2l5-1v-2h2v-2l5-3h3l2-4 4-2 2-2 4-2v-2l5-3h2v-2h3v-2l5-3h2v-2l4-2z" fill="#525556"/>
<path transform="translate(1499,141)" d="m0 0 5 1 6 2-2 2 1 4h2l1 5h2v2h2l1 5h2v3h2l2 5 3 3v4h2l3 5v2h2l1 5h2v2h-7l-1-4h-2v-3h-2l-1-5h-2l-6-11-8-12-1-3-2-2v-3h-2v-3h-2z" fill="#84898B"/>
<path transform="translate(661,609)" d="m0 0h6l-4 5h-7v2h-21v2l-21 2-1 1h-16l1-4 2-2h18v-1l16-1 8-2 17-1z" fill="#525556"/>
<path transform="translate(359,427)" d="m0 0h4l6 16 8 16 8 15 5 9-1 3-3-1-11-18-11-23-5-13z" fill="#A1A7A9"/>
<path transform="translate(664,627)" d="m0 0 5 1 2 2h-2v2l-10 1h-14v2l-17 1-2 1-13 1-2 1-7-3v-1l9-2 10-1h13v-2l18-1 1-1z" fill="#C2C6C9"/>
<path transform="translate(583,632)" d="m0 0 6 1 4 4-3 3-8 1h-7l-9 1-5 1-3-1-3 1-8-3 1-3h12l11-2h2l8-1z" fill="#010101"/>
<path transform="translate(611,585)" d="m0 0 6 1-3 5-6 6-8 1h-11l2-6 4-6z" fill="#C3C7CA"/>
<path transform="translate(944,50)" d="m0 0 4 1 3 3v2h2v2l3 1v2l3 1 4 4v2h3v2h2v3h3v2h2v2l3 1v2h2v2l6 2-3 2-3 1-3-2v-2h-2v-2l-4-2-1-3-4-1-2-2-1-3-3-1-2-1v-2l-3-1-5-5v-2h-2v-2h-2v-3h-3v-2z" fill="#525556"/>
<path transform="translate(673,603)" d="m0 0m-1 1m-1 1m-1 1m-1 1m-1 1m-1 1m-1 1m-1 1m-1 1m-1 1m-7 1h7l-2 4-9 1h-11v2h-19v2l-25 2h-3l2-6 1 2 16-1 3-1 10-1h9v-2h21z" fill="#7A7F81"/>
<path transform="translate(546,560)" d="m0 0 2 1 3 5v2h2l3 5v2h2v3h2l1 4h2v3h2v2h2l4 7 1 3h2l3 5v2h2v5h-4l-1-5h-2l-5-8v-2h-2v-2h-2v-3h-2l-3-5v-2h-2l-7-11-1-3h-2v-3l-3-1z" fill="#C3C7CA"/>
<path transform="translate(1609,557)" d="m0 0h4v2l28-2 2 1-7 6-7 1h-15l-6 1-5-1z" fill="#000100"/>
<path transform="translate(940,50)" d="m0 0 4 1h-3v2h3v3h2v2h2v2l3 1v2l3 1 2 4 3 1 5 4v2l4 1v2l2 1 3 2v2h2v2l3 1v2h-5v-2l-4-2-3-1-2-4-3-2v-2l-5-2v-2l-3-1v-2h-2v-2h-2l-3-3v-2l-3-1v-2h-2v-2h-2l-3-3v-2z" fill="#7B8082"/>
<path transform="translate(784,230)" d="m0 0 4 2-13 22-10 16-2 2-3-2 9-16 12-19z" fill="#C3C7CA"/>
<path transform="translate(1472,172)" d="m0 0h4l-2 6-17 34-4-2 12-25z" fill="#C3C7CA"/>
<path transform="translate(1466,126)" d="m0 0 4 2-2 3-23 2-4 1-15 1v-2l-4 1h-12v-1l10-2 17-1v-1l24-2z" fill="#83898B"/>
<path transform="translate(1519,151)" d="m0 0 5 1 15 8 7 4-1 2-5-1-9 3-2-1v-3h-2l-1-4h-2v-3h-2v-3h-2z" fill="#1F2423"/>
<path transform="translate(1220,669)" d="m0 0 1 3h-3v2h-3v2l-7 3h-4v2l-6 3h-4v2l-7 3h-3v2l-7 3h-3v2l-4-1 1-2h3v-2h5v-2l5-1v-2h5v-2l6-3h4v-2h4v-2l5-1v-2h5v-2z" fill="#82888A"/>
<path transform="translate(1340,640)" d="m0 0 2 1-1 5-19 5h-4v-3l-3-1v-1z" fill="#888E90"/>
<path transform="translate(1256,654)" d="m0 0h5l1 2-12 5-15 8-10 5h-2v-2l5-1 1-4 6-1v-2h4v-2l6-3h4v-2z" fill="#B5B9BC"/>
<path transform="translate(1254,652)" d="m0 0h7v2l-9 3h-3v2l-7 3h-3v2h-4v2l-7 3h-5v-2l7-3h3v-2l10-4 4-2 3-2h4z" fill="#858B8D"/>
<path transform="translate(1462,125)" d="m0 0h4v2l-13 2-14 1v1h-17v-2l20-2 2-1z" fill="#525556"/>
<path transform="translate(329,412)" d="m0 0 2 1 4 18-2 1-1 2-3-4-2-8v-6z" fill="#3B3F40"/>
<path transform="translate(1507,145)" d="m0 0 6 1-1 4h2v3h2l1 4h2v3h2l3 5v4h2v3l-4-2-1-5h-2v-3h-2l-1-5h-2v-2h-2l-1-5h-2z" fill="#535657"/>
<path transform="translate(1328,643)" d="m0 0 2 1-4 4 4 1-8 2h-4v-3l-3-1v-1z" fill="#8C9294"/>
<path transform="translate(1526,172)" d="m0 0h2l4 7 2 3v2h2v3h2v4h-2v-2h-2l-1-5h-2v-2l-2-1-1-4h-2v-3l-2-1z" fill="#525556"/>
<path transform="translate(1256,654)" d="m0 0h5l1 2-12 5-1 1h-7l3-3h4v-2z" fill="#AEB3B6"/>
<path transform="translate(1618,578)" d="m0 0 2 1-1 2-1 1 4 1-6 5h-3l-1-2h-3l5-5z" fill="#4C5051"/>
<path transform="translate(877,67)" d="m0 0 5 1v2l-6 3h-3v2l-7 3h-3v2l-4-1 5-4 8-3 2-2h4z" fill="#7A7F81"/>
<path transform="translate(897,57)" d="m0 0 4 2-1 2-5 2h-3v2l-6 3-4-1v-2l5-1 1-2 3-1 3-2 2-1z" fill="#7B8082"/>
<path transform="translate(856,666)" d="m0 0 13 1 9 1v2h-2l-1 2-1 1h-7v-1h5l-1-2-13-2z" fill="#8E9496"/>
<path transform="translate(1401,131)" d="m0 0h19l-3 2-14 1z" fill="#525556"/>
<path transform="translate(1233,662)" d="m0 0h6v2h-4v2l-7 3h-5v-2l7-3h3z" fill="#83888A"/>
<path transform="translate(1180,691)" d="m0 0m-1 1m-2 1h2v2h-2v3l-6 3-4-1 2-1 1-3h4v-2z" fill="#B1B6B9"/>
<path transform="translate(1205,676)" d="m0 0 3 1-4 1v3l-6 3h-6l3-3h4v-2h4v-2z" fill="#818688"/>
<path transform="translate(1420,131)" d="m0 0h12v1l-10 2h-12v-1z" fill="#7A7F81"/>
<path transform="translate(1593,564)" d="m0 0 2 1-2 4-4 4-4 1 4-7z" fill="#ACB2B5"/>
<path transform="translate(1221,669)" d="m0 0h7v2l-5 1v2h-5v-2h3z" fill="#9BA1A4"/>
<path transform="translate(432,185)" d="m0 0 5 1-5 6h-2v-5h2z" fill="#636769"/>
</svg>
