<?xml version="1.0" encoding="UTF-8"?>
<svg version="1.1" viewBox="0 0 2048 1140" width="1280" height="1280" xmlns="http://www.w3.org/2000/svg">
<path transform="translate(968,137)" d="m0 0h41l35 2 32 3 27 1 18 2 38 7 18 2 16 4 12 1 24 8 13 2 18 7 12 2 9 4 8 1 10 5 9 4 6 2 14 7 6 2 8 4 6 2 17 10 10 6 6 3 10 7 8 6 6 4 5 5 12 11 8 6 4 6 11 13 9 14 7 15 3 11 4 14 1 10-1 13-7 24-5 12-2 7-9 16-7 10-3 6-3 3-2 5-5 5-7 9-14 15-15 14-12 8-8 7-5 2-5 5-10 5-3 3-7 2-10 6-12 5-7 5-11 3-7 3-11 3-13 6-13 3-17 6-24 4-15 3-16 2-27 5-14 2-83 4h-11l-3-1-6 1h-15l-4-1h-24l-69-3 3-11 7-9 3-9 6-8 8-17 6-8 5-10 3-1 2-6 5-9 2-1 2-7 5-5 4-9 7-8 8-16 7-8 6-10 10-14 3-5 10-15 5-6 14-21 5-7 4-4 10-15 7-8 3-6 5-4 10-15 7-9 9-11 12-16 9-11 4-5 7-8 12-16 14-16 3-5 5-6h2l3-6h2l2-4 4-6h2v-2l-6 4-16 16-9 6-15 15-11 9-16 15-6 5-5 6-8 7-22 22-8 7-7 9-2 3-5 3-10 10-9 12-4 1-2 5-10 10-10 13-6 2v5l-8 7-2 5-5 5-6 7-7 9-5 6-3 5-3 3-2 5-4 2-11 16-5 7-2 1-3 7-5 5-6 9-5 4-2 7-5 5-5 9-3 3-2 6-5 5-8 13-3 1-2 7-10 16-4 4-2 5-6 8-3 7h-10l-23-4-22-3-24-6-17-3-25-8v-3l7-5 3-5 6-4 4-7 8-7 14-14 2-4 4-1 2-5 4-2 5-7 8-7 7-8 7-6 5-5 7-8 5-5 6-4 4-6 5-3 5-6 4-1 1-4 6-4 5-6 5-3 4-6 10-9 11-9 8-8 8-7 14-11 4-2 2-4 4-1 1-4 4-4 4-1 4-5h5l2-5 11-10 15-11h2l2-5 5-3 3-1 3-5 10-7 12-9 9-7 6-5 18-13 14-11 17-12 10-7 16-12 24-15 11-8 3-3-23 11-21 10-17 9-18 10-3 2-6 2-13 7-5 4-11 6-13 8-8 6-8 4-13 7-5 5-12 7-10 6-10 7-13 8-5 5-17 10-3 1-1 4-7 2-4 5-12 8-8 5-3 5-5 2-8 7-12 8-5 5-1 2-7 3-5 6-6 3-8 7-9 7-8 7-5 5-7 6-16 12-4 4-5 4-3 4-6 3-6 5-2 4-8 5-4 5-11 9-10 9-11 9-9 8-4 4-2 3-6 1-2 6-2 2-6 1-2 5-4 3-7-1-13-4-7-3-24-12-10-6-8-3-3-3-10-5-4-4-6-2-8-7-8-5-9-7-9-9-9-8v-2l-5-2-7-9-6-8-5-5-9-14-2-6-4-6-3-8-3-12-3-13 1-19 6-25 5-6 5-12 8-10 1-2h2l2-4 10-12 5-5 14-12 10-9 10-6 5-4 5-3 11-6 9-6 12-6 4-3 11-4 15-6 10-5 14-5 13-5 8-2 11-4 12-3 11-4 1-1 18-3 23-7 19-3 15-3 18-2 31-6 24-2 62-5zm-14 19-33 2-31 1-32 5-20 3-17 2-28 7-12 2-14 4-12 3-15 6-9 2-15 7-17 7-7 2-4 4-12 6-11 7-7 5-6 3-4 5-6 3-7 8-8 7-4 5-5 4-11 16-5 5-5 9-4 4-3 9-3 6-4 18v12l4 17 7 11 8 7 10 7 15 8 2 2 12 2 4 2 12 2 6-4 12-6 3-3 10-4 4-3 7-3 10-6 6-3 9-6 7-3 4-3 8-3 5-3 2-3 9-3 10-7 22-10 9-6 6-1 1-3 11-5 5-3 12-5 9-6 10-4 5-4 12-5 4-3 10-3 6-5 12-4 6-5 10-3 6-4 10-3 7-5 11-3 5-4 6-4 8-1 11-7 12-4 4-3 10-2 12-7 9-3 6-3v-2l13-3 7-3 13-4 8-5 16-5 9-5 12-3 10-4 9-3 10-5 12-3-1-2-36-5-10-1-57-2-18-1zm217 24m-2 1m-2 1m62 7-4 8-4 7-2 4h-2l-3 8-4 5-5 10-3 3-4 9-6 9-3 7-5 5-5 10-2 2-3 7-6 8-5 8-4 4-4 9-4 7-1 4-4 2-7 13-4 4-8 16-8 15-3 8-6 7-2 8-7 12-3 8-4 8-3 9-4 8-2 3-3 9-6 12-2 7 1 5 5 2 8 1h16l22-2 21-3 23-4 19-3 14-3 17-4 14-5 13-2 11-6 15-3 4-3 12-3 10-5 2-2 11-4 7-5 8-3 6-4 6-2 5-5 9-5 6-6 4-2 1-5 5-2 4-4 7-8 7-14 4-14 1-17-2-12-4-15-7-18-6-8-4-8-8-11-3-2-4-7-5-3-4-6-6-4-5-6-5-3-14-9-2-3-7-2-10-7-31-11-10-4-16-3z" fill="#FD1010"/>
<path transform="translate(344,758)" d="m0 0h39l9 2 19 9 4 6 5 2 2 5 3 1 6 8 5-1 6-7 8-6 6-4 7-6 7-2 10-5 9-2h38l9 2 10 6 7 2 9 8 5 4 6 10 4 6 5 19 3 13v150l-63 1h-20l-2-1-1-128-5-17v-2l-5-1-4-4-16-2-11 2-6 5-4 1-4 9-4 10-1 7-1 119-6 2h-75l-2-1-1-126-2-11-6-11-5-4-14-3-15 3-7 6-3 1-4 13-2 9-1 10-1 114h-72l-14-1-1-163-3-7-6-5-9-2-21-1 1-6 10-16 8-9 14-6 4-1h83l1 1 1 28 13-12 11-8 5-4 20-8z" fill="#646463"/>
<path transform="translate(1455,762)" d="m0 0h67l1 2v124l-1 90-56 1-2-1-1-15 1-6h-2l-2 5-5 5-10 7-8 4-2 2-5 1h-32l-9-2-8-6-7-2-6-8-4-2-6-10-5-12-5-9-1-13-1-4v-27l2-19 8-16 7-12 7-7 10-6 17-7 10-2h14l16 5 16 8 7 6v-41l-6-12-13-5 2-6 5-6zm-24 101-11 3-6 5-5 10-3 14v9l3 16 4 10 2 2 5 2 2 3 11 2 11-3 9-5 3-5 5-13v-25l-5-12-7-9-7-3z" fill="#646463"/>
<path transform="translate(832,762)" d="m0 0h64v79l5-3 5-6 6-3 8-5 14-5 8-2h17l14 4 13 7 9 7 6 14 2 6 2 22v101l-3 1h-57l-2-5v-89l-4-11-3-5-6-3-4-1h-9l-10 5-8 11-2 9-1 88-1 1h-59l-1-1-1-177-2-9-3-7-5-2-8-1-1-3 6-10 9-6z" fill="#646463"/>
<path transform="translate(1765,817)" d="m0 0h37l21 4 18 5 11 7 9 13 3 6 4 18v59l1 25 3 17 2 4v4h-48l-7 1-3-3-5-17-15 11-14 6-8 3-3 1h-40l-9-2-16-9-8-9-6-9-2-5v-21l4-11 8-9 4-3h2l2-4 13-4 9-4 2-1 18-2 15-4 8-3 15-2 16-6-1-11-3-5-13-3-16 1-10 3-4 5-5 10-13-1-33-5-11-1-1-4 4-13 6-8 8-9 10-6 22-6zm39 88-19 5-5 2-12 2-4 3-6 3-4 5-2 5v7l4 5 2 5 15 1 13-1 6-3 10-8 4-6v-25z" fill="#646463"/>
<path transform="translate(692,817)" d="m0 0h41l9 2 12 2 17 5 3 2v2l7 1 3 6v2l6 2 4 12 3 8 1 6v55l1 39 3 9 4 6-1 3h-55l-7-7v-12l-9 5-4 4-14 6-12 5-5 1h-37l-10-2-16-9-9-10-6-14-1-4v-13l4-12 5-8 4-3h2l2-4 4-3 24-9 21-3 16-5 20-4 15-5 1-3-4-9-1-4-13-3-15 1-13 3-3 6-3 3-2 6-19-2-38-5v-10l10-16 7-8 6-3 5-3 21-6zm43 88-19 5-17 4-8 4-6 5-2 9 1 8 3 5 7 3h10l11-1 8-4 4-4 5-2 3-7 3-13 1-12z" fill="#646463"/>
<path transform="translate(1252,817)" d="m0 0h19l19 7 8 5 6 5 10 20 2 29v84l-1 11-42 1h-18l-1-9-1-87-5-12-5-4-2-1h-15l-8 4-8 11-2 7-1 90-1 1h-60l-1-1v-111l-1-18-2-8-9-3-4-3 2-4 5-6 7-3 40-1h17l3 2v23l13-13 13-8 10-5z" fill="#656564"/>
<path transform="translate(1652,817)" d="m0 0h13l12 5 10 4-3 12-4 7-5 10-5 12-3 2-4-3-23-1-2 4-10 12-1 3-2 26-1 2-1 66-3 1h-57l-1-1-1-129-3-7-12-5 3-10 4-4 10-1h54v24h2l2-5 8-11h2v-2l10-7z" fill="#646463"/>
<path transform="translate(1045,822)" d="m0 0h61l1 2v154l-2 1h-59l-1-4z" fill="#646463"/>
<path transform="translate(1067,759)" d="m0 0h15l12 5 8 6 6 8v6l-3 6-3 2-3 5-4 3-12 3h-17l-12-3-8-9-1-3v-13l4-6 9-6z" fill="#646463"/>
</svg>
