<?xml version="1.0" encoding="UTF-8"?>
<svg version="1.1" viewBox="0 0 2048 1280" width="1280" height="1280" xmlns="http://www.w3.org/2000/svg">
<path transform="translate(994,161)" d="m0 0h38l30 1 39 3 39 5 38 7 29 7 28 8 32 11 26 11 29 14 20 11 22 14 19 14 13 11 10 9 13 12 7 8 13 15 13 18 8 13 9 16 8 17 9 25 6 23 4 23 2 22v30l-3 24-5 23-8 23-9 20-9 17-14 21-12 16-12 13-7 8-11 11-8 7-14 12-18 13-18 12-26 15-34 17-31 13-28 10-33 10-34 8-33 6-40 5-42 3h-67l-38-3-45-6-36-7-40-10-32-10-34-13-26-12-20-10-22-13-21-14-16-12-11-9-10-9-8-7-16-16-9-11-10-12-11-16-9-15-10-19-10-26-6-23-4-24-1-13v-28l3-29 5-24 7-24 9-22 10-20 13-21 10-13 9-11 9-10 11-12 8-7 12-11 17-13 17-12 20-12 18-10 22-11 31-13 35-12 36-10 38-8 30-5 34-4 26-2zm-49 62-41 6-31 6-36 9-32 11-27 12-18 10-14 10-9 8-9 13-3 12 2 12 4 8 9 10 8 7 18 10 20 8 26 8 39 9 30 5h12l2-3 9-45 7-26 9-26 10-23 11-21 10-15 7-10-2-5zm135 0-3 4 16 24 14 27 10 24 9 27 7 28 7 38 5 3 23-3 35-7 27-7 30-10 19-9 13-9 11-11 5-10 2-9-1-10-6-12-10-11-15-11-21-12-27-12-36-12-32-8-43-8-29-4zm-67 77-8 4-8 7-7 11-7 14-8 24-7 30-1 11 2 2h97l2-2-1-12-6-26-6-20-8-18-7-11-7-8-9-5-3-1zm-369 87-6 9-8 20-6 20-4 22-2 21v16l3 26 5 21 6 18 9 20 13 22 12 16 11 13 14 15 8 7 10 9 17 13 17 12 20 12 20 11 27 12 25 9 29 9 38 9 29 5 17 2h9l2-2-1-5-10-13-9-15-11-21-11-27-7-23-7-30-7-41-4-34-2-26-1-20-2-4-16-3-34-6-31-7-25-7-27-9-25-11-23-12-18-12-14-11-12-11-8-10-6-8zm744 0-16 20-7 7-14 11-14 10-21 12-25 12-27 10-35 10-37 8-41 7-4 2-1 6-3 43-4 34-7 41-7 30-8 26-11 26-12 23-12 18-6 7 1 5 1 1h9l30-4 34-7 34-9 35-12 23-10 17-8 21-12 24-16 16-12 14-12 15-14 13-14 13-17 12-18 10-19 8-20 6-21 3-15 2-25-1-26-4-25-7-25-9-21-5-7zm-423 114-2 1v16l4 32 6 30 6 21 6 16 8 16 8 10 7 6 5 2h9l8-4 5-4 9-13 9-19 8-26 6-28 4-26 2-23-1-6-1-1z" fill="#B5B7B7"/>
<path transform="translate(646,341)" d="m0 0 4 1 2 16 4 12 10 16 17 17 10 8 3 5v2l5 2 12 9 22 12 20 9 27 10 29 9 36 8 28 5 20 3h8l2-4 2 1 2 17v28l1 10v15l1 7v7l1 6v7l1 2v7l1 3v5l1 2v11h2l1 10 1 5 1 9 2 1v7l2 1-1 2 2 1-1 3 2 1-1 2 2 1 2 9 8 22 8 18 8 16 6 11 12 17 6 7 10 8 12 6 13 3h12l13-3 11-6 8-7h2l2-4 11-13 9-15 9-17 12-28 11-33 6-27 4-25 3-31 1-20v-34l1-2 1-21 3-1v2l8 1 44-7 36-8 28-8 31-11 24-11 17-9 14-10 8-9h2v-2l11-9 8-7 9-11 7-11 5-12 3-19 4 2 2 5v22l-3 17-16 20-8 8-14 11-14 10-21 12-25 12-27 10-35 10-37 8-41 7-3 1-1 6-3 43-4 34-7 41-7 30-8 26-11 26-12 23-12 18-6 7 1 5h9l30-4 34-7 34-9 35-12 23-10 17-8 21-12 24-16 16-12 14-12 15-14 12-13 13-17 12-18 10-19 8-20 6-21 3-15 2-25-1-26-4-25-7-25-7-17-2-9 2-12 7-2h6l10 17 9 19 6 16 5 21 3 22v28l-3 25-5 21-7 20-12 25-9 15-11 16-10 13-12 14-11 12-8 7-8 8-14 11-21 14-23 13-17 9-26 12-37 14-32 10-29 7-36 7-32 4-25 2h-75l-33-3-35-5-29-6-35-9-41-14-24-10-28-13-20-11-7-3-14-8-14-10-6-5-5-6-8-7-21-21-9-11-11-14-9-13-11-18-9-17-10-26-5-20-3-19-1-14v-18l2-20 5-24 9-25 8-16 7-10 15-6 2 11v8l-8 19-7 23-4 22-2 21v16l3 26 5 21 6 18 9 20 13 22 12 16 11 13 13 14 8 7 10 9 17 13 17 12 20 12 20 11 27 12 25 9 29 9 38 9 29 5 17 2h9l1-5-9-11-11-18-11-21-11-27-7-23-7-30-7-41-4-34-2-26-1-20-1-3-16-3-34-6-31-7-25-7-27-9-25-11-23-12-18-12-14-11-13-12-8-10-7-10-2-11-1-11v-10l2-11z" fill="#6E6F6F"/>
<path transform="translate(715,911)" d="m0 0 18 1 17 4 15 6 16 10 15 14 11 15 9 19 4 15 2 19-1 16-4 17-6 15-7 12-7 9-8 9-14 11-17 9-16 5-11 2h-27l-15-3-18-7-16-10-15-14-10-13-8-16-5-14-3-16v-21l4-20 6-15 8-14 9-11 10-10 14-10 17-8 15-4zm-1 39-14 3-12 6-10 8-9 12-6 13-3 13v22l3 12 8 16 9 10 8 7 12 6 16 3 16-2 12-5 11-8 9-10 8-15 3-11 1-7v-15l-3-15-8-16-6-8-7-7-11-7-12-4-7-1z" fill="#D41F25"/>
<path transform="translate(1123,911)" d="m0 0 18 1 14 3 16 6 15 9 13 11 9 10 9 14 7 15 4 15 2 17-1 18-4 17-5 13-9 16-12 14-13 11-16 9-16 6-15 3h-27l-18-4-15-6-16-10-15-14-9-12-8-14-6-18-3-17v-17l3-18 6-17 9-16 9-11 10-10 13-9 16-8 12-4 10-2zm-1 39-14 3-12 6-10 9-7 8-8 16-3 13v21l4 15 7 14 11 12 8 6 10 5 16 3 16-2 12-5 11-8 9-10 8-15 4-17v-17l-3-14-4-10-8-12-10-10-10-6-12-4-7-1z" fill="#D41F25"/>
<path transform="translate(1472,918)" d="m0 0h58l21 52 22 54 15 37 20 49 1 5h-50l-15-39-3-8h-81l-10 27-8 20h-50l3-9 17-42 22-54 20-49 17-42zm28 43-15 39-11 29v3h53l-2-9-22-58-2-4z" fill="#D41E25"/>
<path transform="translate(996,197)" d="m0 0h43l44 3 34 4 41 7 38 9 35 11 33 13 17 8 19 11 14 10 12 11 8 11 4 10 1 4v11l-5 13-6 8-7 3h-13l-3-3 4-18-1-10-6-12-9-10-15-11-21-12-27-12-36-12-32-8-43-8-29-4h-10l-2 3 16 24 14 27 10 24 9 27 7 28 7 38v6l-5 8h-2l-2 5-5 4-2-9-4-34-7-38-8-30v-3h-2l-9-25-2-4v-3l-2-1-5-12-7-13-10-11-7-8-6-5-3-1v-2l-3-1 4-1 5 2h4l-4-3v-2l-9-2-16-2-10-1h-13l-27 5-8 4h6l-2 4-11 9-8 8h-2l-2 4-3 1-2-1 1-7 4-8-1-4h-11l-41 6-31 6-36 9-32 11-27 12-18 10-14 10-8 7-9 13-3 12 2 12 3 9-1 4h-11l-11-4-6-7-5-12v-15l4-11 6-9 6-7 11-9 10-7 17-10 25-12 26-10 30-10 32-8 29-6 32-5 38-4z" fill="#1F2022"/>
<path transform="translate(981,172)" d="m0 0h71l34 2 38 4 39 6 37 8 42 12 33 12 25 11 16 8 15 8 12 8 11 9 5 4 7 10 1 8-3 3-16 2-8 2-6-3-12-12-17-12-21-12-24-11-24-9-25-8-27-7-27-6-36-6-32-4-38-3-27-1h-19l-37 2-41 4-39 6-34 7-34 9-30 10-27 11-22 11-16 10-20 15-6 3-9 1-18-1-2-2 1-7 4-6 9-10 13-10 15-9 25-13 31-13 25-9 35-10 30-7 32-6 38-5 34-3z" fill="#FDFDFD"/>
<path transform="translate(646,341)" d="m0 0 4 1 2 16 4 12 10 16 17 17 10 8 3 5v2l5 2 12 9 22 12 20 9 27 10 29 9 36 8 28 5 20 3h8l2-4 2 1 2 17v28l1 10v15l1 7v7l1 6v7l1 2v7l1 3v5l1 2v11h2l1 10 1 5 1 9 2 1v7l2 1-1 2 2 1-1 3 2 1-1 2 2 1 2 9 8 22 8 18 8 16 6 11 12 17 6 7 10 8 12 6 13 3h12l13-3 11-6 8-7h2l2-4 11-13 9-15 9-17 12-28 11-33 6-27 4-25 3-31 1-20v-34l1-2 1-21 3-1v2l8 1 44-7 36-8 28-8 31-11 24-11 17-9 14-10 8-9h2v-2l11-9 8-7 9-11 7-11 5-12 3-19 4 2 2 5v22l-3 17-16 20-8 8-14 11-14 10-21 12-25 12-27 10-35 10-37 8-41 7-3 1-1 6-3 43-4 34-7 41-7 30-8 26-11 26-12 23-12 18-6 7 1 5h9l16-1v1l-24 3-8 5-19 7-18 4-6 1h-21l-20-4-25-9-4-2-1-2-24-3v-1l24 1 1-5-9-11-11-18-11-21-11-27-7-23-7-30-7-41-4-34-2-26-1-20-1-3-16-3-34-6-31-7-25-7-27-9-25-11-23-12-18-12-14-11-13-12-8-10-7-10-2-11-1-11v-10l2-11z" fill="#9A9A9B"/>
<path transform="translate(1011,211)" d="m0 0h14l16 4 13 7 12 11 9 12 10 17 10 21 7 19 7 25 5 25 2 12v20l-5 4h-18l-3-1-4-9-7-25-9-27-11-23-8-11-11-11-10-6-9-3h-9l-10 4-8 6-5 4-12 16-10 19-9 25-7 25-4 10-4 4-2 1h-13l-5-2-3-5 1-17 5-30 7-26 6-18 11-25 11-19 9-11 9-9 14-8 12-4z" fill="#FDFDFD"/>
<path transform="translate(822,918)" d="m0 0h50l7 10 42 66 2 2 11-17 28-44 11-17h50l-2 5-11 17-56 88-8 13-1 74h-44l-1-73-11-18-16-25-42-66-9-14z" fill="#D41E25"/>
<path transform="translate(1235,918)" d="m0 0h168v38h-62v159h-44l-1-158-61-1z" fill="#D41E25"/>
<path transform="translate(438,918)" d="m0 0h167l1 1v37h-62v158l-1 1h-43l-1-10v-148l-61-1z" fill="#D41E25"/>
<path transform="translate(636,375)" d="m0 0h2l2 11v8l-8 19-7 23-4 22-2 21v16l3 26 5 21 6 18 9 20 13 22 12 16 11 13 13 14 8 7 10 9 17 13 17 12 20 12 20 11 27 12 25 9 29 9 38 9 29 5 7 2 19 2v3l-2-1-33-4-28-5-25-6-29-8-21-7-11-4-13-5-5 1-1 5h2v2h3v2l6 2 10 6 21 8 21 7-4 1-41-14-24-10-28-13-20-11-7-3-14-8-14-10-6-5-5-6-8-7-21-21-9-11-11-14-9-13-11-18-9-17-10-26-5-20-3-19-1-14v-18l2-20 5-24 9-25 8-16 7-10 10-4z" fill="#6F7070"/>
<path transform="translate(944,489)" d="m0 0 5 2 2 1 1-3 30 1h71l31-1v3l6-3h2v20l-2 24-4 28-5 25-7 26-9 25-8 16-6 10-8 10-8 7-9 5-4 1h-9l-12-5-6-5v-2h-2l-10-13-9-16-10-25-7-23-7-33-4-26-2-20-1-26zm21 12-2 1v16l4 32 6 30 6 21 6 16 8 16 8 10 7 6 5 2h9l8-4 5-4 9-13 9-19 8-26 6-28 4-26 2-23-1-6-1-1z" fill="#454647"/>
<path transform="translate(1250,715)" d="m0 0 5 2-1 5-8 7-25 12-28 10h-3v2l-25 7-36 8-32 5-28 3-14 1h-75l-33-3-35-5-29-6-31-8v-2l-9-2-23-8-11-5-15-8v-2h-3v-2h-2l-1-4 4-3 6 1 13 5 16 5 7 3 23 7 28 7 25 5 26 4 19 2 26 10 15 4 11 2h21l20-4 18-6 12-6 1-1 34-3 23-4 28-6 21-6 35-11 15-6 11-5z" fill="#424344"/>
<path transform="translate(1455,624)" d="m0 0 1 4-11 16-9 11-10 11-7 8-11 11-8 7-14 12-18 13-18 12-26 15-34 17-31 13-28 10-33 10-34 8-33 6-40 5-42 3h-67l-38-3-45-6-36-7-40-10-32-10-34-13-26-12-20-10-22-13-21-14-16-12-11-9-10-9-8-7-16-16-9-11-10-12-3-7-1-2 4 2 11 12 9 11 24 24 11 9 12 10 18 13 15 10 21 12 23 12 24 11 31 12 34 11 31 8 31 7 44 7 29 3 33 2h58l31-2 37-4 37-6 28-6 34-9 37-12 35-14 33-16 18-10 19-12 17-12 13-10 15-13 13-12 9-9 7-8 11-13 6-9h2l2-5z" fill="#484949"/>
<path transform="translate(1014,277)" d="m0 0h11l12 6 13 12 4 4 4 8 9 17 9 27 7 29 5 31v8l-5-1-10-9-5-5-4-25-7-27-8-21-7-13-8-10-7-5-6-2h-8l-8 4-7 6-7 11-7 14-8 24-7 30-2 14-13 13-6 2v-13l6-32 7-28 7-21 9-17 3-4 2-5 3-3 3-5 4-2 10-7h2l-1-3 4-1v2z" fill="#99999A"/>
<path transform="translate(690,318)" d="m0 0h3l6 15 3 5h2l6 9 7 7 7 5 11 2 16-1 2-1 15 8 21 8 27 8 40 9 25 4h13l2 6 9 13 5 7v2h-17l-42-6-31-6-28-7-32-11-25-12-15-10-11-9-9-10-6-9-4-11-1-5v-7z" fill="#B6B8B8"/>
<path transform="translate(646,341)" d="m0 0 4 1 2 16 4 12 10 16 17 17 10 8 3 5v2l5 2 12 9 22 12 20 9 27 10 29 9 36 8 28 5 20 3h6l5-2 1 14 1 47 2 29 3 27 5 28v5l-2-4-5-22-6-36-3-24-3-11-1-4h-2l-3-4-6-32-16-3-34-6-31-7-25-7-27-9-25-11-23-12-18-12-14-11-13-12-8-10-7-10-2-11-1-11v-10l2-11z" fill="#6D6E6E"/>
<path transform="translate(1386,341)" d="m0 0 4 2 2 5v22l-3 17-16 20-8 8-14 11-14 10-21 12-25 12-27 10-35 10-37 8-41 7-3 1-6 39-7 8-2 7-5 34-3 15h-1v-10l3-36 2-69 2-1 3 2 11-1 38-6 36-8 28-8 31-11 24-11 17-9 14-10 8-9h2v-2l11-9 8-7 9-11 7-11 5-12z" fill="#6D6E6E"/>
<path transform="translate(1175,216)" d="m0 0 9 1 29 8 29 10 24 10 16 8 15 8 17 12 12 11 8 11 4 10 1 4v11l-5 13-6 8-7 3h-13l-3-3 4-18-1-10-6-12-9-10-15-11-21-12-27-12-11-4 4-1h6l7-10 3-3-4-3-33-11-27-7z" fill="#6C6D6D"/>
<path transform="translate(839,220)" d="m0 0h5l-3 2-29 9-10 4-1 5v13l12-1-2 2-20 8-19 9-18 11-10 8-6 5-9 13-3 12 2 12 3 9-1 4h-11l-11-4-6-7-5-12v-15l4-11 6-9 6-7 11-9 10-7 17-10 25-12 26-10 30-10z" fill="#6C6D6D"/>
<path transform="translate(1336,331)" d="m0 0 2 1-6 11-7 9-11 11-14 10-21 11-24 9-28 8-34 7-26 4-22 2-15 2 4-7h2l2-5 2-3 1-5 4 1 23-3 35-7 27-7 30-10 19-9 13-9 10-10 4-7 1 3-1 4 2 1h13l7-3 4-5z" fill="#B6B8B8"/>
<path transform="translate(1e3 207)" d="m0 0h32l21 3 3 1v2l6 1 15 7 6 1-4 2-2 3 16 24 14 27 10 24 9 27 7 28 7 38v6l-5 8h-2l-2 5-5 4-2-9-4-34-7-38-8-30v-3h-2l-9-25-2-4v-3l-2-1-5-12-7-13-10-11-7-8-6-5-3-1v-2l-3-1 4-1 5 2h4l-4-3v-2l-9-2-16-2-10-1h-13l-27 5-8 4h6l-2 4-11 9-8 8h-2l-2 4-3 1-2-1 1-7 4-8-1-4-5-1 18-9 17-5z" fill="#99999A"/>
<path transform="translate(618,421)" d="m0 0h7v7l-4 19-1 8-1 24v16l4 37 7 28v6l-5 3h-8l-5-2-5-9-6-16-5-23-2-16v-28l2-17 5-22 3-7 5-4z" fill="#404142"/>
<path transform="translate(1415,422)" d="m0 0h10l6 5 6 19 3 15 1 7v37l-3 20-4 17-7 19-5 9h-8l-7-5-1-6 7-28 2-12 2-18v-30l-4-37-1-9z" fill="#404142"/>
<path transform="translate(996,197)" d="m0 0h43l44 3 34 4 41 7 17 4v2l8 1 25 7 27 9 5 3-2 4-4 4-4 6-1 1-13-1-29-9-30-7v-1h14l5-5 4-6 1-4-11-2-33-7-42-6-34-3-31-1h-18l-39 1-41 4-34 5-28 6-11 3-1 1v12l1 3h14l-4 2-32 8-21 7-13 2-3-3v-15l4-3 33-11 7-1v-2l28-7 39-7 30-4 36-3z" fill="#424344"/>
<path transform="translate(1075,489)" d="m0 0h9v3l6-1 1 7-2 27-4 31-5 25-6 23-2 5-2-3-2-4h-6l-4 1-1 4-3 1 2-9 6-22 7-38 2-16 1-19-1-2-30-1-7-1-1-2 1-3 8-3 30-2z" fill="#424344"/>
<path transform="translate(1488,532)" d="m0 0h4v16l-6 20-6 16-12 25-11 18-2-2-5 5-1 2h-2l-2 5-14 17-16 17-9 9-8 7-13 11-12 9-17 12-21 13-22 12-29 14-36 14-34 11-38 10-24 5-37 6-37 4-31 2h-58l-33-2-29-3-49-8-39-9-34-10-29-10-29-12-29-14-7-4 2-1 28 14 36 15 36 12 24 7 43 10 37 6 33 4 25 2 24 1h34l38-2 40-4 32-5 26-5 36-9 30-9 30-11 28-12 21-10 14-8 11-6 16-10 11-8 16-12 3-1v-2l11-9 5-5h2l2-4 17-17 5-7h2l2-4 12-17 10-17 8-16 7-18 7-20 6-15 6-12z" fill="#9A9A9B"/>
<path transform="translate(967,401)" d="m0 0 2 1h97l2-1v3l3 1 7 8 7 5-4 3-11 1h-105l-10-1-5-2 5-4 11-11z" fill="#B5B7B7"/>
<path transform="translate(974,613)" d="m0 0 5 1 5 8 11 21 8 10 8 5 3 1h7l9-4 8-9 8-13 8-16 3-4h6l2 2v8l-6 16-9 16-10 14-9 8-8 4h-10l-10-5-10-10-10-15-8-15-5-13v-7z" fill="#B6B7B7"/>
<path transform="translate(1392,695)" d="m0 0h2l-2 4-17 13-17 12-20 12-18 10-30 15-31 13-28 10-33 10-34 8-33 6-40 5-42 3h-67l-38-3-45-6-4-3h22l34 4 28 2 30 1h24l41-2 37-4 38-6 29-6 34-9 35-11 21-8 26-11 25-12 18-10 9-6 9-5 20-14z" fill="#48494A"/>
<path transform="translate(1129,482)" d="m0 0 2 1-1 1-2 69-3 36v6l4-23 4-27 4-6 4-4 4-26h1v11l-3 36-6 42-7 36-7 27-9 25-2 2 1-5 2-9-4-1-7 8h-2l-3 9-10 22-8 13h-2l2-6 8-15 12-28 11-33 6-27 4-25 3-31 1-20v-34l1-2 1-21z" fill="#9A9A9B"/>
<path transform="translate(771,735)" d="m0 0 5 1 35 13 25 8 17 4 18 5 14 3 25 5 6 1 18 2 14 2 12 1 33 2h53l26-2 32-3 25-4 13-2 12-3 20-4 10-3 22-6 9-3 11-4 15-5h3l1-2 6-1v2l-15 7-18 7-28 9-28 7-24 5-29 5-33 4-27 2-29 1-32-1-40-3-41-6-31-6-31-8-19-6-15-5-24-10-16-8z" fill="#979798"/>
<path transform="translate(1045,295)" d="m0 0 5 2 7 8 10 19 9 27 7 29 5 31v8l-5-1-10-9-5-5-4-25-7-27-8-21-7-13-4-5-1-9 4-6z" fill="#444545"/>
<path transform="translate(690,318)" d="m0 0h3l6 15 6 11 8 10 12 11 18 11 21 10 30 10 28 7 33 6 36 5 12 1 3 1 4 6v2h-17l-42-6-31-6-28-7-32-11-25-12-15-10-11-9-9-10-6-9-4-11-1-5v-7z" fill="#FCFCFC"/>
<path transform="translate(1343,318)" d="m0 0 3 1v9l-5 15-6 10-9 10-9 8-17 11-16 8-20 8-18 6-40 10-40 7-26 3h-14l1-4 2-4 16-3 22-2 32-5 36-8 29-9 21-9 18-10 13-10 11-11 8-13z" fill="#FCFCFC"/>
<path transform="translate(944,489)" d="m0 0 3 1-2 1 3 40 5 34 5 23 5 17 4-3h7l5 5 9 20-1 3-8-15-5-1-3 2v7l7 17 9 16 9 12 7 7 10 5h10l11-6 9-10 13-21 6-14 2-6v-8l-1-1h-6l-5 8-5 11-1-3 3-6-1-4 5-12 4-1 1-4 4-2h6l4 5 5-16 6-28 4-27 2-19 1-25-2-1 4-1v20l-2 24-4 28-5 25-7 26-9 25-8 16-6 10-8 10-8 7-9 5-4 1h-9l-12-5-6-5v-2h-2l-10-13-9-16-10-25-7-23-7-33-4-26-2-20-1-26z" fill="#6B6C6C"/>
<path transform="translate(928,286)" d="m0 0 4 2v9l-10 37-7 37-4 32-2 14-4-1-9-12-2-3v-7l9-45 7-26 9-26 3-3 3-7z" fill="#424344"/>
<path transform="translate(1011,208)" d="m0 0h13l21 2 14 4 5 6-7-1h-4v2l4 1 12 11 7 8 7 10 9 19 10 25 4 13-2 4-8-24-11-24-9-16-8-11-9-10-10-7-11-5-13-3h-14l-16 4-13 7-10 9-7 8-9 14-8 16-8 18-7 21-2 4-2-1v-8l2-7v-9l-6-1-2 7-2 1 1-5 8-18 10-19 14-21 1 3-2 3-1 5 5-1 14-14 10-8 1-2-7 1 4-4 9-3z" fill="#B6B8B8"/>
<path transform="translate(977,315)" d="m0 0 11 1 1 1-1 10-8 20-7 25-5 24-1 8-13 13-5 1 1-16 6-31 7-27 8-20z" fill="#424344"/>
<path transform="translate(1e3 194)" d="m0 0h19l42 2 41 4 39 6 30 6 28 7 29 9 14 5 1 2-1 2-5-1-36-12-26-7-33-7-37-6-38-4-33-2h-43l-44 3-34 4-36 6-35 8-28 8-28 10-26 11-14 7-2-1v-3l4-3 19-9 29-11 33-10 33-8 39-7 29-4 33-3z" fill="#B2B3B3"/>
<path transform="translate(1455,624)" d="m0 0 1 4-11 16-9 11-10 11-7 8-11 11-8 7-6 4-5 2-18 13-18 12-13 8-16 9-19 10-29 13-35 13-36 11-40 10-34 6-36 5-21 2-41 2h-24l-30-1-38-3-37-5-33-6-30-7-41-12-28-10-20-8-1-2 5 1 31 12 34 11 31 8 31 7 44 7 29 3 33 2h58l31-2 37-4 37-6 28-6 34-9 37-12 35-14 33-16 18-10 19-12 17-12 13-10 15-13 13-12 9-9 7-8 11-13 6-9h2l2-5z" fill="#6C6D6D"/>
<path transform="translate(1404,375)" d="m0 0h6l10 17 9 19 6 16 5 21 3 22v28l-3 25-5 21-5 15h-2l1-5 6-19 4-21 1-9v-37l-3-17-6-21-3-5-3-2h-10l-2 2 2 20v8l-2-3-6-25-6-18-4-9-2-9 2-12z" fill="#6D6E6E"/>
<path transform="translate(636,375)" d="m0 0h2l2 11v8l-8 19-7 23-4 22-1 8h-1v-11l4-23 2-11-9 2-10 5-3 5-5 19-2 12-1 11v28l4 27 6 21 1 5-3-3-5-17-4-21-2-21v-18l2-20 5-24 9-25 8-16 7-10 10-4z" fill="#6D6E6E"/>
<path transform="translate(1335,398)" d="m0 0 2 1-10 6-12 5-11 6-48 11-40 10-19 5-19 4-12 1h-35l-12-2h-30l-19 1-22 1-26-1-25 1h-49l-20-3-33 1-13 1h-7l-6 1-26-6-16-5-23-5-22-5-12-2-25-2-27-6-12-2-14-9 2-1 11 6 17 3 19 5 25 3 25 4 27 6 21 5 9 3 25 4h27l9-1h24l15 2h50l27-1h60l13-1h21l9 2 51-1 26-7 28-7 24-5 31-7 18-5z" fill="#CFD0D1"/>
<path transform="translate(670,405)" d="m0 0 5 1 12 9 18 12 25 14 20 9 25 10 14 5 10 6 3 2v3l-13-2-36-12-19-8-9-3-19-10-18-12-14-11-3-3-2-4v-5z" fill="#434445"/>
<path transform="translate(1370,368)" d="m0 0 4 1-8 5-14 11-17 9-11 5-18 8-10 3-13 2-20 4-32 8-21 5-32 8-24 2h-25l-10-2h-20l-16 2h-44l-17-1-32 2h-41l-14-2-9-1-16 2h-15l-26-1-25-5-21-5-29-7-21-6-34-5-14-3-23-6-8-4-13-4-6-4-2-4 5 4 5 2 11 2 13 5 15 5 12 3 27 4 16 3 12 4 48 12 18 4 15 2 16 1h25l19-2 8 2 15 2h23l45-3 45 2 27-2 6-1h17l9 2h35l23-3 23-6 22-5 36-9 28-6 11-2 21-9 23-11 10-7 10-8z" fill="#CFD0D1"/>
<path transform="translate(1364,404)" d="m0 0 4 2v6l-10 9-18 13-15 9-23 12-16 7-12 3-20 6-10 1 2-5 13-6 18-7 15-7 19-9 18-10 19-13 13-10z" fill="#434445"/>
<path transform="translate(1174,216)" d="m0 0 28 7 33 11 5 3-2 4-4 4-4 6-1 1-13-1-29-9-30-7v-1h14l5-5 4-6 1-4-7-1z" fill="#414243"/>
<path transform="translate(733,705)" d="m0 0 6 2 22 12 31 14 29 11 34 11 41 10 35 6 36 4 13 1h88l-4 2-31 1h-44l61 1v-1h19l2 2-25 2h-53l-33-2-21-2-16-2-10-2-14-2-19-4-9-2-42-11-35-12-2-1 1-3 29 10 26 8 32 8 34 6 31 4 16 1-29-3-35-6-33-8-25-7-34-12-28-12-27-13-17-10z" fill="#B2B3B4"/>
<path transform="translate(656,352)" d="m0 0 3 4 5 9 7 6 10 5 10 3 14 7 30 11 21 5 18 5 31 8 38 10 22 4 19 1h25l12-3h13l12 4 15 2h34v2l-26 1h-16l-16-3-5-2-17 2-4 1-26 1-16-1-31-6-21-6-18-5-10-2-13-4-24-6-20-4-12-4-11-4-16-5-14-3-5-3-7-7-2-1v-2h-2l-1-4-2-1-1-4v-2l-3-1h2v-2l-3-1h2v-2l-2-1z" fill="#CFD0D1"/>
<path transform="translate(1386,341)" d="m0 0 4 2 2 5v22l-3 17-16 20-5 4v-5l-4-1-7 4-10 8-15 10-16 9-17 9-16 7-5 1 4-4 18-8 19-10 14-10 8-9h2v-2l11-9 8-7 9-11 7-11 5-12z" fill="#6C6D6D"/>
<path transform="translate(549,545)" d="m0 0 3 3 6 10 7 20 11 28 9 16 7 11 2 5h2l6 9 9 10 3 3v2h2l7 8 11 11 8 7 14 12 18 13 18 12-2 1-11-7-17-12-13-10-14-12-10-9-21-21-9-11-9-10 2 4-1 2-10-14-9-15-10-19-5-12-1-7-5-19v-6z" fill="#99999A"/>
<path transform="translate(1379,347)" d="m0 0 2 4-2 6-1 5-6 4-8 3-16 11-10 6-16 7-14 7-19 5-16 4-22 5-48 12-23 5-20 3-23 1h-8l-12-3-3-1h-12l-10 2-32 2-44-1-20 1v-2l14-1 67-1 14-2 16-3 11 2 3 2 5 1h16l25-2 26-5 31-7 30-7 32-8 25-8 16-7 14-7 10-9 9-6 10-5 5-2 2-3z" fill="#CFD0D1"/>
<path transform="translate(1401,680)" d="m0 0m-1 1m-1 1m-1 1m-1 1m-1 1m-1 1m-2 1h2l-2 4-13 11-14 10-21 14-19 11-23 12-24 11-34 13-31 10-38 10-24 5-37 6-37 4-31 2h-58l-33-2-29-3-49-8-39-9-34-10-29-10-29-12-29-14-7-4 2-1 28 14 36 15 36 12 24 7 43 10 37 6 33 4 25 2 24 1h34l38-2 40-4 32-5 26-5 36-9 30-9 30-11 28-12 21-10 14-8 11-6 16-10 11-8 16-12 3-1v-2z" fill="#99999A"/>
<path transform="translate(1118,337)" d="m0 0h7l4 5v2h2l7 34 3 17v6l-5 8h-2l-2 5-4 2-2-10-5-39-4-28z" fill="#424344"/>
<path transform="translate(950,419)" d="m0 0 5 1 10 1h105l11-1 4-1 6 4-1 4-4 1-44 1h-49l-41-1-7-1-1-4z" fill="#FDFDFD"/>
<path transform="translate(984,638)" d="m0 0h5l9 12 8 8 9 4h7l8-4 8-8 8-11 4-1 2 4-4 10-8 11-9 9-9 5h-9l-10-5-8-8-9-13-3-7v-5z" fill="#FDFDFD"/>
<path transform="translate(681,670)" d="m0 0 4 2 16 13 18 12 26 15 23 12 32 14 36 13 24 7 28 7 31 6 30 4 21 2v1h-14l-36-4-35-6-33-8-24-7-29-10-26-11-16-8-21-11-19-12-17-13-11-9-8-7z" fill="#FDFDFD"/>
<path transform="translate(1111,672)" d="m0 0 5 2-2 9-3 10-12 25-3 5-4 4-9 13-3 2-9-1 2-5 9-14 8-14 12-27h2l2-4z" fill="#6D6E6E"/>
<path transform="translate(1092,489)" d="m0 0 2 3v17l-1 5v12l-1 2-1 16-2 9-6 30v6l-2 4v5l-2 3-1 8-2 2-7 21-8 18-7 13-8 10-9 9-12 6-8 1-10-2-9-5-5-4-10-13-9-15-10-25-8-25-2-6-5-26-4-27-2-11v-5l-1-4 1-25h1l2 33 4 30 7 34 7 24 10 26 8 15 10 13 1 3h2l5 5 10 5 3 1h9l10-4 9-7 7-8 7-11 8-16 6-15 8-26 6-26 4-24 3-24z" fill="#99999A"/>
<path transform="translate(1344,678)" d="m0 0 2 1-13 11-18 13-20 12-18 10-24 11-23 9-33 11-27 7-33 7-32 5h-8v-1l41-7 33-8 31-9 31-11 30-13 30-15 27-16 12-8z" fill="#FDFDFD"/>
<path transform="translate(928,286)" d="m0 0 4 2v9l-10 37-7 37-4 32-2 14-3-1h2l1-15 6-45 1-14v-3l-7 1-3 8-2 5-1-4 7-26 9-26 3-3 3-7z" fill="#6E6F6F"/>
<path transform="translate(1105,284)" d="m0 0 4 1 6 11 4 9 8 24 3 11-1 4-4-6-7-1 2 17 6 43 2 16 1 4-2 1-2-9-4-34-7-38-10-37-3-10 1-5z" fill="#6D6E6E"/>
<path transform="translate(1143,802)" d="m0 0h7l-2 2-5 2-42 6-35 3-17 1h-67l-38-3-45-6-4-3h9l31 4 36 3 19 1h55l22-1 40-4z" fill="#2A2B2D"/>
<path transform="translate(1e3 207)" d="m0 0h32l21 3 3 1v2l6 1 15 7 6 1-4 2-5 1-5-5-11-5-14-4-21-2h-13l-27 5-8 4h6l-2 4-11 9-8 8h-2l-2 4-3 1-2-1 1-7 4-8-1-4-5-1 18-9 17-5z" fill="#99999A"/>
<path transform="translate(1198,788)" d="m0 0m-4 1 9 1v2l-13 4-36 8-9 1 3-2-12 1-46 6-23 2-24 1h-53l-46-3-26-3-7-2v-1l14 1 26 3 28 2 30 1h24l41-2 37-4 38-6 29-6z" fill="#404142"/>
<path transform="translate(584,633)" d="m0 0 4 2 11 12 9 11 24 24 11 9 12 10 18 13 15 10 21 12 23 12 19 9-3 1-26-12-22-12-23-14-13-9-11-8-3-2 1 3-4-2-13-11-13-12-14-14-9-11-10-12-3-7z" fill="#6E6F6F"/>
<path transform="translate(1036,195)" d="m0 0h15l38 3 39 5 34 6 35 8 30 9 20 7 1 2-1 2-5-1-36-12-26-7-33-7-37-6-38-4-33-2-4-2z" fill="#B2B4B4"/>
<path transform="translate(1230,744)" d="m0 0 3 1-4 3-21 7-17 5-14 4-14 3-18 4-21 4-30 4-22 2-7-1h-14v1l-62-1-18-1v-1h62l31-1 5-1 17-1 11-1h8l43-7 35-8 30-9z" fill="#B9BBBB"/>
<path transform="translate(996,197)" d="m0 0h43l44 3 34 4 41 7 17 4-1 2-9-1-28-6-42-6-34-3-31-1h-18l-39 1-41 4-34 5-15 3-14 1 3-2 39-7 30-4 36-3z" fill="#535455"/>
<path transform="translate(1012,271)" d="m0 0h9l11 4 9 6 13 13 8 13 5 11-5-2-6-11-5-8-9-9-10-7-7-3h-11l-9 3v-2l-1 3-12 8-5 3-3 5-2 2-3 7-6 10-2 4-4 2-1-2 11-21 9-11 5-6 8-6 10-5z" fill="#B7B8B9"/>
<path transform="translate(583,574)" d="m0 0h8l4 2-1 7h3l1-2 2 9-1 8-2 2v5l2 2 2 10 3 8 3 7 7 7 3 5-1 2-8-5-6-9-4-7-2-7-3-5-2-6-4-7-3-7-2-10v-6z" fill="#99999A"/>
<path transform="translate(1378,643)" d="m0 0v3l-8 7-3 2 2-4 7-7zm-12 12m-1 1m-1 1m-1 1m-2 1 2 1-15 15-9 8-16 11-20 12-18 10-26 13-31 13-36 12-24 7-35 8-30 5-28 3h-6v-2l36-4 34-6 38-9 35-11 34-13 36-17 23-13 15-9 17-12 14-12z" fill="#B1B2B3"/>
<path transform="translate(1306,335)" d="m0 0 1 3-1 4 2 1h13l7-3 5-5-2 6-9 11-11 8-8 2h-20v-2l5-5 10-9 6-7z" fill="#999A9A"/>
<path transform="translate(699,328)" d="m0 0 3 4 4 6 4 3 9 3h11v-6l4 5 10 10 7 5 1 3-17 1-11-2-10-8-9-10-6-11z" fill="#999A9A"/>
<path transform="translate(987,298)" d="m0 0 8 1 5 4-1 7-7 10-3 5-1-2v-6l-11-1-6 10-7 18-8 31-5 27-1 16-2 1v-13l6-32 7-28 7-21 9-17 7-9z" fill="#6C6D6D"/>
<path transform="translate(963,490)" d="m0 0h109v1l-30 2-8 2v4l9 2v1h-56v-1l13-2-3-5-17-2-17-1z" fill="#717272"/>
<path transform="translate(843,429)" d="m0 0 9 1 19 3 15 1 25-1 17-3 8 1 9 3 13 1h20l42-2v3l-44 3h-23l-19-3-5-1-18 2h-25l-23-2-17-3-3-1z" fill="#B6B8B8"/>
<path transform="translate(1076,370)" d="m0 0 2 2 6 29 1 16-5-1-9-9-2-3-1-14v-13z" fill="#1E1F21"/>
<path transform="translate(1455,624)" d="m0 0 1 4-11 16-9 11-10 11-7 8-11 11-8 7-6 4-5 2-15 11-2-1 10-9 11-9 11-10 8-7 11-11 7-8 11-13 6-9h2l2-5z" fill="#707171"/>
<path transform="translate(637,355)" d="m0 0 2 1 1 30-2-4v-7l-16 8-6 9-9 20-8 24-4 20-1 7h-1v-8l1-11h2l1-9 5-19v-3h2l2-9 8-16 9-15 8-11 4-6z" fill="#99999A"/>
<path transform="translate(1067,401)" d="m0 0 1 3 3 1 4 6v3l3 3v2l-2 1h-27l-3-2-3-7-1-4 2-2 18-1z" fill="#99999A"/>
<path transform="translate(964,375)" d="m0 0h3l1 2-1 27-13 13h-3v-10l5-25 5-5z" fill="#1F2022"/>
<path transform="translate(1045,295)" d="m0 0 5 2 7 8 10 19 7 20-1 4-7-20-7-14-3-2h-3v2h-2l-2 7 2 8 4 11-1 3-8-18-7-11-2-5 1-7 5-6z" fill="#6D6E6E"/>
<path transform="translate(1396,355)" d="m0 0 4 1 7 9v2h2l9 15 10 19 2 8 2 1v5l2 1 1 9 2 1-1 3h2l1 7 2 8v9h-1l-4-19-6-18-8-18-9-17-3-4v-2l-12 2-2 13 1 6-3-4v-7l1-9z" fill="#99999A"/>
<path transform="translate(1072,490)" d="m0 0h11l-1 4-8 9-1-2h-32l-7-1-1-2 1-3 8-3z" fill="#404142"/>
<path transform="translate(967,401)" d="m0 0 5 3h12l9 2 1 4-7 9-3 1h-17l-7-2 1-4 4-6 1-4z" fill="#99999A"/>
<path transform="translate(1359,264)" d="m0 0 7 5 8 13 1 7-3 3-24 6h-6l-5-6-3-4 1-2 7 2 6-2 16-2 2-2-1-8-6-8z" fill="#CFD0D1"/>
<path transform="translate(681,259)" d="m0 0 2 1-9 10-3 7 1 5 23 1 8-3 4-1-6 7-9 6-15 1-13-2-2-2v-7l6-10z" fill="#CFD0D1"/>
<path transform="translate(932,682)" d="m0 0 3 3 12 27 8 14 9 13-1 2-10-9-10-14-6-4-6-10-2-4v-10l2-6z" fill="#6C6D6D"/>
<path transform="translate(943,256)" d="m0 0 4 2-2 12h-2v5h-2l-1 7-4 9-6 17-1-4 2-7v-9l-6-1-2 7-2 1 1-5 8-18 7-14z" fill="#9B9B9C"/>
<path transform="translate(952,489)" d="m0 0h10l1 1 29 2 6 2 3 6-5 1h-31l-6-3-7-6z" fill="#404142"/>
<path transform="translate(1399,302)" d="m0 0 5 5 4 7 4 4 1 5h2l1 7-11 8h-6l-6-4-1-3-5-3-4 1-1 1-1 15h-1v-18l2-2 11 1 5-3 8-2-1-7-5-9z" fill="#B6B8B8"/>
<path transform="translate(1130,377)" d="m0 0 6 1 3 5 2 12v6l-5 8h-2l-2 5-3-1-3-24v-10z" fill="#232425"/>
<path transform="translate(905,378)" d="m0 0 4 1 1 5-3 29-2 1-5-4-4-6v-11l2-9 4-5z" fill="#212224"/>
<path transform="translate(827,220)" d="m0 0 4 1 1 2-36 12-29 12-16 8-2-1v-3l4-3 19-9 29-11z" fill="#B2B3B3"/>
<path transform="translate(1449,500)" d="m0 0h1v13l-1 14v11l1 6-1 14-4 18-12 26-2 1 1-5 7-16 4-24 1-20 3-17z" fill="#99999A"/>
<path transform="translate(920,363)" d="m0 0h1v16l2 5 8 1h10l4-1 2-5 2-2-2 9-4 7-6 3h-12l-4-2-3-8 1-16z" fill="#CFD0D1"/>
<path transform="translate(1488,466)" d="m0 0 5 1 2 3v7l-2-4-5-1-5 2v2l-4 1v2h-4l-1 5-6 2v-2l-11 6-4 4-2 6h-1v-8l4-8 14-7 9-5 7-5z" fill="#99999A"/>
<path transform="translate(643,289)" d="m0 0h2l-2 5-6 7-6 12v8l21 1 3 2v7h-1l-1-5-8 1-11 3h-5l-4-4-1-5 5-13 2-3-6 3 2-4 4-4 7-4 3-4 2-1z" fill="#CFD0D1"/>
<path transform="translate(546,461)" d="m0 0 5 5 7 12 5 3h8l5-1 5 5v2l-7-1-8 3-6-1-5-5-8-10-4 1-3 3 1-8 3-7z" fill="#99999A"/>
<path transform="translate(1e3 207)" d="m0 0h32l21 3 3 1v2l6 1 15 7 6 1-4 2-5 1-5-5-11-5-14-4-21-2h-22l-19 4-12 5-9 5-5 2-6-2 18-9 17-5z" fill="#717272"/>
<path transform="translate(1116,370)" d="m0 0h1l1 11v10l-5 5-4 1h-15l-4-4-3-9 1-4 2 7h21l4-3z" fill="#CFD0D1"/>
<path transform="translate(1054,221)" d="m0 0 4 2 10 9 9 10 7 11 8 17 10 25 4 13-2 4-8-24-11-24-9-16-8-11-9-10-5-4z" fill="#B7B9B9"/>
<path transform="translate(969,321)" d="m0 0 1 2-6 16-7 26-5 24-4-5 1-11 7-23 8-24 3-4z" fill="#B4B6B6"/>
<path transform="translate(913,202)" d="m0 0h6l-1 3-36 6-35 8-11 3h-5v-3l36-9 39-7z" fill="#B4B5B6"/>
<path transform="translate(1194,732)" d="m0 0 3 1-4 2-1 2-20 6-21 5-25 5-21 3h-8v-1l14-3 36-7 31-8z" fill="#8A8B8B"/>
<path transform="translate(847,736)" d="m0 0h7l30 8 34 7 13 2 7 2 19 2v3l-2-1-33-4-28-5-25-6-22-6z" fill="#7F8080"/>
<path transform="translate(1011,208)" d="m0 0h13l21 2 14 4 5 6-7-1h-4l1 3-5-2-11-5-13-3h-20l-1-3z" fill="#B5B7B7"/>
<path transform="translate(1488,487)" d="m0 0 4 1 3 4-1 4 2 5h-2v-2l-5 1-8 15-3 3-2-1 2-3v-3l-4-1 8-15 3-6z" fill="#99999A"/>
<path transform="translate(1096,754)" d="m0 0h7v1l-24 3-8 5-19 7-12 3h-11l3-2 9-2 12-5 19-9h15z" fill="#B3B4B4"/>
<path transform="translate(959,751)" d="m0 0 1 3 6 2 12 7 17 6 9 3v1h-8l-15-4-21-8-3-3-24-3v-1l24 1z" fill="#B3B4B4"/>
<path transform="translate(793,740)" d="m0 0 29 10 26 8 32 8 10 2v2l-10-1-9-2-42-11-35-12-2-1z" fill="#B9BBBB"/>
<path transform="translate(1347,404)" d="m0 0 3 1-5 5h-2v2l-12 12-16 10-17 9h-2l2-6h3v2h2v-3l-2-1 6 1 4-3h2v-2l-2-2 6-4h2l1-2 4-1 1-2 12-7 8-6z" fill="#99999A"/>
<path transform="translate(977,198)" d="m0 0h19l-2 2-33 2-36 4-27 4-15 3-14 1 3-2 39-7 30-4z" fill="#555657"/>
<path transform="translate(905,481)" d="m0 0 2 1 2 17v28l1 10v15l1 7v7l1 6v7l1 2v7l1 3v5l1 2v11h2l1 10 1 2-2 3-2-7-4-24-3-31-1-18-1-47-1-13-2-1z" fill="#99999A"/>
<path transform="translate(563,536)" d="m0 0 3 2 5 19 3 9 6 26 2 10-2 1-2-4-4-13-3-12-6-20-2-10z" fill="#9E9E9F"/>
<path transform="translate(1198,788)" d="m0 0m-4 1 9 1v2l-13 4-31 7h-2v-2l5-1-2-2 9-3z" fill="#404142"/>
<path transform="translate(1090,489)" d="m0 0h2v20l-2 24-4 28-5 25-2 8h-2l1-9 5-23 4-27 2-19 1-25-2-1z" fill="#6C6D6D"/>
<path transform="translate(624,318)" d="m0 0 3 9 2 2 8-1 10-2 1 2-2 2-2-1-1 3-15 5-6-3-3-4v-6l2-4z" fill="#B6B8B8"/>
<path transform="translate(1014,708)" d="m0 0 8 1 4 5 1 3-3 8-5 1-5-8-3-3 1-5z" fill="#99999A"/>
<path transform="translate(624,308)" d="m0 0v3l-9 15-2 6v8l6 3h11l5-2-4 5-6 3h-5l-5-3h-6l-1-9 3-11 8-12z" fill="#CFD0D1"/>
<path transform="translate(1086,775)" d="m0 0h9v1l-14 2-3 1h-7l-4 1h-16v1l-62-1-18-1v-1h62l31-1 5-1z" fill="#E3E3E4"/>
<path transform="translate(1399,302)" d="m0 0 5 5 5 10 1 7-5 4-10 3-5-1-5-2-3 2-1 15h-1v-18l2-2 11 1 5-3 8-2-1-7-5-9z" fill="#CECFD0"/>
<path transform="translate(996,197)" d="m0 0h43l33 2 2 2-44-1h-36l2-1z" fill="#525353"/>
<path transform="translate(1414,453)" d="m0 0h2l2 18v30l-3 23-4 20-3 10-3 1 2-9 6-24 2-15 1-24z" fill="#7F8081"/>
<path transform="translate(1129,482)" d="m0 0 2 1-1 1-2 69-3 36-2 1 1-19 2-31v-34l1-2 1-21z" fill="#99999A"/>
<path transform="translate(782,235)" d="m0 0 2 2-5 5-18 8-10 5-2-1v-3l4-3 19-9z" fill="#B4B5B6"/>
<path transform="translate(928,308)" d="m0 0 2 2-1 2h2l-1 8-4 18-1 6h-4l-2 4 1-9 7-28z" fill="#B7B8B9"/>
<path transform="translate(690,408)" d="m0 0h3l5 5 21 13-3 1 8 8-5-2-12-7-11-8-3-6z" fill="#99999A"/>
<path transform="translate(1378,643)" d="m0 0v3l-8 7-3 2 2-4 7-7zm-12 12m-1 1m-1 1m-1 1m-2 1 2 1-15 15-9 8-16 11-13 8-2-1 10-7 15-10 11-9 10-9z" fill="#B2B3B3"/>
<path transform="translate(543,489)" d="m0 0 5 2 3 3 3 6h-3l7 14-1 4-9-18-5-1-3 1-1 4v-8l2-5z" fill="#9A9A9B"/>
<path transform="translate(1111,773)" d="m0 0h8v3l-26 3-21 2-2-3h9l8-2 7-1 3-1h8z" fill="#BABCBC"/>
<path transform="translate(990,208)" d="m0 0h5l-4 1v2l-14 4-15 8-5 2-6-2 18-9 17-5z" fill="#595A5A"/>
<path transform="translate(1386,593)" d="m0 0 1 2-10 15-9 12-13 15-15 15-7 6-2-1 8-8 8-7 15-16 13-17z" fill="#A5A6A7"/>
<path transform="translate(1105,304)" d="m0 0 2 3 8 30v8h-3l-7-30z" fill="#B7B8B8"/>
<path transform="translate(863,211)" d="m0 0h5l1 3-30 7-8 1v-3z" fill="#B1B3B3"/>
<path transform="translate(1e3 803)" d="m0 0h6v1h31l-4 2-14 1h-24l-1-1v1h-5v-1h-12v-2z" fill="#99999A"/>
<path transform="translate(1050,779)" d="m0 0h19l2 2-25 2h-33v-1h11v-2h26z" fill="#B6B8B8"/>
<path transform="translate(1068,492)" d="m0 0h10v4l-3 6-2 1v-2h-9l2-8z" fill="#202123"/>
<path transform="translate(942,691)" d="m0 0 3 3 10 14 6 3-2 4 4 1-1 5-5-2-8-11-4-9-3-6z" fill="#99999A"/>
<path transform="translate(902,486)" d="m0 0h2l1 7v24l-1 9h-1l-2-25v-14z" fill="#404142"/>
<path transform="translate(1080,381)" d="m0 0h2v5h2l4 25v8l-5-1 2-1-3-21-2-11z" fill="#565757"/>
<path transform="translate(1157,765)" d="m0 0 2 1-3 3-12 2-20 4-5-1v-2l33-6z" fill="#BABCBC"/>
<path transform="translate(980,779)" d="m0 0 44 1v2l-22 1h-9l-13-2z" fill="#BCBEBE"/>
<path transform="translate(1131,485)" d="m0 0 3 1v19l-1 18-1 5h-1z" fill="#404142"/>
<path transform="translate(911,205)" d="m0 0h14v1l-27 4-15 3-14 1 3-2z" fill="#4F5051"/>
<path transform="translate(958,492)" d="m0 0h8l3 1 2 7-1 1-8-1-6-5v-2z" fill="#1E1F21"/>
<path transform="translate(573,572)" d="m0 0h2l6 24 1 6-2 1-2-4-4-13-3-13z" fill="#9E9E9F"/>
<path transform="translate(964,406)" d="m0 0h2l-2 5-3 4v3l7 2v1h-13l-5-2 5-4z" fill="#B0B1B1"/>
<path transform="translate(1e3 194)" d="m0 0h19l12 1-1 2h-33z" fill="#BDBEBF"/>
<path transform="translate(850,760)" d="m0 0 10 1 30 7v2l-10-1-9-2-19-5z" fill="#B9BBBB"/>
<path transform="translate(936,675)" d="m0 0 3 3 5 6 6 3h8l-5 5-4 2-6-6v-2h-2l-4-7v-2l-2-1z" fill="#99999A"/>
<path transform="translate(621,320)" d="m0 0 1 4 1 6 5 3 6-1 6-2 4 1-12 5-4 1-6-3-3-4v-6z" fill="#CFD0D1"/>
<path transform="translate(935,199)" d="m0 0h11l6 1v1l-27 3h-6v-3z" fill="#B4B5B6"/>
<path transform="translate(1036,195)" d="m0 0h15l15 1 1 2h-28l-4-2z" fill="#BBBDBD"/>
<path transform="translate(1079,231)" d="m0 0 5 5 10 15 6 12h-2l-6-10-5-5-4-9-4-6z" fill="#B6B8B8"/>
<path transform="translate(1128,749)" d="m0 0h5l-4 3-16 3-16 1v-1l14-3z" fill="#878788"/>
<path transform="translate(992,662)" d="m0 0h3l7 8 9 6-1 3-5-2-8-7-5-6z" fill="#B0B1B2"/>
<path transform="translate(923,342)" d="m0 0h1l-1 14-1 6-3-2-1-3v-8l3-6z" fill="#BABBBC"/>
<path transform="translate(1414,323)" d="m0 0 2 2v5l-11 8h-6l-6-4 2-1 2 1h7l9-6z" fill="#CFD0D1"/>
<path transform="translate(951,490)" d="m0 0 7 6 4 3 3 1v2h-2v11h-1l-1-9-8-7-4-5h2z" fill="#636464"/>
<path transform="translate(1160,797)" d="m0 0m-6 1 10 1-2 2h-5v2l-8 2-4-1 3-1-4-2 5-2z" fill="#3D3E3F"/>
<path transform="translate(1454,582)" d="m0 0h1v8l-2 9-5 14-4 6-1-3 5-11 3-9z" fill="#99999A"/>
<path transform="translate(1422,329)" d="m0 0 3 4 3 9-2 2h-14l4-3h8l-2-8z" fill="#CFD0D1"/>
<path transform="translate(834,393)" d="m0 0h5v3l-12 4-1 1h-9l1-2 7-3 9-2z" fill="#CFD0D1"/>
<path transform="translate(1086,775)" d="m0 0h9v1l-14 2-3 1h-7l-4 1-18-1v-1l15-1 5-1z" fill="#E9E9EA"/>
<path transform="translate(974,613)" d="m0 0 5 1 4 6h-3v-2l-7 2-1 6-2-3v-7z" fill="#99999A"/>
<path transform="translate(793,740)" d="m0 0 23 8-2 2-9-2-13-5z" fill="#B8BABA"/>
<path transform="translate(1057,613)" d="m0 0h6l2 2v8l-2 3-2-7-3-1-5 2 2-5z" fill="#99999A"/>
<path transform="translate(1203,392)" d="m0 0 5 2 12 6h-9l-9-4-7-1 2-2h5z" fill="#CFD0D1"/>
<path transform="translate(568,556)" d="m0 0 3 1 3 9v6l-3 1-4-14z" fill="#9D9D9E"/>
<path transform="translate(1469,507)" d="m0 0 3 1 2 4-6 8-2 3-1-5 3-10z" fill="#99999A"/>
<path transform="translate(1115,342)" d="m0 0h1l2 10-1 9-2 3-2-12v-6z" fill="#B6B8B8"/>
<path transform="translate(935,293)" d="m0 0 3 1-6 19-3-1 1-7 4-11z" fill="#BBBDBD"/>
<path transform="translate(643,289)" d="m0 0h2l-2 5-6 7-4 4-5 1-3 2 2-4 4-4 7-4 3-4 2-1z" fill="#CFD0D1"/>
<path transform="translate(934,775)" d="m0 0 22 2 2 2-5 1-14-1-5-2z" fill="#BCBEBE"/>
<path transform="translate(1339,311)" d="m0 0h1v6h2l-1 8-3 6-5 4 5-15z" fill="#ACADAE"/>
<path transform="translate(983,644)" d="m0 0 3 4 5 9 3 5-3 1-10-15z" fill="#B3B5B5"/>
<path transform="translate(1378,643)" d="m0 0v3l-8 7-3 2 2-4 7-7zm-12 12m-1 1m-1 1m-1 1m-2 1 2 1-10 10-2 3h-2l2-4z" fill="#AAABAB"/>
<path transform="translate(1016,804)" d="m0 0h26l-4 2-14 1-13-1v-1z" fill="#99999A"/>
<path transform="translate(581,604)" d="m0 0h3l8 17-2 2-3-5-6-11z" fill="#9A9A9B"/>
<path transform="translate(1075,489)" d="m0 0h9v3l4-1-5 5-6 7-4 2-2-4h4l7-8 1-3h-8z" fill="#6C6D6D"/>
<path transform="translate(1063,316)" d="m0 0 5 3 5 12v3l-3 1-6-15z" fill="#B0B2B2"/>
<path transform="translate(941,275)" d="m0 0 3 1-3 10-3 7-3-1 2-7z" fill="#B8BABA"/>
<path transform="translate(983,195)" d="m0 0h20l-1 2-6 1h-15l2-1z" fill="#B2B3B4"/>
<path transform="translate(1148,410)" d="m0 0 19 1v1l-22 2h-5l3-3z" fill="#CFD0D1"/>
<path transform="translate(1125,389)" d="m0 0h2l3 24v3h-2l-2-10z" fill="#404142"/>
<path transform="translate(928,308)" d="m0 0 2 2-1 2h2l-1 8-1 2-3 1-2 3 1-8z" fill="#AAABAC"/>
<path transform="translate(757,246)" d="m0 0 4 1v3l-10 5-2-1v-3l4-3z" fill="#B0B2B2"/>
<path transform="translate(915,773)" d="m0 0 13 1 6 1v3l-18-2-2-2z" fill="#B7B9B9"/>
<path transform="translate(1117,357)" d="m0 0h2l2 16h-3l-2-3v-9z" fill="#AFB1B1"/>
<path transform="translate(1175,761)" d="m0 0 4 1-2 2-14 3-4 1v-3z" fill="#B7B9B9"/>
<path transform="translate(1165,796)" d="m0 0h3v2l9-1 1 2-21 4v-2l5-1-2-2z" fill="#4C4D4E"/>
<path transform="translate(652,368)" d="m0 0 3 3 6 11 5 8-4-2-7-10-3-7z" fill="#404142"/>
<path transform="translate(1152,745)" d="m0 0h4v2l-20 4h-5l2-1v-2z" fill="#787979"/>
<path transform="translate(1050,779)" d="m0 0h19l2 2-16 1h-6z" fill="#B7B9B9"/>
<path transform="translate(622,526)" d="m0 0h1l6 23 2 7-3-1-6-23z" fill="#7C7D7D"/>
<path transform="translate(883,207)" d="m0 0 2 1-3 3-13 2-2-3z" fill="#B5B7B7"/>
<path transform="translate(1364,381)" d="m0 0 2 1-5 5-4 3-12 5-2-1 15-8z" fill="#CFD0D1"/>
<path transform="translate(1209,467)" d="m0 0 3 1-2 1-1 2-9 2-9-1 4-2 8-1z" fill="#CFD0D1"/>
<path transform="translate(1073,411)" d="m0 0 4 1 8 6-4 3h-5l1-4-4-5z" fill="#B1B3B3"/>
<path transform="translate(921,334)" d="m0 0 4 1v9h-4l-2 4 1-9z" fill="#AFB1B1"/>
<path transform="translate(894,205)" d="m0 0h6l-1 3-11 2h-5l2-3z" fill="#B2B3B4"/>
<path transform="translate(1216,389)" d="m0 0 7 1 8 5 5 1-2 3v-2h-6l-12-7z" fill="#CFD0D1"/>
<path transform="translate(1098,669)" d="m0 0v3l-4 4h-19v-1l19-3z" fill="#99999A"/>
<path transform="translate(952,489)" d="m0 0h10l4 3-10 1-1 2-3-3z" fill="#4A4B4C"/>
<path transform="translate(1024,658)" d="m0 0 3 1v2l-5 2h-7l-3-1v-2z" fill="#B9BBBB"/>
<path transform="translate(1071,334)" d="m0 0h3l3 9-1 4-2 1-3-10z" fill="#B4B6B6"/>
<path transform="translate(1033,778)" d="m0 0h16l2 3-20-1z" fill="#CFD0D1"/>
<path transform="translate(996,646)" d="m0 0 5 5 8 6 5 2-4 2-6-4-8-8z" fill="#B0B1B1"/>
<path transform="translate(1038,646)" d="m0 0h2l-2 5-8 8-4 1 2-4 8-7z" fill="#B0B1B1"/>
<path transform="translate(1350,639)" d="m0 0 2 1-12 12-7 6-2-1 8-8 8-7z" fill="#A0A1A2"/>
<path transform="translate(969,321)" d="m0 0 1 2-5 13-2-4 1-6 3-4z" fill="#AFB1B1"/>
<path transform="translate(1131,770)" d="m0 0 3 1-1 2-9 2-5-1v-2z" fill="#BCBEBE"/>
<path transform="translate(1105,304)" d="m0 0 2 3 3 11-1 3h-2l-2-6z" fill="#AAACAC"/>
<path transform="translate(870,765)" d="m0 0 10 1 10 2v2l-10-1-9-2z" fill="#B7B9B9"/>
<path transform="translate(829,470)" d="m0 0 8 1v2l3 1v2l-12-2-1-3z" fill="#AEB0B0"/>
<path transform="translate(842,216)" d="m0 0 2 1-5 4-8 1v-3z" fill="#B6B7B8"/>
<path transform="translate(888,209)" d="m0 0h5l-1 2-9 2-14 1 3-2z" fill="#5B5C5C"/>
<path transform="translate(1243,739)" d="m0 0 2 1-1 3-9 3-5 1 1-2h2v-2z" fill="#B6B8B8"/>
<path transform="translate(1108,320)" d="m0 0 3 2 2 10-4-1-2-10z" fill="#B3B5B5"/>
<path transform="translate(788,233)" d="m0 0 6 2-3 2-10 3 2-5z" fill="#ACAEAE"/>
<path transform="translate(970,779)" d="m0 0h10l7 2v1h-13l-5-1z" fill="#B6B8B8"/>
<path transform="translate(1111,773)" d="m0 0h8v3l-13 1 1-3z" fill="#B8B9BA"/>
<path transform="translate(875,412)" d="m0 0h20l2 3-12-1-10-1z" fill="#CFD0D1"/>
<path transform="translate(1076,346)" d="m0 0h2l3 11h-3l-2-2-1-8z" fill="#B7B9B9"/>
<path transform="translate(1100,295)" d="m0 0h2l4 13-2 4-4-13z" fill="#B9BBBB"/>
<path transform="translate(1036,195)" d="m0 0h12l1 3h-10l-4-2z" fill="#ADAFAF"/>
<path transform="translate(847,736)" d="m0 0h7l10 3-4 1-10-1-3-1z" fill="#898A8A"/>
<path transform="translate(573,572)" d="m0 0h2l2 10-3 2-3-11z" fill="#9A9A9B"/>
<path transform="translate(1410,540)" d="m0 0 1 4-3 10-3 1 2-9z" fill="#787979"/>
<path transform="translate(1118,371)" d="m0 0 3 2v7l-3 2-1-3v-6z" fill="#B8BABA"/>
<path transform="translate(647,338)" d="m0 0 4 1v15h-1l-1-12-3-1-1 5-1-4z" fill="#99999A"/>
<path transform="translate(1067,197)" d="m0 0h9l1 3-20-1v-1z" fill="#ABACAD"/>
<path transform="translate(1e3 803)" d="m0 0h6v4h-9v-3z" fill="#9B9B9C"/>
<path transform="translate(550,502)" d="m0 0 3 1 5 11-1 4-4-8-3-7z" fill="#99999A"/>
<path transform="translate(897,385)" d="m0 0h1l-1 8-1 9-2-1v-7z" fill="#565758"/>
<path transform="translate(1084,404)" d="m0 0h2l1 14-4-1h2l-1-4z" fill="#414243"/>
<path transform="translate(1336,331)" d="m0 0 2 1-6 11-3 2 1-4z" fill="#B7B9B9"/>
<path transform="translate(1143,206)" d="m0 0 11 2-1 2-11-1z" fill="#B1B3B3"/>
<path transform="translate(746,728)" d="m0 0 5 2 4 5 3 2v2l-4-1-4-5v-2l-4-2z" fill="#99999A"/>
<path transform="translate(670,660)" d="m0 0 4 2 8 7-2 3v-2h-2l-4-4v-2l-3-1z" fill="#D0D1D2"/>
<path transform="translate(1385,639)" d="m0 0 4 1-4 4-4 3-2-4z" fill="#CFD0D1"/>
<path transform="translate(1385,338)" d="m0 0 4 1 3 5-1 4-3-6-2-1v7h-1z" fill="#99999A"/>
<path transform="translate(630,300)" d="m0 0h5l-2 4-5 2-3 2 2-4z" fill="#C3C5C5"/>
<path transform="translate(873,213)" d="m0 0h5l-4 2-8 2-6-1 4-2z" fill="#4D4E4F"/>
<path transform="translate(947,777)" d="m0 0h9l2 2-5 1-7-1z" fill="#BABCBC"/>
<path transform="translate(1079,725)" d="m0 0 1 2-6 9h-2l2-5z" fill="#99999A"/>
<path transform="translate(1049,621)" d="m0 0 1 3-3 6-4 2 2-6 2-4z" fill="#565758"/>
<path transform="translate(581,604)" d="m0 0h3l3 6v4l-3-1-3-6z" fill="#9B9B9C"/>
<path transform="translate(955,197)" d="m0 0 4 1-2 2h-11l-1-2z" fill="#BBBDBD"/>
<path transform="translate(904,771)" d="m0 0 10 1 1 2-5 1-7-2z" fill="#BBBDBD"/>
<path transform="translate(1128,749)" d="m0 0h5l-4 3-3 1h-8v-1h5v-2z" fill="#808181"/>
<path transform="translate(1056,660)" d="m0 0h2v10l1 3h-3l-1-2v-9z" fill="#99999A"/>
<path transform="translate(1208,470)" d="m0 0m-3 0 6 2v1l-12 2 1-3z" fill="#ACADAE"/>
<path transform="translate(1105,200)" d="m0 0 12 2-1 2-10-1z" fill="#B7B9B9"/>
<path transform="translate(938,199)" d="m0 0h8l6 1v1l-15 1z" fill="#ACADAD"/>
<path transform="translate(577,592)" d="m0 0h3l2 10-2 1-2-4z" fill="#99999A"/>
</svg>
