<svg xmlns="http://www.w3.org/2000/svg" width="0" height="0" fill="currentColor" class="bi bi-envelope" viewBox="0 0 24 24">
<defs>
    <symbol id="icon-check" viewBox="0 0 24 24">
        <path d="M13.854 3.646a.5.5 0 0 1 0 .708l-7 7a.5.5 0 0 1-.708 0l-3.5-3.5a.5.5 0 1 1 .708-.708L6.5 10.293l6.646-6.647a.5.5 0 0 1 .708 0"/>
    </symbol>
    <symbol id="icon-car" viewBox="0 0 24 24">
        <path d="M2.52 3.515A2.5 2.5 0 0 1 4.82 2h6.362c1 0 1.904.596 2.298 1.515l.792 1.848c.075.175.21.319.38.404.5.25.855.715.965 1.262l.335 1.679q.05.242.049.49v.413c0 .814-.39 1.543-1 1.997V13.5a.5.5 0 0 1-.5.5h-2a.5.5 0 0 1-.5-.5v-1.338c-1.292.048-2.745.088-4 .088s-2.708-.04-4-.088V13.5a.5.5 0 0 1-.5.5h-2a.5.5 0 0 1-.5-.5v-1.892c-.61-.454-1-1.183-1-1.997v-.413a2.5 2.5 0 0 1 .049-.49l.335-1.68c.11-.546.465-1.012.964-1.261a.8.8 0 0 0 .381-.404l.792-1.848ZM3 10a1 1 0 1 0 0-2 1 1 0 0 0 0 2m10 0a1 1 0 1 0 0-2 1 1 0 0 0 0 2M6 8a1 1 0 0 0 0 2h4a1 1 0 1 0 0-2zM2.906 5.189a.51.51 0 0 0 .497.731c.91-.073 3.35-.17 4.597-.17s3.688.097 4.597.17a.51.51 0 0 0 .497-.731l-.956-1.913A.5.5 0 0 0 11.691 3H4.309a.5.5 0 0 0-.447.276L2.906 5.19Z"/>
    </symbol>   
    <symbol id="icon-bicycle" viewBox="0 0 24 24">
        <path d="M4 4.5a.5.5 0 0 1 .5-.5H6a.5.5 0 0 1 0 1v.5h4.14l.386-1.158A.5.5 0 0 1 11 4h1a.5.5 0 0 1 0 1h-.64l-.311.935.807 1.29a3 3 0 1 1-.848.53l-.508-.812-2.076 3.322A.5.5 0 0 1 8 10.5H5.959a3 3 0 1 1-1.815-3.274L5 5.856V5h-.5a.5.5 0 0 1-.5-.5m1.5 2.443-.508.814c.5.444.85 1.054.967 1.743h1.139zM8 9.057 9.598 6.5H6.402zM4.937 9.5a2 2 0 0 0-.487-.877l-.548.877zM3.603 8.092A2 2 0 1 0 4.937 10.5H3a.5.5 0 0 1-.424-.765zm7.947.53a2 2 0 1 0 .848-.53l1.026 1.643a.5.5 0 1 1-.848.53z"/>
    </symbol>
    <symbol id="icon-plane" viewBox="0 0 24 24">
      <path d="M6.428 1.151C6.708.591 7.213 0 8 0s1.292.592 1.572 1.151C9.861 1.73 10 2.431 10 3v3.691l5.17 2.585a1.5 1.5 0 0 1 .83 1.342V12a.5.5 0 0 1-.582.493l-5.507-.918-.375 2.253 1.318 1.318A.5.5 0 0 1 10.5 16h-5a.5.5 0 0 1-.354-.854l1.319-1.318-.376-2.253-5.507.918A.5.5 0 0 1 0 12v-1.382a1.5 1.5 0 0 1 .83-1.342L6 6.691V3c0-.568.14-1.271.428-1.849m.894.448C7.111 2.02 7 2.569 7 3v4a.5.5 0 0 1-.276.447l-5.448 2.724a.5.5 0 0 0-.276.447v.792l5.418-.903a.5.5 0 0 1 .575.41l.5 3a.5.5 0 0 1-.14.437L6.708 15h2.586l-.647-.646a.5.5 0 0 1-.14-.436l.5-3a.5.5 0 0 1 .576-.411L15 11.41v-.792a.5.5 0 0 0-.276-.447L9.276 7.447A.5.5 0 0 1 9 7V3c0-.432-.11-.979-.322-1.401C8.458 1.159 8.213 1 8 1s-.458.158-.678.599"/>
    </symbol>
            
</svg>
    